G04 #@! TF.GenerationSoftware,KiCad,Pcbnew,5.0.2+dfsg1-1*
G04 #@! TF.CreationDate,2019-12-18T15:50:12+01:00*
G04 #@! TF.ProjectId,gausskanone,67617573-736b-4616-9e6f-6e652e6b6963,rev?*
G04 #@! TF.SameCoordinates,Original*
G04 #@! TF.FileFunction,Soldermask,Bot*
G04 #@! TF.FilePolarity,Negative*
%FSLAX46Y46*%
G04 Gerber Fmt 4.6, Leading zero omitted, Abs format (unit mm)*
G04 Created by KiCad (PCBNEW 5.0.2+dfsg1-1) date Mi 18 Dez 2019 15:50:12 CET*
%MOMM*%
%LPD*%
G01*
G04 APERTURE LIST*
%ADD10C,0.100000*%
G04 APERTURE END LIST*
D10*
G36*
X129846565Y-142395389D02*
X130037834Y-142474615D01*
X130209976Y-142589637D01*
X130356363Y-142736024D01*
X130471385Y-142908166D01*
X130550611Y-143099435D01*
X130591000Y-143302484D01*
X130591000Y-143509516D01*
X130550611Y-143712565D01*
X130471385Y-143903834D01*
X130356363Y-144075976D01*
X130209976Y-144222363D01*
X130037834Y-144337385D01*
X129846565Y-144416611D01*
X129643516Y-144457000D01*
X129436484Y-144457000D01*
X129233435Y-144416611D01*
X129042166Y-144337385D01*
X128870024Y-144222363D01*
X128723637Y-144075976D01*
X128608615Y-143903834D01*
X128529389Y-143712565D01*
X128489000Y-143509516D01*
X128489000Y-143302484D01*
X128529389Y-143099435D01*
X128608615Y-142908166D01*
X128723637Y-142736024D01*
X128870024Y-142589637D01*
X129042166Y-142474615D01*
X129233435Y-142395389D01*
X129436484Y-142355000D01*
X129643516Y-142355000D01*
X129846565Y-142395389D01*
X129846565Y-142395389D01*
G37*
G36*
X125346565Y-142395389D02*
X125537834Y-142474615D01*
X125709976Y-142589637D01*
X125856363Y-142736024D01*
X125971385Y-142908166D01*
X126050611Y-143099435D01*
X126091000Y-143302484D01*
X126091000Y-143509516D01*
X126050611Y-143712565D01*
X125971385Y-143903834D01*
X125856363Y-144075976D01*
X125709976Y-144222363D01*
X125537834Y-144337385D01*
X125346565Y-144416611D01*
X125143516Y-144457000D01*
X124936484Y-144457000D01*
X124733435Y-144416611D01*
X124542166Y-144337385D01*
X124370024Y-144222363D01*
X124223637Y-144075976D01*
X124108615Y-143903834D01*
X124029389Y-143712565D01*
X123989000Y-143509516D01*
X123989000Y-143302484D01*
X124029389Y-143099435D01*
X124108615Y-142908166D01*
X124223637Y-142736024D01*
X124370024Y-142589637D01*
X124542166Y-142474615D01*
X124733435Y-142395389D01*
X124936484Y-142355000D01*
X125143516Y-142355000D01*
X125346565Y-142395389D01*
X125346565Y-142395389D01*
G37*
G36*
X114918443Y-142105519D02*
X114984627Y-142112037D01*
X115097853Y-142146384D01*
X115154467Y-142163557D01*
X115293087Y-142237652D01*
X115310991Y-142247222D01*
X115346729Y-142276552D01*
X115448186Y-142359814D01*
X115531448Y-142461271D01*
X115560778Y-142497009D01*
X115560779Y-142497011D01*
X115644443Y-142653533D01*
X115644443Y-142653534D01*
X115695963Y-142823373D01*
X115713359Y-143000000D01*
X115695963Y-143176627D01*
X115661616Y-143289853D01*
X115644443Y-143346467D01*
X115570348Y-143485087D01*
X115560778Y-143502991D01*
X115555423Y-143509516D01*
X115448186Y-143640186D01*
X115346729Y-143723448D01*
X115310991Y-143752778D01*
X115310989Y-143752779D01*
X115154467Y-143836443D01*
X115097853Y-143853616D01*
X114984627Y-143887963D01*
X114918442Y-143894482D01*
X114852260Y-143901000D01*
X114763740Y-143901000D01*
X114697558Y-143894482D01*
X114631373Y-143887963D01*
X114518147Y-143853616D01*
X114461533Y-143836443D01*
X114305011Y-143752779D01*
X114305009Y-143752778D01*
X114269271Y-143723448D01*
X114167814Y-143640186D01*
X114060577Y-143509516D01*
X114055222Y-143502991D01*
X114045652Y-143485087D01*
X113971557Y-143346467D01*
X113954384Y-143289853D01*
X113920037Y-143176627D01*
X113902641Y-143000000D01*
X113920037Y-142823373D01*
X113971557Y-142653534D01*
X113971557Y-142653533D01*
X114055221Y-142497011D01*
X114055222Y-142497009D01*
X114084552Y-142461271D01*
X114167814Y-142359814D01*
X114269271Y-142276552D01*
X114305009Y-142247222D01*
X114322913Y-142237652D01*
X114461533Y-142163557D01*
X114518147Y-142146384D01*
X114631373Y-142112037D01*
X114697557Y-142105519D01*
X114763740Y-142099000D01*
X114852260Y-142099000D01*
X114918443Y-142105519D01*
X114918443Y-142105519D01*
G37*
G36*
X112378443Y-142105519D02*
X112444627Y-142112037D01*
X112557853Y-142146384D01*
X112614467Y-142163557D01*
X112753087Y-142237652D01*
X112770991Y-142247222D01*
X112806729Y-142276552D01*
X112908186Y-142359814D01*
X112991448Y-142461271D01*
X113020778Y-142497009D01*
X113020779Y-142497011D01*
X113104443Y-142653533D01*
X113104443Y-142653534D01*
X113155963Y-142823373D01*
X113173359Y-143000000D01*
X113155963Y-143176627D01*
X113121616Y-143289853D01*
X113104443Y-143346467D01*
X113030348Y-143485087D01*
X113020778Y-143502991D01*
X113015423Y-143509516D01*
X112908186Y-143640186D01*
X112806729Y-143723448D01*
X112770991Y-143752778D01*
X112770989Y-143752779D01*
X112614467Y-143836443D01*
X112557853Y-143853616D01*
X112444627Y-143887963D01*
X112378442Y-143894482D01*
X112312260Y-143901000D01*
X112223740Y-143901000D01*
X112157558Y-143894482D01*
X112091373Y-143887963D01*
X111978147Y-143853616D01*
X111921533Y-143836443D01*
X111765011Y-143752779D01*
X111765009Y-143752778D01*
X111729271Y-143723448D01*
X111627814Y-143640186D01*
X111520577Y-143509516D01*
X111515222Y-143502991D01*
X111505652Y-143485087D01*
X111431557Y-143346467D01*
X111414384Y-143289853D01*
X111380037Y-143176627D01*
X111362641Y-143000000D01*
X111380037Y-142823373D01*
X111431557Y-142653534D01*
X111431557Y-142653533D01*
X111515221Y-142497011D01*
X111515222Y-142497009D01*
X111544552Y-142461271D01*
X111627814Y-142359814D01*
X111729271Y-142276552D01*
X111765009Y-142247222D01*
X111782913Y-142237652D01*
X111921533Y-142163557D01*
X111978147Y-142146384D01*
X112091373Y-142112037D01*
X112157557Y-142105519D01*
X112223740Y-142099000D01*
X112312260Y-142099000D01*
X112378443Y-142105519D01*
X112378443Y-142105519D01*
G37*
G36*
X120789000Y-143901000D02*
X118987000Y-143901000D01*
X118987000Y-142099000D01*
X120789000Y-142099000D01*
X120789000Y-143901000D01*
X120789000Y-143901000D01*
G37*
G36*
X117458443Y-142105519D02*
X117524627Y-142112037D01*
X117637853Y-142146384D01*
X117694467Y-142163557D01*
X117833087Y-142237652D01*
X117850991Y-142247222D01*
X117886729Y-142276552D01*
X117988186Y-142359814D01*
X118071448Y-142461271D01*
X118100778Y-142497009D01*
X118100779Y-142497011D01*
X118184443Y-142653533D01*
X118184443Y-142653534D01*
X118235963Y-142823373D01*
X118253359Y-143000000D01*
X118235963Y-143176627D01*
X118201616Y-143289853D01*
X118184443Y-143346467D01*
X118110348Y-143485087D01*
X118100778Y-143502991D01*
X118095423Y-143509516D01*
X117988186Y-143640186D01*
X117886729Y-143723448D01*
X117850991Y-143752778D01*
X117850989Y-143752779D01*
X117694467Y-143836443D01*
X117637853Y-143853616D01*
X117524627Y-143887963D01*
X117458442Y-143894482D01*
X117392260Y-143901000D01*
X117303740Y-143901000D01*
X117237558Y-143894482D01*
X117171373Y-143887963D01*
X117058147Y-143853616D01*
X117001533Y-143836443D01*
X116845011Y-143752779D01*
X116845009Y-143752778D01*
X116809271Y-143723448D01*
X116707814Y-143640186D01*
X116600577Y-143509516D01*
X116595222Y-143502991D01*
X116585652Y-143485087D01*
X116511557Y-143346467D01*
X116494384Y-143289853D01*
X116460037Y-143176627D01*
X116442641Y-143000000D01*
X116460037Y-142823373D01*
X116511557Y-142653534D01*
X116511557Y-142653533D01*
X116595221Y-142497011D01*
X116595222Y-142497009D01*
X116624552Y-142461271D01*
X116707814Y-142359814D01*
X116809271Y-142276552D01*
X116845009Y-142247222D01*
X116862913Y-142237652D01*
X117001533Y-142163557D01*
X117058147Y-142146384D01*
X117171373Y-142112037D01*
X117237557Y-142105519D01*
X117303740Y-142099000D01*
X117392260Y-142099000D01*
X117458443Y-142105519D01*
X117458443Y-142105519D01*
G37*
G36*
X150851000Y-141851000D02*
X149149000Y-141851000D01*
X149149000Y-140149000D01*
X150851000Y-140149000D01*
X150851000Y-141851000D01*
X150851000Y-141851000D01*
G37*
G36*
X134926821Y-140161313D02*
X134926824Y-140161314D01*
X134926825Y-140161314D01*
X135087239Y-140209975D01*
X135087241Y-140209976D01*
X135087244Y-140209977D01*
X135235078Y-140288995D01*
X135364659Y-140395341D01*
X135471005Y-140524922D01*
X135550023Y-140672756D01*
X135598687Y-140833179D01*
X135615117Y-141000000D01*
X135598687Y-141166821D01*
X135550023Y-141327244D01*
X135471005Y-141475078D01*
X135364659Y-141604659D01*
X135235078Y-141711005D01*
X135087244Y-141790023D01*
X135087241Y-141790024D01*
X135087239Y-141790025D01*
X134926825Y-141838686D01*
X134926824Y-141838686D01*
X134926821Y-141838687D01*
X134801804Y-141851000D01*
X134718196Y-141851000D01*
X134593179Y-141838687D01*
X134593176Y-141838686D01*
X134593175Y-141838686D01*
X134432761Y-141790025D01*
X134432759Y-141790024D01*
X134432756Y-141790023D01*
X134284922Y-141711005D01*
X134155341Y-141604659D01*
X134048995Y-141475078D01*
X133969977Y-141327244D01*
X133921313Y-141166821D01*
X133904883Y-141000000D01*
X133921313Y-140833179D01*
X133969977Y-140672756D01*
X134048995Y-140524922D01*
X134155341Y-140395341D01*
X134284922Y-140288995D01*
X134432756Y-140209977D01*
X134432759Y-140209976D01*
X134432761Y-140209975D01*
X134593175Y-140161314D01*
X134593176Y-140161314D01*
X134593179Y-140161313D01*
X134718196Y-140149000D01*
X134801804Y-140149000D01*
X134926821Y-140161313D01*
X134926821Y-140161313D01*
G37*
G36*
X106965000Y-141001000D02*
X104363000Y-141001000D01*
X104363000Y-138399000D01*
X106965000Y-138399000D01*
X106965000Y-141001000D01*
X106965000Y-141001000D01*
G37*
G36*
X90803485Y-138448996D02*
X90803487Y-138448997D01*
X90803488Y-138448997D01*
X91040255Y-138547069D01*
X91253342Y-138689449D01*
X91434551Y-138870658D01*
X91434553Y-138870661D01*
X91576931Y-139083745D01*
X91675003Y-139320512D01*
X91725000Y-139571863D01*
X91725000Y-139828137D01*
X91675003Y-140079488D01*
X91620953Y-140209977D01*
X91576931Y-140316255D01*
X91434551Y-140529342D01*
X91253342Y-140710551D01*
X91253339Y-140710553D01*
X91040255Y-140852931D01*
X90803488Y-140951003D01*
X90803487Y-140951003D01*
X90803485Y-140951004D01*
X90552139Y-141001000D01*
X90295861Y-141001000D01*
X90044515Y-140951004D01*
X90044513Y-140951003D01*
X90044512Y-140951003D01*
X89807745Y-140852931D01*
X89594661Y-140710553D01*
X89594658Y-140710551D01*
X89413449Y-140529342D01*
X89271069Y-140316255D01*
X89227047Y-140209977D01*
X89172997Y-140079488D01*
X89123000Y-139828137D01*
X89123000Y-139571863D01*
X89172997Y-139320512D01*
X89271069Y-139083745D01*
X89413447Y-138870661D01*
X89413449Y-138870658D01*
X89594658Y-138689449D01*
X89807745Y-138547069D01*
X90044512Y-138448997D01*
X90044513Y-138448997D01*
X90044515Y-138448996D01*
X90295861Y-138399000D01*
X90552139Y-138399000D01*
X90803485Y-138448996D01*
X90803485Y-138448996D01*
G37*
G36*
X95883485Y-138448996D02*
X95883487Y-138448997D01*
X95883488Y-138448997D01*
X96120255Y-138547069D01*
X96333342Y-138689449D01*
X96514551Y-138870658D01*
X96514553Y-138870661D01*
X96656931Y-139083745D01*
X96755003Y-139320512D01*
X96805000Y-139571863D01*
X96805000Y-139828137D01*
X96755003Y-140079488D01*
X96700953Y-140209977D01*
X96656931Y-140316255D01*
X96514551Y-140529342D01*
X96333342Y-140710551D01*
X96333339Y-140710553D01*
X96120255Y-140852931D01*
X95883488Y-140951003D01*
X95883487Y-140951003D01*
X95883485Y-140951004D01*
X95632139Y-141001000D01*
X95375861Y-141001000D01*
X95124515Y-140951004D01*
X95124513Y-140951003D01*
X95124512Y-140951003D01*
X94887745Y-140852931D01*
X94674661Y-140710553D01*
X94674658Y-140710551D01*
X94493449Y-140529342D01*
X94351069Y-140316255D01*
X94307047Y-140209977D01*
X94252997Y-140079488D01*
X94203000Y-139828137D01*
X94203000Y-139571863D01*
X94252997Y-139320512D01*
X94351069Y-139083745D01*
X94493447Y-138870661D01*
X94493449Y-138870658D01*
X94674658Y-138689449D01*
X94887745Y-138547069D01*
X95124512Y-138448997D01*
X95124513Y-138448997D01*
X95124515Y-138448996D01*
X95375861Y-138399000D01*
X95632139Y-138399000D01*
X95883485Y-138448996D01*
X95883485Y-138448996D01*
G37*
G36*
X100963485Y-138448996D02*
X100963487Y-138448997D01*
X100963488Y-138448997D01*
X101200255Y-138547069D01*
X101413342Y-138689449D01*
X101594551Y-138870658D01*
X101594553Y-138870661D01*
X101736931Y-139083745D01*
X101835003Y-139320512D01*
X101885000Y-139571863D01*
X101885000Y-139828137D01*
X101835003Y-140079488D01*
X101780953Y-140209977D01*
X101736931Y-140316255D01*
X101594551Y-140529342D01*
X101413342Y-140710551D01*
X101413339Y-140710553D01*
X101200255Y-140852931D01*
X100963488Y-140951003D01*
X100963487Y-140951003D01*
X100963485Y-140951004D01*
X100712139Y-141001000D01*
X100455861Y-141001000D01*
X100204515Y-140951004D01*
X100204513Y-140951003D01*
X100204512Y-140951003D01*
X99967745Y-140852931D01*
X99754661Y-140710553D01*
X99754658Y-140710551D01*
X99573449Y-140529342D01*
X99431069Y-140316255D01*
X99387047Y-140209977D01*
X99332997Y-140079488D01*
X99283000Y-139828137D01*
X99283000Y-139571863D01*
X99332997Y-139320512D01*
X99431069Y-139083745D01*
X99573447Y-138870661D01*
X99573449Y-138870658D01*
X99754658Y-138689449D01*
X99967745Y-138547069D01*
X100204512Y-138448997D01*
X100204513Y-138448997D01*
X100204515Y-138448996D01*
X100455861Y-138399000D01*
X100712139Y-138399000D01*
X100963485Y-138448996D01*
X100963485Y-138448996D01*
G37*
G36*
X134926821Y-137621313D02*
X134926824Y-137621314D01*
X134926825Y-137621314D01*
X135087239Y-137669975D01*
X135087241Y-137669976D01*
X135087244Y-137669977D01*
X135235078Y-137748995D01*
X135364659Y-137855341D01*
X135471005Y-137984922D01*
X135550023Y-138132756D01*
X135598687Y-138293179D01*
X135615117Y-138460000D01*
X135598687Y-138626821D01*
X135550023Y-138787244D01*
X135471005Y-138935078D01*
X135364659Y-139064659D01*
X135235078Y-139171005D01*
X135087244Y-139250023D01*
X135087241Y-139250024D01*
X135087239Y-139250025D01*
X134926825Y-139298686D01*
X134926824Y-139298686D01*
X134926821Y-139298687D01*
X134801804Y-139311000D01*
X134718196Y-139311000D01*
X134593179Y-139298687D01*
X134593176Y-139298686D01*
X134593175Y-139298686D01*
X134432761Y-139250025D01*
X134432759Y-139250024D01*
X134432756Y-139250023D01*
X134284922Y-139171005D01*
X134155341Y-139064659D01*
X134048995Y-138935078D01*
X133969977Y-138787244D01*
X133921313Y-138626821D01*
X133904883Y-138460000D01*
X133921313Y-138293179D01*
X133969977Y-138132756D01*
X134048995Y-137984922D01*
X134155341Y-137855341D01*
X134284922Y-137748995D01*
X134432756Y-137669977D01*
X134432759Y-137669976D01*
X134432761Y-137669975D01*
X134593175Y-137621314D01*
X134593176Y-137621314D01*
X134593179Y-137621313D01*
X134718196Y-137609000D01*
X134801804Y-137609000D01*
X134926821Y-137621313D01*
X134926821Y-137621313D01*
G37*
G36*
X150166821Y-137621313D02*
X150166824Y-137621314D01*
X150166825Y-137621314D01*
X150327239Y-137669975D01*
X150327241Y-137669976D01*
X150327244Y-137669977D01*
X150475078Y-137748995D01*
X150604659Y-137855341D01*
X150711005Y-137984922D01*
X150790023Y-138132756D01*
X150838687Y-138293179D01*
X150855117Y-138460000D01*
X150838687Y-138626821D01*
X150790023Y-138787244D01*
X150711005Y-138935078D01*
X150604659Y-139064659D01*
X150475078Y-139171005D01*
X150327244Y-139250023D01*
X150327241Y-139250024D01*
X150327239Y-139250025D01*
X150166825Y-139298686D01*
X150166824Y-139298686D01*
X150166821Y-139298687D01*
X150041804Y-139311000D01*
X149958196Y-139311000D01*
X149833179Y-139298687D01*
X149833176Y-139298686D01*
X149833175Y-139298686D01*
X149672761Y-139250025D01*
X149672759Y-139250024D01*
X149672756Y-139250023D01*
X149524922Y-139171005D01*
X149395341Y-139064659D01*
X149288995Y-138935078D01*
X149209977Y-138787244D01*
X149161313Y-138626821D01*
X149144883Y-138460000D01*
X149161313Y-138293179D01*
X149209977Y-138132756D01*
X149288995Y-137984922D01*
X149395341Y-137855341D01*
X149524922Y-137748995D01*
X149672756Y-137669977D01*
X149672759Y-137669976D01*
X149672761Y-137669975D01*
X149833175Y-137621314D01*
X149833176Y-137621314D01*
X149833179Y-137621313D01*
X149958196Y-137609000D01*
X150041804Y-137609000D01*
X150166821Y-137621313D01*
X150166821Y-137621313D01*
G37*
G36*
X129846565Y-135895389D02*
X130037834Y-135974615D01*
X130209976Y-136089637D01*
X130356363Y-136236024D01*
X130471385Y-136408166D01*
X130550611Y-136599435D01*
X130591000Y-136802484D01*
X130591000Y-137009516D01*
X130550611Y-137212565D01*
X130471385Y-137403834D01*
X130356363Y-137575976D01*
X130209976Y-137722363D01*
X130037834Y-137837385D01*
X129846565Y-137916611D01*
X129643516Y-137957000D01*
X129436484Y-137957000D01*
X129233435Y-137916611D01*
X129042166Y-137837385D01*
X128870024Y-137722363D01*
X128723637Y-137575976D01*
X128608615Y-137403834D01*
X128529389Y-137212565D01*
X128489000Y-137009516D01*
X128489000Y-136802484D01*
X128529389Y-136599435D01*
X128608615Y-136408166D01*
X128723637Y-136236024D01*
X128870024Y-136089637D01*
X129042166Y-135974615D01*
X129233435Y-135895389D01*
X129436484Y-135855000D01*
X129643516Y-135855000D01*
X129846565Y-135895389D01*
X129846565Y-135895389D01*
G37*
G36*
X125346565Y-135895389D02*
X125537834Y-135974615D01*
X125709976Y-136089637D01*
X125856363Y-136236024D01*
X125971385Y-136408166D01*
X126050611Y-136599435D01*
X126091000Y-136802484D01*
X126091000Y-137009516D01*
X126050611Y-137212565D01*
X125971385Y-137403834D01*
X125856363Y-137575976D01*
X125709976Y-137722363D01*
X125537834Y-137837385D01*
X125346565Y-137916611D01*
X125143516Y-137957000D01*
X124936484Y-137957000D01*
X124733435Y-137916611D01*
X124542166Y-137837385D01*
X124370024Y-137722363D01*
X124223637Y-137575976D01*
X124108615Y-137403834D01*
X124029389Y-137212565D01*
X123989000Y-137009516D01*
X123989000Y-136802484D01*
X124029389Y-136599435D01*
X124108615Y-136408166D01*
X124223637Y-136236024D01*
X124370024Y-136089637D01*
X124542166Y-135974615D01*
X124733435Y-135895389D01*
X124936484Y-135855000D01*
X125143516Y-135855000D01*
X125346565Y-135895389D01*
X125346565Y-135895389D01*
G37*
G36*
X150166821Y-135081313D02*
X150166824Y-135081314D01*
X150166825Y-135081314D01*
X150327239Y-135129975D01*
X150327241Y-135129976D01*
X150327244Y-135129977D01*
X150475078Y-135208995D01*
X150604659Y-135315341D01*
X150711005Y-135444922D01*
X150790023Y-135592756D01*
X150838687Y-135753179D01*
X150855117Y-135920000D01*
X150838687Y-136086821D01*
X150838686Y-136086824D01*
X150838686Y-136086825D01*
X150837834Y-136089635D01*
X150790023Y-136247244D01*
X150711005Y-136395078D01*
X150604659Y-136524659D01*
X150475078Y-136631005D01*
X150327244Y-136710023D01*
X150327241Y-136710024D01*
X150327239Y-136710025D01*
X150166825Y-136758686D01*
X150166824Y-136758686D01*
X150166821Y-136758687D01*
X150041804Y-136771000D01*
X149958196Y-136771000D01*
X149833179Y-136758687D01*
X149833176Y-136758686D01*
X149833175Y-136758686D01*
X149672761Y-136710025D01*
X149672759Y-136710024D01*
X149672756Y-136710023D01*
X149524922Y-136631005D01*
X149395341Y-136524659D01*
X149288995Y-136395078D01*
X149209977Y-136247244D01*
X149162167Y-136089635D01*
X149161314Y-136086825D01*
X149161314Y-136086824D01*
X149161313Y-136086821D01*
X149144883Y-135920000D01*
X149161313Y-135753179D01*
X149209977Y-135592756D01*
X149288995Y-135444922D01*
X149395341Y-135315341D01*
X149524922Y-135208995D01*
X149672756Y-135129977D01*
X149672759Y-135129976D01*
X149672761Y-135129975D01*
X149833175Y-135081314D01*
X149833176Y-135081314D01*
X149833179Y-135081313D01*
X149958196Y-135069000D01*
X150041804Y-135069000D01*
X150166821Y-135081313D01*
X150166821Y-135081313D01*
G37*
G36*
X134926821Y-135081313D02*
X134926824Y-135081314D01*
X134926825Y-135081314D01*
X135087239Y-135129975D01*
X135087241Y-135129976D01*
X135087244Y-135129977D01*
X135235078Y-135208995D01*
X135364659Y-135315341D01*
X135471005Y-135444922D01*
X135550023Y-135592756D01*
X135598687Y-135753179D01*
X135615117Y-135920000D01*
X135598687Y-136086821D01*
X135598686Y-136086824D01*
X135598686Y-136086825D01*
X135597834Y-136089635D01*
X135550023Y-136247244D01*
X135471005Y-136395078D01*
X135364659Y-136524659D01*
X135235078Y-136631005D01*
X135087244Y-136710023D01*
X135087241Y-136710024D01*
X135087239Y-136710025D01*
X134926825Y-136758686D01*
X134926824Y-136758686D01*
X134926821Y-136758687D01*
X134801804Y-136771000D01*
X134718196Y-136771000D01*
X134593179Y-136758687D01*
X134593176Y-136758686D01*
X134593175Y-136758686D01*
X134432761Y-136710025D01*
X134432759Y-136710024D01*
X134432756Y-136710023D01*
X134284922Y-136631005D01*
X134155341Y-136524659D01*
X134048995Y-136395078D01*
X133969977Y-136247244D01*
X133922167Y-136089635D01*
X133921314Y-136086825D01*
X133921314Y-136086824D01*
X133921313Y-136086821D01*
X133904883Y-135920000D01*
X133921313Y-135753179D01*
X133969977Y-135592756D01*
X134048995Y-135444922D01*
X134155341Y-135315341D01*
X134284922Y-135208995D01*
X134432756Y-135129977D01*
X134432759Y-135129976D01*
X134432761Y-135129975D01*
X134593175Y-135081314D01*
X134593176Y-135081314D01*
X134593179Y-135081313D01*
X134718196Y-135069000D01*
X134801804Y-135069000D01*
X134926821Y-135081313D01*
X134926821Y-135081313D01*
G37*
G36*
X134926821Y-132541313D02*
X134926824Y-132541314D01*
X134926825Y-132541314D01*
X135087239Y-132589975D01*
X135087241Y-132589976D01*
X135087244Y-132589977D01*
X135235078Y-132668995D01*
X135364659Y-132775341D01*
X135471005Y-132904922D01*
X135550023Y-133052756D01*
X135598687Y-133213179D01*
X135615117Y-133380000D01*
X135598687Y-133546821D01*
X135550023Y-133707244D01*
X135471005Y-133855078D01*
X135364659Y-133984659D01*
X135235078Y-134091005D01*
X135087244Y-134170023D01*
X135087241Y-134170024D01*
X135087239Y-134170025D01*
X134926825Y-134218686D01*
X134926824Y-134218686D01*
X134926821Y-134218687D01*
X134801804Y-134231000D01*
X134718196Y-134231000D01*
X134593179Y-134218687D01*
X134593176Y-134218686D01*
X134593175Y-134218686D01*
X134432761Y-134170025D01*
X134432759Y-134170024D01*
X134432756Y-134170023D01*
X134284922Y-134091005D01*
X134155341Y-133984659D01*
X134048995Y-133855078D01*
X133969977Y-133707244D01*
X133921313Y-133546821D01*
X133904883Y-133380000D01*
X133921313Y-133213179D01*
X133969977Y-133052756D01*
X134048995Y-132904922D01*
X134155341Y-132775341D01*
X134284922Y-132668995D01*
X134432756Y-132589977D01*
X134432759Y-132589976D01*
X134432761Y-132589975D01*
X134593175Y-132541314D01*
X134593176Y-132541314D01*
X134593179Y-132541313D01*
X134718196Y-132529000D01*
X134801804Y-132529000D01*
X134926821Y-132541313D01*
X134926821Y-132541313D01*
G37*
G36*
X150166821Y-132541313D02*
X150166824Y-132541314D01*
X150166825Y-132541314D01*
X150327239Y-132589975D01*
X150327241Y-132589976D01*
X150327244Y-132589977D01*
X150475078Y-132668995D01*
X150604659Y-132775341D01*
X150711005Y-132904922D01*
X150790023Y-133052756D01*
X150838687Y-133213179D01*
X150855117Y-133380000D01*
X150838687Y-133546821D01*
X150790023Y-133707244D01*
X150711005Y-133855078D01*
X150604659Y-133984659D01*
X150475078Y-134091005D01*
X150327244Y-134170023D01*
X150327241Y-134170024D01*
X150327239Y-134170025D01*
X150166825Y-134218686D01*
X150166824Y-134218686D01*
X150166821Y-134218687D01*
X150041804Y-134231000D01*
X149958196Y-134231000D01*
X149833179Y-134218687D01*
X149833176Y-134218686D01*
X149833175Y-134218686D01*
X149672761Y-134170025D01*
X149672759Y-134170024D01*
X149672756Y-134170023D01*
X149524922Y-134091005D01*
X149395341Y-133984659D01*
X149288995Y-133855078D01*
X149209977Y-133707244D01*
X149161313Y-133546821D01*
X149144883Y-133380000D01*
X149161313Y-133213179D01*
X149209977Y-133052756D01*
X149288995Y-132904922D01*
X149395341Y-132775341D01*
X149524922Y-132668995D01*
X149672756Y-132589977D01*
X149672759Y-132589976D01*
X149672761Y-132589975D01*
X149833175Y-132541314D01*
X149833176Y-132541314D01*
X149833179Y-132541313D01*
X149958196Y-132529000D01*
X150041804Y-132529000D01*
X150166821Y-132541313D01*
X150166821Y-132541313D01*
G37*
G36*
X150166821Y-130001313D02*
X150166824Y-130001314D01*
X150166825Y-130001314D01*
X150327239Y-130049975D01*
X150327241Y-130049976D01*
X150327244Y-130049977D01*
X150475078Y-130128995D01*
X150604659Y-130235341D01*
X150711005Y-130364922D01*
X150790023Y-130512756D01*
X150838687Y-130673179D01*
X150855117Y-130840000D01*
X150838687Y-131006821D01*
X150790023Y-131167244D01*
X150711005Y-131315078D01*
X150604659Y-131444659D01*
X150475078Y-131551005D01*
X150327244Y-131630023D01*
X150327241Y-131630024D01*
X150327239Y-131630025D01*
X150166825Y-131678686D01*
X150166824Y-131678686D01*
X150166821Y-131678687D01*
X150041804Y-131691000D01*
X149958196Y-131691000D01*
X149833179Y-131678687D01*
X149833176Y-131678686D01*
X149833175Y-131678686D01*
X149672761Y-131630025D01*
X149672759Y-131630024D01*
X149672756Y-131630023D01*
X149524922Y-131551005D01*
X149395341Y-131444659D01*
X149288995Y-131315078D01*
X149209977Y-131167244D01*
X149161313Y-131006821D01*
X149144883Y-130840000D01*
X149161313Y-130673179D01*
X149209977Y-130512756D01*
X149288995Y-130364922D01*
X149395341Y-130235341D01*
X149524922Y-130128995D01*
X149672756Y-130049977D01*
X149672759Y-130049976D01*
X149672761Y-130049975D01*
X149833175Y-130001314D01*
X149833176Y-130001314D01*
X149833179Y-130001313D01*
X149958196Y-129989000D01*
X150041804Y-129989000D01*
X150166821Y-130001313D01*
X150166821Y-130001313D01*
G37*
G36*
X134926821Y-130001313D02*
X134926824Y-130001314D01*
X134926825Y-130001314D01*
X135087239Y-130049975D01*
X135087241Y-130049976D01*
X135087244Y-130049977D01*
X135235078Y-130128995D01*
X135364659Y-130235341D01*
X135471005Y-130364922D01*
X135550023Y-130512756D01*
X135598687Y-130673179D01*
X135615117Y-130840000D01*
X135598687Y-131006821D01*
X135550023Y-131167244D01*
X135471005Y-131315078D01*
X135364659Y-131444659D01*
X135235078Y-131551005D01*
X135087244Y-131630023D01*
X135087241Y-131630024D01*
X135087239Y-131630025D01*
X134926825Y-131678686D01*
X134926824Y-131678686D01*
X134926821Y-131678687D01*
X134801804Y-131691000D01*
X134718196Y-131691000D01*
X134593179Y-131678687D01*
X134593176Y-131678686D01*
X134593175Y-131678686D01*
X134432761Y-131630025D01*
X134432759Y-131630024D01*
X134432756Y-131630023D01*
X134284922Y-131551005D01*
X134155341Y-131444659D01*
X134048995Y-131315078D01*
X133969977Y-131167244D01*
X133921313Y-131006821D01*
X133904883Y-130840000D01*
X133921313Y-130673179D01*
X133969977Y-130512756D01*
X134048995Y-130364922D01*
X134155341Y-130235341D01*
X134284922Y-130128995D01*
X134432756Y-130049977D01*
X134432759Y-130049976D01*
X134432761Y-130049975D01*
X134593175Y-130001314D01*
X134593176Y-130001314D01*
X134593179Y-130001313D01*
X134718196Y-129989000D01*
X134801804Y-129989000D01*
X134926821Y-130001313D01*
X134926821Y-130001313D01*
G37*
G36*
X150166821Y-127461313D02*
X150166824Y-127461314D01*
X150166825Y-127461314D01*
X150327239Y-127509975D01*
X150327241Y-127509976D01*
X150327244Y-127509977D01*
X150475078Y-127588995D01*
X150604659Y-127695341D01*
X150711005Y-127824922D01*
X150790023Y-127972756D01*
X150838687Y-128133179D01*
X150855117Y-128300000D01*
X150838687Y-128466821D01*
X150790023Y-128627244D01*
X150711005Y-128775078D01*
X150604659Y-128904659D01*
X150475078Y-129011005D01*
X150327244Y-129090023D01*
X150327241Y-129090024D01*
X150327239Y-129090025D01*
X150166825Y-129138686D01*
X150166824Y-129138686D01*
X150166821Y-129138687D01*
X150041804Y-129151000D01*
X149958196Y-129151000D01*
X149833179Y-129138687D01*
X149833176Y-129138686D01*
X149833175Y-129138686D01*
X149672761Y-129090025D01*
X149672759Y-129090024D01*
X149672756Y-129090023D01*
X149524922Y-129011005D01*
X149395341Y-128904659D01*
X149288995Y-128775078D01*
X149209977Y-128627244D01*
X149161313Y-128466821D01*
X149144883Y-128300000D01*
X149161313Y-128133179D01*
X149209977Y-127972756D01*
X149288995Y-127824922D01*
X149395341Y-127695341D01*
X149524922Y-127588995D01*
X149672756Y-127509977D01*
X149672759Y-127509976D01*
X149672761Y-127509975D01*
X149833175Y-127461314D01*
X149833176Y-127461314D01*
X149833179Y-127461313D01*
X149958196Y-127449000D01*
X150041804Y-127449000D01*
X150166821Y-127461313D01*
X150166821Y-127461313D01*
G37*
G36*
X134926821Y-127461313D02*
X134926824Y-127461314D01*
X134926825Y-127461314D01*
X135087239Y-127509975D01*
X135087241Y-127509976D01*
X135087244Y-127509977D01*
X135235078Y-127588995D01*
X135364659Y-127695341D01*
X135471005Y-127824922D01*
X135550023Y-127972756D01*
X135598687Y-128133179D01*
X135615117Y-128300000D01*
X135598687Y-128466821D01*
X135550023Y-128627244D01*
X135471005Y-128775078D01*
X135364659Y-128904659D01*
X135235078Y-129011005D01*
X135087244Y-129090023D01*
X135087241Y-129090024D01*
X135087239Y-129090025D01*
X134926825Y-129138686D01*
X134926824Y-129138686D01*
X134926821Y-129138687D01*
X134801804Y-129151000D01*
X134718196Y-129151000D01*
X134593179Y-129138687D01*
X134593176Y-129138686D01*
X134593175Y-129138686D01*
X134432761Y-129090025D01*
X134432759Y-129090024D01*
X134432756Y-129090023D01*
X134284922Y-129011005D01*
X134155341Y-128904659D01*
X134048995Y-128775078D01*
X133969977Y-128627244D01*
X133921313Y-128466821D01*
X133904883Y-128300000D01*
X133921313Y-128133179D01*
X133969977Y-127972756D01*
X134048995Y-127824922D01*
X134155341Y-127695341D01*
X134284922Y-127588995D01*
X134432756Y-127509977D01*
X134432759Y-127509976D01*
X134432761Y-127509975D01*
X134593175Y-127461314D01*
X134593176Y-127461314D01*
X134593179Y-127461313D01*
X134718196Y-127449000D01*
X134801804Y-127449000D01*
X134926821Y-127461313D01*
X134926821Y-127461313D01*
G37*
G36*
X93851000Y-126851000D02*
X92149000Y-126851000D01*
X92149000Y-125149000D01*
X93851000Y-125149000D01*
X93851000Y-126851000D01*
X93851000Y-126851000D01*
G37*
G36*
X90748228Y-125181703D02*
X90903100Y-125245853D01*
X91042481Y-125338985D01*
X91161015Y-125457519D01*
X91254147Y-125596900D01*
X91318297Y-125751772D01*
X91351000Y-125916184D01*
X91351000Y-126083816D01*
X91318297Y-126248228D01*
X91254147Y-126403100D01*
X91161015Y-126542481D01*
X91042481Y-126661015D01*
X90903100Y-126754147D01*
X90748228Y-126818297D01*
X90583816Y-126851000D01*
X90416184Y-126851000D01*
X90251772Y-126818297D01*
X90096900Y-126754147D01*
X89957519Y-126661015D01*
X89838985Y-126542481D01*
X89745853Y-126403100D01*
X89681703Y-126248228D01*
X89649000Y-126083816D01*
X89649000Y-125916184D01*
X89681703Y-125751772D01*
X89745853Y-125596900D01*
X89838985Y-125457519D01*
X89957519Y-125338985D01*
X90096900Y-125245853D01*
X90251772Y-125181703D01*
X90416184Y-125149000D01*
X90583816Y-125149000D01*
X90748228Y-125181703D01*
X90748228Y-125181703D01*
G37*
G36*
X134926821Y-124921313D02*
X134926824Y-124921314D01*
X134926825Y-124921314D01*
X135087239Y-124969975D01*
X135087241Y-124969976D01*
X135087244Y-124969977D01*
X135235078Y-125048995D01*
X135364659Y-125155341D01*
X135471005Y-125284922D01*
X135550023Y-125432756D01*
X135550024Y-125432759D01*
X135550025Y-125432761D01*
X135592109Y-125571494D01*
X135598687Y-125593179D01*
X135615117Y-125760000D01*
X135598687Y-125926821D01*
X135550023Y-126087244D01*
X135471005Y-126235078D01*
X135364659Y-126364659D01*
X135235078Y-126471005D01*
X135087244Y-126550023D01*
X135087241Y-126550024D01*
X135087239Y-126550025D01*
X134926825Y-126598686D01*
X134926824Y-126598686D01*
X134926821Y-126598687D01*
X134801804Y-126611000D01*
X134718196Y-126611000D01*
X134593179Y-126598687D01*
X134593176Y-126598686D01*
X134593175Y-126598686D01*
X134432761Y-126550025D01*
X134432759Y-126550024D01*
X134432756Y-126550023D01*
X134284922Y-126471005D01*
X134155341Y-126364659D01*
X134048995Y-126235078D01*
X133969977Y-126087244D01*
X133921313Y-125926821D01*
X133904883Y-125760000D01*
X133921313Y-125593179D01*
X133927891Y-125571494D01*
X133969975Y-125432761D01*
X133969976Y-125432759D01*
X133969977Y-125432756D01*
X134048995Y-125284922D01*
X134155341Y-125155341D01*
X134284922Y-125048995D01*
X134432756Y-124969977D01*
X134432759Y-124969976D01*
X134432761Y-124969975D01*
X134593175Y-124921314D01*
X134593176Y-124921314D01*
X134593179Y-124921313D01*
X134718196Y-124909000D01*
X134801804Y-124909000D01*
X134926821Y-124921313D01*
X134926821Y-124921313D01*
G37*
G36*
X150166821Y-124921313D02*
X150166824Y-124921314D01*
X150166825Y-124921314D01*
X150327239Y-124969975D01*
X150327241Y-124969976D01*
X150327244Y-124969977D01*
X150475078Y-125048995D01*
X150604659Y-125155341D01*
X150711005Y-125284922D01*
X150790023Y-125432756D01*
X150790024Y-125432759D01*
X150790025Y-125432761D01*
X150832109Y-125571494D01*
X150838687Y-125593179D01*
X150855117Y-125760000D01*
X150838687Y-125926821D01*
X150790023Y-126087244D01*
X150711005Y-126235078D01*
X150604659Y-126364659D01*
X150475078Y-126471005D01*
X150327244Y-126550023D01*
X150327241Y-126550024D01*
X150327239Y-126550025D01*
X150166825Y-126598686D01*
X150166824Y-126598686D01*
X150166821Y-126598687D01*
X150041804Y-126611000D01*
X149958196Y-126611000D01*
X149833179Y-126598687D01*
X149833176Y-126598686D01*
X149833175Y-126598686D01*
X149672761Y-126550025D01*
X149672759Y-126550024D01*
X149672756Y-126550023D01*
X149524922Y-126471005D01*
X149395341Y-126364659D01*
X149288995Y-126235078D01*
X149209977Y-126087244D01*
X149161313Y-125926821D01*
X149144883Y-125760000D01*
X149161313Y-125593179D01*
X149167891Y-125571494D01*
X149209975Y-125432761D01*
X149209976Y-125432759D01*
X149209977Y-125432756D01*
X149288995Y-125284922D01*
X149395341Y-125155341D01*
X149524922Y-125048995D01*
X149672756Y-124969977D01*
X149672759Y-124969976D01*
X149672761Y-124969975D01*
X149833175Y-124921314D01*
X149833176Y-124921314D01*
X149833179Y-124921313D01*
X149958196Y-124909000D01*
X150041804Y-124909000D01*
X150166821Y-124921313D01*
X150166821Y-124921313D01*
G37*
G36*
X123642638Y-124313170D02*
X123766575Y-124364506D01*
X123878115Y-124439035D01*
X123972965Y-124533885D01*
X124047494Y-124645425D01*
X124098830Y-124769362D01*
X124125000Y-124900926D01*
X124125000Y-125035074D01*
X124098830Y-125166638D01*
X124047494Y-125290575D01*
X123972965Y-125402115D01*
X123878115Y-125496965D01*
X123766575Y-125571494D01*
X123642638Y-125622830D01*
X123511074Y-125649000D01*
X123376926Y-125649000D01*
X123245362Y-125622830D01*
X123121425Y-125571494D01*
X123009885Y-125496965D01*
X122915035Y-125402115D01*
X122840506Y-125290575D01*
X122789170Y-125166638D01*
X122763000Y-125035074D01*
X122763000Y-124900926D01*
X122789170Y-124769362D01*
X122840506Y-124645425D01*
X122915035Y-124533885D01*
X123009885Y-124439035D01*
X123121425Y-124364506D01*
X123245362Y-124313170D01*
X123376926Y-124287000D01*
X123511074Y-124287000D01*
X123642638Y-124313170D01*
X123642638Y-124313170D01*
G37*
G36*
X150166821Y-122381313D02*
X150166824Y-122381314D01*
X150166825Y-122381314D01*
X150327239Y-122429975D01*
X150327241Y-122429976D01*
X150327244Y-122429977D01*
X150475078Y-122508995D01*
X150604659Y-122615341D01*
X150711005Y-122744922D01*
X150790023Y-122892756D01*
X150790024Y-122892759D01*
X150790025Y-122892761D01*
X150832109Y-123031494D01*
X150838687Y-123053179D01*
X150855117Y-123220000D01*
X150838687Y-123386821D01*
X150790023Y-123547244D01*
X150711005Y-123695078D01*
X150604659Y-123824659D01*
X150475078Y-123931005D01*
X150327244Y-124010023D01*
X150327241Y-124010024D01*
X150327239Y-124010025D01*
X150166825Y-124058686D01*
X150166824Y-124058686D01*
X150166821Y-124058687D01*
X150041804Y-124071000D01*
X149958196Y-124071000D01*
X149833179Y-124058687D01*
X149833176Y-124058686D01*
X149833175Y-124058686D01*
X149672761Y-124010025D01*
X149672759Y-124010024D01*
X149672756Y-124010023D01*
X149524922Y-123931005D01*
X149395341Y-123824659D01*
X149288995Y-123695078D01*
X149209977Y-123547244D01*
X149161313Y-123386821D01*
X149144883Y-123220000D01*
X149161313Y-123053179D01*
X149167891Y-123031494D01*
X149209975Y-122892761D01*
X149209976Y-122892759D01*
X149209977Y-122892756D01*
X149288995Y-122744922D01*
X149395341Y-122615341D01*
X149524922Y-122508995D01*
X149672756Y-122429977D01*
X149672759Y-122429976D01*
X149672761Y-122429975D01*
X149833175Y-122381314D01*
X149833176Y-122381314D01*
X149833179Y-122381313D01*
X149958196Y-122369000D01*
X150041804Y-122369000D01*
X150166821Y-122381313D01*
X150166821Y-122381313D01*
G37*
G36*
X134926821Y-122381313D02*
X134926824Y-122381314D01*
X134926825Y-122381314D01*
X135087239Y-122429975D01*
X135087241Y-122429976D01*
X135087244Y-122429977D01*
X135235078Y-122508995D01*
X135364659Y-122615341D01*
X135471005Y-122744922D01*
X135550023Y-122892756D01*
X135550024Y-122892759D01*
X135550025Y-122892761D01*
X135592109Y-123031494D01*
X135598687Y-123053179D01*
X135615117Y-123220000D01*
X135598687Y-123386821D01*
X135550023Y-123547244D01*
X135471005Y-123695078D01*
X135364659Y-123824659D01*
X135235078Y-123931005D01*
X135087244Y-124010023D01*
X135087241Y-124010024D01*
X135087239Y-124010025D01*
X134926825Y-124058686D01*
X134926824Y-124058686D01*
X134926821Y-124058687D01*
X134801804Y-124071000D01*
X134718196Y-124071000D01*
X134593179Y-124058687D01*
X134593176Y-124058686D01*
X134593175Y-124058686D01*
X134432761Y-124010025D01*
X134432759Y-124010024D01*
X134432756Y-124010023D01*
X134284922Y-123931005D01*
X134155341Y-123824659D01*
X134048995Y-123695078D01*
X133969977Y-123547244D01*
X133921313Y-123386821D01*
X133904883Y-123220000D01*
X133921313Y-123053179D01*
X133927891Y-123031494D01*
X133969975Y-122892761D01*
X133969976Y-122892759D01*
X133969977Y-122892756D01*
X134048995Y-122744922D01*
X134155341Y-122615341D01*
X134284922Y-122508995D01*
X134432756Y-122429977D01*
X134432759Y-122429976D01*
X134432761Y-122429975D01*
X134593175Y-122381314D01*
X134593176Y-122381314D01*
X134593179Y-122381313D01*
X134718196Y-122369000D01*
X134801804Y-122369000D01*
X134926821Y-122381313D01*
X134926821Y-122381313D01*
G37*
G36*
X121102638Y-121773170D02*
X121226575Y-121824506D01*
X121338115Y-121899035D01*
X121432965Y-121993885D01*
X121507494Y-122105425D01*
X121558830Y-122229362D01*
X121585000Y-122360926D01*
X121585000Y-122495074D01*
X121558830Y-122626638D01*
X121507494Y-122750575D01*
X121432965Y-122862115D01*
X121338115Y-122956965D01*
X121226575Y-123031494D01*
X121102638Y-123082830D01*
X120971074Y-123109000D01*
X120836926Y-123109000D01*
X120705362Y-123082830D01*
X120581425Y-123031494D01*
X120469885Y-122956965D01*
X120375035Y-122862115D01*
X120300506Y-122750575D01*
X120249170Y-122626638D01*
X120223000Y-122495074D01*
X120223000Y-122360926D01*
X120249170Y-122229362D01*
X120300506Y-122105425D01*
X120375035Y-121993885D01*
X120469885Y-121899035D01*
X120581425Y-121824506D01*
X120705362Y-121773170D01*
X120836926Y-121747000D01*
X120971074Y-121747000D01*
X121102638Y-121773170D01*
X121102638Y-121773170D01*
G37*
G36*
X150166821Y-119841313D02*
X150166824Y-119841314D01*
X150166825Y-119841314D01*
X150327239Y-119889975D01*
X150327241Y-119889976D01*
X150327244Y-119889977D01*
X150475078Y-119968995D01*
X150604659Y-120075341D01*
X150711005Y-120204922D01*
X150790023Y-120352756D01*
X150790024Y-120352759D01*
X150790025Y-120352761D01*
X150832109Y-120491494D01*
X150838687Y-120513179D01*
X150855117Y-120680000D01*
X150838687Y-120846821D01*
X150790023Y-121007244D01*
X150711005Y-121155078D01*
X150604659Y-121284659D01*
X150475078Y-121391005D01*
X150327244Y-121470023D01*
X150327241Y-121470024D01*
X150327239Y-121470025D01*
X150166825Y-121518686D01*
X150166824Y-121518686D01*
X150166821Y-121518687D01*
X150041804Y-121531000D01*
X149958196Y-121531000D01*
X149833179Y-121518687D01*
X149833176Y-121518686D01*
X149833175Y-121518686D01*
X149672761Y-121470025D01*
X149672759Y-121470024D01*
X149672756Y-121470023D01*
X149524922Y-121391005D01*
X149395341Y-121284659D01*
X149288995Y-121155078D01*
X149209977Y-121007244D01*
X149161313Y-120846821D01*
X149144883Y-120680000D01*
X149161313Y-120513179D01*
X149167891Y-120491494D01*
X149209975Y-120352761D01*
X149209976Y-120352759D01*
X149209977Y-120352756D01*
X149288995Y-120204922D01*
X149395341Y-120075341D01*
X149524922Y-119968995D01*
X149672756Y-119889977D01*
X149672759Y-119889976D01*
X149672761Y-119889975D01*
X149833175Y-119841314D01*
X149833176Y-119841314D01*
X149833179Y-119841313D01*
X149958196Y-119829000D01*
X150041804Y-119829000D01*
X150166821Y-119841313D01*
X150166821Y-119841313D01*
G37*
G36*
X134926821Y-119841313D02*
X134926824Y-119841314D01*
X134926825Y-119841314D01*
X135087239Y-119889975D01*
X135087241Y-119889976D01*
X135087244Y-119889977D01*
X135235078Y-119968995D01*
X135364659Y-120075341D01*
X135471005Y-120204922D01*
X135550023Y-120352756D01*
X135550024Y-120352759D01*
X135550025Y-120352761D01*
X135592109Y-120491494D01*
X135598687Y-120513179D01*
X135615117Y-120680000D01*
X135598687Y-120846821D01*
X135550023Y-121007244D01*
X135471005Y-121155078D01*
X135364659Y-121284659D01*
X135235078Y-121391005D01*
X135087244Y-121470023D01*
X135087241Y-121470024D01*
X135087239Y-121470025D01*
X134926825Y-121518686D01*
X134926824Y-121518686D01*
X134926821Y-121518687D01*
X134801804Y-121531000D01*
X134718196Y-121531000D01*
X134593179Y-121518687D01*
X134593176Y-121518686D01*
X134593175Y-121518686D01*
X134432761Y-121470025D01*
X134432759Y-121470024D01*
X134432756Y-121470023D01*
X134284922Y-121391005D01*
X134155341Y-121284659D01*
X134048995Y-121155078D01*
X133969977Y-121007244D01*
X133921313Y-120846821D01*
X133904883Y-120680000D01*
X133921313Y-120513179D01*
X133927891Y-120491494D01*
X133969975Y-120352761D01*
X133969976Y-120352759D01*
X133969977Y-120352756D01*
X134048995Y-120204922D01*
X134155341Y-120075341D01*
X134284922Y-119968995D01*
X134432756Y-119889977D01*
X134432759Y-119889976D01*
X134432761Y-119889975D01*
X134593175Y-119841314D01*
X134593176Y-119841314D01*
X134593179Y-119841313D01*
X134718196Y-119829000D01*
X134801804Y-119829000D01*
X134926821Y-119841313D01*
X134926821Y-119841313D01*
G37*
G36*
X123642638Y-119233170D02*
X123766575Y-119284506D01*
X123878115Y-119359035D01*
X123972965Y-119453885D01*
X124047494Y-119565425D01*
X124098830Y-119689362D01*
X124125000Y-119820926D01*
X124125000Y-119955074D01*
X124098830Y-120086638D01*
X124047494Y-120210575D01*
X123972965Y-120322115D01*
X123878115Y-120416965D01*
X123766575Y-120491494D01*
X123642638Y-120542830D01*
X123511074Y-120569000D01*
X123376926Y-120569000D01*
X123245362Y-120542830D01*
X123121425Y-120491494D01*
X123009885Y-120416965D01*
X122915035Y-120322115D01*
X122840506Y-120210575D01*
X122789170Y-120086638D01*
X122763000Y-119955074D01*
X122763000Y-119820926D01*
X122789170Y-119689362D01*
X122840506Y-119565425D01*
X122915035Y-119453885D01*
X123009885Y-119359035D01*
X123121425Y-119284506D01*
X123245362Y-119233170D01*
X123376926Y-119207000D01*
X123511074Y-119207000D01*
X123642638Y-119233170D01*
X123642638Y-119233170D01*
G37*
G36*
X150166821Y-117301313D02*
X150166824Y-117301314D01*
X150166825Y-117301314D01*
X150327239Y-117349975D01*
X150327241Y-117349976D01*
X150327244Y-117349977D01*
X150475078Y-117428995D01*
X150604659Y-117535341D01*
X150711005Y-117664922D01*
X150790023Y-117812756D01*
X150838687Y-117973179D01*
X150855117Y-118140000D01*
X150838687Y-118306821D01*
X150790023Y-118467244D01*
X150711005Y-118615078D01*
X150604659Y-118744659D01*
X150475078Y-118851005D01*
X150327244Y-118930023D01*
X150327241Y-118930024D01*
X150327239Y-118930025D01*
X150166825Y-118978686D01*
X150166824Y-118978686D01*
X150166821Y-118978687D01*
X150041804Y-118991000D01*
X149958196Y-118991000D01*
X149833179Y-118978687D01*
X149833176Y-118978686D01*
X149833175Y-118978686D01*
X149672761Y-118930025D01*
X149672759Y-118930024D01*
X149672756Y-118930023D01*
X149524922Y-118851005D01*
X149395341Y-118744659D01*
X149288995Y-118615078D01*
X149209977Y-118467244D01*
X149161313Y-118306821D01*
X149144883Y-118140000D01*
X149161313Y-117973179D01*
X149209977Y-117812756D01*
X149288995Y-117664922D01*
X149395341Y-117535341D01*
X149524922Y-117428995D01*
X149672756Y-117349977D01*
X149672759Y-117349976D01*
X149672761Y-117349975D01*
X149833175Y-117301314D01*
X149833176Y-117301314D01*
X149833179Y-117301313D01*
X149958196Y-117289000D01*
X150041804Y-117289000D01*
X150166821Y-117301313D01*
X150166821Y-117301313D01*
G37*
G36*
X134926821Y-117301313D02*
X134926824Y-117301314D01*
X134926825Y-117301314D01*
X135087239Y-117349975D01*
X135087241Y-117349976D01*
X135087244Y-117349977D01*
X135235078Y-117428995D01*
X135364659Y-117535341D01*
X135471005Y-117664922D01*
X135550023Y-117812756D01*
X135598687Y-117973179D01*
X135615117Y-118140000D01*
X135598687Y-118306821D01*
X135550023Y-118467244D01*
X135471005Y-118615078D01*
X135364659Y-118744659D01*
X135235078Y-118851005D01*
X135087244Y-118930023D01*
X135087241Y-118930024D01*
X135087239Y-118930025D01*
X134926825Y-118978686D01*
X134926824Y-118978686D01*
X134926821Y-118978687D01*
X134801804Y-118991000D01*
X134718196Y-118991000D01*
X134593179Y-118978687D01*
X134593176Y-118978686D01*
X134593175Y-118978686D01*
X134432761Y-118930025D01*
X134432759Y-118930024D01*
X134432756Y-118930023D01*
X134284922Y-118851005D01*
X134155341Y-118744659D01*
X134048995Y-118615078D01*
X133969977Y-118467244D01*
X133921313Y-118306821D01*
X133904883Y-118140000D01*
X133921313Y-117973179D01*
X133969977Y-117812756D01*
X134048995Y-117664922D01*
X134155341Y-117535341D01*
X134284922Y-117428995D01*
X134432756Y-117349977D01*
X134432759Y-117349976D01*
X134432761Y-117349975D01*
X134593175Y-117301314D01*
X134593176Y-117301314D01*
X134593179Y-117301313D01*
X134718196Y-117289000D01*
X134801804Y-117289000D01*
X134926821Y-117301313D01*
X134926821Y-117301313D01*
G37*
G36*
X134926821Y-114761313D02*
X134926824Y-114761314D01*
X134926825Y-114761314D01*
X135087239Y-114809975D01*
X135087241Y-114809976D01*
X135087244Y-114809977D01*
X135235078Y-114888995D01*
X135364659Y-114995341D01*
X135471005Y-115124922D01*
X135550023Y-115272756D01*
X135598687Y-115433179D01*
X135615117Y-115600000D01*
X135598687Y-115766821D01*
X135598686Y-115766824D01*
X135598686Y-115766825D01*
X135561508Y-115889385D01*
X135550023Y-115927244D01*
X135471005Y-116075078D01*
X135364659Y-116204659D01*
X135235078Y-116311005D01*
X135087244Y-116390023D01*
X135087241Y-116390024D01*
X135087239Y-116390025D01*
X134926825Y-116438686D01*
X134926824Y-116438686D01*
X134926821Y-116438687D01*
X134801804Y-116451000D01*
X134718196Y-116451000D01*
X134593179Y-116438687D01*
X134593176Y-116438686D01*
X134593175Y-116438686D01*
X134432761Y-116390025D01*
X134432759Y-116390024D01*
X134432756Y-116390023D01*
X134284922Y-116311005D01*
X134155341Y-116204659D01*
X134048995Y-116075078D01*
X133969977Y-115927244D01*
X133958493Y-115889385D01*
X133921314Y-115766825D01*
X133921314Y-115766824D01*
X133921313Y-115766821D01*
X133904883Y-115600000D01*
X133921313Y-115433179D01*
X133969977Y-115272756D01*
X134048995Y-115124922D01*
X134155341Y-114995341D01*
X134284922Y-114888995D01*
X134432756Y-114809977D01*
X134432759Y-114809976D01*
X134432761Y-114809975D01*
X134593175Y-114761314D01*
X134593176Y-114761314D01*
X134593179Y-114761313D01*
X134718196Y-114749000D01*
X134801804Y-114749000D01*
X134926821Y-114761313D01*
X134926821Y-114761313D01*
G37*
G36*
X150166821Y-114761313D02*
X150166824Y-114761314D01*
X150166825Y-114761314D01*
X150327239Y-114809975D01*
X150327241Y-114809976D01*
X150327244Y-114809977D01*
X150475078Y-114888995D01*
X150604659Y-114995341D01*
X150711005Y-115124922D01*
X150790023Y-115272756D01*
X150838687Y-115433179D01*
X150855117Y-115600000D01*
X150838687Y-115766821D01*
X150838686Y-115766824D01*
X150838686Y-115766825D01*
X150801508Y-115889385D01*
X150790023Y-115927244D01*
X150711005Y-116075078D01*
X150604659Y-116204659D01*
X150475078Y-116311005D01*
X150327244Y-116390023D01*
X150327241Y-116390024D01*
X150327239Y-116390025D01*
X150166825Y-116438686D01*
X150166824Y-116438686D01*
X150166821Y-116438687D01*
X150041804Y-116451000D01*
X149958196Y-116451000D01*
X149833179Y-116438687D01*
X149833176Y-116438686D01*
X149833175Y-116438686D01*
X149672761Y-116390025D01*
X149672759Y-116390024D01*
X149672756Y-116390023D01*
X149524922Y-116311005D01*
X149395341Y-116204659D01*
X149288995Y-116075078D01*
X149209977Y-115927244D01*
X149198493Y-115889385D01*
X149161314Y-115766825D01*
X149161314Y-115766824D01*
X149161313Y-115766821D01*
X149144883Y-115600000D01*
X149161313Y-115433179D01*
X149209977Y-115272756D01*
X149288995Y-115124922D01*
X149395341Y-114995341D01*
X149524922Y-114888995D01*
X149672756Y-114809977D01*
X149672759Y-114809976D01*
X149672761Y-114809975D01*
X149833175Y-114761314D01*
X149833176Y-114761314D01*
X149833179Y-114761313D01*
X149958196Y-114749000D01*
X150041804Y-114749000D01*
X150166821Y-114761313D01*
X150166821Y-114761313D01*
G37*
G36*
X127052565Y-113947389D02*
X127243834Y-114026615D01*
X127415976Y-114141637D01*
X127562363Y-114288024D01*
X127677385Y-114460166D01*
X127756611Y-114651435D01*
X127797000Y-114854484D01*
X127797000Y-115061516D01*
X127756611Y-115264565D01*
X127677385Y-115455834D01*
X127562363Y-115627976D01*
X127415976Y-115774363D01*
X127243834Y-115889385D01*
X127052565Y-115968611D01*
X126849516Y-116009000D01*
X126642484Y-116009000D01*
X126439435Y-115968611D01*
X126248166Y-115889385D01*
X126076024Y-115774363D01*
X125929637Y-115627976D01*
X125814615Y-115455834D01*
X125735389Y-115264565D01*
X125695000Y-115061516D01*
X125695000Y-114854484D01*
X125735389Y-114651435D01*
X125814615Y-114460166D01*
X125929637Y-114288024D01*
X126076024Y-114141637D01*
X126248166Y-114026615D01*
X126439435Y-113947389D01*
X126642484Y-113907000D01*
X126849516Y-113907000D01*
X127052565Y-113947389D01*
X127052565Y-113947389D01*
G37*
G36*
X122552565Y-113947389D02*
X122743834Y-114026615D01*
X122915976Y-114141637D01*
X123062363Y-114288024D01*
X123177385Y-114460166D01*
X123256611Y-114651435D01*
X123297000Y-114854484D01*
X123297000Y-115061516D01*
X123256611Y-115264565D01*
X123177385Y-115455834D01*
X123062363Y-115627976D01*
X122915976Y-115774363D01*
X122743834Y-115889385D01*
X122552565Y-115968611D01*
X122349516Y-116009000D01*
X122142484Y-116009000D01*
X121939435Y-115968611D01*
X121748166Y-115889385D01*
X121576024Y-115774363D01*
X121429637Y-115627976D01*
X121314615Y-115455834D01*
X121235389Y-115264565D01*
X121195000Y-115061516D01*
X121195000Y-114854484D01*
X121235389Y-114651435D01*
X121314615Y-114460166D01*
X121429637Y-114288024D01*
X121576024Y-114141637D01*
X121748166Y-114026615D01*
X121939435Y-113947389D01*
X122142484Y-113907000D01*
X122349516Y-113907000D01*
X122552565Y-113947389D01*
X122552565Y-113947389D01*
G37*
G36*
X134926821Y-112221313D02*
X134926824Y-112221314D01*
X134926825Y-112221314D01*
X135087239Y-112269975D01*
X135087241Y-112269976D01*
X135087244Y-112269977D01*
X135235078Y-112348995D01*
X135364659Y-112455341D01*
X135471005Y-112584922D01*
X135550023Y-112732756D01*
X135598687Y-112893179D01*
X135615117Y-113060000D01*
X135598687Y-113226821D01*
X135550023Y-113387244D01*
X135471005Y-113535078D01*
X135364659Y-113664659D01*
X135235078Y-113771005D01*
X135087244Y-113850023D01*
X135087241Y-113850024D01*
X135087239Y-113850025D01*
X134926825Y-113898686D01*
X134926824Y-113898686D01*
X134926821Y-113898687D01*
X134801804Y-113911000D01*
X134718196Y-113911000D01*
X134593179Y-113898687D01*
X134593176Y-113898686D01*
X134593175Y-113898686D01*
X134432761Y-113850025D01*
X134432759Y-113850024D01*
X134432756Y-113850023D01*
X134284922Y-113771005D01*
X134155341Y-113664659D01*
X134048995Y-113535078D01*
X133969977Y-113387244D01*
X133921313Y-113226821D01*
X133904883Y-113060000D01*
X133921313Y-112893179D01*
X133969977Y-112732756D01*
X134048995Y-112584922D01*
X134155341Y-112455341D01*
X134284922Y-112348995D01*
X134432756Y-112269977D01*
X134432759Y-112269976D01*
X134432761Y-112269975D01*
X134593175Y-112221314D01*
X134593176Y-112221314D01*
X134593179Y-112221313D01*
X134718196Y-112209000D01*
X134801804Y-112209000D01*
X134926821Y-112221313D01*
X134926821Y-112221313D01*
G37*
G36*
X150166821Y-112221313D02*
X150166824Y-112221314D01*
X150166825Y-112221314D01*
X150327239Y-112269975D01*
X150327241Y-112269976D01*
X150327244Y-112269977D01*
X150475078Y-112348995D01*
X150604659Y-112455341D01*
X150711005Y-112584922D01*
X150790023Y-112732756D01*
X150838687Y-112893179D01*
X150855117Y-113060000D01*
X150838687Y-113226821D01*
X150790023Y-113387244D01*
X150711005Y-113535078D01*
X150604659Y-113664659D01*
X150475078Y-113771005D01*
X150327244Y-113850023D01*
X150327241Y-113850024D01*
X150327239Y-113850025D01*
X150166825Y-113898686D01*
X150166824Y-113898686D01*
X150166821Y-113898687D01*
X150041804Y-113911000D01*
X149958196Y-113911000D01*
X149833179Y-113898687D01*
X149833176Y-113898686D01*
X149833175Y-113898686D01*
X149672761Y-113850025D01*
X149672759Y-113850024D01*
X149672756Y-113850023D01*
X149524922Y-113771005D01*
X149395341Y-113664659D01*
X149288995Y-113535078D01*
X149209977Y-113387244D01*
X149161313Y-113226821D01*
X149144883Y-113060000D01*
X149161313Y-112893179D01*
X149209977Y-112732756D01*
X149288995Y-112584922D01*
X149395341Y-112455341D01*
X149524922Y-112348995D01*
X149672756Y-112269977D01*
X149672759Y-112269976D01*
X149672761Y-112269975D01*
X149833175Y-112221314D01*
X149833176Y-112221314D01*
X149833179Y-112221313D01*
X149958196Y-112209000D01*
X150041804Y-112209000D01*
X150166821Y-112221313D01*
X150166821Y-112221313D01*
G37*
G36*
X134926821Y-109681313D02*
X134926824Y-109681314D01*
X134926825Y-109681314D01*
X135087239Y-109729975D01*
X135087241Y-109729976D01*
X135087244Y-109729977D01*
X135235078Y-109808995D01*
X135364659Y-109915341D01*
X135471005Y-110044922D01*
X135550023Y-110192756D01*
X135598687Y-110353179D01*
X135615117Y-110520000D01*
X135598687Y-110686821D01*
X135550023Y-110847244D01*
X135471005Y-110995078D01*
X135364659Y-111124659D01*
X135235078Y-111231005D01*
X135087244Y-111310023D01*
X135087241Y-111310024D01*
X135087239Y-111310025D01*
X134926825Y-111358686D01*
X134926824Y-111358686D01*
X134926821Y-111358687D01*
X134801804Y-111371000D01*
X134718196Y-111371000D01*
X134593179Y-111358687D01*
X134593176Y-111358686D01*
X134593175Y-111358686D01*
X134432761Y-111310025D01*
X134432759Y-111310024D01*
X134432756Y-111310023D01*
X134284922Y-111231005D01*
X134155341Y-111124659D01*
X134048995Y-110995078D01*
X133969977Y-110847244D01*
X133921313Y-110686821D01*
X133904883Y-110520000D01*
X133921313Y-110353179D01*
X133969977Y-110192756D01*
X134048995Y-110044922D01*
X134155341Y-109915341D01*
X134284922Y-109808995D01*
X134432756Y-109729977D01*
X134432759Y-109729976D01*
X134432761Y-109729975D01*
X134593175Y-109681314D01*
X134593176Y-109681314D01*
X134593179Y-109681313D01*
X134718196Y-109669000D01*
X134801804Y-109669000D01*
X134926821Y-109681313D01*
X134926821Y-109681313D01*
G37*
G36*
X150166821Y-109681313D02*
X150166824Y-109681314D01*
X150166825Y-109681314D01*
X150327239Y-109729975D01*
X150327241Y-109729976D01*
X150327244Y-109729977D01*
X150475078Y-109808995D01*
X150604659Y-109915341D01*
X150711005Y-110044922D01*
X150790023Y-110192756D01*
X150838687Y-110353179D01*
X150855117Y-110520000D01*
X150838687Y-110686821D01*
X150790023Y-110847244D01*
X150711005Y-110995078D01*
X150604659Y-111124659D01*
X150475078Y-111231005D01*
X150327244Y-111310023D01*
X150327241Y-111310024D01*
X150327239Y-111310025D01*
X150166825Y-111358686D01*
X150166824Y-111358686D01*
X150166821Y-111358687D01*
X150041804Y-111371000D01*
X149958196Y-111371000D01*
X149833179Y-111358687D01*
X149833176Y-111358686D01*
X149833175Y-111358686D01*
X149672761Y-111310025D01*
X149672759Y-111310024D01*
X149672756Y-111310023D01*
X149524922Y-111231005D01*
X149395341Y-111124659D01*
X149288995Y-110995078D01*
X149209977Y-110847244D01*
X149161313Y-110686821D01*
X149144883Y-110520000D01*
X149161313Y-110353179D01*
X149209977Y-110192756D01*
X149288995Y-110044922D01*
X149395341Y-109915341D01*
X149524922Y-109808995D01*
X149672756Y-109729977D01*
X149672759Y-109729976D01*
X149672761Y-109729975D01*
X149833175Y-109681314D01*
X149833176Y-109681314D01*
X149833179Y-109681313D01*
X149958196Y-109669000D01*
X150041804Y-109669000D01*
X150166821Y-109681313D01*
X150166821Y-109681313D01*
G37*
G36*
X122552565Y-107447389D02*
X122743834Y-107526615D01*
X122915976Y-107641637D01*
X123062363Y-107788024D01*
X123177385Y-107960166D01*
X123256611Y-108151435D01*
X123297000Y-108354484D01*
X123297000Y-108561516D01*
X123256611Y-108764565D01*
X123177385Y-108955834D01*
X123062363Y-109127976D01*
X122915976Y-109274363D01*
X122743834Y-109389385D01*
X122552565Y-109468611D01*
X122349516Y-109509000D01*
X122142484Y-109509000D01*
X121939435Y-109468611D01*
X121748166Y-109389385D01*
X121576024Y-109274363D01*
X121429637Y-109127976D01*
X121314615Y-108955834D01*
X121235389Y-108764565D01*
X121195000Y-108561516D01*
X121195000Y-108354484D01*
X121235389Y-108151435D01*
X121314615Y-107960166D01*
X121429637Y-107788024D01*
X121576024Y-107641637D01*
X121748166Y-107526615D01*
X121939435Y-107447389D01*
X122142484Y-107407000D01*
X122349516Y-107407000D01*
X122552565Y-107447389D01*
X122552565Y-107447389D01*
G37*
G36*
X127052565Y-107447389D02*
X127243834Y-107526615D01*
X127415976Y-107641637D01*
X127562363Y-107788024D01*
X127677385Y-107960166D01*
X127756611Y-108151435D01*
X127797000Y-108354484D01*
X127797000Y-108561516D01*
X127756611Y-108764565D01*
X127677385Y-108955834D01*
X127562363Y-109127976D01*
X127415976Y-109274363D01*
X127243834Y-109389385D01*
X127052565Y-109468611D01*
X126849516Y-109509000D01*
X126642484Y-109509000D01*
X126439435Y-109468611D01*
X126248166Y-109389385D01*
X126076024Y-109274363D01*
X125929637Y-109127976D01*
X125814615Y-108955834D01*
X125735389Y-108764565D01*
X125695000Y-108561516D01*
X125695000Y-108354484D01*
X125735389Y-108151435D01*
X125814615Y-107960166D01*
X125929637Y-107788024D01*
X126076024Y-107641637D01*
X126248166Y-107526615D01*
X126439435Y-107447389D01*
X126642484Y-107407000D01*
X126849516Y-107407000D01*
X127052565Y-107447389D01*
X127052565Y-107447389D01*
G37*
G36*
X150166821Y-107141313D02*
X150166824Y-107141314D01*
X150166825Y-107141314D01*
X150327239Y-107189975D01*
X150327241Y-107189976D01*
X150327244Y-107189977D01*
X150475078Y-107268995D01*
X150604659Y-107375341D01*
X150711005Y-107504922D01*
X150790023Y-107652756D01*
X150790024Y-107652759D01*
X150790025Y-107652761D01*
X150831057Y-107788027D01*
X150838687Y-107813179D01*
X150855117Y-107980000D01*
X150838687Y-108146821D01*
X150838686Y-108146824D01*
X150838686Y-108146825D01*
X150837288Y-108151435D01*
X150790023Y-108307244D01*
X150711005Y-108455078D01*
X150604659Y-108584659D01*
X150475078Y-108691005D01*
X150327244Y-108770023D01*
X150327241Y-108770024D01*
X150327239Y-108770025D01*
X150166825Y-108818686D01*
X150166824Y-108818686D01*
X150166821Y-108818687D01*
X150041804Y-108831000D01*
X149958196Y-108831000D01*
X149833179Y-108818687D01*
X149833176Y-108818686D01*
X149833175Y-108818686D01*
X149672761Y-108770025D01*
X149672759Y-108770024D01*
X149672756Y-108770023D01*
X149524922Y-108691005D01*
X149395341Y-108584659D01*
X149288995Y-108455078D01*
X149209977Y-108307244D01*
X149162713Y-108151435D01*
X149161314Y-108146825D01*
X149161314Y-108146824D01*
X149161313Y-108146821D01*
X149144883Y-107980000D01*
X149161313Y-107813179D01*
X149168943Y-107788027D01*
X149209975Y-107652761D01*
X149209976Y-107652759D01*
X149209977Y-107652756D01*
X149288995Y-107504922D01*
X149395341Y-107375341D01*
X149524922Y-107268995D01*
X149672756Y-107189977D01*
X149672759Y-107189976D01*
X149672761Y-107189975D01*
X149833175Y-107141314D01*
X149833176Y-107141314D01*
X149833179Y-107141313D01*
X149958196Y-107129000D01*
X150041804Y-107129000D01*
X150166821Y-107141313D01*
X150166821Y-107141313D01*
G37*
G36*
X134926821Y-107141313D02*
X134926824Y-107141314D01*
X134926825Y-107141314D01*
X135087239Y-107189975D01*
X135087241Y-107189976D01*
X135087244Y-107189977D01*
X135235078Y-107268995D01*
X135364659Y-107375341D01*
X135471005Y-107504922D01*
X135550023Y-107652756D01*
X135550024Y-107652759D01*
X135550025Y-107652761D01*
X135591057Y-107788027D01*
X135598687Y-107813179D01*
X135615117Y-107980000D01*
X135598687Y-108146821D01*
X135598686Y-108146824D01*
X135598686Y-108146825D01*
X135597288Y-108151435D01*
X135550023Y-108307244D01*
X135471005Y-108455078D01*
X135364659Y-108584659D01*
X135235078Y-108691005D01*
X135087244Y-108770023D01*
X135087241Y-108770024D01*
X135087239Y-108770025D01*
X134926825Y-108818686D01*
X134926824Y-108818686D01*
X134926821Y-108818687D01*
X134801804Y-108831000D01*
X134718196Y-108831000D01*
X134593179Y-108818687D01*
X134593176Y-108818686D01*
X134593175Y-108818686D01*
X134432761Y-108770025D01*
X134432759Y-108770024D01*
X134432756Y-108770023D01*
X134284922Y-108691005D01*
X134155341Y-108584659D01*
X134048995Y-108455078D01*
X133969977Y-108307244D01*
X133922713Y-108151435D01*
X133921314Y-108146825D01*
X133921314Y-108146824D01*
X133921313Y-108146821D01*
X133904883Y-107980000D01*
X133921313Y-107813179D01*
X133928943Y-107788027D01*
X133969975Y-107652761D01*
X133969976Y-107652759D01*
X133969977Y-107652756D01*
X134048995Y-107504922D01*
X134155341Y-107375341D01*
X134284922Y-107268995D01*
X134432756Y-107189977D01*
X134432759Y-107189976D01*
X134432761Y-107189975D01*
X134593175Y-107141314D01*
X134593176Y-107141314D01*
X134593179Y-107141313D01*
X134718196Y-107129000D01*
X134801804Y-107129000D01*
X134926821Y-107141313D01*
X134926821Y-107141313D01*
G37*
G36*
X134926821Y-104601313D02*
X134926824Y-104601314D01*
X134926825Y-104601314D01*
X135087239Y-104649975D01*
X135087241Y-104649976D01*
X135087244Y-104649977D01*
X135235078Y-104728995D01*
X135364659Y-104835341D01*
X135471005Y-104964922D01*
X135550023Y-105112756D01*
X135598687Y-105273179D01*
X135615117Y-105440000D01*
X135598687Y-105606821D01*
X135550023Y-105767244D01*
X135471005Y-105915078D01*
X135364659Y-106044659D01*
X135235078Y-106151005D01*
X135087244Y-106230023D01*
X135087241Y-106230024D01*
X135087239Y-106230025D01*
X134926825Y-106278686D01*
X134926824Y-106278686D01*
X134926821Y-106278687D01*
X134801804Y-106291000D01*
X134718196Y-106291000D01*
X134593179Y-106278687D01*
X134593176Y-106278686D01*
X134593175Y-106278686D01*
X134432761Y-106230025D01*
X134432759Y-106230024D01*
X134432756Y-106230023D01*
X134284922Y-106151005D01*
X134155341Y-106044659D01*
X134048995Y-105915078D01*
X133969977Y-105767244D01*
X133921313Y-105606821D01*
X133904883Y-105440000D01*
X133921313Y-105273179D01*
X133969977Y-105112756D01*
X134048995Y-104964922D01*
X134155341Y-104835341D01*
X134284922Y-104728995D01*
X134432756Y-104649977D01*
X134432759Y-104649976D01*
X134432761Y-104649975D01*
X134593175Y-104601314D01*
X134593176Y-104601314D01*
X134593179Y-104601313D01*
X134718196Y-104589000D01*
X134801804Y-104589000D01*
X134926821Y-104601313D01*
X134926821Y-104601313D01*
G37*
G36*
X150166821Y-104601313D02*
X150166824Y-104601314D01*
X150166825Y-104601314D01*
X150327239Y-104649975D01*
X150327241Y-104649976D01*
X150327244Y-104649977D01*
X150475078Y-104728995D01*
X150604659Y-104835341D01*
X150711005Y-104964922D01*
X150790023Y-105112756D01*
X150838687Y-105273179D01*
X150855117Y-105440000D01*
X150838687Y-105606821D01*
X150790023Y-105767244D01*
X150711005Y-105915078D01*
X150604659Y-106044659D01*
X150475078Y-106151005D01*
X150327244Y-106230023D01*
X150327241Y-106230024D01*
X150327239Y-106230025D01*
X150166825Y-106278686D01*
X150166824Y-106278686D01*
X150166821Y-106278687D01*
X150041804Y-106291000D01*
X149958196Y-106291000D01*
X149833179Y-106278687D01*
X149833176Y-106278686D01*
X149833175Y-106278686D01*
X149672761Y-106230025D01*
X149672759Y-106230024D01*
X149672756Y-106230023D01*
X149524922Y-106151005D01*
X149395341Y-106044659D01*
X149288995Y-105915078D01*
X149209977Y-105767244D01*
X149161313Y-105606821D01*
X149144883Y-105440000D01*
X149161313Y-105273179D01*
X149209977Y-105112756D01*
X149288995Y-104964922D01*
X149395341Y-104835341D01*
X149524922Y-104728995D01*
X149672756Y-104649977D01*
X149672759Y-104649976D01*
X149672761Y-104649975D01*
X149833175Y-104601314D01*
X149833176Y-104601314D01*
X149833179Y-104601313D01*
X149958196Y-104589000D01*
X150041804Y-104589000D01*
X150166821Y-104601313D01*
X150166821Y-104601313D01*
G37*
G36*
X113278210Y-101883489D02*
X113364949Y-101909802D01*
X113444891Y-101952532D01*
X113514963Y-102010037D01*
X113572468Y-102080109D01*
X113615198Y-102160051D01*
X113641511Y-102246790D01*
X113651000Y-102343140D01*
X113651000Y-104256860D01*
X113641511Y-104353210D01*
X113615198Y-104439949D01*
X113572468Y-104519891D01*
X113514963Y-104589963D01*
X113444891Y-104647468D01*
X113364949Y-104690198D01*
X113278210Y-104716511D01*
X113181860Y-104726000D01*
X112018140Y-104726000D01*
X111921790Y-104716511D01*
X111835051Y-104690198D01*
X111755109Y-104647468D01*
X111685037Y-104589963D01*
X111627532Y-104519891D01*
X111584802Y-104439949D01*
X111558489Y-104353210D01*
X111549000Y-104256860D01*
X111549000Y-102343140D01*
X111558489Y-102246790D01*
X111584802Y-102160051D01*
X111627532Y-102080109D01*
X111685037Y-102010037D01*
X111755109Y-101952532D01*
X111835051Y-101909802D01*
X111921790Y-101883489D01*
X112018140Y-101874000D01*
X113181860Y-101874000D01*
X113278210Y-101883489D01*
X113278210Y-101883489D01*
G37*
G36*
X109578210Y-101883489D02*
X109664949Y-101909802D01*
X109744891Y-101952532D01*
X109814963Y-102010037D01*
X109872468Y-102080109D01*
X109915198Y-102160051D01*
X109941511Y-102246790D01*
X109951000Y-102343140D01*
X109951000Y-104256860D01*
X109941511Y-104353210D01*
X109915198Y-104439949D01*
X109872468Y-104519891D01*
X109814963Y-104589963D01*
X109744891Y-104647468D01*
X109664949Y-104690198D01*
X109578210Y-104716511D01*
X109481860Y-104726000D01*
X108318140Y-104726000D01*
X108221790Y-104716511D01*
X108135051Y-104690198D01*
X108055109Y-104647468D01*
X107985037Y-104589963D01*
X107927532Y-104519891D01*
X107884802Y-104439949D01*
X107858489Y-104353210D01*
X107849000Y-104256860D01*
X107849000Y-102343140D01*
X107858489Y-102246790D01*
X107884802Y-102160051D01*
X107927532Y-102080109D01*
X107985037Y-102010037D01*
X108055109Y-101952532D01*
X108135051Y-101909802D01*
X108221790Y-101883489D01*
X108318140Y-101874000D01*
X109481860Y-101874000D01*
X109578210Y-101883489D01*
X109578210Y-101883489D01*
G37*
G36*
X105778210Y-101883489D02*
X105864949Y-101909802D01*
X105944891Y-101952532D01*
X106014963Y-102010037D01*
X106072468Y-102080109D01*
X106115198Y-102160051D01*
X106141511Y-102246790D01*
X106151000Y-102343140D01*
X106151000Y-104256860D01*
X106141511Y-104353210D01*
X106115198Y-104439949D01*
X106072468Y-104519891D01*
X106014963Y-104589963D01*
X105944891Y-104647468D01*
X105864949Y-104690198D01*
X105778210Y-104716511D01*
X105681860Y-104726000D01*
X104518140Y-104726000D01*
X104421790Y-104716511D01*
X104335051Y-104690198D01*
X104255109Y-104647468D01*
X104185037Y-104589963D01*
X104127532Y-104519891D01*
X104084802Y-104439949D01*
X104058489Y-104353210D01*
X104049000Y-104256860D01*
X104049000Y-102343140D01*
X104058489Y-102246790D01*
X104084802Y-102160051D01*
X104127532Y-102080109D01*
X104185037Y-102010037D01*
X104255109Y-101952532D01*
X104335051Y-101909802D01*
X104421790Y-101883489D01*
X104518140Y-101874000D01*
X105681860Y-101874000D01*
X105778210Y-101883489D01*
X105778210Y-101883489D01*
G37*
G36*
X102078210Y-101883489D02*
X102164949Y-101909802D01*
X102244891Y-101952532D01*
X102314963Y-102010037D01*
X102372468Y-102080109D01*
X102415198Y-102160051D01*
X102441511Y-102246790D01*
X102451000Y-102343140D01*
X102451000Y-104256860D01*
X102441511Y-104353210D01*
X102415198Y-104439949D01*
X102372468Y-104519891D01*
X102314963Y-104589963D01*
X102244891Y-104647468D01*
X102164949Y-104690198D01*
X102078210Y-104716511D01*
X101981860Y-104726000D01*
X100818140Y-104726000D01*
X100721790Y-104716511D01*
X100635051Y-104690198D01*
X100555109Y-104647468D01*
X100485037Y-104589963D01*
X100427532Y-104519891D01*
X100384802Y-104439949D01*
X100358489Y-104353210D01*
X100349000Y-104256860D01*
X100349000Y-102343140D01*
X100358489Y-102246790D01*
X100384802Y-102160051D01*
X100427532Y-102080109D01*
X100485037Y-102010037D01*
X100555109Y-101952532D01*
X100635051Y-101909802D01*
X100721790Y-101883489D01*
X100818140Y-101874000D01*
X101981860Y-101874000D01*
X102078210Y-101883489D01*
X102078210Y-101883489D01*
G37*
G36*
X98278210Y-101883489D02*
X98364949Y-101909802D01*
X98444891Y-101952532D01*
X98514963Y-102010037D01*
X98572468Y-102080109D01*
X98615198Y-102160051D01*
X98641511Y-102246790D01*
X98651000Y-102343140D01*
X98651000Y-104256860D01*
X98641511Y-104353210D01*
X98615198Y-104439949D01*
X98572468Y-104519891D01*
X98514963Y-104589963D01*
X98444891Y-104647468D01*
X98364949Y-104690198D01*
X98278210Y-104716511D01*
X98181860Y-104726000D01*
X97018140Y-104726000D01*
X96921790Y-104716511D01*
X96835051Y-104690198D01*
X96755109Y-104647468D01*
X96685037Y-104589963D01*
X96627532Y-104519891D01*
X96584802Y-104439949D01*
X96558489Y-104353210D01*
X96549000Y-104256860D01*
X96549000Y-102343140D01*
X96558489Y-102246790D01*
X96584802Y-102160051D01*
X96627532Y-102080109D01*
X96685037Y-102010037D01*
X96755109Y-101952532D01*
X96835051Y-101909802D01*
X96921790Y-101883489D01*
X97018140Y-101874000D01*
X98181860Y-101874000D01*
X98278210Y-101883489D01*
X98278210Y-101883489D01*
G37*
G36*
X117076210Y-101783489D02*
X117162949Y-101809802D01*
X117242891Y-101852532D01*
X117312963Y-101910037D01*
X117370468Y-101980109D01*
X117413198Y-102060051D01*
X117439511Y-102146790D01*
X117449000Y-102243140D01*
X117449000Y-104156860D01*
X117439511Y-104253210D01*
X117413198Y-104339949D01*
X117370468Y-104419891D01*
X117312963Y-104489963D01*
X117242891Y-104547468D01*
X117162949Y-104590198D01*
X117076210Y-104616511D01*
X116979860Y-104626000D01*
X115816140Y-104626000D01*
X115719790Y-104616511D01*
X115633051Y-104590198D01*
X115553109Y-104547468D01*
X115483037Y-104489963D01*
X115425532Y-104419891D01*
X115382802Y-104339949D01*
X115356489Y-104253210D01*
X115347000Y-104156860D01*
X115347000Y-102243140D01*
X115356489Y-102146790D01*
X115382802Y-102060051D01*
X115425532Y-101980109D01*
X115483037Y-101910037D01*
X115553109Y-101852532D01*
X115633051Y-101809802D01*
X115719790Y-101783489D01*
X115816140Y-101774000D01*
X116979860Y-101774000D01*
X117076210Y-101783489D01*
X117076210Y-101783489D01*
G37*
G36*
X124912638Y-102469170D02*
X125036575Y-102520506D01*
X125148115Y-102595035D01*
X125242965Y-102689885D01*
X125317494Y-102801425D01*
X125368830Y-102925362D01*
X125395000Y-103056926D01*
X125395000Y-103191074D01*
X125368830Y-103322638D01*
X125317494Y-103446575D01*
X125242965Y-103558115D01*
X125148115Y-103652965D01*
X125036575Y-103727494D01*
X124912638Y-103778830D01*
X124781074Y-103805000D01*
X124646926Y-103805000D01*
X124515362Y-103778830D01*
X124391425Y-103727494D01*
X124279885Y-103652965D01*
X124185035Y-103558115D01*
X124110506Y-103446575D01*
X124059170Y-103322638D01*
X124033000Y-103191074D01*
X124033000Y-103056926D01*
X124059170Y-102925362D01*
X124110506Y-102801425D01*
X124185035Y-102689885D01*
X124279885Y-102595035D01*
X124391425Y-102520506D01*
X124515362Y-102469170D01*
X124646926Y-102443000D01*
X124781074Y-102443000D01*
X124912638Y-102469170D01*
X124912638Y-102469170D01*
G37*
G36*
X127452638Y-99929170D02*
X127576575Y-99980506D01*
X127688115Y-100055035D01*
X127782965Y-100149885D01*
X127857494Y-100261425D01*
X127908830Y-100385362D01*
X127935000Y-100516926D01*
X127935000Y-100651074D01*
X127908830Y-100782638D01*
X127857494Y-100906575D01*
X127782965Y-101018115D01*
X127688115Y-101112965D01*
X127576575Y-101187494D01*
X127452638Y-101238830D01*
X127321074Y-101265000D01*
X127186926Y-101265000D01*
X127055362Y-101238830D01*
X126931425Y-101187494D01*
X126819885Y-101112965D01*
X126725035Y-101018115D01*
X126650506Y-100906575D01*
X126599170Y-100782638D01*
X126573000Y-100651074D01*
X126573000Y-100516926D01*
X126599170Y-100385362D01*
X126650506Y-100261425D01*
X126725035Y-100149885D01*
X126819885Y-100055035D01*
X126931425Y-99980506D01*
X127055362Y-99929170D01*
X127186926Y-99903000D01*
X127321074Y-99903000D01*
X127452638Y-99929170D01*
X127452638Y-99929170D01*
G37*
G36*
X124912638Y-97389170D02*
X125036575Y-97440506D01*
X125148115Y-97515035D01*
X125242965Y-97609885D01*
X125317494Y-97721425D01*
X125368830Y-97845362D01*
X125395000Y-97976926D01*
X125395000Y-98111074D01*
X125368830Y-98242638D01*
X125317494Y-98366575D01*
X125242965Y-98478115D01*
X125148115Y-98572965D01*
X125036575Y-98647494D01*
X124912638Y-98698830D01*
X124781074Y-98725000D01*
X124646926Y-98725000D01*
X124515362Y-98698830D01*
X124391425Y-98647494D01*
X124279885Y-98572965D01*
X124185035Y-98478115D01*
X124110506Y-98366575D01*
X124059170Y-98242638D01*
X124033000Y-98111074D01*
X124033000Y-97976926D01*
X124059170Y-97845362D01*
X124110506Y-97721425D01*
X124185035Y-97609885D01*
X124279885Y-97515035D01*
X124391425Y-97440506D01*
X124515362Y-97389170D01*
X124646926Y-97363000D01*
X124781074Y-97363000D01*
X124912638Y-97389170D01*
X124912638Y-97389170D01*
G37*
G36*
X145355653Y-95612393D02*
X145421837Y-95618911D01*
X145535063Y-95653258D01*
X145591677Y-95670431D01*
X145730297Y-95744526D01*
X145748201Y-95754096D01*
X145783939Y-95783426D01*
X145885396Y-95866688D01*
X145945466Y-95939885D01*
X145997988Y-96003883D01*
X145997989Y-96003885D01*
X146081653Y-96160407D01*
X146081653Y-96160408D01*
X146133173Y-96330247D01*
X146150569Y-96506874D01*
X146133173Y-96683501D01*
X146101067Y-96789340D01*
X146081653Y-96853341D01*
X146032198Y-96945863D01*
X145997988Y-97009865D01*
X145968658Y-97045603D01*
X145885396Y-97147060D01*
X145783939Y-97230322D01*
X145748201Y-97259652D01*
X145748199Y-97259653D01*
X145591677Y-97343317D01*
X145535063Y-97360490D01*
X145421837Y-97394837D01*
X145355653Y-97401355D01*
X145289470Y-97407874D01*
X145200950Y-97407874D01*
X145134767Y-97401355D01*
X145068583Y-97394837D01*
X144955357Y-97360490D01*
X144898743Y-97343317D01*
X144742221Y-97259653D01*
X144742219Y-97259652D01*
X144706481Y-97230322D01*
X144605024Y-97147060D01*
X144521762Y-97045603D01*
X144492432Y-97009865D01*
X144458222Y-96945863D01*
X144408767Y-96853341D01*
X144389353Y-96789340D01*
X144357247Y-96683501D01*
X144339851Y-96506874D01*
X144357247Y-96330247D01*
X144408767Y-96160408D01*
X144408767Y-96160407D01*
X144492431Y-96003885D01*
X144492432Y-96003883D01*
X144544954Y-95939885D01*
X144605024Y-95866688D01*
X144706481Y-95783426D01*
X144742219Y-95754096D01*
X144760123Y-95744526D01*
X144898743Y-95670431D01*
X144955357Y-95653258D01*
X145068583Y-95618911D01*
X145134767Y-95612393D01*
X145200950Y-95605874D01*
X145289470Y-95605874D01*
X145355653Y-95612393D01*
X145355653Y-95612393D01*
G37*
G36*
X149419652Y-95548392D02*
X149485837Y-95554911D01*
X149599063Y-95589258D01*
X149655677Y-95606431D01*
X149775411Y-95670431D01*
X149812201Y-95690096D01*
X149847939Y-95719426D01*
X149949396Y-95802688D01*
X150001919Y-95866689D01*
X150061988Y-95939883D01*
X150061989Y-95939885D01*
X150145653Y-96096407D01*
X150145653Y-96096408D01*
X150197173Y-96266247D01*
X150214569Y-96442874D01*
X150197173Y-96619501D01*
X150177759Y-96683499D01*
X150145653Y-96789341D01*
X150071558Y-96927961D01*
X150061988Y-96945865D01*
X150032658Y-96981603D01*
X149949396Y-97083060D01*
X149847939Y-97166322D01*
X149812201Y-97195652D01*
X149812199Y-97195653D01*
X149655677Y-97279317D01*
X149599063Y-97296490D01*
X149485837Y-97330837D01*
X149419653Y-97337355D01*
X149353470Y-97343874D01*
X149264950Y-97343874D01*
X149198768Y-97337356D01*
X149132583Y-97330837D01*
X149019357Y-97296490D01*
X148962743Y-97279317D01*
X148806221Y-97195653D01*
X148806219Y-97195652D01*
X148770481Y-97166322D01*
X148669024Y-97083060D01*
X148585762Y-96981603D01*
X148556432Y-96945865D01*
X148546862Y-96927961D01*
X148472767Y-96789341D01*
X148440661Y-96683499D01*
X148421247Y-96619501D01*
X148403851Y-96442874D01*
X148421247Y-96266247D01*
X148472767Y-96096408D01*
X148472767Y-96096407D01*
X148556431Y-95939885D01*
X148556432Y-95939883D01*
X148616501Y-95866689D01*
X148669024Y-95802688D01*
X148770481Y-95719426D01*
X148806219Y-95690096D01*
X148843009Y-95670431D01*
X148962743Y-95606431D01*
X149019357Y-95589258D01*
X149132583Y-95554911D01*
X149198768Y-95548392D01*
X149264950Y-95541874D01*
X149353470Y-95541874D01*
X149419652Y-95548392D01*
X149419652Y-95548392D01*
G37*
G36*
X90633855Y-93840140D02*
X90697618Y-93846420D01*
X90779427Y-93871237D01*
X90820333Y-93883645D01*
X90920491Y-93937181D01*
X90933426Y-93944095D01*
X91032553Y-94025447D01*
X91113905Y-94124574D01*
X91113906Y-94124576D01*
X91174355Y-94237667D01*
X91174355Y-94237668D01*
X91211580Y-94360382D01*
X91224149Y-94488000D01*
X91211580Y-94615618D01*
X91186763Y-94697427D01*
X91174355Y-94738333D01*
X91139322Y-94803874D01*
X91113905Y-94851426D01*
X91032553Y-94950553D01*
X90933426Y-95031905D01*
X90933424Y-95031906D01*
X90820333Y-95092355D01*
X90779427Y-95104763D01*
X90697618Y-95129580D01*
X90633855Y-95135860D01*
X90601974Y-95139000D01*
X89738026Y-95139000D01*
X89706145Y-95135860D01*
X89642382Y-95129580D01*
X89560573Y-95104763D01*
X89519667Y-95092355D01*
X89406576Y-95031906D01*
X89406574Y-95031905D01*
X89307447Y-94950553D01*
X89226095Y-94851426D01*
X89200678Y-94803874D01*
X89165645Y-94738333D01*
X89153237Y-94697427D01*
X89128420Y-94615618D01*
X89115851Y-94488000D01*
X89128420Y-94360382D01*
X89165645Y-94237668D01*
X89165645Y-94237667D01*
X89226094Y-94124576D01*
X89226095Y-94124574D01*
X89307447Y-94025447D01*
X89406574Y-93944095D01*
X89419509Y-93937181D01*
X89519667Y-93883645D01*
X89560573Y-93871237D01*
X89642382Y-93846420D01*
X89706145Y-93840140D01*
X89738026Y-93837000D01*
X90601974Y-93837000D01*
X90633855Y-93840140D01*
X90633855Y-93840140D01*
G37*
G36*
X146146210Y-94867874D02*
X144344210Y-94867874D01*
X144344210Y-93065874D01*
X146146210Y-93065874D01*
X146146210Y-94867874D01*
X146146210Y-94867874D01*
G37*
G36*
X150210210Y-94803874D02*
X148408210Y-94803874D01*
X148408210Y-93001874D01*
X150210210Y-93001874D01*
X150210210Y-94803874D01*
X150210210Y-94803874D01*
G37*
G36*
X90633855Y-91300140D02*
X90697618Y-91306420D01*
X90779427Y-91331237D01*
X90820333Y-91343645D01*
X90920491Y-91397181D01*
X90933426Y-91404095D01*
X91032553Y-91485447D01*
X91113905Y-91584574D01*
X91113906Y-91584576D01*
X91174355Y-91697667D01*
X91174355Y-91697668D01*
X91211580Y-91820382D01*
X91224149Y-91948000D01*
X91211580Y-92075618D01*
X91186763Y-92157427D01*
X91174355Y-92198333D01*
X91120819Y-92298491D01*
X91113905Y-92311426D01*
X91032553Y-92410553D01*
X90933426Y-92491905D01*
X90933424Y-92491906D01*
X90820333Y-92552355D01*
X90779427Y-92564763D01*
X90697618Y-92589580D01*
X90633855Y-92595860D01*
X90601974Y-92599000D01*
X89738026Y-92599000D01*
X89706145Y-92595860D01*
X89642382Y-92589580D01*
X89560573Y-92564763D01*
X89519667Y-92552355D01*
X89406576Y-92491906D01*
X89406574Y-92491905D01*
X89307447Y-92410553D01*
X89226095Y-92311426D01*
X89219181Y-92298491D01*
X89165645Y-92198333D01*
X89153237Y-92157427D01*
X89128420Y-92075618D01*
X89115851Y-91948000D01*
X89128420Y-91820382D01*
X89165645Y-91697668D01*
X89165645Y-91697667D01*
X89226094Y-91584576D01*
X89226095Y-91584574D01*
X89307447Y-91485447D01*
X89406574Y-91404095D01*
X89419509Y-91397181D01*
X89519667Y-91343645D01*
X89560573Y-91331237D01*
X89642382Y-91306420D01*
X89706145Y-91300140D01*
X89738026Y-91297000D01*
X90601974Y-91297000D01*
X90633855Y-91300140D01*
X90633855Y-91300140D01*
G37*
G36*
X90633855Y-86220140D02*
X90697618Y-86226420D01*
X90779427Y-86251237D01*
X90820333Y-86263645D01*
X90920491Y-86317181D01*
X90933426Y-86324095D01*
X91032553Y-86405447D01*
X91113905Y-86504574D01*
X91113906Y-86504576D01*
X91174355Y-86617667D01*
X91174355Y-86617668D01*
X91211580Y-86740382D01*
X91224149Y-86868000D01*
X91211580Y-86995618D01*
X91186763Y-87077427D01*
X91174355Y-87118333D01*
X91120819Y-87218491D01*
X91113905Y-87231426D01*
X91032553Y-87330553D01*
X90933426Y-87411905D01*
X90933424Y-87411906D01*
X90820333Y-87472355D01*
X90779427Y-87484763D01*
X90697618Y-87509580D01*
X90633855Y-87515860D01*
X90601974Y-87519000D01*
X89738026Y-87519000D01*
X89706145Y-87515860D01*
X89642382Y-87509580D01*
X89560573Y-87484763D01*
X89519667Y-87472355D01*
X89406576Y-87411906D01*
X89406574Y-87411905D01*
X89307447Y-87330553D01*
X89226095Y-87231426D01*
X89219181Y-87218491D01*
X89165645Y-87118333D01*
X89153237Y-87077427D01*
X89128420Y-86995618D01*
X89115851Y-86868000D01*
X89128420Y-86740382D01*
X89165645Y-86617668D01*
X89165645Y-86617667D01*
X89226094Y-86504576D01*
X89226095Y-86504574D01*
X89307447Y-86405447D01*
X89406574Y-86324095D01*
X89419509Y-86317181D01*
X89519667Y-86263645D01*
X89560573Y-86251237D01*
X89642382Y-86226420D01*
X89706145Y-86220140D01*
X89738026Y-86217000D01*
X90601974Y-86217000D01*
X90633855Y-86220140D01*
X90633855Y-86220140D01*
G37*
G36*
X90633855Y-83680140D02*
X90697618Y-83686420D01*
X90779427Y-83711237D01*
X90820333Y-83723645D01*
X90920491Y-83777181D01*
X90933426Y-83784095D01*
X91032553Y-83865447D01*
X91113905Y-83964574D01*
X91113906Y-83964576D01*
X91174355Y-84077667D01*
X91174355Y-84077668D01*
X91211580Y-84200382D01*
X91224149Y-84328000D01*
X91211580Y-84455618D01*
X91186763Y-84537427D01*
X91174355Y-84578333D01*
X91120819Y-84678491D01*
X91113905Y-84691426D01*
X91032553Y-84790553D01*
X90933426Y-84871905D01*
X90933424Y-84871906D01*
X90820333Y-84932355D01*
X90779427Y-84944763D01*
X90697618Y-84969580D01*
X90633855Y-84975860D01*
X90601974Y-84979000D01*
X89738026Y-84979000D01*
X89706145Y-84975860D01*
X89642382Y-84969580D01*
X89560573Y-84944763D01*
X89519667Y-84932355D01*
X89406576Y-84871906D01*
X89406574Y-84871905D01*
X89307447Y-84790553D01*
X89226095Y-84691426D01*
X89219181Y-84678491D01*
X89165645Y-84578333D01*
X89153237Y-84537427D01*
X89128420Y-84455618D01*
X89115851Y-84328000D01*
X89128420Y-84200382D01*
X89165645Y-84077668D01*
X89165645Y-84077667D01*
X89226094Y-83964576D01*
X89226095Y-83964574D01*
X89307447Y-83865447D01*
X89406574Y-83784095D01*
X89419509Y-83777181D01*
X89519667Y-83723645D01*
X89560573Y-83711237D01*
X89642382Y-83686420D01*
X89706145Y-83680140D01*
X89738026Y-83677000D01*
X90601974Y-83677000D01*
X90633855Y-83680140D01*
X90633855Y-83680140D01*
G37*
G36*
X90633855Y-81140140D02*
X90697618Y-81146420D01*
X90779427Y-81171237D01*
X90820333Y-81183645D01*
X90920491Y-81237181D01*
X90933426Y-81244095D01*
X91032553Y-81325447D01*
X91113905Y-81424574D01*
X91113906Y-81424576D01*
X91174355Y-81537667D01*
X91174355Y-81537668D01*
X91211580Y-81660382D01*
X91224149Y-81788000D01*
X91211580Y-81915618D01*
X91186763Y-81997427D01*
X91174355Y-82038333D01*
X91120819Y-82138491D01*
X91113905Y-82151426D01*
X91032553Y-82250553D01*
X90933426Y-82331905D01*
X90933424Y-82331906D01*
X90820333Y-82392355D01*
X90779427Y-82404763D01*
X90697618Y-82429580D01*
X90633855Y-82435860D01*
X90601974Y-82439000D01*
X89738026Y-82439000D01*
X89706145Y-82435860D01*
X89642382Y-82429580D01*
X89560573Y-82404763D01*
X89519667Y-82392355D01*
X89406576Y-82331906D01*
X89406574Y-82331905D01*
X89307447Y-82250553D01*
X89226095Y-82151426D01*
X89219181Y-82138491D01*
X89165645Y-82038333D01*
X89153237Y-81997427D01*
X89128420Y-81915618D01*
X89115851Y-81788000D01*
X89128420Y-81660382D01*
X89165645Y-81537668D01*
X89165645Y-81537667D01*
X89226094Y-81424576D01*
X89226095Y-81424574D01*
X89307447Y-81325447D01*
X89406574Y-81244095D01*
X89419509Y-81237181D01*
X89519667Y-81183645D01*
X89560573Y-81171237D01*
X89642382Y-81146420D01*
X89706145Y-81140140D01*
X89738026Y-81137000D01*
X90601974Y-81137000D01*
X90633855Y-81140140D01*
X90633855Y-81140140D01*
G37*
G36*
X139376461Y-77889949D02*
X139500410Y-77914604D01*
X139782674Y-78031521D01*
X140036705Y-78201259D01*
X140252741Y-78417295D01*
X140422479Y-78671326D01*
X140539396Y-78953590D01*
X140599000Y-79253240D01*
X140599000Y-79558760D01*
X140539396Y-79858410D01*
X140422479Y-80140674D01*
X140252741Y-80394705D01*
X140036705Y-80610741D01*
X139782674Y-80780479D01*
X139500410Y-80897396D01*
X139400527Y-80917264D01*
X139200762Y-80957000D01*
X138895238Y-80957000D01*
X138695473Y-80917264D01*
X138595590Y-80897396D01*
X138313326Y-80780479D01*
X138059295Y-80610741D01*
X137843259Y-80394705D01*
X137673521Y-80140674D01*
X137556604Y-79858410D01*
X137497000Y-79558760D01*
X137497000Y-79253240D01*
X137556604Y-78953590D01*
X137673521Y-78671326D01*
X137843259Y-78417295D01*
X138059295Y-78201259D01*
X138313326Y-78031521D01*
X138595590Y-77914604D01*
X138719539Y-77889949D01*
X138895238Y-77855000D01*
X139200762Y-77855000D01*
X139376461Y-77889949D01*
X139376461Y-77889949D01*
G37*
G36*
X98230210Y-75433489D02*
X98316949Y-75459802D01*
X98396891Y-75502532D01*
X98466963Y-75560037D01*
X98524468Y-75630109D01*
X98567198Y-75710051D01*
X98593511Y-75796790D01*
X98603000Y-75893140D01*
X98603000Y-77806860D01*
X98593511Y-77903210D01*
X98567198Y-77989949D01*
X98524468Y-78069891D01*
X98466963Y-78139963D01*
X98396891Y-78197468D01*
X98316949Y-78240198D01*
X98230210Y-78266511D01*
X98133860Y-78276000D01*
X96970140Y-78276000D01*
X96873790Y-78266511D01*
X96787051Y-78240198D01*
X96707109Y-78197468D01*
X96637037Y-78139963D01*
X96579532Y-78069891D01*
X96536802Y-77989949D01*
X96510489Y-77903210D01*
X96501000Y-77806860D01*
X96501000Y-75893140D01*
X96510489Y-75796790D01*
X96536802Y-75710051D01*
X96579532Y-75630109D01*
X96637037Y-75560037D01*
X96707109Y-75502532D01*
X96787051Y-75459802D01*
X96873790Y-75433489D01*
X96970140Y-75424000D01*
X98133860Y-75424000D01*
X98230210Y-75433489D01*
X98230210Y-75433489D01*
G37*
G36*
X147372565Y-76205389D02*
X147563834Y-76284615D01*
X147735976Y-76399637D01*
X147882363Y-76546024D01*
X147997385Y-76718166D01*
X148076611Y-76909435D01*
X148117000Y-77112484D01*
X148117000Y-77319516D01*
X148076611Y-77522565D01*
X147997385Y-77713834D01*
X147882363Y-77885976D01*
X147735976Y-78032363D01*
X147563834Y-78147385D01*
X147372565Y-78226611D01*
X147169516Y-78267000D01*
X146962484Y-78267000D01*
X146759435Y-78226611D01*
X146568166Y-78147385D01*
X146396024Y-78032363D01*
X146249637Y-77885976D01*
X146134615Y-77713834D01*
X146055389Y-77522565D01*
X146015000Y-77319516D01*
X146015000Y-77112484D01*
X146055389Y-76909435D01*
X146134615Y-76718166D01*
X146249637Y-76546024D01*
X146396024Y-76399637D01*
X146568166Y-76284615D01*
X146759435Y-76205389D01*
X146962484Y-76165000D01*
X147169516Y-76165000D01*
X147372565Y-76205389D01*
X147372565Y-76205389D01*
G37*
G36*
X105728210Y-75333489D02*
X105814949Y-75359802D01*
X105894891Y-75402532D01*
X105964963Y-75460037D01*
X106022468Y-75530109D01*
X106065198Y-75610051D01*
X106091511Y-75696790D01*
X106101000Y-75793140D01*
X106101000Y-77706860D01*
X106091511Y-77803210D01*
X106065198Y-77889949D01*
X106022468Y-77969891D01*
X105964963Y-78039963D01*
X105894891Y-78097468D01*
X105814949Y-78140198D01*
X105728210Y-78166511D01*
X105631860Y-78176000D01*
X104468140Y-78176000D01*
X104371790Y-78166511D01*
X104285051Y-78140198D01*
X104205109Y-78097468D01*
X104135037Y-78039963D01*
X104077532Y-77969891D01*
X104034802Y-77889949D01*
X104008489Y-77803210D01*
X103999000Y-77706860D01*
X103999000Y-75793140D01*
X104008489Y-75696790D01*
X104034802Y-75610051D01*
X104077532Y-75530109D01*
X104135037Y-75460037D01*
X104205109Y-75402532D01*
X104285051Y-75359802D01*
X104371790Y-75333489D01*
X104468140Y-75324000D01*
X105631860Y-75324000D01*
X105728210Y-75333489D01*
X105728210Y-75333489D01*
G37*
G36*
X102028210Y-75333489D02*
X102114949Y-75359802D01*
X102194891Y-75402532D01*
X102264963Y-75460037D01*
X102322468Y-75530109D01*
X102365198Y-75610051D01*
X102391511Y-75696790D01*
X102401000Y-75793140D01*
X102401000Y-77706860D01*
X102391511Y-77803210D01*
X102365198Y-77889949D01*
X102322468Y-77969891D01*
X102264963Y-78039963D01*
X102194891Y-78097468D01*
X102114949Y-78140198D01*
X102028210Y-78166511D01*
X101931860Y-78176000D01*
X100768140Y-78176000D01*
X100671790Y-78166511D01*
X100585051Y-78140198D01*
X100505109Y-78097468D01*
X100435037Y-78039963D01*
X100377532Y-77969891D01*
X100334802Y-77889949D01*
X100308489Y-77803210D01*
X100299000Y-77706860D01*
X100299000Y-75793140D01*
X100308489Y-75696790D01*
X100334802Y-75610051D01*
X100377532Y-75530109D01*
X100435037Y-75460037D01*
X100505109Y-75402532D01*
X100585051Y-75359802D01*
X100671790Y-75333489D01*
X100768140Y-75324000D01*
X101931860Y-75324000D01*
X102028210Y-75333489D01*
X102028210Y-75333489D01*
G37*
G36*
X109528210Y-75333489D02*
X109614949Y-75359802D01*
X109694891Y-75402532D01*
X109764963Y-75460037D01*
X109822468Y-75530109D01*
X109865198Y-75610051D01*
X109891511Y-75696790D01*
X109901000Y-75793140D01*
X109901000Y-77706860D01*
X109891511Y-77803210D01*
X109865198Y-77889949D01*
X109822468Y-77969891D01*
X109764963Y-78039963D01*
X109694891Y-78097468D01*
X109614949Y-78140198D01*
X109528210Y-78166511D01*
X109431860Y-78176000D01*
X108268140Y-78176000D01*
X108171790Y-78166511D01*
X108085051Y-78140198D01*
X108005109Y-78097468D01*
X107935037Y-78039963D01*
X107877532Y-77969891D01*
X107834802Y-77889949D01*
X107808489Y-77803210D01*
X107799000Y-77706860D01*
X107799000Y-75793140D01*
X107808489Y-75696790D01*
X107834802Y-75610051D01*
X107877532Y-75530109D01*
X107935037Y-75460037D01*
X108005109Y-75402532D01*
X108085051Y-75359802D01*
X108171790Y-75333489D01*
X108268140Y-75324000D01*
X109431860Y-75324000D01*
X109528210Y-75333489D01*
X109528210Y-75333489D01*
G37*
G36*
X113228210Y-75333489D02*
X113314949Y-75359802D01*
X113394891Y-75402532D01*
X113464963Y-75460037D01*
X113522468Y-75530109D01*
X113565198Y-75610051D01*
X113591511Y-75696790D01*
X113601000Y-75793140D01*
X113601000Y-77706860D01*
X113591511Y-77803210D01*
X113565198Y-77889949D01*
X113522468Y-77969891D01*
X113464963Y-78039963D01*
X113394891Y-78097468D01*
X113314949Y-78140198D01*
X113228210Y-78166511D01*
X113131860Y-78176000D01*
X111968140Y-78176000D01*
X111871790Y-78166511D01*
X111785051Y-78140198D01*
X111705109Y-78097468D01*
X111635037Y-78039963D01*
X111577532Y-77969891D01*
X111534802Y-77889949D01*
X111508489Y-77803210D01*
X111499000Y-77706860D01*
X111499000Y-75793140D01*
X111508489Y-75696790D01*
X111534802Y-75610051D01*
X111577532Y-75530109D01*
X111635037Y-75460037D01*
X111705109Y-75402532D01*
X111785051Y-75359802D01*
X111871790Y-75333489D01*
X111968140Y-75324000D01*
X113131860Y-75324000D01*
X113228210Y-75333489D01*
X113228210Y-75333489D01*
G37*
G36*
X117028210Y-75333489D02*
X117114949Y-75359802D01*
X117194891Y-75402532D01*
X117264963Y-75460037D01*
X117322468Y-75530109D01*
X117365198Y-75610051D01*
X117391511Y-75696790D01*
X117401000Y-75793140D01*
X117401000Y-77706860D01*
X117391511Y-77803210D01*
X117365198Y-77889949D01*
X117322468Y-77969891D01*
X117264963Y-78039963D01*
X117194891Y-78097468D01*
X117114949Y-78140198D01*
X117028210Y-78166511D01*
X116931860Y-78176000D01*
X115768140Y-78176000D01*
X115671790Y-78166511D01*
X115585051Y-78140198D01*
X115505109Y-78097468D01*
X115435037Y-78039963D01*
X115377532Y-77969891D01*
X115334802Y-77889949D01*
X115308489Y-77803210D01*
X115299000Y-77706860D01*
X115299000Y-75793140D01*
X115308489Y-75696790D01*
X115334802Y-75610051D01*
X115377532Y-75530109D01*
X115435037Y-75460037D01*
X115505109Y-75402532D01*
X115585051Y-75359802D01*
X115671790Y-75333489D01*
X115768140Y-75324000D01*
X116931860Y-75324000D01*
X117028210Y-75333489D01*
X117028210Y-75333489D01*
G37*
G36*
X91021000Y-76797000D02*
X89319000Y-76797000D01*
X89319000Y-75095000D01*
X91021000Y-75095000D01*
X91021000Y-76797000D01*
X91021000Y-76797000D01*
G37*
G36*
X90418228Y-72627703D02*
X90573100Y-72691853D01*
X90712481Y-72784985D01*
X90831015Y-72903519D01*
X90924147Y-73042900D01*
X90988297Y-73197772D01*
X91021000Y-73362184D01*
X91021000Y-73529816D01*
X90988297Y-73694228D01*
X90924147Y-73849100D01*
X90831015Y-73988481D01*
X90712481Y-74107015D01*
X90573100Y-74200147D01*
X90418228Y-74264297D01*
X90253816Y-74297000D01*
X90086184Y-74297000D01*
X89921772Y-74264297D01*
X89766900Y-74200147D01*
X89627519Y-74107015D01*
X89508985Y-73988481D01*
X89415853Y-73849100D01*
X89351703Y-73694228D01*
X89319000Y-73529816D01*
X89319000Y-73362184D01*
X89351703Y-73197772D01*
X89415853Y-73042900D01*
X89508985Y-72903519D01*
X89627519Y-72784985D01*
X89766900Y-72691853D01*
X89921772Y-72627703D01*
X90086184Y-72595000D01*
X90253816Y-72595000D01*
X90418228Y-72627703D01*
X90418228Y-72627703D01*
G37*
G36*
X92595000Y-69227000D02*
X90793000Y-69227000D01*
X90793000Y-67425000D01*
X92595000Y-67425000D01*
X92595000Y-69227000D01*
X92595000Y-69227000D01*
G37*
G36*
X91804442Y-64891518D02*
X91870627Y-64898037D01*
X91983853Y-64932384D01*
X92040467Y-64949557D01*
X92179087Y-65023652D01*
X92196991Y-65033222D01*
X92232729Y-65062552D01*
X92334186Y-65145814D01*
X92417448Y-65247271D01*
X92446778Y-65283009D01*
X92446779Y-65283011D01*
X92530443Y-65439533D01*
X92530443Y-65439534D01*
X92581963Y-65609373D01*
X92599359Y-65786000D01*
X92581963Y-65962627D01*
X92567407Y-66010611D01*
X92530443Y-66132467D01*
X92456348Y-66271087D01*
X92446778Y-66288991D01*
X92417448Y-66324729D01*
X92334186Y-66426186D01*
X92232729Y-66509448D01*
X92196991Y-66538778D01*
X92196989Y-66538779D01*
X92040467Y-66622443D01*
X91983853Y-66639616D01*
X91870627Y-66673963D01*
X91804442Y-66680482D01*
X91738260Y-66687000D01*
X91649740Y-66687000D01*
X91583558Y-66680482D01*
X91517373Y-66673963D01*
X91404147Y-66639616D01*
X91347533Y-66622443D01*
X91191011Y-66538779D01*
X91191009Y-66538778D01*
X91155271Y-66509448D01*
X91053814Y-66426186D01*
X90970552Y-66324729D01*
X90941222Y-66288991D01*
X90931652Y-66271087D01*
X90857557Y-66132467D01*
X90820593Y-66010611D01*
X90806037Y-65962627D01*
X90788641Y-65786000D01*
X90806037Y-65609373D01*
X90857557Y-65439534D01*
X90857557Y-65439533D01*
X90941221Y-65283011D01*
X90941222Y-65283009D01*
X90970552Y-65247271D01*
X91053814Y-65145814D01*
X91155271Y-65062552D01*
X91191009Y-65033222D01*
X91208913Y-65023652D01*
X91347533Y-64949557D01*
X91404147Y-64932384D01*
X91517373Y-64898037D01*
X91583558Y-64891518D01*
X91649740Y-64885000D01*
X91738260Y-64885000D01*
X91804442Y-64891518D01*
X91804442Y-64891518D01*
G37*
G36*
X129806565Y-63989389D02*
X129997834Y-64068615D01*
X130169976Y-64183637D01*
X130316363Y-64330024D01*
X130431385Y-64502166D01*
X130510611Y-64693435D01*
X130551000Y-64896484D01*
X130551000Y-65103516D01*
X130510611Y-65306565D01*
X130431385Y-65497834D01*
X130316363Y-65669976D01*
X130169976Y-65816363D01*
X129997834Y-65931385D01*
X129806565Y-66010611D01*
X129603516Y-66051000D01*
X129396484Y-66051000D01*
X129193435Y-66010611D01*
X129002166Y-65931385D01*
X128830024Y-65816363D01*
X128683637Y-65669976D01*
X128568615Y-65497834D01*
X128489389Y-65306565D01*
X128449000Y-65103516D01*
X128449000Y-64896484D01*
X128489389Y-64693435D01*
X128568615Y-64502166D01*
X128683637Y-64330024D01*
X128830024Y-64183637D01*
X129002166Y-64068615D01*
X129193435Y-63989389D01*
X129396484Y-63949000D01*
X129603516Y-63949000D01*
X129806565Y-63989389D01*
X129806565Y-63989389D01*
G37*
G36*
X119806565Y-61489389D02*
X119997834Y-61568615D01*
X120169976Y-61683637D01*
X120316363Y-61830024D01*
X120431385Y-62002166D01*
X120510611Y-62193435D01*
X120551000Y-62396484D01*
X120551000Y-62603516D01*
X120510611Y-62806565D01*
X120431385Y-62997834D01*
X120316363Y-63169976D01*
X120169976Y-63316363D01*
X119997834Y-63431385D01*
X119806565Y-63510611D01*
X119603516Y-63551000D01*
X119396484Y-63551000D01*
X119193435Y-63510611D01*
X119002166Y-63431385D01*
X118830024Y-63316363D01*
X118683637Y-63169976D01*
X118568615Y-62997834D01*
X118489389Y-62806565D01*
X118449000Y-62603516D01*
X118449000Y-62396484D01*
X118489389Y-62193435D01*
X118568615Y-62002166D01*
X118683637Y-61830024D01*
X118830024Y-61683637D01*
X119002166Y-61568615D01*
X119193435Y-61489389D01*
X119396484Y-61449000D01*
X119603516Y-61449000D01*
X119806565Y-61489389D01*
X119806565Y-61489389D01*
G37*
G36*
X99400527Y-57894736D02*
X99500410Y-57914604D01*
X99782674Y-58031521D01*
X100036705Y-58201259D01*
X100252741Y-58417295D01*
X100422479Y-58671326D01*
X100539396Y-58953590D01*
X100599000Y-59253240D01*
X100599000Y-59558760D01*
X100539396Y-59858410D01*
X100422479Y-60140674D01*
X100252741Y-60394705D01*
X100036705Y-60610741D01*
X99782674Y-60780479D01*
X99500410Y-60897396D01*
X99400527Y-60917264D01*
X99200762Y-60957000D01*
X98895238Y-60957000D01*
X98695473Y-60917264D01*
X98595590Y-60897396D01*
X98313326Y-60780479D01*
X98059295Y-60610741D01*
X97843259Y-60394705D01*
X97673521Y-60140674D01*
X97556604Y-59858410D01*
X97497000Y-59558760D01*
X97497000Y-59253240D01*
X97556604Y-58953590D01*
X97673521Y-58671326D01*
X97843259Y-58417295D01*
X98059295Y-58201259D01*
X98313326Y-58031521D01*
X98595590Y-57914604D01*
X98695473Y-57894736D01*
X98895238Y-57855000D01*
X99200762Y-57855000D01*
X99400527Y-57894736D01*
X99400527Y-57894736D01*
G37*
G36*
X91638638Y-57003170D02*
X91762575Y-57054506D01*
X91874115Y-57129035D01*
X91968965Y-57223885D01*
X92043494Y-57335425D01*
X92094830Y-57459362D01*
X92121000Y-57590926D01*
X92121000Y-57725074D01*
X92094830Y-57856638D01*
X92043494Y-57980575D01*
X91968965Y-58092115D01*
X91874115Y-58186965D01*
X91762575Y-58261494D01*
X91638638Y-58312830D01*
X91507074Y-58339000D01*
X91372926Y-58339000D01*
X91241362Y-58312830D01*
X91117425Y-58261494D01*
X91005885Y-58186965D01*
X90911035Y-58092115D01*
X90836506Y-57980575D01*
X90785170Y-57856638D01*
X90759000Y-57725074D01*
X90759000Y-57590926D01*
X90785170Y-57459362D01*
X90836506Y-57335425D01*
X90911035Y-57223885D01*
X91005885Y-57129035D01*
X91117425Y-57054506D01*
X91241362Y-57003170D01*
X91372926Y-56977000D01*
X91507074Y-56977000D01*
X91638638Y-57003170D01*
X91638638Y-57003170D01*
G37*
G36*
X129806565Y-53989389D02*
X129997834Y-54068615D01*
X130169976Y-54183637D01*
X130316363Y-54330024D01*
X130431385Y-54502166D01*
X130510611Y-54693435D01*
X130551000Y-54896484D01*
X130551000Y-55103516D01*
X130510611Y-55306565D01*
X130431385Y-55497834D01*
X130316363Y-55669976D01*
X130169976Y-55816363D01*
X129997834Y-55931385D01*
X129806565Y-56010611D01*
X129603516Y-56051000D01*
X129396484Y-56051000D01*
X129193435Y-56010611D01*
X129002166Y-55931385D01*
X128830024Y-55816363D01*
X128683637Y-55669976D01*
X128568615Y-55497834D01*
X128489389Y-55306565D01*
X128449000Y-55103516D01*
X128449000Y-54896484D01*
X128489389Y-54693435D01*
X128568615Y-54502166D01*
X128683637Y-54330024D01*
X128830024Y-54183637D01*
X129002166Y-54068615D01*
X129193435Y-53989389D01*
X129396484Y-53949000D01*
X129603516Y-53949000D01*
X129806565Y-53989389D01*
X129806565Y-53989389D01*
G37*
G36*
X109806565Y-53989389D02*
X109997834Y-54068615D01*
X110169976Y-54183637D01*
X110316363Y-54330024D01*
X110431385Y-54502166D01*
X110510611Y-54693435D01*
X110551000Y-54896484D01*
X110551000Y-55103516D01*
X110510611Y-55306565D01*
X110431385Y-55497834D01*
X110316363Y-55669976D01*
X110169976Y-55816363D01*
X109997834Y-55931385D01*
X109806565Y-56010611D01*
X109603516Y-56051000D01*
X109396484Y-56051000D01*
X109193435Y-56010611D01*
X109002166Y-55931385D01*
X108830024Y-55816363D01*
X108683637Y-55669976D01*
X108568615Y-55497834D01*
X108489389Y-55306565D01*
X108449000Y-55103516D01*
X108449000Y-54896484D01*
X108489389Y-54693435D01*
X108568615Y-54502166D01*
X108683637Y-54330024D01*
X108830024Y-54183637D01*
X109002166Y-54068615D01*
X109193435Y-53989389D01*
X109396484Y-53949000D01*
X109603516Y-53949000D01*
X109806565Y-53989389D01*
X109806565Y-53989389D01*
G37*
G36*
X89098638Y-54463170D02*
X89222575Y-54514506D01*
X89334115Y-54589035D01*
X89428965Y-54683885D01*
X89503494Y-54795425D01*
X89554830Y-54919362D01*
X89581000Y-55050926D01*
X89581000Y-55185074D01*
X89554830Y-55316638D01*
X89503494Y-55440575D01*
X89428965Y-55552115D01*
X89334115Y-55646965D01*
X89222575Y-55721494D01*
X89098638Y-55772830D01*
X88967074Y-55799000D01*
X88832926Y-55799000D01*
X88701362Y-55772830D01*
X88577425Y-55721494D01*
X88465885Y-55646965D01*
X88371035Y-55552115D01*
X88296506Y-55440575D01*
X88245170Y-55316638D01*
X88219000Y-55185074D01*
X88219000Y-55050926D01*
X88245170Y-54919362D01*
X88296506Y-54795425D01*
X88371035Y-54683885D01*
X88465885Y-54589035D01*
X88577425Y-54514506D01*
X88701362Y-54463170D01*
X88832926Y-54437000D01*
X88967074Y-54437000D01*
X89098638Y-54463170D01*
X89098638Y-54463170D01*
G37*
G36*
X94178638Y-54463170D02*
X94302575Y-54514506D01*
X94414115Y-54589035D01*
X94508965Y-54683885D01*
X94583494Y-54795425D01*
X94634830Y-54919362D01*
X94661000Y-55050926D01*
X94661000Y-55185074D01*
X94634830Y-55316638D01*
X94583494Y-55440575D01*
X94508965Y-55552115D01*
X94414115Y-55646965D01*
X94302575Y-55721494D01*
X94178638Y-55772830D01*
X94047074Y-55799000D01*
X93912926Y-55799000D01*
X93781362Y-55772830D01*
X93657425Y-55721494D01*
X93545885Y-55646965D01*
X93451035Y-55552115D01*
X93376506Y-55440575D01*
X93325170Y-55316638D01*
X93299000Y-55185074D01*
X93299000Y-55050926D01*
X93325170Y-54919362D01*
X93376506Y-54795425D01*
X93451035Y-54683885D01*
X93545885Y-54589035D01*
X93657425Y-54514506D01*
X93781362Y-54463170D01*
X93912926Y-54437000D01*
X94047074Y-54437000D01*
X94178638Y-54463170D01*
X94178638Y-54463170D01*
G37*
G36*
X119806565Y-43989389D02*
X119997834Y-44068615D01*
X120169976Y-44183637D01*
X120316363Y-44330024D01*
X120431385Y-44502166D01*
X120510611Y-44693435D01*
X120551000Y-44896484D01*
X120551000Y-45103516D01*
X120510611Y-45306565D01*
X120431385Y-45497834D01*
X120316363Y-45669976D01*
X120169976Y-45816363D01*
X119997834Y-45931385D01*
X119806565Y-46010611D01*
X119603516Y-46051000D01*
X119396484Y-46051000D01*
X119193435Y-46010611D01*
X119002166Y-45931385D01*
X118830024Y-45816363D01*
X118683637Y-45669976D01*
X118568615Y-45497834D01*
X118489389Y-45306565D01*
X118449000Y-45103516D01*
X118449000Y-44896484D01*
X118489389Y-44693435D01*
X118568615Y-44502166D01*
X118683637Y-44330024D01*
X118830024Y-44183637D01*
X119002166Y-44068615D01*
X119193435Y-43989389D01*
X119396484Y-43949000D01*
X119603516Y-43949000D01*
X119806565Y-43989389D01*
X119806565Y-43989389D01*
G37*
G36*
X147264638Y-42779170D02*
X147388575Y-42830506D01*
X147500115Y-42905035D01*
X147594965Y-42999885D01*
X147669494Y-43111425D01*
X147720830Y-43235362D01*
X147747000Y-43366926D01*
X147747000Y-43501074D01*
X147720830Y-43632638D01*
X147669494Y-43756575D01*
X147594965Y-43868115D01*
X147500115Y-43962965D01*
X147388575Y-44037494D01*
X147264638Y-44088830D01*
X147133074Y-44115000D01*
X146998926Y-44115000D01*
X146867362Y-44088830D01*
X146743425Y-44037494D01*
X146631885Y-43962965D01*
X146537035Y-43868115D01*
X146462506Y-43756575D01*
X146411170Y-43632638D01*
X146385000Y-43501074D01*
X146385000Y-43366926D01*
X146411170Y-43235362D01*
X146462506Y-43111425D01*
X146537035Y-42999885D01*
X146631885Y-42905035D01*
X146743425Y-42830506D01*
X146867362Y-42779170D01*
X146998926Y-42753000D01*
X147133074Y-42753000D01*
X147264638Y-42779170D01*
X147264638Y-42779170D01*
G37*
G36*
X149804638Y-40239170D02*
X149928575Y-40290506D01*
X150040115Y-40365035D01*
X150134965Y-40459885D01*
X150209494Y-40571425D01*
X150260830Y-40695362D01*
X150287000Y-40826926D01*
X150287000Y-40961074D01*
X150260830Y-41092638D01*
X150209494Y-41216575D01*
X150134965Y-41328115D01*
X150040115Y-41422965D01*
X149928575Y-41497494D01*
X149804638Y-41548830D01*
X149673074Y-41575000D01*
X149538926Y-41575000D01*
X149407362Y-41548830D01*
X149283425Y-41497494D01*
X149171885Y-41422965D01*
X149077035Y-41328115D01*
X149002506Y-41216575D01*
X148951170Y-41092638D01*
X148925000Y-40961074D01*
X148925000Y-40826926D01*
X148951170Y-40695362D01*
X149002506Y-40571425D01*
X149077035Y-40459885D01*
X149171885Y-40365035D01*
X149283425Y-40290506D01*
X149407362Y-40239170D01*
X149538926Y-40213000D01*
X149673074Y-40213000D01*
X149804638Y-40239170D01*
X149804638Y-40239170D01*
G37*
G36*
X144724638Y-40239170D02*
X144848575Y-40290506D01*
X144960115Y-40365035D01*
X145054965Y-40459885D01*
X145129494Y-40571425D01*
X145180830Y-40695362D01*
X145207000Y-40826926D01*
X145207000Y-40961074D01*
X145180830Y-41092638D01*
X145129494Y-41216575D01*
X145054965Y-41328115D01*
X144960115Y-41422965D01*
X144848575Y-41497494D01*
X144724638Y-41548830D01*
X144593074Y-41575000D01*
X144458926Y-41575000D01*
X144327362Y-41548830D01*
X144203425Y-41497494D01*
X144091885Y-41422965D01*
X143997035Y-41328115D01*
X143922506Y-41216575D01*
X143871170Y-41092638D01*
X143845000Y-40961074D01*
X143845000Y-40826926D01*
X143871170Y-40695362D01*
X143922506Y-40571425D01*
X143997035Y-40459885D01*
X144091885Y-40365035D01*
X144203425Y-40290506D01*
X144327362Y-40239170D01*
X144458926Y-40213000D01*
X144593074Y-40213000D01*
X144724638Y-40239170D01*
X144724638Y-40239170D01*
G37*
M02*
