M48
;DRILL file {KiCad 5.0.2+dfsg1-1} date Mi 18 Dez 2019 15:50:32 CET
;FORMAT={-:-/ absolute / inch / decimal}
FMAT,2
INCH,TZ
T1C0.0157
T2C0.0276
T3C0.0315
T4C0.0394
T5C0.0433
T6C0.0512
T7C0.0591
T8C0.0787
%
G90
G05
T1
X3.9188Y-4.1086
X3.9188Y-4.1486
X3.9188Y-4.1886
X4.05Y-1.57
X4.07Y-1.54
X4.08Y-1.59
X4.1Y-1.56
X4.25Y-5.1
X4.2888Y-4.9486
X4.3488Y-5.0186
X4.51Y-5.24
X4.53Y-5.01
X4.53Y-4.67
X4.61Y-5.41
X4.64Y-5.39
X4.64Y-5.44
X4.67Y-5.42
X4.68Y-4.67
X4.6888Y-1.9586
X4.7475Y-3.335
X4.8025Y-3.185
X5.04Y-3.81
X5.06Y-3.23
X5.0851Y-3.1997
X5.1Y-4.26
X5.15Y-3.84
X5.15Y-4.56
X5.15Y-5.02
X5.155Y-3.275
X5.2075Y-3.03
X5.26Y-1.57
X5.465Y-2.2275
X5.48Y-4.07
X5.48Y-4.99
X5.55Y-2.199
X5.57Y-1.95
X5.6225Y-2.055
X5.64Y-1.88
X5.6725Y-2.5275
X5.74Y-2.0025
X5.8Y-5.58
X5.8425Y-2.0625
T2
X3.5Y-2.17
X3.6Y-2.27
X3.7Y-2.17
X4.91Y-3.86
X4.91Y-4.06
X5.01Y-3.96
X4.76Y-4.82
X4.86Y-4.72
X4.86Y-4.92
X5.69Y-1.61
X5.79Y-1.71
X5.89Y-1.61
T3
X3.55Y-2.8916
X3.55Y-2.99
X3.563Y-4.9606
X3.6614Y-4.9606
X3.55Y-3.22
X3.55Y-3.32
X3.55Y-3.42
X3.55Y-3.62
X3.55Y-3.72
X5.3055Y-4.1512
X5.3055Y-4.2512
X5.3055Y-4.3512
X5.3055Y-4.4512
X5.3055Y-4.5512
X5.3055Y-4.6512
X5.3055Y-4.7512
X5.3055Y-4.8512
X5.3055Y-4.9512
X5.3055Y-5.0512
X5.3055Y-5.1512
X5.3055Y-5.2512
X5.3055Y-5.3512
X5.3055Y-5.4512
X5.3055Y-5.5512
X5.9055Y-4.1512
X5.9055Y-4.2512
X5.9055Y-4.3512
X5.9055Y-4.4512
X5.9055Y-4.5512
X5.9055Y-4.6512
X5.9055Y-4.7512
X5.9055Y-4.8512
X5.9055Y-4.9512
X5.9055Y-5.0512
X5.9055Y-5.1512
X5.9055Y-5.2512
X5.9055Y-5.3512
X5.9055Y-5.4512
X5.9055Y-5.5512
T4
X5.7183Y-3.6995
X5.7183Y-3.7995
X4.42Y-5.6299
X4.52Y-5.6299
X4.62Y-5.6299
X4.72Y-5.6299
X5.79Y-3.04
X3.61Y-2.59
X3.61Y-2.69
X5.8783Y-3.697
X5.8783Y-3.797
T5
X4.8128Y-4.27
X4.8128Y-4.5259
X4.99Y-4.27
X4.99Y-4.5259
X4.9228Y-5.39
X4.9228Y-5.6459
X5.1Y-5.39
X5.1Y-5.6459
T6
X4.311Y-2.1654
X4.7047Y-1.7717
X4.7047Y-2.4606
X5.0984Y-2.1654
X5.0984Y-2.5591
X3.56Y-5.5
X3.76Y-5.5
X3.96Y-5.5
X4.16Y-5.5
T7
X3.8406Y-3.0453
X3.8425Y-4.0472
X3.9902Y-3.0413
X3.9921Y-4.0472
X4.1358Y-3.0413
X4.1378Y-4.0472
X4.2854Y-3.0413
X4.2874Y-4.0472
X4.4311Y-3.0413
X4.4331Y-4.0472
X4.5807Y-3.0413
X4.5826Y-4.0433
T8
X3.8995Y-2.3388
X5.4743Y-3.1262
T0
M30
