G04 #@! TF.GenerationSoftware,KiCad,Pcbnew,5.0.2+dfsg1-1*
G04 #@! TF.CreationDate,2019-12-18T15:50:12+01:00*
G04 #@! TF.ProjectId,gausskanone,67617573-736b-4616-9e6f-6e652e6b6963,rev?*
G04 #@! TF.SameCoordinates,Original*
G04 #@! TF.FileFunction,Legend,Top*
G04 #@! TF.FilePolarity,Positive*
%FSLAX46Y46*%
G04 Gerber Fmt 4.6, Leading zero omitted, Abs format (unit mm)*
G04 Created by KiCad (PCBNEW 5.0.2+dfsg1-1) date Mi 18 Dez 2019 15:50:12 CET*
%MOMM*%
%LPD*%
G01*
G04 APERTURE LIST*
%ADD10C,0.250000*%
%ADD11C,0.120000*%
%ADD12C,0.150000*%
G04 APERTURE END LIST*
D10*
X89075857Y-117341071D02*
X89075857Y-117674404D01*
X89861571Y-117674404D02*
X88361571Y-117674404D01*
X88361571Y-117198214D01*
X89433000Y-116864880D02*
X89433000Y-116388690D01*
X89861571Y-116960119D02*
X88361571Y-116626785D01*
X89861571Y-116293452D01*
X89718714Y-115388690D02*
X89790142Y-115436309D01*
X89861571Y-115579166D01*
X89861571Y-115674404D01*
X89790142Y-115817261D01*
X89647285Y-115912500D01*
X89504428Y-115960119D01*
X89218714Y-116007738D01*
X89004428Y-116007738D01*
X88718714Y-115960119D01*
X88575857Y-115912500D01*
X88433000Y-115817261D01*
X88361571Y-115674404D01*
X88361571Y-115579166D01*
X88433000Y-115436309D01*
X88504428Y-115388690D01*
X89861571Y-114960119D02*
X88361571Y-114960119D01*
X89075857Y-114960119D02*
X89075857Y-114388690D01*
X89861571Y-114388690D02*
X88361571Y-114388690D01*
X89861571Y-113912500D02*
X88361571Y-113912500D01*
X88361571Y-113531547D01*
X88433000Y-113436309D01*
X88504428Y-113388690D01*
X88647285Y-113341071D01*
X88861571Y-113341071D01*
X89004428Y-113388690D01*
X89075857Y-113436309D01*
X89147285Y-113531547D01*
X89147285Y-113912500D01*
X89861571Y-112341071D02*
X89147285Y-112674404D01*
X89861571Y-112912500D02*
X88361571Y-112912500D01*
X88361571Y-112531547D01*
X88433000Y-112436309D01*
X88504428Y-112388690D01*
X88647285Y-112341071D01*
X88861571Y-112341071D01*
X89004428Y-112388690D01*
X89075857Y-112436309D01*
X89147285Y-112531547D01*
X89147285Y-112912500D01*
X89433000Y-111960119D02*
X89433000Y-111483928D01*
X89861571Y-112055357D02*
X88361571Y-111722023D01*
X89861571Y-111388690D01*
X89861571Y-111055357D02*
X88361571Y-111055357D01*
X89861571Y-110483928D02*
X89004428Y-110912500D01*
X88361571Y-110483928D02*
X89218714Y-111055357D01*
X88361571Y-110198214D02*
X88361571Y-109626785D01*
X89861571Y-109912500D02*
X88361571Y-109912500D01*
X89861571Y-109293452D02*
X88361571Y-109293452D01*
X89861571Y-108817261D02*
X88361571Y-108817261D01*
X89861571Y-108245833D02*
X89004428Y-108674404D01*
X88361571Y-108245833D02*
X89218714Y-108817261D01*
X88361571Y-107817261D02*
X89575857Y-107817261D01*
X89718714Y-107769642D01*
X89790142Y-107722023D01*
X89861571Y-107626785D01*
X89861571Y-107436309D01*
X89790142Y-107341071D01*
X89718714Y-107293452D01*
X89575857Y-107245833D01*
X88361571Y-107245833D01*
X89861571Y-106769642D02*
X88361571Y-106769642D01*
X89433000Y-106436309D01*
X88361571Y-106102976D01*
X89861571Y-106102976D01*
X90933000Y-117150595D02*
X90861571Y-117245833D01*
X90861571Y-117388690D01*
X90933000Y-117531547D01*
X91075857Y-117626785D01*
X91218714Y-117674404D01*
X91504428Y-117722023D01*
X91718714Y-117722023D01*
X92004428Y-117674404D01*
X92147285Y-117626785D01*
X92290142Y-117531547D01*
X92361571Y-117388690D01*
X92361571Y-117293452D01*
X92290142Y-117150595D01*
X92218714Y-117102976D01*
X91718714Y-117102976D01*
X91718714Y-117293452D01*
X91933000Y-116722023D02*
X91933000Y-116245833D01*
X92361571Y-116817261D02*
X90861571Y-116483928D01*
X92361571Y-116150595D01*
X90861571Y-115817261D02*
X92075857Y-115817261D01*
X92218714Y-115769642D01*
X92290142Y-115722023D01*
X92361571Y-115626785D01*
X92361571Y-115436309D01*
X92290142Y-115341071D01*
X92218714Y-115293452D01*
X92075857Y-115245833D01*
X90861571Y-115245833D01*
X92290142Y-114817261D02*
X92361571Y-114674404D01*
X92361571Y-114436309D01*
X92290142Y-114341071D01*
X92218714Y-114293452D01*
X92075857Y-114245833D01*
X91933000Y-114245833D01*
X91790142Y-114293452D01*
X91718714Y-114341071D01*
X91647285Y-114436309D01*
X91575857Y-114626785D01*
X91504428Y-114722023D01*
X91433000Y-114769642D01*
X91290142Y-114817261D01*
X91147285Y-114817261D01*
X91004428Y-114769642D01*
X90933000Y-114722023D01*
X90861571Y-114626785D01*
X90861571Y-114388690D01*
X90933000Y-114245833D01*
X92290142Y-113864880D02*
X92361571Y-113722023D01*
X92361571Y-113483928D01*
X92290142Y-113388690D01*
X92218714Y-113341071D01*
X92075857Y-113293452D01*
X91933000Y-113293452D01*
X91790142Y-113341071D01*
X91718714Y-113388690D01*
X91647285Y-113483928D01*
X91575857Y-113674404D01*
X91504428Y-113769642D01*
X91433000Y-113817261D01*
X91290142Y-113864880D01*
X91147285Y-113864880D01*
X91004428Y-113817261D01*
X90933000Y-113769642D01*
X90861571Y-113674404D01*
X90861571Y-113436309D01*
X90933000Y-113293452D01*
X92361571Y-112864880D02*
X90861571Y-112864880D01*
X92361571Y-112293452D02*
X91504428Y-112722023D01*
X90861571Y-112293452D02*
X91718714Y-112864880D01*
X91933000Y-111912500D02*
X91933000Y-111436309D01*
X92361571Y-112007738D02*
X90861571Y-111674404D01*
X92361571Y-111341071D01*
X92361571Y-111007738D02*
X90861571Y-111007738D01*
X92361571Y-110436309D01*
X90861571Y-110436309D01*
X90861571Y-109769642D02*
X90861571Y-109579166D01*
X90933000Y-109483928D01*
X91075857Y-109388690D01*
X91361571Y-109341071D01*
X91861571Y-109341071D01*
X92147285Y-109388690D01*
X92290142Y-109483928D01*
X92361571Y-109579166D01*
X92361571Y-109769642D01*
X92290142Y-109864880D01*
X92147285Y-109960119D01*
X91861571Y-110007738D01*
X91361571Y-110007738D01*
X91075857Y-109960119D01*
X90933000Y-109864880D01*
X90861571Y-109769642D01*
X92361571Y-108912500D02*
X90861571Y-108912500D01*
X92361571Y-108341071D01*
X90861571Y-108341071D01*
X91575857Y-107864880D02*
X91575857Y-107531547D01*
X92361571Y-107388690D02*
X92361571Y-107864880D01*
X90861571Y-107864880D01*
X90861571Y-107388690D01*
X93361571Y-117769642D02*
X94861571Y-117531547D01*
X93790142Y-117341071D01*
X94861571Y-117150595D01*
X93361571Y-116912500D01*
X94790142Y-116579166D02*
X94861571Y-116436309D01*
X94861571Y-116198214D01*
X94790142Y-116102976D01*
X94718714Y-116055357D01*
X94575857Y-116007738D01*
X94433000Y-116007738D01*
X94290142Y-116055357D01*
X94218714Y-116102976D01*
X94147285Y-116198214D01*
X94075857Y-116388690D01*
X94004428Y-116483928D01*
X93933000Y-116531547D01*
X93790142Y-116579166D01*
X93647285Y-116579166D01*
X93504428Y-116531547D01*
X93433000Y-116483928D01*
X93361571Y-116388690D01*
X93361571Y-116150595D01*
X93433000Y-116007738D01*
X93504428Y-115626785D02*
X93433000Y-115579166D01*
X93361571Y-115483928D01*
X93361571Y-115245833D01*
X93433000Y-115150595D01*
X93504428Y-115102976D01*
X93647285Y-115055357D01*
X93790142Y-115055357D01*
X94004428Y-115102976D01*
X94861571Y-115674404D01*
X94861571Y-115055357D01*
X93361571Y-114436309D02*
X93361571Y-114341071D01*
X93433000Y-114245833D01*
X93504428Y-114198214D01*
X93647285Y-114150595D01*
X93933000Y-114102976D01*
X94290142Y-114102976D01*
X94575857Y-114150595D01*
X94718714Y-114198214D01*
X94790142Y-114245833D01*
X94861571Y-114341071D01*
X94861571Y-114436309D01*
X94790142Y-114531547D01*
X94718714Y-114579166D01*
X94575857Y-114626785D01*
X94290142Y-114674404D01*
X93933000Y-114674404D01*
X93647285Y-114626785D01*
X93504428Y-114579166D01*
X93433000Y-114531547D01*
X93361571Y-114436309D01*
X94861571Y-113150595D02*
X94861571Y-113722023D01*
X94861571Y-113436309D02*
X93361571Y-113436309D01*
X93575857Y-113531547D01*
X93718714Y-113626785D01*
X93790142Y-113722023D01*
X94861571Y-112674404D02*
X94861571Y-112483928D01*
X94790142Y-112388690D01*
X94718714Y-112341071D01*
X94504428Y-112245833D01*
X94218714Y-112198214D01*
X93647285Y-112198214D01*
X93504428Y-112245833D01*
X93433000Y-112293452D01*
X93361571Y-112388690D01*
X93361571Y-112579166D01*
X93433000Y-112674404D01*
X93504428Y-112722023D01*
X93647285Y-112769642D01*
X94004428Y-112769642D01*
X94147285Y-112722023D01*
X94218714Y-112674404D01*
X94290142Y-112579166D01*
X94290142Y-112388690D01*
X94218714Y-112293452D01*
X94147285Y-112245833D01*
X94004428Y-112198214D01*
X96575857Y-117341071D02*
X96575857Y-117674404D01*
X97361571Y-117674404D02*
X95861571Y-117674404D01*
X95861571Y-117198214D01*
X97361571Y-116817261D02*
X95861571Y-116817261D01*
X97361571Y-116245833D02*
X96504428Y-116674404D01*
X95861571Y-116245833D02*
X96718714Y-116817261D01*
X95790142Y-115102976D02*
X97718714Y-115960119D01*
X97361571Y-114769642D02*
X95861571Y-114769642D01*
X95861571Y-114531547D01*
X95933000Y-114388690D01*
X96075857Y-114293452D01*
X96218714Y-114245833D01*
X96504428Y-114198214D01*
X96718714Y-114198214D01*
X97004428Y-114245833D01*
X97147285Y-114293452D01*
X97290142Y-114388690D01*
X97361571Y-114531547D01*
X97361571Y-114769642D01*
X95861571Y-113579166D02*
X95861571Y-113388690D01*
X95933000Y-113293452D01*
X96075857Y-113198214D01*
X96361571Y-113150595D01*
X96861571Y-113150595D01*
X97147285Y-113198214D01*
X97290142Y-113293452D01*
X97361571Y-113388690D01*
X97361571Y-113579166D01*
X97290142Y-113674404D01*
X97147285Y-113769642D01*
X96861571Y-113817261D01*
X96361571Y-113817261D01*
X96075857Y-113769642D01*
X95933000Y-113674404D01*
X95861571Y-113579166D01*
X95790142Y-112007738D02*
X97718714Y-112864880D01*
X95861571Y-111388690D02*
X96933000Y-111388690D01*
X97147285Y-111436309D01*
X97290142Y-111531547D01*
X97361571Y-111674404D01*
X97361571Y-111769642D01*
X97361571Y-110912500D02*
X95861571Y-110912500D01*
X97361571Y-110341071D01*
X95861571Y-110341071D01*
D11*
G04 #@! TO.C,JP1*
X93024000Y-69656000D02*
X91694000Y-69656000D01*
X93024000Y-68326000D02*
X93024000Y-69656000D01*
X93024000Y-67056000D02*
X90364000Y-67056000D01*
X90364000Y-67056000D02*
X90364000Y-64456000D01*
X93024000Y-67056000D02*
X93024000Y-64456000D01*
X93024000Y-64456000D02*
X90364000Y-64456000D01*
G04 #@! TO.C,R10*
X131852500Y-99651078D02*
X131852500Y-99133922D01*
X130432500Y-99651078D02*
X130432500Y-99133922D01*
G04 #@! TO.C,R3*
X98689748Y-67496000D02*
X101462252Y-67496000D01*
X98689748Y-64076000D02*
X101462252Y-64076000D01*
G04 #@! TO.C,D7*
X110760000Y-113630000D02*
X110760000Y-109730000D01*
X112760000Y-113630000D02*
X112760000Y-109730000D01*
X110760000Y-113630000D02*
X112760000Y-113630000D01*
G04 #@! TO.C,D4*
X94200000Y-133334000D02*
X90350000Y-133334000D01*
X94200000Y-131334000D02*
X90350000Y-131334000D01*
X94200000Y-133334000D02*
X94200000Y-131334000D01*
G04 #@! TO.C,D2*
X134350000Y-69936000D02*
X134350000Y-73786000D01*
X132350000Y-69936000D02*
X132350000Y-73786000D01*
X134350000Y-69936000D02*
X132350000Y-69936000D01*
G04 #@! TO.C,D3*
X99146000Y-69358000D02*
X102996000Y-69358000D01*
X99146000Y-71358000D02*
X102996000Y-71358000D01*
X99146000Y-69358000D02*
X99146000Y-71358000D01*
G04 #@! TO.C,A1*
X133360000Y-144940000D02*
X151400000Y-144940000D01*
X133360000Y-101500000D02*
X133360000Y-144940000D01*
X151400000Y-101500000D02*
X133360000Y-101500000D01*
X148730000Y-104170000D02*
X151400000Y-104170000D01*
X148730000Y-139730000D02*
X148730000Y-104170000D01*
X148730000Y-139730000D02*
X151400000Y-139730000D01*
X136030000Y-104170000D02*
X133360000Y-104170000D01*
X136030000Y-142270000D02*
X136030000Y-104170000D01*
X136030000Y-142270000D02*
X133360000Y-142270000D01*
X151400000Y-144940000D02*
X151400000Y-142270000D01*
X151400000Y-139730000D02*
X151400000Y-101500000D01*
X148730000Y-142270000D02*
X151400000Y-142270000D01*
X148730000Y-139730000D02*
X148730000Y-142270000D01*
G04 #@! TO.C,C1*
X147880000Y-53921922D02*
X147880000Y-54439078D01*
X149300000Y-53921922D02*
X149300000Y-54439078D01*
D12*
G04 #@! TO.C,C2*
X137500000Y-55000000D02*
G75*
G03X137500000Y-55000000I-18000000J0D01*
G01*
D11*
G04 #@! TO.C,C3*
X146054578Y-45518000D02*
X145537422Y-45518000D01*
X146054578Y-46938000D02*
X145537422Y-46938000D01*
G04 #@! TO.C,C4*
X139244000Y-50208922D02*
X139244000Y-50726078D01*
X140664000Y-50208922D02*
X140664000Y-50726078D01*
G04 #@! TO.C,C5*
X122247922Y-83006000D02*
X122765078Y-83006000D01*
X122247922Y-81586000D02*
X122765078Y-81586000D01*
G04 #@! TO.C,C6*
X88016000Y-77881241D02*
X88646000Y-77881241D01*
X88331000Y-78196241D02*
X88331000Y-77566241D01*
X89768000Y-71455000D02*
X90572000Y-71455000D01*
X89537000Y-71495000D02*
X90803000Y-71495000D01*
X89368000Y-71535000D02*
X90972000Y-71535000D01*
X89230000Y-71575000D02*
X91110000Y-71575000D01*
X89111000Y-71615000D02*
X91229000Y-71615000D01*
X89005000Y-71655000D02*
X91335000Y-71655000D01*
X88908000Y-71695000D02*
X91432000Y-71695000D01*
X88820000Y-71735000D02*
X91520000Y-71735000D01*
X88738000Y-71775000D02*
X91602000Y-71775000D01*
X88661000Y-71815000D02*
X91679000Y-71815000D01*
X88589000Y-71855000D02*
X91751000Y-71855000D01*
X88520000Y-71895000D02*
X91820000Y-71895000D01*
X88456000Y-71935000D02*
X91884000Y-71935000D01*
X88394000Y-71975000D02*
X91946000Y-71975000D01*
X88336000Y-72015000D02*
X92004000Y-72015000D01*
X88280000Y-72055000D02*
X92060000Y-72055000D01*
X88226000Y-72095000D02*
X92114000Y-72095000D01*
X88175000Y-72135000D02*
X92165000Y-72135000D01*
X88126000Y-72175000D02*
X92214000Y-72175000D01*
X88078000Y-72215000D02*
X92262000Y-72215000D01*
X88033000Y-72255000D02*
X92307000Y-72255000D01*
X87988000Y-72295000D02*
X92352000Y-72295000D01*
X87946000Y-72335000D02*
X92394000Y-72335000D01*
X87905000Y-72375000D02*
X92435000Y-72375000D01*
X91210000Y-72415000D02*
X92475000Y-72415000D01*
X87865000Y-72415000D02*
X89130000Y-72415000D01*
X91210000Y-72455000D02*
X92513000Y-72455000D01*
X87827000Y-72455000D02*
X89130000Y-72455000D01*
X91210000Y-72495000D02*
X92550000Y-72495000D01*
X87790000Y-72495000D02*
X89130000Y-72495000D01*
X91210000Y-72535000D02*
X92586000Y-72535000D01*
X87754000Y-72535000D02*
X89130000Y-72535000D01*
X91210000Y-72575000D02*
X92620000Y-72575000D01*
X87720000Y-72575000D02*
X89130000Y-72575000D01*
X91210000Y-72615000D02*
X92654000Y-72615000D01*
X87686000Y-72615000D02*
X89130000Y-72615000D01*
X91210000Y-72655000D02*
X92686000Y-72655000D01*
X87654000Y-72655000D02*
X89130000Y-72655000D01*
X91210000Y-72695000D02*
X92718000Y-72695000D01*
X87622000Y-72695000D02*
X89130000Y-72695000D01*
X91210000Y-72735000D02*
X92748000Y-72735000D01*
X87592000Y-72735000D02*
X89130000Y-72735000D01*
X91210000Y-72775000D02*
X92777000Y-72775000D01*
X87563000Y-72775000D02*
X89130000Y-72775000D01*
X91210000Y-72815000D02*
X92806000Y-72815000D01*
X87534000Y-72815000D02*
X89130000Y-72815000D01*
X91210000Y-72855000D02*
X92834000Y-72855000D01*
X87506000Y-72855000D02*
X89130000Y-72855000D01*
X91210000Y-72895000D02*
X92860000Y-72895000D01*
X87480000Y-72895000D02*
X89130000Y-72895000D01*
X91210000Y-72935000D02*
X92886000Y-72935000D01*
X87454000Y-72935000D02*
X89130000Y-72935000D01*
X91210000Y-72975000D02*
X92912000Y-72975000D01*
X87428000Y-72975000D02*
X89130000Y-72975000D01*
X91210000Y-73015000D02*
X92936000Y-73015000D01*
X87404000Y-73015000D02*
X89130000Y-73015000D01*
X91210000Y-73055000D02*
X92960000Y-73055000D01*
X87380000Y-73055000D02*
X89130000Y-73055000D01*
X91210000Y-73095000D02*
X92982000Y-73095000D01*
X87358000Y-73095000D02*
X89130000Y-73095000D01*
X91210000Y-73135000D02*
X93004000Y-73135000D01*
X87336000Y-73135000D02*
X89130000Y-73135000D01*
X91210000Y-73175000D02*
X93026000Y-73175000D01*
X87314000Y-73175000D02*
X89130000Y-73175000D01*
X91210000Y-73215000D02*
X93046000Y-73215000D01*
X87294000Y-73215000D02*
X89130000Y-73215000D01*
X91210000Y-73255000D02*
X93066000Y-73255000D01*
X87274000Y-73255000D02*
X89130000Y-73255000D01*
X91210000Y-73295000D02*
X93086000Y-73295000D01*
X87254000Y-73295000D02*
X89130000Y-73295000D01*
X91210000Y-73335000D02*
X93104000Y-73335000D01*
X87236000Y-73335000D02*
X89130000Y-73335000D01*
X91210000Y-73375000D02*
X93122000Y-73375000D01*
X87218000Y-73375000D02*
X89130000Y-73375000D01*
X91210000Y-73415000D02*
X93140000Y-73415000D01*
X87200000Y-73415000D02*
X89130000Y-73415000D01*
X91210000Y-73455000D02*
X93156000Y-73455000D01*
X87184000Y-73455000D02*
X89130000Y-73455000D01*
X91210000Y-73495000D02*
X93172000Y-73495000D01*
X87168000Y-73495000D02*
X89130000Y-73495000D01*
X91210000Y-73535000D02*
X93188000Y-73535000D01*
X87152000Y-73535000D02*
X89130000Y-73535000D01*
X91210000Y-73575000D02*
X93203000Y-73575000D01*
X87137000Y-73575000D02*
X89130000Y-73575000D01*
X91210000Y-73615000D02*
X93217000Y-73615000D01*
X87123000Y-73615000D02*
X89130000Y-73615000D01*
X91210000Y-73655000D02*
X93231000Y-73655000D01*
X87109000Y-73655000D02*
X89130000Y-73655000D01*
X91210000Y-73695000D02*
X93244000Y-73695000D01*
X87096000Y-73695000D02*
X89130000Y-73695000D01*
X91210000Y-73735000D02*
X93256000Y-73735000D01*
X87084000Y-73735000D02*
X89130000Y-73735000D01*
X91210000Y-73775000D02*
X93268000Y-73775000D01*
X87072000Y-73775000D02*
X89130000Y-73775000D01*
X91210000Y-73815000D02*
X93280000Y-73815000D01*
X87060000Y-73815000D02*
X89130000Y-73815000D01*
X91210000Y-73855000D02*
X93291000Y-73855000D01*
X87049000Y-73855000D02*
X89130000Y-73855000D01*
X91210000Y-73895000D02*
X93301000Y-73895000D01*
X87039000Y-73895000D02*
X89130000Y-73895000D01*
X91210000Y-73935000D02*
X93311000Y-73935000D01*
X87029000Y-73935000D02*
X89130000Y-73935000D01*
X91210000Y-73975000D02*
X93320000Y-73975000D01*
X87020000Y-73975000D02*
X89130000Y-73975000D01*
X91210000Y-74016000D02*
X93329000Y-74016000D01*
X87011000Y-74016000D02*
X89130000Y-74016000D01*
X91210000Y-74056000D02*
X93337000Y-74056000D01*
X87003000Y-74056000D02*
X89130000Y-74056000D01*
X91210000Y-74096000D02*
X93345000Y-74096000D01*
X86995000Y-74096000D02*
X89130000Y-74096000D01*
X91210000Y-74136000D02*
X93352000Y-74136000D01*
X86988000Y-74136000D02*
X89130000Y-74136000D01*
X91210000Y-74176000D02*
X93359000Y-74176000D01*
X86981000Y-74176000D02*
X89130000Y-74176000D01*
X91210000Y-74216000D02*
X93365000Y-74216000D01*
X86975000Y-74216000D02*
X89130000Y-74216000D01*
X91210000Y-74256000D02*
X93371000Y-74256000D01*
X86969000Y-74256000D02*
X89130000Y-74256000D01*
X91210000Y-74296000D02*
X93376000Y-74296000D01*
X86964000Y-74296000D02*
X89130000Y-74296000D01*
X91210000Y-74336000D02*
X93381000Y-74336000D01*
X86959000Y-74336000D02*
X89130000Y-74336000D01*
X91210000Y-74376000D02*
X93385000Y-74376000D01*
X86955000Y-74376000D02*
X89130000Y-74376000D01*
X91210000Y-74416000D02*
X93388000Y-74416000D01*
X86952000Y-74416000D02*
X89130000Y-74416000D01*
X91210000Y-74456000D02*
X93392000Y-74456000D01*
X86948000Y-74456000D02*
X89130000Y-74456000D01*
X86946000Y-74496000D02*
X93394000Y-74496000D01*
X86943000Y-74536000D02*
X93397000Y-74536000D01*
X86942000Y-74576000D02*
X93398000Y-74576000D01*
X86940000Y-74616000D02*
X93400000Y-74616000D01*
X86940000Y-74656000D02*
X93400000Y-74656000D01*
X86940000Y-74696000D02*
X93400000Y-74696000D01*
X93440000Y-74696000D02*
G75*
G03X93440000Y-74696000I-3270000J0D01*
G01*
G04 #@! TO.C,C8*
X95759698Y-128715000D02*
X95759698Y-127915000D01*
X96159698Y-128315000D02*
X95359698Y-128315000D01*
X87669000Y-126533000D02*
X87669000Y-125467000D01*
X87709000Y-126768000D02*
X87709000Y-125232000D01*
X87749000Y-126948000D02*
X87749000Y-125052000D01*
X87789000Y-127098000D02*
X87789000Y-124902000D01*
X87829000Y-127229000D02*
X87829000Y-124771000D01*
X87869000Y-127346000D02*
X87869000Y-124654000D01*
X87909000Y-127453000D02*
X87909000Y-124547000D01*
X87949000Y-127552000D02*
X87949000Y-124448000D01*
X87989000Y-127645000D02*
X87989000Y-124355000D01*
X88029000Y-127731000D02*
X88029000Y-124269000D01*
X88069000Y-127813000D02*
X88069000Y-124187000D01*
X88109000Y-127890000D02*
X88109000Y-124110000D01*
X88149000Y-127964000D02*
X88149000Y-124036000D01*
X88189000Y-128034000D02*
X88189000Y-123966000D01*
X88229000Y-128102000D02*
X88229000Y-123898000D01*
X88269000Y-128166000D02*
X88269000Y-123834000D01*
X88309000Y-128228000D02*
X88309000Y-123772000D01*
X88349000Y-128287000D02*
X88349000Y-123713000D01*
X88389000Y-128345000D02*
X88389000Y-123655000D01*
X88429000Y-128400000D02*
X88429000Y-123600000D01*
X88469000Y-128454000D02*
X88469000Y-123546000D01*
X88509000Y-128505000D02*
X88509000Y-123495000D01*
X88549000Y-128556000D02*
X88549000Y-123444000D01*
X88589000Y-128604000D02*
X88589000Y-123396000D01*
X88629000Y-128651000D02*
X88629000Y-123349000D01*
X88669000Y-128697000D02*
X88669000Y-123303000D01*
X88709000Y-128741000D02*
X88709000Y-123259000D01*
X88749000Y-128784000D02*
X88749000Y-123216000D01*
X88789000Y-128826000D02*
X88789000Y-123174000D01*
X88829000Y-128867000D02*
X88829000Y-123133000D01*
X88869000Y-128907000D02*
X88869000Y-123093000D01*
X88909000Y-128945000D02*
X88909000Y-123055000D01*
X88949000Y-128983000D02*
X88949000Y-123017000D01*
X88989000Y-129019000D02*
X88989000Y-122981000D01*
X89029000Y-129055000D02*
X89029000Y-122945000D01*
X89069000Y-129090000D02*
X89069000Y-122910000D01*
X89109000Y-129124000D02*
X89109000Y-122876000D01*
X89149000Y-129156000D02*
X89149000Y-122844000D01*
X89189000Y-129189000D02*
X89189000Y-122811000D01*
X89229000Y-129220000D02*
X89229000Y-122780000D01*
X89269000Y-129250000D02*
X89269000Y-122750000D01*
X89309000Y-129280000D02*
X89309000Y-122720000D01*
X89349000Y-129309000D02*
X89349000Y-122691000D01*
X89389000Y-129338000D02*
X89389000Y-122662000D01*
X89429000Y-129365000D02*
X89429000Y-122635000D01*
X89469000Y-124960000D02*
X89469000Y-122608000D01*
X89469000Y-129392000D02*
X89469000Y-127040000D01*
X89509000Y-124960000D02*
X89509000Y-122582000D01*
X89509000Y-129418000D02*
X89509000Y-127040000D01*
X89549000Y-124960000D02*
X89549000Y-122556000D01*
X89549000Y-129444000D02*
X89549000Y-127040000D01*
X89589000Y-124960000D02*
X89589000Y-122531000D01*
X89589000Y-129469000D02*
X89589000Y-127040000D01*
X89629000Y-124960000D02*
X89629000Y-122507000D01*
X89629000Y-129493000D02*
X89629000Y-127040000D01*
X89669000Y-124960000D02*
X89669000Y-122483000D01*
X89669000Y-129517000D02*
X89669000Y-127040000D01*
X89709000Y-124960000D02*
X89709000Y-122460000D01*
X89709000Y-129540000D02*
X89709000Y-127040000D01*
X89749000Y-124960000D02*
X89749000Y-122438000D01*
X89749000Y-129562000D02*
X89749000Y-127040000D01*
X89789000Y-124960000D02*
X89789000Y-122416000D01*
X89789000Y-129584000D02*
X89789000Y-127040000D01*
X89829000Y-124960000D02*
X89829000Y-122394000D01*
X89829000Y-129606000D02*
X89829000Y-127040000D01*
X89869000Y-124960000D02*
X89869000Y-122373000D01*
X89869000Y-129627000D02*
X89869000Y-127040000D01*
X89909000Y-124960000D02*
X89909000Y-122353000D01*
X89909000Y-129647000D02*
X89909000Y-127040000D01*
X89949000Y-124960000D02*
X89949000Y-122334000D01*
X89949000Y-129666000D02*
X89949000Y-127040000D01*
X89989000Y-124960000D02*
X89989000Y-122314000D01*
X89989000Y-129686000D02*
X89989000Y-127040000D01*
X90029000Y-124960000D02*
X90029000Y-122296000D01*
X90029000Y-129704000D02*
X90029000Y-127040000D01*
X90069000Y-124960000D02*
X90069000Y-122278000D01*
X90069000Y-129722000D02*
X90069000Y-127040000D01*
X90109000Y-124960000D02*
X90109000Y-122260000D01*
X90109000Y-129740000D02*
X90109000Y-127040000D01*
X90149000Y-124960000D02*
X90149000Y-122243000D01*
X90149000Y-129757000D02*
X90149000Y-127040000D01*
X90189000Y-124960000D02*
X90189000Y-122226000D01*
X90189000Y-129774000D02*
X90189000Y-127040000D01*
X90229000Y-124960000D02*
X90229000Y-122210000D01*
X90229000Y-129790000D02*
X90229000Y-127040000D01*
X90269000Y-124960000D02*
X90269000Y-122195000D01*
X90269000Y-129805000D02*
X90269000Y-127040000D01*
X90309000Y-124960000D02*
X90309000Y-122179000D01*
X90309000Y-129821000D02*
X90309000Y-127040000D01*
X90349000Y-124960000D02*
X90349000Y-122165000D01*
X90349000Y-129835000D02*
X90349000Y-127040000D01*
X90389000Y-124960000D02*
X90389000Y-122150000D01*
X90389000Y-129850000D02*
X90389000Y-127040000D01*
X90429000Y-124960000D02*
X90429000Y-122137000D01*
X90429000Y-129863000D02*
X90429000Y-127040000D01*
X90469000Y-124960000D02*
X90469000Y-122123000D01*
X90469000Y-129877000D02*
X90469000Y-127040000D01*
X90509000Y-124960000D02*
X90509000Y-122111000D01*
X90509000Y-129889000D02*
X90509000Y-127040000D01*
X90549000Y-124960000D02*
X90549000Y-122098000D01*
X90549000Y-129902000D02*
X90549000Y-127040000D01*
X90589000Y-124960000D02*
X90589000Y-122086000D01*
X90589000Y-129914000D02*
X90589000Y-127040000D01*
X90629000Y-124960000D02*
X90629000Y-122075000D01*
X90629000Y-129925000D02*
X90629000Y-127040000D01*
X90669000Y-124960000D02*
X90669000Y-122064000D01*
X90669000Y-129936000D02*
X90669000Y-127040000D01*
X90709000Y-124960000D02*
X90709000Y-122053000D01*
X90709000Y-129947000D02*
X90709000Y-127040000D01*
X90749000Y-124960000D02*
X90749000Y-122043000D01*
X90749000Y-129957000D02*
X90749000Y-127040000D01*
X90789000Y-124960000D02*
X90789000Y-122033000D01*
X90789000Y-129967000D02*
X90789000Y-127040000D01*
X90829000Y-124960000D02*
X90829000Y-122024000D01*
X90829000Y-129976000D02*
X90829000Y-127040000D01*
X90869000Y-124960000D02*
X90869000Y-122015000D01*
X90869000Y-129985000D02*
X90869000Y-127040000D01*
X90909000Y-124960000D02*
X90909000Y-122006000D01*
X90909000Y-129994000D02*
X90909000Y-127040000D01*
X90949000Y-124960000D02*
X90949000Y-121998000D01*
X90949000Y-130002000D02*
X90949000Y-127040000D01*
X90989000Y-124960000D02*
X90989000Y-121990000D01*
X90989000Y-130010000D02*
X90989000Y-127040000D01*
X91029000Y-124960000D02*
X91029000Y-121983000D01*
X91029000Y-130017000D02*
X91029000Y-127040000D01*
X91070000Y-124960000D02*
X91070000Y-121976000D01*
X91070000Y-130024000D02*
X91070000Y-127040000D01*
X91110000Y-124960000D02*
X91110000Y-121970000D01*
X91110000Y-130030000D02*
X91110000Y-127040000D01*
X91150000Y-124960000D02*
X91150000Y-121963000D01*
X91150000Y-130037000D02*
X91150000Y-127040000D01*
X91190000Y-124960000D02*
X91190000Y-121958000D01*
X91190000Y-130042000D02*
X91190000Y-127040000D01*
X91230000Y-124960000D02*
X91230000Y-121952000D01*
X91230000Y-130048000D02*
X91230000Y-127040000D01*
X91270000Y-124960000D02*
X91270000Y-121948000D01*
X91270000Y-130052000D02*
X91270000Y-127040000D01*
X91310000Y-124960000D02*
X91310000Y-121943000D01*
X91310000Y-130057000D02*
X91310000Y-127040000D01*
X91350000Y-124960000D02*
X91350000Y-121939000D01*
X91350000Y-130061000D02*
X91350000Y-127040000D01*
X91390000Y-124960000D02*
X91390000Y-121935000D01*
X91390000Y-130065000D02*
X91390000Y-127040000D01*
X91430000Y-124960000D02*
X91430000Y-121932000D01*
X91430000Y-130068000D02*
X91430000Y-127040000D01*
X91470000Y-124960000D02*
X91470000Y-121929000D01*
X91470000Y-130071000D02*
X91470000Y-127040000D01*
X91510000Y-124960000D02*
X91510000Y-121926000D01*
X91510000Y-130074000D02*
X91510000Y-127040000D01*
X91550000Y-130076000D02*
X91550000Y-121924000D01*
X91590000Y-130077000D02*
X91590000Y-121923000D01*
X91630000Y-130079000D02*
X91630000Y-121921000D01*
X91670000Y-130080000D02*
X91670000Y-121920000D01*
X91710000Y-130080000D02*
X91710000Y-121920000D01*
X91750000Y-130080000D02*
X91750000Y-121920000D01*
X95870000Y-126000000D02*
G75*
G03X95870000Y-126000000I-4120000J0D01*
G01*
G04 #@! TO.C,C9*
X90476078Y-98061000D02*
X89958922Y-98061000D01*
X90476078Y-99481000D02*
X89958922Y-99481000D01*
G04 #@! TO.C,C10*
X116130000Y-130980922D02*
X116130000Y-131498078D01*
X117550000Y-130980922D02*
X117550000Y-131498078D01*
G04 #@! TO.C,C11*
X116130000Y-127170922D02*
X116130000Y-127688078D01*
X117550000Y-127170922D02*
X117550000Y-127688078D01*
G04 #@! TO.C,C12*
X102922000Y-130472922D02*
X102922000Y-130990078D01*
X104342000Y-130472922D02*
X104342000Y-130990078D01*
G04 #@! TO.C,C13*
X105208000Y-130472922D02*
X105208000Y-130990078D01*
X106628000Y-130472922D02*
X106628000Y-130990078D01*
G04 #@! TO.C,C14*
X111050000Y-119423922D02*
X111050000Y-119941078D01*
X112470000Y-119423922D02*
X112470000Y-119941078D01*
G04 #@! TO.C,C15*
X117550000Y-123751078D02*
X117550000Y-123233922D01*
X116130000Y-123751078D02*
X116130000Y-123233922D01*
G04 #@! TO.C,C16*
X112470000Y-123751078D02*
X112470000Y-123233922D01*
X111050000Y-123751078D02*
X111050000Y-123233922D01*
G04 #@! TO.C,C17*
X113590000Y-115613922D02*
X113590000Y-116131078D01*
X115010000Y-115613922D02*
X115010000Y-116131078D01*
G04 #@! TO.C,D1*
X101564000Y-45196000D02*
X97664000Y-45196000D01*
X101564000Y-43196000D02*
X97664000Y-43196000D01*
X101564000Y-45196000D02*
X101564000Y-43196000D01*
G04 #@! TO.C,D5*
X143095500Y-143404000D02*
X145980500Y-143404000D01*
X143095500Y-141584000D02*
X143095500Y-143404000D01*
X145980500Y-141584000D02*
X143095500Y-141584000D01*
G04 #@! TO.C,D6*
X138884500Y-143404000D02*
X141769500Y-143404000D01*
X138884500Y-141584000D02*
X138884500Y-143404000D01*
X141769500Y-141584000D02*
X138884500Y-141584000D01*
G04 #@! TO.C,D8*
X113300000Y-113630000D02*
X113300000Y-109730000D01*
X115300000Y-113630000D02*
X115300000Y-109730000D01*
X113300000Y-113630000D02*
X115300000Y-113630000D01*
G04 #@! TO.C,J1*
X108504000Y-134100000D02*
X107904000Y-134100000D01*
X108504000Y-134940000D02*
X108504000Y-134100000D01*
X89174000Y-144750000D02*
X89174000Y-144250000D01*
X91674000Y-144750000D02*
X91674000Y-144250000D01*
X91674000Y-144250000D02*
X89174000Y-144250000D01*
X91674000Y-144750000D02*
X89174000Y-144750000D01*
X91604000Y-138724000D02*
X91698000Y-138631000D01*
X89354000Y-140975000D02*
X89413000Y-140916000D01*
X91434000Y-138484000D02*
X91493000Y-138426000D01*
X89149000Y-140769000D02*
X89243000Y-140676000D01*
X94254000Y-144750000D02*
X94254000Y-144250000D01*
X96754000Y-144750000D02*
X96754000Y-144250000D01*
X96754000Y-144250000D02*
X94254000Y-144250000D01*
X96754000Y-144750000D02*
X94254000Y-144750000D01*
X96684000Y-138724000D02*
X96778000Y-138631000D01*
X94434000Y-140975000D02*
X94493000Y-140916000D01*
X96514000Y-138484000D02*
X96573000Y-138426000D01*
X94229000Y-140769000D02*
X94323000Y-140676000D01*
X99334000Y-144750000D02*
X99334000Y-144250000D01*
X101834000Y-144750000D02*
X101834000Y-144250000D01*
X101834000Y-144250000D02*
X99334000Y-144250000D01*
X101834000Y-144750000D02*
X99334000Y-144750000D01*
X101764000Y-138724000D02*
X101858000Y-138631000D01*
X99514000Y-140975000D02*
X99573000Y-140916000D01*
X101594000Y-138484000D02*
X101653000Y-138426000D01*
X99309000Y-140769000D02*
X99403000Y-140676000D01*
X104414000Y-144750000D02*
X104414000Y-144250000D01*
X106914000Y-144750000D02*
X106914000Y-144250000D01*
X106914000Y-144250000D02*
X104414000Y-144250000D01*
X106914000Y-144750000D02*
X104414000Y-144750000D01*
X87824000Y-145060000D02*
X87824000Y-134340000D01*
X108264000Y-145060000D02*
X108264000Y-134340000D01*
X108264000Y-134340000D02*
X87824000Y-134340000D01*
X108264000Y-145060000D02*
X87824000Y-145060000D01*
X108264000Y-143000000D02*
X87824000Y-143000000D01*
X108264000Y-137200000D02*
X87824000Y-137200000D01*
X108264000Y-135000000D02*
X87824000Y-135000000D01*
X92104000Y-139700000D02*
G75*
G03X92104000Y-139700000I-1680000J0D01*
G01*
X97184000Y-139700000D02*
G75*
G03X97184000Y-139700000I-1680000J0D01*
G01*
X102264000Y-139700000D02*
G75*
G03X102264000Y-139700000I-1680000J0D01*
G01*
X105634617Y-138019550D02*
G75*
G02X106453000Y-138216000I29383J-1680450D01*
G01*
X107147953Y-138910912D02*
G75*
G02X107148000Y-140489000I-1483953J-789088D01*
G01*
X106453088Y-141183953D02*
G75*
G02X104875000Y-141184000I-789088J1483953D01*
G01*
X104180047Y-140489088D02*
G75*
G02X104180000Y-138911000I1483953J789088D01*
G01*
X104875288Y-138216648D02*
G75*
G02X105664000Y-138020000I788712J-1483352D01*
G01*
G04 #@! TO.C,J2*
X121218000Y-141670000D02*
X121218000Y-143000000D01*
X119888000Y-141670000D02*
X121218000Y-141670000D01*
X118618000Y-141670000D02*
X118618000Y-144330000D01*
X118618000Y-144330000D02*
X110938000Y-144330000D01*
X118618000Y-141670000D02*
X110938000Y-141670000D01*
X110938000Y-141670000D02*
X110938000Y-144330000D01*
G04 #@! TO.C,J3*
X147979210Y-92572874D02*
X149309210Y-92572874D01*
X147979210Y-93902874D02*
X147979210Y-92572874D01*
X147979210Y-95172874D02*
X150639210Y-95172874D01*
X150639210Y-95172874D02*
X150639210Y-97772874D01*
X147979210Y-95172874D02*
X147979210Y-97772874D01*
X147979210Y-97772874D02*
X150639210Y-97772874D01*
G04 #@! TO.C,J4*
X143915210Y-92636874D02*
X145245210Y-92636874D01*
X143915210Y-93966874D02*
X143915210Y-92636874D01*
X143915210Y-95236874D02*
X146575210Y-95236874D01*
X146575210Y-95236874D02*
X146575210Y-97836874D01*
X143915210Y-95236874D02*
X143915210Y-97836874D01*
X143915210Y-97836874D02*
X146575210Y-97836874D01*
D12*
G04 #@! TO.C,L2*
X119375000Y-103500000D02*
X95425000Y-103500000D01*
X119375000Y-76500000D02*
X119375000Y-103500000D01*
X94625000Y-76500000D02*
X119375000Y-76500000D01*
X94625000Y-102700000D02*
X94625000Y-76500000D01*
X95425000Y-103500000D02*
X94625000Y-102700000D01*
D11*
G04 #@! TO.C,Q1*
X96144000Y-45464000D02*
X96144000Y-46564000D01*
X96414000Y-45464000D02*
X96144000Y-45464000D01*
X96414000Y-43964000D02*
X96414000Y-45464000D01*
X89784000Y-45464000D02*
X89784000Y-48294000D01*
X89514000Y-45464000D02*
X89784000Y-45464000D01*
X89514000Y-43964000D02*
X89514000Y-45464000D01*
G04 #@! TO.C,Q2*
X138342000Y-63525000D02*
X138342000Y-62425000D01*
X136532000Y-63525000D02*
X138342000Y-63525000D01*
X136532000Y-65025000D02*
X136532000Y-63525000D01*
X145122000Y-63525000D02*
X145122000Y-58400000D01*
X146932000Y-63525000D02*
X145122000Y-63525000D01*
X146932000Y-65025000D02*
X146932000Y-63525000D01*
G04 #@! TO.C,Q3*
X108590000Y-116770000D02*
X108590000Y-117870000D01*
X108860000Y-116770000D02*
X108590000Y-116770000D01*
X108860000Y-115270000D02*
X108860000Y-116770000D01*
X102230000Y-116770000D02*
X102230000Y-119600000D01*
X101960000Y-116770000D02*
X102230000Y-116770000D01*
X101960000Y-115270000D02*
X101960000Y-116770000D01*
G04 #@! TO.C,R1*
X139626078Y-38660000D02*
X139108922Y-38660000D01*
X139626078Y-40080000D02*
X139108922Y-40080000D01*
G04 #@! TO.C,R2*
X140664000Y-54439078D02*
X140664000Y-53921922D01*
X139244000Y-54439078D02*
X139244000Y-53921922D01*
G04 #@! TO.C,R4*
X101208252Y-37914000D02*
X98435748Y-37914000D01*
X101208252Y-41334000D02*
X98435748Y-41334000D01*
G04 #@! TO.C,R5*
X139626078Y-40946000D02*
X139108922Y-40946000D01*
X139626078Y-42366000D02*
X139108922Y-42366000D01*
G04 #@! TO.C,R6*
X141150078Y-46026000D02*
X140632922Y-46026000D01*
X141150078Y-47446000D02*
X140632922Y-47446000D01*
G04 #@! TO.C,R7*
X98468922Y-47446000D02*
X98986078Y-47446000D01*
X98468922Y-46026000D02*
X98986078Y-46026000D01*
G04 #@! TO.C,R8*
X126440000Y-81841078D02*
X126440000Y-81323922D01*
X125020000Y-81841078D02*
X125020000Y-81323922D01*
G04 #@! TO.C,R9*
X123439422Y-95706000D02*
X123956578Y-95706000D01*
X123439422Y-94286000D02*
X123956578Y-94286000D01*
G04 #@! TO.C,R11*
X115010000Y-131498078D02*
X115010000Y-130980922D01*
X113590000Y-131498078D02*
X113590000Y-130980922D01*
G04 #@! TO.C,R12*
X104975922Y-127456000D02*
X105493078Y-127456000D01*
X104975922Y-126036000D02*
X105493078Y-126036000D01*
G04 #@! TO.C,R13*
X138560500Y-100833422D02*
X138560500Y-101350578D01*
X139980500Y-100833422D02*
X139980500Y-101350578D01*
G04 #@! TO.C,R14*
X111050000Y-115613922D02*
X111050000Y-116131078D01*
X112470000Y-115613922D02*
X112470000Y-116131078D01*
G04 #@! TO.C,R15*
X106796252Y-121480000D02*
X104023748Y-121480000D01*
X106796252Y-124900000D02*
X104023748Y-124900000D01*
G04 #@! TO.C,R16*
X143308000Y-137741922D02*
X143308000Y-138259078D01*
X144728000Y-137741922D02*
X144728000Y-138259078D01*
G04 #@! TO.C,R17*
X113590000Y-123233922D02*
X113590000Y-123751078D01*
X115010000Y-123233922D02*
X115010000Y-123751078D01*
G04 #@! TO.C,R18*
X116130000Y-115613922D02*
X116130000Y-116131078D01*
X117550000Y-115613922D02*
X117550000Y-116131078D01*
G04 #@! TO.C,R19*
X116130000Y-111803922D02*
X116130000Y-112321078D01*
X117550000Y-111803922D02*
X117550000Y-112321078D01*
G04 #@! TO.C,R20*
X117550000Y-119941078D02*
X117550000Y-119423922D01*
X116130000Y-119941078D02*
X116130000Y-119423922D01*
G04 #@! TO.C,RV1*
X150996000Y-40894000D02*
G75*
G03X150996000Y-40894000I-3930000J0D01*
G01*
G04 #@! TO.C,RV2*
X95370000Y-55118000D02*
G75*
G03X95370000Y-55118000I-3930000J0D01*
G01*
G04 #@! TO.C,RV3*
X128644000Y-100584000D02*
G75*
G03X128644000Y-100584000I-3930000J0D01*
G01*
G04 #@! TO.C,RV4*
X127374000Y-122428000D02*
G75*
G03X127374000Y-122428000I-3930000J0D01*
G01*
G04 #@! TO.C,SW1*
X123746000Y-115208000D02*
X125246000Y-115208000D01*
X127746000Y-113958000D02*
X127746000Y-109458000D01*
X125246000Y-108208000D02*
X123746000Y-108208000D01*
X121246000Y-109458000D02*
X121246000Y-113958000D01*
G04 #@! TO.C,SW2*
X126540000Y-143656000D02*
X128040000Y-143656000D01*
X130540000Y-142406000D02*
X130540000Y-137906000D01*
X128040000Y-136656000D02*
X126540000Y-136656000D01*
X124040000Y-137906000D02*
X124040000Y-142406000D01*
G04 #@! TO.C,TP2*
X148566000Y-77216000D02*
G75*
G03X148566000Y-77216000I-1500000J0D01*
G01*
D12*
G04 #@! TO.C,U1*
X146797000Y-49995000D02*
X146797000Y-48595000D01*
X141697000Y-49995000D02*
X141697000Y-54145000D01*
X146847000Y-49995000D02*
X146847000Y-54145000D01*
X141697000Y-49995000D02*
X141842000Y-49995000D01*
X141697000Y-54145000D02*
X141842000Y-54145000D01*
X146847000Y-54145000D02*
X146702000Y-54145000D01*
X146847000Y-49995000D02*
X146797000Y-49995000D01*
G04 #@! TO.C,U2*
X87170000Y-93218000D02*
X93170000Y-93218000D01*
X93170000Y-97088000D02*
X87170000Y-97088000D01*
X93170000Y-79188000D02*
X93170000Y-97088000D01*
X87170000Y-79188000D02*
X93170000Y-79188000D01*
X87170000Y-97088000D02*
X87170000Y-79188000D01*
D11*
G04 #@! TO.C,U3*
X137728000Y-90408000D02*
G75*
G02X137728000Y-88408000I0J1000000D01*
G01*
X137728000Y-91858000D02*
X137728000Y-90408000D01*
X127448000Y-91858000D02*
X137728000Y-91858000D01*
X127448000Y-86958000D02*
X127448000Y-91858000D01*
X137728000Y-86958000D02*
X127448000Y-86958000D01*
X137728000Y-88408000D02*
X137728000Y-86958000D01*
D12*
G04 #@! TO.C,U4*
X120919000Y-91483000D02*
X120919000Y-92883000D01*
X126019000Y-91483000D02*
X126019000Y-87333000D01*
X120869000Y-91483000D02*
X120869000Y-87333000D01*
X126019000Y-91483000D02*
X125874000Y-91483000D01*
X126019000Y-87333000D02*
X125874000Y-87333000D01*
X120869000Y-87333000D02*
X121014000Y-87333000D01*
X120869000Y-91483000D02*
X120919000Y-91483000D01*
G04 #@! TO.C,U5*
X112040000Y-129235000D02*
X108940000Y-129235000D01*
X112040000Y-126135000D02*
X112040000Y-129235000D01*
X108940000Y-126135000D02*
X112040000Y-126135000D01*
X108940000Y-129235000D02*
X108940000Y-126135000D01*
G04 #@! TO.C,JP1*
X90860666Y-70108380D02*
X90860666Y-70822666D01*
X90813047Y-70965523D01*
X90717809Y-71060761D01*
X90574952Y-71108380D01*
X90479714Y-71108380D01*
X91336857Y-71108380D02*
X91336857Y-70108380D01*
X91717809Y-70108380D01*
X91813047Y-70156000D01*
X91860666Y-70203619D01*
X91908285Y-70298857D01*
X91908285Y-70441714D01*
X91860666Y-70536952D01*
X91813047Y-70584571D01*
X91717809Y-70632190D01*
X91336857Y-70632190D01*
X92860666Y-71108380D02*
X92289238Y-71108380D01*
X92574952Y-71108380D02*
X92574952Y-70108380D01*
X92479714Y-70251238D01*
X92384476Y-70346476D01*
X92289238Y-70394095D01*
G04 #@! TO.C,R10*
X129944880Y-99921857D02*
X129468690Y-100255190D01*
X129944880Y-100493285D02*
X128944880Y-100493285D01*
X128944880Y-100112333D01*
X128992500Y-100017095D01*
X129040119Y-99969476D01*
X129135357Y-99921857D01*
X129278214Y-99921857D01*
X129373452Y-99969476D01*
X129421071Y-100017095D01*
X129468690Y-100112333D01*
X129468690Y-100493285D01*
X129944880Y-98969476D02*
X129944880Y-99540904D01*
X129944880Y-99255190D02*
X128944880Y-99255190D01*
X129087738Y-99350428D01*
X129182976Y-99445666D01*
X129230595Y-99540904D01*
X128944880Y-98350428D02*
X128944880Y-98255190D01*
X128992500Y-98159952D01*
X129040119Y-98112333D01*
X129135357Y-98064714D01*
X129325833Y-98017095D01*
X129563928Y-98017095D01*
X129754404Y-98064714D01*
X129849642Y-98112333D01*
X129897261Y-98159952D01*
X129944880Y-98255190D01*
X129944880Y-98350428D01*
X129897261Y-98445666D01*
X129849642Y-98493285D01*
X129754404Y-98540904D01*
X129563928Y-98588523D01*
X129325833Y-98588523D01*
X129135357Y-98540904D01*
X129040119Y-98493285D01*
X128992500Y-98445666D01*
X128944880Y-98350428D01*
G04 #@! TO.C,R3*
X101910333Y-63588380D02*
X101577000Y-63112190D01*
X101338904Y-63588380D02*
X101338904Y-62588380D01*
X101719857Y-62588380D01*
X101815095Y-62636000D01*
X101862714Y-62683619D01*
X101910333Y-62778857D01*
X101910333Y-62921714D01*
X101862714Y-63016952D01*
X101815095Y-63064571D01*
X101719857Y-63112190D01*
X101338904Y-63112190D01*
X102243666Y-62588380D02*
X102862714Y-62588380D01*
X102529380Y-62969333D01*
X102672238Y-62969333D01*
X102767476Y-63016952D01*
X102815095Y-63064571D01*
X102862714Y-63159809D01*
X102862714Y-63397904D01*
X102815095Y-63493142D01*
X102767476Y-63540761D01*
X102672238Y-63588380D01*
X102386523Y-63588380D01*
X102291285Y-63540761D01*
X102243666Y-63493142D01*
G04 #@! TO.C,D7*
X112181380Y-108653095D02*
X111181380Y-108653095D01*
X111181380Y-108415000D01*
X111229000Y-108272142D01*
X111324238Y-108176904D01*
X111419476Y-108129285D01*
X111609952Y-108081666D01*
X111752809Y-108081666D01*
X111943285Y-108129285D01*
X112038523Y-108176904D01*
X112133761Y-108272142D01*
X112181380Y-108415000D01*
X112181380Y-108653095D01*
X111181380Y-107748333D02*
X111181380Y-107081666D01*
X112181380Y-107510238D01*
G04 #@! TO.C,D4*
X95925380Y-133037095D02*
X94925380Y-133037095D01*
X94925380Y-132799000D01*
X94973000Y-132656142D01*
X95068238Y-132560904D01*
X95163476Y-132513285D01*
X95353952Y-132465666D01*
X95496809Y-132465666D01*
X95687285Y-132513285D01*
X95782523Y-132560904D01*
X95877761Y-132656142D01*
X95925380Y-132799000D01*
X95925380Y-133037095D01*
X95258714Y-131608523D02*
X95925380Y-131608523D01*
X94877761Y-131846619D02*
X95592047Y-132084714D01*
X95592047Y-131465666D01*
G04 #@! TO.C,D2*
X135707380Y-72747095D02*
X134707380Y-72747095D01*
X134707380Y-72509000D01*
X134755000Y-72366142D01*
X134850238Y-72270904D01*
X134945476Y-72223285D01*
X135135952Y-72175666D01*
X135278809Y-72175666D01*
X135469285Y-72223285D01*
X135564523Y-72270904D01*
X135659761Y-72366142D01*
X135707380Y-72509000D01*
X135707380Y-72747095D01*
X134802619Y-71794714D02*
X134755000Y-71747095D01*
X134707380Y-71651857D01*
X134707380Y-71413761D01*
X134755000Y-71318523D01*
X134802619Y-71270904D01*
X134897857Y-71223285D01*
X134993095Y-71223285D01*
X135135952Y-71270904D01*
X135707380Y-71842333D01*
X135707380Y-71223285D01*
G04 #@! TO.C,D3*
X105069380Y-71315095D02*
X104069380Y-71315095D01*
X104069380Y-71077000D01*
X104117000Y-70934142D01*
X104212238Y-70838904D01*
X104307476Y-70791285D01*
X104497952Y-70743666D01*
X104640809Y-70743666D01*
X104831285Y-70791285D01*
X104926523Y-70838904D01*
X105021761Y-70934142D01*
X105069380Y-71077000D01*
X105069380Y-71315095D01*
X104069380Y-70410333D02*
X104069380Y-69791285D01*
X104450333Y-70124619D01*
X104450333Y-69981761D01*
X104497952Y-69886523D01*
X104545571Y-69838904D01*
X104640809Y-69791285D01*
X104878904Y-69791285D01*
X104974142Y-69838904D01*
X105021761Y-69886523D01*
X105069380Y-69981761D01*
X105069380Y-70267476D01*
X105021761Y-70362714D01*
X104974142Y-70410333D01*
G04 #@! TO.C,A1*
X141665714Y-146246666D02*
X142141904Y-146246666D01*
X141570476Y-146532380D02*
X141903809Y-145532380D01*
X142237142Y-146532380D01*
X143094285Y-146532380D02*
X142522857Y-146532380D01*
X142808571Y-146532380D02*
X142808571Y-145532380D01*
X142713333Y-145675238D01*
X142618095Y-145770476D01*
X142522857Y-145818095D01*
G04 #@! TO.C,C1*
X150694142Y-54233666D02*
X150741761Y-54281285D01*
X150789380Y-54424142D01*
X150789380Y-54519380D01*
X150741761Y-54662238D01*
X150646523Y-54757476D01*
X150551285Y-54805095D01*
X150360809Y-54852714D01*
X150217952Y-54852714D01*
X150027476Y-54805095D01*
X149932238Y-54757476D01*
X149837000Y-54662238D01*
X149789380Y-54519380D01*
X149789380Y-54424142D01*
X149837000Y-54281285D01*
X149884619Y-54233666D01*
X150789380Y-53281285D02*
X150789380Y-53852714D01*
X150789380Y-53567000D02*
X149789380Y-53567000D01*
X149932238Y-53662238D01*
X150027476Y-53757476D01*
X150075095Y-53852714D01*
G04 #@! TO.C,C2*
X129850333Y-39438142D02*
X129802714Y-39485761D01*
X129659857Y-39533380D01*
X129564619Y-39533380D01*
X129421761Y-39485761D01*
X129326523Y-39390523D01*
X129278904Y-39295285D01*
X129231285Y-39104809D01*
X129231285Y-38961952D01*
X129278904Y-38771476D01*
X129326523Y-38676238D01*
X129421761Y-38581000D01*
X129564619Y-38533380D01*
X129659857Y-38533380D01*
X129802714Y-38581000D01*
X129850333Y-38628619D01*
X130231285Y-38628619D02*
X130278904Y-38581000D01*
X130374142Y-38533380D01*
X130612238Y-38533380D01*
X130707476Y-38581000D01*
X130755095Y-38628619D01*
X130802714Y-38723857D01*
X130802714Y-38819095D01*
X130755095Y-38961952D01*
X130183666Y-39533380D01*
X130802714Y-39533380D01*
G04 #@! TO.C,C3*
X148662142Y-46359666D02*
X148709761Y-46407285D01*
X148757380Y-46550142D01*
X148757380Y-46645380D01*
X148709761Y-46788238D01*
X148614523Y-46883476D01*
X148519285Y-46931095D01*
X148328809Y-46978714D01*
X148185952Y-46978714D01*
X147995476Y-46931095D01*
X147900238Y-46883476D01*
X147805000Y-46788238D01*
X147757380Y-46645380D01*
X147757380Y-46550142D01*
X147805000Y-46407285D01*
X147852619Y-46359666D01*
X147757380Y-46026333D02*
X147757380Y-45407285D01*
X148138333Y-45740619D01*
X148138333Y-45597761D01*
X148185952Y-45502523D01*
X148233571Y-45454904D01*
X148328809Y-45407285D01*
X148566904Y-45407285D01*
X148662142Y-45454904D01*
X148709761Y-45502523D01*
X148757380Y-45597761D01*
X148757380Y-45883476D01*
X148709761Y-45978714D01*
X148662142Y-46026333D01*
G04 #@! TO.C,C4*
X138502142Y-50634166D02*
X138549761Y-50681785D01*
X138597380Y-50824642D01*
X138597380Y-50919880D01*
X138549761Y-51062738D01*
X138454523Y-51157976D01*
X138359285Y-51205595D01*
X138168809Y-51253214D01*
X138025952Y-51253214D01*
X137835476Y-51205595D01*
X137740238Y-51157976D01*
X137645000Y-51062738D01*
X137597380Y-50919880D01*
X137597380Y-50824642D01*
X137645000Y-50681785D01*
X137692619Y-50634166D01*
X137930714Y-49777023D02*
X138597380Y-49777023D01*
X137549761Y-50015119D02*
X138264047Y-50253214D01*
X138264047Y-49634166D01*
G04 #@! TO.C,C5*
X122339833Y-80840142D02*
X122292214Y-80887761D01*
X122149357Y-80935380D01*
X122054119Y-80935380D01*
X121911261Y-80887761D01*
X121816023Y-80792523D01*
X121768404Y-80697285D01*
X121720785Y-80506809D01*
X121720785Y-80363952D01*
X121768404Y-80173476D01*
X121816023Y-80078238D01*
X121911261Y-79983000D01*
X122054119Y-79935380D01*
X122149357Y-79935380D01*
X122292214Y-79983000D01*
X122339833Y-80030619D01*
X123244595Y-79935380D02*
X122768404Y-79935380D01*
X122720785Y-80411571D01*
X122768404Y-80363952D01*
X122863642Y-80316333D01*
X123101738Y-80316333D01*
X123196976Y-80363952D01*
X123244595Y-80411571D01*
X123292214Y-80506809D01*
X123292214Y-80744904D01*
X123244595Y-80840142D01*
X123196976Y-80887761D01*
X123101738Y-80935380D01*
X122863642Y-80935380D01*
X122768404Y-80887761D01*
X122720785Y-80840142D01*
G04 #@! TO.C,C6*
X94560142Y-73283666D02*
X94607761Y-73331285D01*
X94655380Y-73474142D01*
X94655380Y-73569380D01*
X94607761Y-73712238D01*
X94512523Y-73807476D01*
X94417285Y-73855095D01*
X94226809Y-73902714D01*
X94083952Y-73902714D01*
X93893476Y-73855095D01*
X93798238Y-73807476D01*
X93703000Y-73712238D01*
X93655380Y-73569380D01*
X93655380Y-73474142D01*
X93703000Y-73331285D01*
X93750619Y-73283666D01*
X93655380Y-72426523D02*
X93655380Y-72617000D01*
X93703000Y-72712238D01*
X93750619Y-72759857D01*
X93893476Y-72855095D01*
X94083952Y-72902714D01*
X94464904Y-72902714D01*
X94560142Y-72855095D01*
X94607761Y-72807476D01*
X94655380Y-72712238D01*
X94655380Y-72521761D01*
X94607761Y-72426523D01*
X94560142Y-72378904D01*
X94464904Y-72331285D01*
X94226809Y-72331285D01*
X94131571Y-72378904D01*
X94083952Y-72426523D01*
X94036333Y-72521761D01*
X94036333Y-72712238D01*
X94083952Y-72807476D01*
X94131571Y-72855095D01*
X94226809Y-72902714D01*
G04 #@! TO.C,C8*
X92004333Y-120972142D02*
X91956714Y-121019761D01*
X91813857Y-121067380D01*
X91718619Y-121067380D01*
X91575761Y-121019761D01*
X91480523Y-120924523D01*
X91432904Y-120829285D01*
X91385285Y-120638809D01*
X91385285Y-120495952D01*
X91432904Y-120305476D01*
X91480523Y-120210238D01*
X91575761Y-120115000D01*
X91718619Y-120067380D01*
X91813857Y-120067380D01*
X91956714Y-120115000D01*
X92004333Y-120162619D01*
X92575761Y-120495952D02*
X92480523Y-120448333D01*
X92432904Y-120400714D01*
X92385285Y-120305476D01*
X92385285Y-120257857D01*
X92432904Y-120162619D01*
X92480523Y-120115000D01*
X92575761Y-120067380D01*
X92766238Y-120067380D01*
X92861476Y-120115000D01*
X92909095Y-120162619D01*
X92956714Y-120257857D01*
X92956714Y-120305476D01*
X92909095Y-120400714D01*
X92861476Y-120448333D01*
X92766238Y-120495952D01*
X92575761Y-120495952D01*
X92480523Y-120543571D01*
X92432904Y-120591190D01*
X92385285Y-120686428D01*
X92385285Y-120876904D01*
X92432904Y-120972142D01*
X92480523Y-121019761D01*
X92575761Y-121067380D01*
X92766238Y-121067380D01*
X92861476Y-121019761D01*
X92909095Y-120972142D01*
X92956714Y-120876904D01*
X92956714Y-120686428D01*
X92909095Y-120591190D01*
X92861476Y-120543571D01*
X92766238Y-120495952D01*
G04 #@! TO.C,C9*
X87956142Y-98937666D02*
X88003761Y-98985285D01*
X88051380Y-99128142D01*
X88051380Y-99223380D01*
X88003761Y-99366238D01*
X87908523Y-99461476D01*
X87813285Y-99509095D01*
X87622809Y-99556714D01*
X87479952Y-99556714D01*
X87289476Y-99509095D01*
X87194238Y-99461476D01*
X87099000Y-99366238D01*
X87051380Y-99223380D01*
X87051380Y-99128142D01*
X87099000Y-98985285D01*
X87146619Y-98937666D01*
X88051380Y-98461476D02*
X88051380Y-98271000D01*
X88003761Y-98175761D01*
X87956142Y-98128142D01*
X87813285Y-98032904D01*
X87622809Y-97985285D01*
X87241857Y-97985285D01*
X87146619Y-98032904D01*
X87099000Y-98080523D01*
X87051380Y-98175761D01*
X87051380Y-98366238D01*
X87099000Y-98461476D01*
X87146619Y-98509095D01*
X87241857Y-98556714D01*
X87479952Y-98556714D01*
X87575190Y-98509095D01*
X87622809Y-98461476D01*
X87670428Y-98366238D01*
X87670428Y-98175761D01*
X87622809Y-98080523D01*
X87575190Y-98032904D01*
X87479952Y-97985285D01*
G04 #@! TO.C,C10*
X118847142Y-131882357D02*
X118894761Y-131929976D01*
X118942380Y-132072833D01*
X118942380Y-132168071D01*
X118894761Y-132310928D01*
X118799523Y-132406166D01*
X118704285Y-132453785D01*
X118513809Y-132501404D01*
X118370952Y-132501404D01*
X118180476Y-132453785D01*
X118085238Y-132406166D01*
X117990000Y-132310928D01*
X117942380Y-132168071D01*
X117942380Y-132072833D01*
X117990000Y-131929976D01*
X118037619Y-131882357D01*
X118942380Y-130929976D02*
X118942380Y-131501404D01*
X118942380Y-131215690D02*
X117942380Y-131215690D01*
X118085238Y-131310928D01*
X118180476Y-131406166D01*
X118228095Y-131501404D01*
X117942380Y-130310928D02*
X117942380Y-130215690D01*
X117990000Y-130120452D01*
X118037619Y-130072833D01*
X118132857Y-130025214D01*
X118323333Y-129977595D01*
X118561428Y-129977595D01*
X118751904Y-130025214D01*
X118847142Y-130072833D01*
X118894761Y-130120452D01*
X118942380Y-130215690D01*
X118942380Y-130310928D01*
X118894761Y-130406166D01*
X118847142Y-130453785D01*
X118751904Y-130501404D01*
X118561428Y-130549023D01*
X118323333Y-130549023D01*
X118132857Y-130501404D01*
X118037619Y-130453785D01*
X117990000Y-130406166D01*
X117942380Y-130310928D01*
G04 #@! TO.C,C11*
X118847142Y-128072357D02*
X118894761Y-128119976D01*
X118942380Y-128262833D01*
X118942380Y-128358071D01*
X118894761Y-128500928D01*
X118799523Y-128596166D01*
X118704285Y-128643785D01*
X118513809Y-128691404D01*
X118370952Y-128691404D01*
X118180476Y-128643785D01*
X118085238Y-128596166D01*
X117990000Y-128500928D01*
X117942380Y-128358071D01*
X117942380Y-128262833D01*
X117990000Y-128119976D01*
X118037619Y-128072357D01*
X118942380Y-127119976D02*
X118942380Y-127691404D01*
X118942380Y-127405690D02*
X117942380Y-127405690D01*
X118085238Y-127500928D01*
X118180476Y-127596166D01*
X118228095Y-127691404D01*
X118942380Y-126167595D02*
X118942380Y-126739023D01*
X118942380Y-126453309D02*
X117942380Y-126453309D01*
X118085238Y-126548547D01*
X118180476Y-126643785D01*
X118228095Y-126739023D01*
G04 #@! TO.C,C12*
X102180142Y-131374357D02*
X102227761Y-131421976D01*
X102275380Y-131564833D01*
X102275380Y-131660071D01*
X102227761Y-131802928D01*
X102132523Y-131898166D01*
X102037285Y-131945785D01*
X101846809Y-131993404D01*
X101703952Y-131993404D01*
X101513476Y-131945785D01*
X101418238Y-131898166D01*
X101323000Y-131802928D01*
X101275380Y-131660071D01*
X101275380Y-131564833D01*
X101323000Y-131421976D01*
X101370619Y-131374357D01*
X102275380Y-130421976D02*
X102275380Y-130993404D01*
X102275380Y-130707690D02*
X101275380Y-130707690D01*
X101418238Y-130802928D01*
X101513476Y-130898166D01*
X101561095Y-130993404D01*
X101370619Y-130041023D02*
X101323000Y-129993404D01*
X101275380Y-129898166D01*
X101275380Y-129660071D01*
X101323000Y-129564833D01*
X101370619Y-129517214D01*
X101465857Y-129469595D01*
X101561095Y-129469595D01*
X101703952Y-129517214D01*
X102275380Y-130088642D01*
X102275380Y-129469595D01*
G04 #@! TO.C,C13*
X108022142Y-131374357D02*
X108069761Y-131421976D01*
X108117380Y-131564833D01*
X108117380Y-131660071D01*
X108069761Y-131802928D01*
X107974523Y-131898166D01*
X107879285Y-131945785D01*
X107688809Y-131993404D01*
X107545952Y-131993404D01*
X107355476Y-131945785D01*
X107260238Y-131898166D01*
X107165000Y-131802928D01*
X107117380Y-131660071D01*
X107117380Y-131564833D01*
X107165000Y-131421976D01*
X107212619Y-131374357D01*
X108117380Y-130421976D02*
X108117380Y-130993404D01*
X108117380Y-130707690D02*
X107117380Y-130707690D01*
X107260238Y-130802928D01*
X107355476Y-130898166D01*
X107403095Y-130993404D01*
X107117380Y-130088642D02*
X107117380Y-129469595D01*
X107498333Y-129802928D01*
X107498333Y-129660071D01*
X107545952Y-129564833D01*
X107593571Y-129517214D01*
X107688809Y-129469595D01*
X107926904Y-129469595D01*
X108022142Y-129517214D01*
X108069761Y-129564833D01*
X108117380Y-129660071D01*
X108117380Y-129945785D01*
X108069761Y-130041023D01*
X108022142Y-130088642D01*
G04 #@! TO.C,C14*
X110308142Y-120241857D02*
X110355761Y-120289476D01*
X110403380Y-120432333D01*
X110403380Y-120527571D01*
X110355761Y-120670428D01*
X110260523Y-120765666D01*
X110165285Y-120813285D01*
X109974809Y-120860904D01*
X109831952Y-120860904D01*
X109641476Y-120813285D01*
X109546238Y-120765666D01*
X109451000Y-120670428D01*
X109403380Y-120527571D01*
X109403380Y-120432333D01*
X109451000Y-120289476D01*
X109498619Y-120241857D01*
X110403380Y-119289476D02*
X110403380Y-119860904D01*
X110403380Y-119575190D02*
X109403380Y-119575190D01*
X109546238Y-119670428D01*
X109641476Y-119765666D01*
X109689095Y-119860904D01*
X109736714Y-118432333D02*
X110403380Y-118432333D01*
X109355761Y-118670428D02*
X110070047Y-118908523D01*
X110070047Y-118289476D01*
G04 #@! TO.C,C15*
X118944142Y-124135357D02*
X118991761Y-124182976D01*
X119039380Y-124325833D01*
X119039380Y-124421071D01*
X118991761Y-124563928D01*
X118896523Y-124659166D01*
X118801285Y-124706785D01*
X118610809Y-124754404D01*
X118467952Y-124754404D01*
X118277476Y-124706785D01*
X118182238Y-124659166D01*
X118087000Y-124563928D01*
X118039380Y-124421071D01*
X118039380Y-124325833D01*
X118087000Y-124182976D01*
X118134619Y-124135357D01*
X119039380Y-123182976D02*
X119039380Y-123754404D01*
X119039380Y-123468690D02*
X118039380Y-123468690D01*
X118182238Y-123563928D01*
X118277476Y-123659166D01*
X118325095Y-123754404D01*
X118039380Y-122278214D02*
X118039380Y-122754404D01*
X118515571Y-122802023D01*
X118467952Y-122754404D01*
X118420333Y-122659166D01*
X118420333Y-122421071D01*
X118467952Y-122325833D01*
X118515571Y-122278214D01*
X118610809Y-122230595D01*
X118848904Y-122230595D01*
X118944142Y-122278214D01*
X118991761Y-122325833D01*
X119039380Y-122421071D01*
X119039380Y-122659166D01*
X118991761Y-122754404D01*
X118944142Y-122802023D01*
G04 #@! TO.C,C16*
X110467142Y-124135357D02*
X110514761Y-124182976D01*
X110562380Y-124325833D01*
X110562380Y-124421071D01*
X110514761Y-124563928D01*
X110419523Y-124659166D01*
X110324285Y-124706785D01*
X110133809Y-124754404D01*
X109990952Y-124754404D01*
X109800476Y-124706785D01*
X109705238Y-124659166D01*
X109610000Y-124563928D01*
X109562380Y-124421071D01*
X109562380Y-124325833D01*
X109610000Y-124182976D01*
X109657619Y-124135357D01*
X110562380Y-123182976D02*
X110562380Y-123754404D01*
X110562380Y-123468690D02*
X109562380Y-123468690D01*
X109705238Y-123563928D01*
X109800476Y-123659166D01*
X109848095Y-123754404D01*
X109562380Y-122325833D02*
X109562380Y-122516309D01*
X109610000Y-122611547D01*
X109657619Y-122659166D01*
X109800476Y-122754404D01*
X109990952Y-122802023D01*
X110371904Y-122802023D01*
X110467142Y-122754404D01*
X110514761Y-122706785D01*
X110562380Y-122611547D01*
X110562380Y-122421071D01*
X110514761Y-122325833D01*
X110467142Y-122278214D01*
X110371904Y-122230595D01*
X110133809Y-122230595D01*
X110038571Y-122278214D01*
X109990952Y-122325833D01*
X109943333Y-122421071D01*
X109943333Y-122611547D01*
X109990952Y-122706785D01*
X110038571Y-122754404D01*
X110133809Y-122802023D01*
G04 #@! TO.C,C17*
X113864142Y-119733857D02*
X113911761Y-119781476D01*
X113959380Y-119924333D01*
X113959380Y-120019571D01*
X113911761Y-120162428D01*
X113816523Y-120257666D01*
X113721285Y-120305285D01*
X113530809Y-120352904D01*
X113387952Y-120352904D01*
X113197476Y-120305285D01*
X113102238Y-120257666D01*
X113007000Y-120162428D01*
X112959380Y-120019571D01*
X112959380Y-119924333D01*
X113007000Y-119781476D01*
X113054619Y-119733857D01*
X113959380Y-118781476D02*
X113959380Y-119352904D01*
X113959380Y-119067190D02*
X112959380Y-119067190D01*
X113102238Y-119162428D01*
X113197476Y-119257666D01*
X113245095Y-119352904D01*
X112959380Y-118448142D02*
X112959380Y-117781476D01*
X113959380Y-118210047D01*
G04 #@! TO.C,D1*
X103037380Y-44899095D02*
X102037380Y-44899095D01*
X102037380Y-44661000D01*
X102085000Y-44518142D01*
X102180238Y-44422904D01*
X102275476Y-44375285D01*
X102465952Y-44327666D01*
X102608809Y-44327666D01*
X102799285Y-44375285D01*
X102894523Y-44422904D01*
X102989761Y-44518142D01*
X103037380Y-44661000D01*
X103037380Y-44899095D01*
X103037380Y-43375285D02*
X103037380Y-43946714D01*
X103037380Y-43661000D02*
X102037380Y-43661000D01*
X102180238Y-43756238D01*
X102275476Y-43851476D01*
X102323095Y-43946714D01*
G04 #@! TO.C,D5*
X144242404Y-141346380D02*
X144242404Y-140346380D01*
X144480500Y-140346380D01*
X144623357Y-140394000D01*
X144718595Y-140489238D01*
X144766214Y-140584476D01*
X144813833Y-140774952D01*
X144813833Y-140917809D01*
X144766214Y-141108285D01*
X144718595Y-141203523D01*
X144623357Y-141298761D01*
X144480500Y-141346380D01*
X144242404Y-141346380D01*
X145718595Y-140346380D02*
X145242404Y-140346380D01*
X145194785Y-140822571D01*
X145242404Y-140774952D01*
X145337642Y-140727333D01*
X145575738Y-140727333D01*
X145670976Y-140774952D01*
X145718595Y-140822571D01*
X145766214Y-140917809D01*
X145766214Y-141155904D01*
X145718595Y-141251142D01*
X145670976Y-141298761D01*
X145575738Y-141346380D01*
X145337642Y-141346380D01*
X145242404Y-141298761D01*
X145194785Y-141251142D01*
G04 #@! TO.C,D6*
X140031404Y-141346380D02*
X140031404Y-140346380D01*
X140269500Y-140346380D01*
X140412357Y-140394000D01*
X140507595Y-140489238D01*
X140555214Y-140584476D01*
X140602833Y-140774952D01*
X140602833Y-140917809D01*
X140555214Y-141108285D01*
X140507595Y-141203523D01*
X140412357Y-141298761D01*
X140269500Y-141346380D01*
X140031404Y-141346380D01*
X141459976Y-140346380D02*
X141269500Y-140346380D01*
X141174261Y-140394000D01*
X141126642Y-140441619D01*
X141031404Y-140584476D01*
X140983785Y-140774952D01*
X140983785Y-141155904D01*
X141031404Y-141251142D01*
X141079023Y-141298761D01*
X141174261Y-141346380D01*
X141364738Y-141346380D01*
X141459976Y-141298761D01*
X141507595Y-141251142D01*
X141555214Y-141155904D01*
X141555214Y-140917809D01*
X141507595Y-140822571D01*
X141459976Y-140774952D01*
X141364738Y-140727333D01*
X141174261Y-140727333D01*
X141079023Y-140774952D01*
X141031404Y-140822571D01*
X140983785Y-140917809D01*
G04 #@! TO.C,D8*
X114721380Y-108653095D02*
X113721380Y-108653095D01*
X113721380Y-108415000D01*
X113769000Y-108272142D01*
X113864238Y-108176904D01*
X113959476Y-108129285D01*
X114149952Y-108081666D01*
X114292809Y-108081666D01*
X114483285Y-108129285D01*
X114578523Y-108176904D01*
X114673761Y-108272142D01*
X114721380Y-108415000D01*
X114721380Y-108653095D01*
X114149952Y-107510238D02*
X114102333Y-107605476D01*
X114054714Y-107653095D01*
X113959476Y-107700714D01*
X113911857Y-107700714D01*
X113816619Y-107653095D01*
X113769000Y-107605476D01*
X113721380Y-107510238D01*
X113721380Y-107319761D01*
X113769000Y-107224523D01*
X113816619Y-107176904D01*
X113911857Y-107129285D01*
X113959476Y-107129285D01*
X114054714Y-107176904D01*
X114102333Y-107224523D01*
X114149952Y-107319761D01*
X114149952Y-107510238D01*
X114197571Y-107605476D01*
X114245190Y-107653095D01*
X114340428Y-107700714D01*
X114530904Y-107700714D01*
X114626142Y-107653095D01*
X114673761Y-107605476D01*
X114721380Y-107510238D01*
X114721380Y-107319761D01*
X114673761Y-107224523D01*
X114626142Y-107176904D01*
X114530904Y-107129285D01*
X114340428Y-107129285D01*
X114245190Y-107176904D01*
X114197571Y-107224523D01*
X114149952Y-107319761D01*
G04 #@! TO.C,J1*
X88027666Y-132513380D02*
X88027666Y-133227666D01*
X87980047Y-133370523D01*
X87884809Y-133465761D01*
X87741952Y-133513380D01*
X87646714Y-133513380D01*
X89027666Y-133513380D02*
X88456238Y-133513380D01*
X88741952Y-133513380D02*
X88741952Y-132513380D01*
X88646714Y-132656238D01*
X88551476Y-132751476D01*
X88456238Y-132799095D01*
G04 #@! TO.C,J2*
X111141666Y-139879380D02*
X111141666Y-140593666D01*
X111094047Y-140736523D01*
X110998809Y-140831761D01*
X110855952Y-140879380D01*
X110760714Y-140879380D01*
X111570238Y-139974619D02*
X111617857Y-139927000D01*
X111713095Y-139879380D01*
X111951190Y-139879380D01*
X112046428Y-139927000D01*
X112094047Y-139974619D01*
X112141666Y-140069857D01*
X112141666Y-140165095D01*
X112094047Y-140307952D01*
X111522619Y-140879380D01*
X112141666Y-140879380D01*
G04 #@! TO.C,J3*
X148975876Y-91025254D02*
X148975876Y-91739540D01*
X148928257Y-91882397D01*
X148833019Y-91977635D01*
X148690162Y-92025254D01*
X148594924Y-92025254D01*
X149356829Y-91025254D02*
X149975876Y-91025254D01*
X149642543Y-91406207D01*
X149785400Y-91406207D01*
X149880638Y-91453826D01*
X149928257Y-91501445D01*
X149975876Y-91596683D01*
X149975876Y-91834778D01*
X149928257Y-91930016D01*
X149880638Y-91977635D01*
X149785400Y-92025254D01*
X149499686Y-92025254D01*
X149404448Y-91977635D01*
X149356829Y-91930016D01*
G04 #@! TO.C,J4*
X144911876Y-91089254D02*
X144911876Y-91803540D01*
X144864257Y-91946397D01*
X144769019Y-92041635D01*
X144626162Y-92089254D01*
X144530924Y-92089254D01*
X145816638Y-91422588D02*
X145816638Y-92089254D01*
X145578543Y-91041635D02*
X145340448Y-91755921D01*
X145959495Y-91755921D01*
G04 #@! TO.C,L1*
X134930333Y-79411380D02*
X134454142Y-79411380D01*
X134454142Y-78411380D01*
X135787476Y-79411380D02*
X135216047Y-79411380D01*
X135501761Y-79411380D02*
X135501761Y-78411380D01*
X135406523Y-78554238D01*
X135311285Y-78649476D01*
X135216047Y-78697095D01*
G04 #@! TO.C,L2*
X118928333Y-104811380D02*
X118452142Y-104811380D01*
X118452142Y-103811380D01*
X119214047Y-103906619D02*
X119261666Y-103859000D01*
X119356904Y-103811380D01*
X119595000Y-103811380D01*
X119690238Y-103859000D01*
X119737857Y-103906619D01*
X119785476Y-104001857D01*
X119785476Y-104097095D01*
X119737857Y-104239952D01*
X119166428Y-104811380D01*
X119785476Y-104811380D01*
G04 #@! TO.C,Q1*
X89162619Y-47304238D02*
X89115000Y-47399476D01*
X89019761Y-47494714D01*
X88876904Y-47637571D01*
X88829285Y-47732809D01*
X88829285Y-47828047D01*
X89067380Y-47780428D02*
X89019761Y-47875666D01*
X88924523Y-47970904D01*
X88734047Y-48018523D01*
X88400714Y-48018523D01*
X88210238Y-47970904D01*
X88115000Y-47875666D01*
X88067380Y-47780428D01*
X88067380Y-47589952D01*
X88115000Y-47494714D01*
X88210238Y-47399476D01*
X88400714Y-47351857D01*
X88734047Y-47351857D01*
X88924523Y-47399476D01*
X89019761Y-47494714D01*
X89067380Y-47589952D01*
X89067380Y-47780428D01*
X89067380Y-46399476D02*
X89067380Y-46970904D01*
X89067380Y-46685190D02*
X88067380Y-46685190D01*
X88210238Y-46780428D01*
X88305476Y-46875666D01*
X88353095Y-46970904D01*
G04 #@! TO.C,Q2*
X148929619Y-72704238D02*
X148882000Y-72799476D01*
X148786761Y-72894714D01*
X148643904Y-73037571D01*
X148596285Y-73132809D01*
X148596285Y-73228047D01*
X148834380Y-73180428D02*
X148786761Y-73275666D01*
X148691523Y-73370904D01*
X148501047Y-73418523D01*
X148167714Y-73418523D01*
X147977238Y-73370904D01*
X147882000Y-73275666D01*
X147834380Y-73180428D01*
X147834380Y-72989952D01*
X147882000Y-72894714D01*
X147977238Y-72799476D01*
X148167714Y-72751857D01*
X148501047Y-72751857D01*
X148691523Y-72799476D01*
X148786761Y-72894714D01*
X148834380Y-72989952D01*
X148834380Y-73180428D01*
X147929619Y-72370904D02*
X147882000Y-72323285D01*
X147834380Y-72228047D01*
X147834380Y-71989952D01*
X147882000Y-71894714D01*
X147929619Y-71847095D01*
X148024857Y-71799476D01*
X148120095Y-71799476D01*
X148262952Y-71847095D01*
X148834380Y-72418523D01*
X148834380Y-71799476D01*
G04 #@! TO.C,Q3*
X101457619Y-114395238D02*
X101410000Y-114490476D01*
X101314761Y-114585714D01*
X101171904Y-114728571D01*
X101124285Y-114823809D01*
X101124285Y-114919047D01*
X101362380Y-114871428D02*
X101314761Y-114966666D01*
X101219523Y-115061904D01*
X101029047Y-115109523D01*
X100695714Y-115109523D01*
X100505238Y-115061904D01*
X100410000Y-114966666D01*
X100362380Y-114871428D01*
X100362380Y-114680952D01*
X100410000Y-114585714D01*
X100505238Y-114490476D01*
X100695714Y-114442857D01*
X101029047Y-114442857D01*
X101219523Y-114490476D01*
X101314761Y-114585714D01*
X101362380Y-114680952D01*
X101362380Y-114871428D01*
X100362380Y-114109523D02*
X100362380Y-113490476D01*
X100743333Y-113823809D01*
X100743333Y-113680952D01*
X100790952Y-113585714D01*
X100838571Y-113538095D01*
X100933809Y-113490476D01*
X101171904Y-113490476D01*
X101267142Y-113538095D01*
X101314761Y-113585714D01*
X101362380Y-113680952D01*
X101362380Y-113966666D01*
X101314761Y-114061904D01*
X101267142Y-114109523D01*
G04 #@! TO.C,R1*
X136200333Y-39787380D02*
X135867000Y-39311190D01*
X135628904Y-39787380D02*
X135628904Y-38787380D01*
X136009857Y-38787380D01*
X136105095Y-38835000D01*
X136152714Y-38882619D01*
X136200333Y-38977857D01*
X136200333Y-39120714D01*
X136152714Y-39215952D01*
X136105095Y-39263571D01*
X136009857Y-39311190D01*
X135628904Y-39311190D01*
X137152714Y-39787380D02*
X136581285Y-39787380D01*
X136867000Y-39787380D02*
X136867000Y-38787380D01*
X136771761Y-38930238D01*
X136676523Y-39025476D01*
X136581285Y-39073095D01*
G04 #@! TO.C,R2*
X138756380Y-54347166D02*
X138280190Y-54680500D01*
X138756380Y-54918595D02*
X137756380Y-54918595D01*
X137756380Y-54537642D01*
X137804000Y-54442404D01*
X137851619Y-54394785D01*
X137946857Y-54347166D01*
X138089714Y-54347166D01*
X138184952Y-54394785D01*
X138232571Y-54442404D01*
X138280190Y-54537642D01*
X138280190Y-54918595D01*
X137851619Y-53966214D02*
X137804000Y-53918595D01*
X137756380Y-53823357D01*
X137756380Y-53585261D01*
X137804000Y-53490023D01*
X137851619Y-53442404D01*
X137946857Y-53394785D01*
X138042095Y-53394785D01*
X138184952Y-53442404D01*
X138756380Y-54013833D01*
X138756380Y-53394785D01*
G04 #@! TO.C,R4*
X101656333Y-42726380D02*
X101323000Y-42250190D01*
X101084904Y-42726380D02*
X101084904Y-41726380D01*
X101465857Y-41726380D01*
X101561095Y-41774000D01*
X101608714Y-41821619D01*
X101656333Y-41916857D01*
X101656333Y-42059714D01*
X101608714Y-42154952D01*
X101561095Y-42202571D01*
X101465857Y-42250190D01*
X101084904Y-42250190D01*
X102513476Y-42059714D02*
X102513476Y-42726380D01*
X102275380Y-41678761D02*
X102037285Y-42393047D01*
X102656333Y-42393047D01*
G04 #@! TO.C,R5*
X136200333Y-42073380D02*
X135867000Y-41597190D01*
X135628904Y-42073380D02*
X135628904Y-41073380D01*
X136009857Y-41073380D01*
X136105095Y-41121000D01*
X136152714Y-41168619D01*
X136200333Y-41263857D01*
X136200333Y-41406714D01*
X136152714Y-41501952D01*
X136105095Y-41549571D01*
X136009857Y-41597190D01*
X135628904Y-41597190D01*
X137105095Y-41073380D02*
X136628904Y-41073380D01*
X136581285Y-41549571D01*
X136628904Y-41501952D01*
X136724142Y-41454333D01*
X136962238Y-41454333D01*
X137057476Y-41501952D01*
X137105095Y-41549571D01*
X137152714Y-41644809D01*
X137152714Y-41882904D01*
X137105095Y-41978142D01*
X137057476Y-42025761D01*
X136962238Y-42073380D01*
X136724142Y-42073380D01*
X136628904Y-42025761D01*
X136581285Y-41978142D01*
G04 #@! TO.C,R6*
X138851380Y-46867666D02*
X138375190Y-47201000D01*
X138851380Y-47439095D02*
X137851380Y-47439095D01*
X137851380Y-47058142D01*
X137899000Y-46962904D01*
X137946619Y-46915285D01*
X138041857Y-46867666D01*
X138184714Y-46867666D01*
X138279952Y-46915285D01*
X138327571Y-46962904D01*
X138375190Y-47058142D01*
X138375190Y-47439095D01*
X137851380Y-46010523D02*
X137851380Y-46201000D01*
X137899000Y-46296238D01*
X137946619Y-46343857D01*
X138089476Y-46439095D01*
X138279952Y-46486714D01*
X138660904Y-46486714D01*
X138756142Y-46439095D01*
X138803761Y-46391476D01*
X138851380Y-46296238D01*
X138851380Y-46105761D01*
X138803761Y-46010523D01*
X138756142Y-45962904D01*
X138660904Y-45915285D01*
X138422809Y-45915285D01*
X138327571Y-45962904D01*
X138279952Y-46010523D01*
X138232333Y-46105761D01*
X138232333Y-46296238D01*
X138279952Y-46391476D01*
X138327571Y-46439095D01*
X138422809Y-46486714D01*
G04 #@! TO.C,R7*
X101767380Y-46867666D02*
X101291190Y-47201000D01*
X101767380Y-47439095D02*
X100767380Y-47439095D01*
X100767380Y-47058142D01*
X100815000Y-46962904D01*
X100862619Y-46915285D01*
X100957857Y-46867666D01*
X101100714Y-46867666D01*
X101195952Y-46915285D01*
X101243571Y-46962904D01*
X101291190Y-47058142D01*
X101291190Y-47439095D01*
X100767380Y-46534333D02*
X100767380Y-45867666D01*
X101767380Y-46296238D01*
G04 #@! TO.C,R8*
X126151380Y-78871666D02*
X125675190Y-79205000D01*
X126151380Y-79443095D02*
X125151380Y-79443095D01*
X125151380Y-79062142D01*
X125199000Y-78966904D01*
X125246619Y-78919285D01*
X125341857Y-78871666D01*
X125484714Y-78871666D01*
X125579952Y-78919285D01*
X125627571Y-78966904D01*
X125675190Y-79062142D01*
X125675190Y-79443095D01*
X125579952Y-78300238D02*
X125532333Y-78395476D01*
X125484714Y-78443095D01*
X125389476Y-78490714D01*
X125341857Y-78490714D01*
X125246619Y-78443095D01*
X125199000Y-78395476D01*
X125151380Y-78300238D01*
X125151380Y-78109761D01*
X125199000Y-78014523D01*
X125246619Y-77966904D01*
X125341857Y-77919285D01*
X125389476Y-77919285D01*
X125484714Y-77966904D01*
X125532333Y-78014523D01*
X125579952Y-78109761D01*
X125579952Y-78300238D01*
X125627571Y-78395476D01*
X125675190Y-78443095D01*
X125770428Y-78490714D01*
X125960904Y-78490714D01*
X126056142Y-78443095D01*
X126103761Y-78395476D01*
X126151380Y-78300238D01*
X126151380Y-78109761D01*
X126103761Y-78014523D01*
X126056142Y-77966904D01*
X125960904Y-77919285D01*
X125770428Y-77919285D01*
X125675190Y-77966904D01*
X125627571Y-78014523D01*
X125579952Y-78109761D01*
G04 #@! TO.C,R9*
X121579380Y-95127666D02*
X121103190Y-95461000D01*
X121579380Y-95699095D02*
X120579380Y-95699095D01*
X120579380Y-95318142D01*
X120627000Y-95222904D01*
X120674619Y-95175285D01*
X120769857Y-95127666D01*
X120912714Y-95127666D01*
X121007952Y-95175285D01*
X121055571Y-95222904D01*
X121103190Y-95318142D01*
X121103190Y-95699095D01*
X121579380Y-94651476D02*
X121579380Y-94461000D01*
X121531761Y-94365761D01*
X121484142Y-94318142D01*
X121341285Y-94222904D01*
X121150809Y-94175285D01*
X120769857Y-94175285D01*
X120674619Y-94222904D01*
X120627000Y-94270523D01*
X120579380Y-94365761D01*
X120579380Y-94556238D01*
X120627000Y-94651476D01*
X120674619Y-94699095D01*
X120769857Y-94746714D01*
X121007952Y-94746714D01*
X121103190Y-94699095D01*
X121150809Y-94651476D01*
X121198428Y-94556238D01*
X121198428Y-94365761D01*
X121150809Y-94270523D01*
X121103190Y-94222904D01*
X121007952Y-94175285D01*
G04 #@! TO.C,R11*
X113102380Y-131882357D02*
X112626190Y-132215690D01*
X113102380Y-132453785D02*
X112102380Y-132453785D01*
X112102380Y-132072833D01*
X112150000Y-131977595D01*
X112197619Y-131929976D01*
X112292857Y-131882357D01*
X112435714Y-131882357D01*
X112530952Y-131929976D01*
X112578571Y-131977595D01*
X112626190Y-132072833D01*
X112626190Y-132453785D01*
X113102380Y-130929976D02*
X113102380Y-131501404D01*
X113102380Y-131215690D02*
X112102380Y-131215690D01*
X112245238Y-131310928D01*
X112340476Y-131406166D01*
X112388095Y-131501404D01*
X113102380Y-129977595D02*
X113102380Y-130549023D01*
X113102380Y-130263309D02*
X112102380Y-130263309D01*
X112245238Y-130358547D01*
X112340476Y-130453785D01*
X112388095Y-130549023D01*
G04 #@! TO.C,R12*
X102783380Y-127353857D02*
X102307190Y-127687190D01*
X102783380Y-127925285D02*
X101783380Y-127925285D01*
X101783380Y-127544333D01*
X101831000Y-127449095D01*
X101878619Y-127401476D01*
X101973857Y-127353857D01*
X102116714Y-127353857D01*
X102211952Y-127401476D01*
X102259571Y-127449095D01*
X102307190Y-127544333D01*
X102307190Y-127925285D01*
X102783380Y-126401476D02*
X102783380Y-126972904D01*
X102783380Y-126687190D02*
X101783380Y-126687190D01*
X101926238Y-126782428D01*
X102021476Y-126877666D01*
X102069095Y-126972904D01*
X101878619Y-126020523D02*
X101831000Y-125972904D01*
X101783380Y-125877666D01*
X101783380Y-125639571D01*
X101831000Y-125544333D01*
X101878619Y-125496714D01*
X101973857Y-125449095D01*
X102069095Y-125449095D01*
X102211952Y-125496714D01*
X102783380Y-126068142D01*
X102783380Y-125449095D01*
G04 #@! TO.C,R13*
X137835380Y-101734857D02*
X137359190Y-102068190D01*
X137835380Y-102306285D02*
X136835380Y-102306285D01*
X136835380Y-101925333D01*
X136883000Y-101830095D01*
X136930619Y-101782476D01*
X137025857Y-101734857D01*
X137168714Y-101734857D01*
X137263952Y-101782476D01*
X137311571Y-101830095D01*
X137359190Y-101925333D01*
X137359190Y-102306285D01*
X137835380Y-100782476D02*
X137835380Y-101353904D01*
X137835380Y-101068190D02*
X136835380Y-101068190D01*
X136978238Y-101163428D01*
X137073476Y-101258666D01*
X137121095Y-101353904D01*
X136835380Y-100449142D02*
X136835380Y-99830095D01*
X137216333Y-100163428D01*
X137216333Y-100020571D01*
X137263952Y-99925333D01*
X137311571Y-99877714D01*
X137406809Y-99830095D01*
X137644904Y-99830095D01*
X137740142Y-99877714D01*
X137787761Y-99925333D01*
X137835380Y-100020571D01*
X137835380Y-100306285D01*
X137787761Y-100401523D01*
X137740142Y-100449142D01*
G04 #@! TO.C,R14*
X110403380Y-116431857D02*
X109927190Y-116765190D01*
X110403380Y-117003285D02*
X109403380Y-117003285D01*
X109403380Y-116622333D01*
X109451000Y-116527095D01*
X109498619Y-116479476D01*
X109593857Y-116431857D01*
X109736714Y-116431857D01*
X109831952Y-116479476D01*
X109879571Y-116527095D01*
X109927190Y-116622333D01*
X109927190Y-117003285D01*
X110403380Y-115479476D02*
X110403380Y-116050904D01*
X110403380Y-115765190D02*
X109403380Y-115765190D01*
X109546238Y-115860428D01*
X109641476Y-115955666D01*
X109689095Y-116050904D01*
X109736714Y-114622333D02*
X110403380Y-114622333D01*
X109355761Y-114860428D02*
X110070047Y-115098523D01*
X110070047Y-114479476D01*
G04 #@! TO.C,R15*
X102021380Y-123797857D02*
X101545190Y-124131190D01*
X102021380Y-124369285D02*
X101021380Y-124369285D01*
X101021380Y-123988333D01*
X101069000Y-123893095D01*
X101116619Y-123845476D01*
X101211857Y-123797857D01*
X101354714Y-123797857D01*
X101449952Y-123845476D01*
X101497571Y-123893095D01*
X101545190Y-123988333D01*
X101545190Y-124369285D01*
X102021380Y-122845476D02*
X102021380Y-123416904D01*
X102021380Y-123131190D02*
X101021380Y-123131190D01*
X101164238Y-123226428D01*
X101259476Y-123321666D01*
X101307095Y-123416904D01*
X101021380Y-121940714D02*
X101021380Y-122416904D01*
X101497571Y-122464523D01*
X101449952Y-122416904D01*
X101402333Y-122321666D01*
X101402333Y-122083571D01*
X101449952Y-121988333D01*
X101497571Y-121940714D01*
X101592809Y-121893095D01*
X101830904Y-121893095D01*
X101926142Y-121940714D01*
X101973761Y-121988333D01*
X102021380Y-122083571D01*
X102021380Y-122321666D01*
X101973761Y-122416904D01*
X101926142Y-122464523D01*
G04 #@! TO.C,R16*
X146120380Y-138643357D02*
X145644190Y-138976690D01*
X146120380Y-139214785D02*
X145120380Y-139214785D01*
X145120380Y-138833833D01*
X145168000Y-138738595D01*
X145215619Y-138690976D01*
X145310857Y-138643357D01*
X145453714Y-138643357D01*
X145548952Y-138690976D01*
X145596571Y-138738595D01*
X145644190Y-138833833D01*
X145644190Y-139214785D01*
X146120380Y-137690976D02*
X146120380Y-138262404D01*
X146120380Y-137976690D02*
X145120380Y-137976690D01*
X145263238Y-138071928D01*
X145358476Y-138167166D01*
X145406095Y-138262404D01*
X145120380Y-136833833D02*
X145120380Y-137024309D01*
X145168000Y-137119547D01*
X145215619Y-137167166D01*
X145358476Y-137262404D01*
X145548952Y-137310023D01*
X145929904Y-137310023D01*
X146025142Y-137262404D01*
X146072761Y-137214785D01*
X146120380Y-137119547D01*
X146120380Y-136929071D01*
X146072761Y-136833833D01*
X146025142Y-136786214D01*
X145929904Y-136738595D01*
X145691809Y-136738595D01*
X145596571Y-136786214D01*
X145548952Y-136833833D01*
X145501333Y-136929071D01*
X145501333Y-137119547D01*
X145548952Y-137214785D01*
X145596571Y-137262404D01*
X145691809Y-137310023D01*
G04 #@! TO.C,R17*
X115483380Y-120749857D02*
X115007190Y-121083190D01*
X115483380Y-121321285D02*
X114483380Y-121321285D01*
X114483380Y-120940333D01*
X114531000Y-120845095D01*
X114578619Y-120797476D01*
X114673857Y-120749857D01*
X114816714Y-120749857D01*
X114911952Y-120797476D01*
X114959571Y-120845095D01*
X115007190Y-120940333D01*
X115007190Y-121321285D01*
X115483380Y-119797476D02*
X115483380Y-120368904D01*
X115483380Y-120083190D02*
X114483380Y-120083190D01*
X114626238Y-120178428D01*
X114721476Y-120273666D01*
X114769095Y-120368904D01*
X114483380Y-119464142D02*
X114483380Y-118797476D01*
X115483380Y-119226047D01*
G04 #@! TO.C,R18*
X118942380Y-116515357D02*
X118466190Y-116848690D01*
X118942380Y-117086785D02*
X117942380Y-117086785D01*
X117942380Y-116705833D01*
X117990000Y-116610595D01*
X118037619Y-116562976D01*
X118132857Y-116515357D01*
X118275714Y-116515357D01*
X118370952Y-116562976D01*
X118418571Y-116610595D01*
X118466190Y-116705833D01*
X118466190Y-117086785D01*
X118942380Y-115562976D02*
X118942380Y-116134404D01*
X118942380Y-115848690D02*
X117942380Y-115848690D01*
X118085238Y-115943928D01*
X118180476Y-116039166D01*
X118228095Y-116134404D01*
X118370952Y-114991547D02*
X118323333Y-115086785D01*
X118275714Y-115134404D01*
X118180476Y-115182023D01*
X118132857Y-115182023D01*
X118037619Y-115134404D01*
X117990000Y-115086785D01*
X117942380Y-114991547D01*
X117942380Y-114801071D01*
X117990000Y-114705833D01*
X118037619Y-114658214D01*
X118132857Y-114610595D01*
X118180476Y-114610595D01*
X118275714Y-114658214D01*
X118323333Y-114705833D01*
X118370952Y-114801071D01*
X118370952Y-114991547D01*
X118418571Y-115086785D01*
X118466190Y-115134404D01*
X118561428Y-115182023D01*
X118751904Y-115182023D01*
X118847142Y-115134404D01*
X118894761Y-115086785D01*
X118942380Y-114991547D01*
X118942380Y-114801071D01*
X118894761Y-114705833D01*
X118847142Y-114658214D01*
X118751904Y-114610595D01*
X118561428Y-114610595D01*
X118466190Y-114658214D01*
X118418571Y-114705833D01*
X118370952Y-114801071D01*
G04 #@! TO.C,R19*
X117261380Y-109319857D02*
X116785190Y-109653190D01*
X117261380Y-109891285D02*
X116261380Y-109891285D01*
X116261380Y-109510333D01*
X116309000Y-109415095D01*
X116356619Y-109367476D01*
X116451857Y-109319857D01*
X116594714Y-109319857D01*
X116689952Y-109367476D01*
X116737571Y-109415095D01*
X116785190Y-109510333D01*
X116785190Y-109891285D01*
X117261380Y-108367476D02*
X117261380Y-108938904D01*
X117261380Y-108653190D02*
X116261380Y-108653190D01*
X116404238Y-108748428D01*
X116499476Y-108843666D01*
X116547095Y-108938904D01*
X117261380Y-107891285D02*
X117261380Y-107700809D01*
X117213761Y-107605571D01*
X117166142Y-107557952D01*
X117023285Y-107462714D01*
X116832809Y-107415095D01*
X116451857Y-107415095D01*
X116356619Y-107462714D01*
X116309000Y-107510333D01*
X116261380Y-107605571D01*
X116261380Y-107796047D01*
X116309000Y-107891285D01*
X116356619Y-107938904D01*
X116451857Y-107986523D01*
X116689952Y-107986523D01*
X116785190Y-107938904D01*
X116832809Y-107891285D01*
X116880428Y-107796047D01*
X116880428Y-107605571D01*
X116832809Y-107510333D01*
X116785190Y-107462714D01*
X116689952Y-107415095D01*
G04 #@! TO.C,R20*
X119039380Y-120241857D02*
X118563190Y-120575190D01*
X119039380Y-120813285D02*
X118039380Y-120813285D01*
X118039380Y-120432333D01*
X118087000Y-120337095D01*
X118134619Y-120289476D01*
X118229857Y-120241857D01*
X118372714Y-120241857D01*
X118467952Y-120289476D01*
X118515571Y-120337095D01*
X118563190Y-120432333D01*
X118563190Y-120813285D01*
X118134619Y-119860904D02*
X118087000Y-119813285D01*
X118039380Y-119718047D01*
X118039380Y-119479952D01*
X118087000Y-119384714D01*
X118134619Y-119337095D01*
X118229857Y-119289476D01*
X118325095Y-119289476D01*
X118467952Y-119337095D01*
X119039380Y-119908523D01*
X119039380Y-119289476D01*
X118039380Y-118670428D02*
X118039380Y-118575190D01*
X118087000Y-118479952D01*
X118134619Y-118432333D01*
X118229857Y-118384714D01*
X118420333Y-118337095D01*
X118658428Y-118337095D01*
X118848904Y-118384714D01*
X118944142Y-118432333D01*
X118991761Y-118479952D01*
X119039380Y-118575190D01*
X119039380Y-118670428D01*
X118991761Y-118765666D01*
X118944142Y-118813285D01*
X118848904Y-118860904D01*
X118658428Y-118908523D01*
X118420333Y-118908523D01*
X118229857Y-118860904D01*
X118134619Y-118813285D01*
X118087000Y-118765666D01*
X118039380Y-118670428D01*
G04 #@! TO.C,RV1*
X149741761Y-46137380D02*
X149408428Y-45661190D01*
X149170333Y-46137380D02*
X149170333Y-45137380D01*
X149551285Y-45137380D01*
X149646523Y-45185000D01*
X149694142Y-45232619D01*
X149741761Y-45327857D01*
X149741761Y-45470714D01*
X149694142Y-45565952D01*
X149646523Y-45613571D01*
X149551285Y-45661190D01*
X149170333Y-45661190D01*
X150027476Y-45137380D02*
X150360809Y-46137380D01*
X150694142Y-45137380D01*
X151551285Y-46137380D02*
X150979857Y-46137380D01*
X151265571Y-46137380D02*
X151265571Y-45137380D01*
X151170333Y-45280238D01*
X151075095Y-45375476D01*
X150979857Y-45423095D01*
G04 #@! TO.C,RV2*
X93353761Y-60361380D02*
X93020428Y-59885190D01*
X92782333Y-60361380D02*
X92782333Y-59361380D01*
X93163285Y-59361380D01*
X93258523Y-59409000D01*
X93306142Y-59456619D01*
X93353761Y-59551857D01*
X93353761Y-59694714D01*
X93306142Y-59789952D01*
X93258523Y-59837571D01*
X93163285Y-59885190D01*
X92782333Y-59885190D01*
X93639476Y-59361380D02*
X93972809Y-60361380D01*
X94306142Y-59361380D01*
X94591857Y-59456619D02*
X94639476Y-59409000D01*
X94734714Y-59361380D01*
X94972809Y-59361380D01*
X95068047Y-59409000D01*
X95115666Y-59456619D01*
X95163285Y-59551857D01*
X95163285Y-59647095D01*
X95115666Y-59789952D01*
X94544238Y-60361380D01*
X95163285Y-60361380D01*
G04 #@! TO.C,RV3*
X126881761Y-106081380D02*
X126548428Y-105605190D01*
X126310333Y-106081380D02*
X126310333Y-105081380D01*
X126691285Y-105081380D01*
X126786523Y-105129000D01*
X126834142Y-105176619D01*
X126881761Y-105271857D01*
X126881761Y-105414714D01*
X126834142Y-105509952D01*
X126786523Y-105557571D01*
X126691285Y-105605190D01*
X126310333Y-105605190D01*
X127167476Y-105081380D02*
X127500809Y-106081380D01*
X127834142Y-105081380D01*
X128072238Y-105081380D02*
X128691285Y-105081380D01*
X128357952Y-105462333D01*
X128500809Y-105462333D01*
X128596047Y-105509952D01*
X128643666Y-105557571D01*
X128691285Y-105652809D01*
X128691285Y-105890904D01*
X128643666Y-105986142D01*
X128596047Y-106033761D01*
X128500809Y-106081380D01*
X128215095Y-106081380D01*
X128119857Y-106033761D01*
X128072238Y-105986142D01*
G04 #@! TO.C,RV4*
X120531761Y-118019380D02*
X120198428Y-117543190D01*
X119960333Y-118019380D02*
X119960333Y-117019380D01*
X120341285Y-117019380D01*
X120436523Y-117067000D01*
X120484142Y-117114619D01*
X120531761Y-117209857D01*
X120531761Y-117352714D01*
X120484142Y-117447952D01*
X120436523Y-117495571D01*
X120341285Y-117543190D01*
X119960333Y-117543190D01*
X120817476Y-117019380D02*
X121150809Y-118019380D01*
X121484142Y-117019380D01*
X122246047Y-117352714D02*
X122246047Y-118019380D01*
X122007952Y-116971761D02*
X121769857Y-117686047D01*
X122388904Y-117686047D01*
G04 #@! TO.C,SW1*
X129659761Y-113312333D02*
X129707380Y-113169476D01*
X129707380Y-112931380D01*
X129659761Y-112836142D01*
X129612142Y-112788523D01*
X129516904Y-112740904D01*
X129421666Y-112740904D01*
X129326428Y-112788523D01*
X129278809Y-112836142D01*
X129231190Y-112931380D01*
X129183571Y-113121857D01*
X129135952Y-113217095D01*
X129088333Y-113264714D01*
X128993095Y-113312333D01*
X128897857Y-113312333D01*
X128802619Y-113264714D01*
X128755000Y-113217095D01*
X128707380Y-113121857D01*
X128707380Y-112883761D01*
X128755000Y-112740904D01*
X128707380Y-112407571D02*
X129707380Y-112169476D01*
X128993095Y-111979000D01*
X129707380Y-111788523D01*
X128707380Y-111550428D01*
X129707380Y-110645666D02*
X129707380Y-111217095D01*
X129707380Y-110931380D02*
X128707380Y-110931380D01*
X128850238Y-111026619D01*
X128945476Y-111121857D01*
X128993095Y-111217095D01*
G04 #@! TO.C,SW2*
X131944761Y-141489333D02*
X131992380Y-141346476D01*
X131992380Y-141108380D01*
X131944761Y-141013142D01*
X131897142Y-140965523D01*
X131801904Y-140917904D01*
X131706666Y-140917904D01*
X131611428Y-140965523D01*
X131563809Y-141013142D01*
X131516190Y-141108380D01*
X131468571Y-141298857D01*
X131420952Y-141394095D01*
X131373333Y-141441714D01*
X131278095Y-141489333D01*
X131182857Y-141489333D01*
X131087619Y-141441714D01*
X131040000Y-141394095D01*
X130992380Y-141298857D01*
X130992380Y-141060761D01*
X131040000Y-140917904D01*
X130992380Y-140584571D02*
X131992380Y-140346476D01*
X131278095Y-140156000D01*
X131992380Y-139965523D01*
X130992380Y-139727428D01*
X131087619Y-139394095D02*
X131040000Y-139346476D01*
X130992380Y-139251238D01*
X130992380Y-139013142D01*
X131040000Y-138917904D01*
X131087619Y-138870285D01*
X131182857Y-138822666D01*
X131278095Y-138822666D01*
X131420952Y-138870285D01*
X131992380Y-139441714D01*
X131992380Y-138822666D01*
G04 #@! TO.C,TP2*
X146027095Y-79427380D02*
X146598523Y-79427380D01*
X146312809Y-80427380D02*
X146312809Y-79427380D01*
X146931857Y-80427380D02*
X146931857Y-79427380D01*
X147312809Y-79427380D01*
X147408047Y-79475000D01*
X147455666Y-79522619D01*
X147503285Y-79617857D01*
X147503285Y-79760714D01*
X147455666Y-79855952D01*
X147408047Y-79903571D01*
X147312809Y-79951190D01*
X146931857Y-79951190D01*
X147884238Y-79522619D02*
X147931857Y-79475000D01*
X148027095Y-79427380D01*
X148265190Y-79427380D01*
X148360428Y-79475000D01*
X148408047Y-79522619D01*
X148455666Y-79617857D01*
X148455666Y-79713095D01*
X148408047Y-79855952D01*
X147836619Y-80427380D01*
X148455666Y-80427380D01*
G04 #@! TO.C,U1*
X147249380Y-50002904D02*
X148058904Y-50002904D01*
X148154142Y-49955285D01*
X148201761Y-49907666D01*
X148249380Y-49812428D01*
X148249380Y-49621952D01*
X148201761Y-49526714D01*
X148154142Y-49479095D01*
X148058904Y-49431476D01*
X147249380Y-49431476D01*
X148249380Y-48431476D02*
X148249380Y-49002904D01*
X148249380Y-48717190D02*
X147249380Y-48717190D01*
X147392238Y-48812428D01*
X147487476Y-48907666D01*
X147535095Y-49002904D01*
G04 #@! TO.C,U2*
X92171095Y-97461380D02*
X92171095Y-98270904D01*
X92218714Y-98366142D01*
X92266333Y-98413761D01*
X92361571Y-98461380D01*
X92552047Y-98461380D01*
X92647285Y-98413761D01*
X92694904Y-98366142D01*
X92742523Y-98270904D01*
X92742523Y-97461380D01*
X93171095Y-97556619D02*
X93218714Y-97509000D01*
X93313952Y-97461380D01*
X93552047Y-97461380D01*
X93647285Y-97509000D01*
X93694904Y-97556619D01*
X93742523Y-97651857D01*
X93742523Y-97747095D01*
X93694904Y-97889952D01*
X93123476Y-98461380D01*
X93742523Y-98461380D01*
G04 #@! TO.C,U3*
X135859095Y-82475380D02*
X135859095Y-83284904D01*
X135906714Y-83380142D01*
X135954333Y-83427761D01*
X136049571Y-83475380D01*
X136240047Y-83475380D01*
X136335285Y-83427761D01*
X136382904Y-83380142D01*
X136430523Y-83284904D01*
X136430523Y-82475380D01*
X136811476Y-82475380D02*
X137430523Y-82475380D01*
X137097190Y-82856333D01*
X137240047Y-82856333D01*
X137335285Y-82903952D01*
X137382904Y-82951571D01*
X137430523Y-83046809D01*
X137430523Y-83284904D01*
X137382904Y-83380142D01*
X137335285Y-83427761D01*
X137240047Y-83475380D01*
X136954333Y-83475380D01*
X136859095Y-83427761D01*
X136811476Y-83380142D01*
G04 #@! TO.C,U4*
X124429095Y-84253380D02*
X124429095Y-85062904D01*
X124476714Y-85158142D01*
X124524333Y-85205761D01*
X124619571Y-85253380D01*
X124810047Y-85253380D01*
X124905285Y-85205761D01*
X124952904Y-85158142D01*
X125000523Y-85062904D01*
X125000523Y-84253380D01*
X125905285Y-84586714D02*
X125905285Y-85253380D01*
X125667190Y-84205761D02*
X125429095Y-84920047D01*
X126048142Y-84920047D01*
G04 #@! TO.C,U5*
X109697095Y-129719380D02*
X109697095Y-130528904D01*
X109744714Y-130624142D01*
X109792333Y-130671761D01*
X109887571Y-130719380D01*
X110078047Y-130719380D01*
X110173285Y-130671761D01*
X110220904Y-130624142D01*
X110268523Y-130528904D01*
X110268523Y-129719380D01*
X111220904Y-129719380D02*
X110744714Y-129719380D01*
X110697095Y-130195571D01*
X110744714Y-130147952D01*
X110839952Y-130100333D01*
X111078047Y-130100333D01*
X111173285Y-130147952D01*
X111220904Y-130195571D01*
X111268523Y-130290809D01*
X111268523Y-130528904D01*
X111220904Y-130624142D01*
X111173285Y-130671761D01*
X111078047Y-130719380D01*
X110839952Y-130719380D01*
X110744714Y-130671761D01*
X110697095Y-130624142D01*
G04 #@! TD*
M02*
