G04 #@! TF.GenerationSoftware,KiCad,Pcbnew,5.0.2+dfsg1-1*
G04 #@! TF.CreationDate,2019-12-18T15:50:12+01:00*
G04 #@! TF.ProjectId,gausskanone,67617573-736b-4616-9e6f-6e652e6b6963,rev?*
G04 #@! TF.SameCoordinates,Original*
G04 #@! TF.FileFunction,Copper,L2,Bot*
G04 #@! TF.FilePolarity,Positive*
%FSLAX46Y46*%
G04 Gerber Fmt 4.6, Leading zero omitted, Abs format (unit mm)*
G04 Created by KiCad (PCBNEW 5.0.2+dfsg1-1) date Mi 18 Dez 2019 15:50:12 CET*
%MOMM*%
%LPD*%
G01*
G04 APERTURE LIST*
G04 #@! TA.AperFunction,ComponentPad*
%ADD10O,1.700000X1.700000*%
G04 #@! TD*
G04 #@! TA.AperFunction,ComponentPad*
%ADD11R,1.700000X1.700000*%
G04 #@! TD*
G04 #@! TA.AperFunction,ComponentPad*
%ADD12O,1.600000X1.600000*%
G04 #@! TD*
G04 #@! TA.AperFunction,ComponentPad*
%ADD13R,1.600000X1.600000*%
G04 #@! TD*
G04 #@! TA.AperFunction,ComponentPad*
%ADD14C,2.000000*%
G04 #@! TD*
G04 #@! TA.AperFunction,ComponentPad*
%ADD15C,1.600000*%
G04 #@! TD*
G04 #@! TA.AperFunction,ComponentPad*
%ADD16C,2.500000*%
G04 #@! TD*
G04 #@! TA.AperFunction,ComponentPad*
%ADD17R,2.500000X2.500000*%
G04 #@! TD*
G04 #@! TA.AperFunction,ComponentPad*
%ADD18C,3.000000*%
G04 #@! TD*
G04 #@! TA.AperFunction,Conductor*
%ADD19C,0.100000*%
G04 #@! TD*
G04 #@! TA.AperFunction,ComponentPad*
%ADD20C,1.260000*%
G04 #@! TD*
G04 #@! TA.AperFunction,ComponentPad*
%ADD21O,2.000000X1.200000*%
G04 #@! TD*
G04 #@! TA.AperFunction,ViaPad*
%ADD22C,0.800000*%
G04 #@! TD*
G04 #@! TA.AperFunction,Conductor*
%ADD23C,0.250000*%
G04 #@! TD*
G04 #@! TA.AperFunction,Conductor*
%ADD24C,0.500000*%
G04 #@! TD*
G04 #@! TA.AperFunction,Conductor*
%ADD25C,0.254000*%
G04 #@! TD*
G04 APERTURE END LIST*
D10*
G04 #@! TO.P,JP1,2*
G04 #@! TO.N,/ISO60V*
X91694000Y-65786000D03*
D11*
G04 #@! TO.P,JP1,1*
G04 #@! TO.N,Net-(D3-Pad1)*
X91694000Y-68326000D03*
G04 #@! TD*
D12*
G04 #@! TO.P,A1,16*
G04 #@! TO.N,Net-(A1-Pad16)*
X134760000Y-105440000D03*
G04 #@! TO.P,A1,15*
G04 #@! TO.N,Net-(A1-Pad15)*
X150000000Y-105440000D03*
G04 #@! TO.P,A1,30*
G04 #@! TO.N,+12V*
X134760000Y-141000000D03*
G04 #@! TO.P,A1,14*
G04 #@! TO.N,Net-(A1-Pad14)*
X150000000Y-107980000D03*
G04 #@! TO.P,A1,29*
G04 #@! TO.N,GND*
X134760000Y-138460000D03*
G04 #@! TO.P,A1,13*
G04 #@! TO.N,Net-(A1-Pad13)*
X150000000Y-110520000D03*
G04 #@! TO.P,A1,28*
G04 #@! TO.N,Net-(A1-Pad28)*
X134760000Y-135920000D03*
G04 #@! TO.P,A1,12*
G04 #@! TO.N,Net-(A1-Pad12)*
X150000000Y-113060000D03*
G04 #@! TO.P,A1,27*
G04 #@! TO.N,+5V*
X134760000Y-133380000D03*
G04 #@! TO.P,A1,11*
G04 #@! TO.N,/DCDC_EN*
X150000000Y-115600000D03*
G04 #@! TO.P,A1,26*
G04 #@! TO.N,Net-(A1-Pad26)*
X134760000Y-130840000D03*
G04 #@! TO.P,A1,10*
G04 #@! TO.N,/IGNITION*
X150000000Y-118140000D03*
G04 #@! TO.P,A1,25*
G04 #@! TO.N,Net-(A1-Pad25)*
X134760000Y-128300000D03*
G04 #@! TO.P,A1,9*
G04 #@! TO.N,Net-(A1-Pad9)*
X150000000Y-120680000D03*
G04 #@! TO.P,A1,24*
G04 #@! TO.N,Net-(A1-Pad24)*
X134760000Y-125760000D03*
G04 #@! TO.P,A1,8*
G04 #@! TO.N,Net-(A1-Pad8)*
X150000000Y-123220000D03*
G04 #@! TO.P,A1,23*
G04 #@! TO.N,Net-(A1-Pad23)*
X134760000Y-123220000D03*
G04 #@! TO.P,A1,7*
G04 #@! TO.N,/READY*
X150000000Y-125760000D03*
G04 #@! TO.P,A1,22*
G04 #@! TO.N,Net-(A1-Pad22)*
X134760000Y-120680000D03*
G04 #@! TO.P,A1,6*
G04 #@! TO.N,Net-(A1-Pad6)*
X150000000Y-128300000D03*
G04 #@! TO.P,A1,21*
G04 #@! TO.N,Net-(A1-Pad21)*
X134760000Y-118140000D03*
G04 #@! TO.P,A1,5*
G04 #@! TO.N,Net-(A1-Pad5)*
X150000000Y-130840000D03*
G04 #@! TO.P,A1,20*
G04 #@! TO.N,Net-(A1-Pad20)*
X134760000Y-115600000D03*
G04 #@! TO.P,A1,4*
G04 #@! TO.N,GND*
X150000000Y-133380000D03*
G04 #@! TO.P,A1,19*
G04 #@! TO.N,/UMeas*
X134760000Y-113060000D03*
G04 #@! TO.P,A1,3*
G04 #@! TO.N,Net-(A1-Pad3)*
X150000000Y-135920000D03*
G04 #@! TO.P,A1,18*
G04 #@! TO.N,Net-(A1-Pad18)*
X134760000Y-110520000D03*
G04 #@! TO.P,A1,2*
G04 #@! TO.N,Net-(A1-Pad2)*
X150000000Y-138460000D03*
G04 #@! TO.P,A1,17*
G04 #@! TO.N,Net-(A1-Pad17)*
X134760000Y-107980000D03*
D13*
G04 #@! TO.P,A1,1*
G04 #@! TO.N,Net-(A1-Pad1)*
X150000000Y-141000000D03*
G04 #@! TD*
D14*
G04 #@! TO.P,C2,2*
G04 #@! TO.N,/ISOGND*
X129500000Y-65000000D03*
G04 #@! TO.P,C2,NC*
G04 #@! TO.N,N/C*
X119500000Y-62500000D03*
X119500000Y-45000000D03*
X129500000Y-55000000D03*
G04 #@! TO.P,C2,1*
G04 #@! TO.N,/ISO60V*
X109500000Y-55000000D03*
G04 #@! TD*
D15*
G04 #@! TO.P,C6,2*
G04 #@! TO.N,/ISOGND*
X90170000Y-73446000D03*
D13*
G04 #@! TO.P,C6,1*
G04 #@! TO.N,/ISO+12V*
X90170000Y-75946000D03*
G04 #@! TD*
D15*
G04 #@! TO.P,C8,2*
G04 #@! TO.N,GND*
X90500000Y-126000000D03*
D13*
G04 #@! TO.P,C8,1*
G04 #@! TO.N,+12V*
X93000000Y-126000000D03*
G04 #@! TD*
D16*
G04 #@! TO.P,J1,4*
G04 #@! TO.N,Net-(D4-Pad2)*
X90424000Y-139700000D03*
G04 #@! TO.P,J1,3*
X95504000Y-139700000D03*
G04 #@! TO.P,J1,2*
G04 #@! TO.N,GND*
X100584000Y-139700000D03*
D17*
G04 #@! TO.P,J1,1*
X105664000Y-139700000D03*
G04 #@! TD*
D10*
G04 #@! TO.P,J2,4*
G04 #@! TO.N,GND*
X112268000Y-143000000D03*
G04 #@! TO.P,J2,3*
G04 #@! TO.N,Net-(A1-Pad6)*
X114808000Y-143000000D03*
G04 #@! TO.P,J2,2*
G04 #@! TO.N,Net-(A1-Pad5)*
X117348000Y-143000000D03*
D11*
G04 #@! TO.P,J2,1*
G04 #@! TO.N,+5V*
X119888000Y-143000000D03*
G04 #@! TD*
D10*
G04 #@! TO.P,J3,2*
G04 #@! TO.N,/READY*
X149309210Y-96442874D03*
D11*
G04 #@! TO.P,J3,1*
G04 #@! TO.N,GND*
X149309210Y-93902874D03*
G04 #@! TD*
D10*
G04 #@! TO.P,J4,2*
G04 #@! TO.N,/READY*
X145245210Y-96506874D03*
D11*
G04 #@! TO.P,J4,1*
G04 #@! TO.N,GND*
X145245210Y-93966874D03*
G04 #@! TD*
D18*
G04 #@! TO.P,L1,2*
G04 #@! TO.N,Net-(D2-Pad2)*
X139048000Y-79406000D03*
G04 #@! TO.P,L1,1*
G04 #@! TO.N,/ISO60V*
X99048000Y-59406000D03*
G04 #@! TD*
D19*
G04 #@! TO.N,N/C*
G04 #@! TO.C,L2*
G36*
X109399009Y-75377408D02*
X109447545Y-75384607D01*
X109495142Y-75396530D01*
X109541342Y-75413060D01*
X109585698Y-75434039D01*
X109627785Y-75459265D01*
X109667197Y-75488495D01*
X109703553Y-75521447D01*
X109736505Y-75557803D01*
X109765735Y-75597215D01*
X109790961Y-75639302D01*
X109811940Y-75683658D01*
X109828470Y-75729858D01*
X109840393Y-75777455D01*
X109847592Y-75825991D01*
X109850000Y-75875000D01*
X109850000Y-77625000D01*
X109847592Y-77674009D01*
X109840393Y-77722545D01*
X109828470Y-77770142D01*
X109811940Y-77816342D01*
X109790961Y-77860698D01*
X109765735Y-77902785D01*
X109736505Y-77942197D01*
X109703553Y-77978553D01*
X109667197Y-78011505D01*
X109627785Y-78040735D01*
X109585698Y-78065961D01*
X109541342Y-78086940D01*
X109495142Y-78103470D01*
X109447545Y-78115393D01*
X109399009Y-78122592D01*
X109350000Y-78125000D01*
X108350000Y-78125000D01*
X108300991Y-78122592D01*
X108252455Y-78115393D01*
X108204858Y-78103470D01*
X108158658Y-78086940D01*
X108114302Y-78065961D01*
X108072215Y-78040735D01*
X108032803Y-78011505D01*
X107996447Y-77978553D01*
X107963495Y-77942197D01*
X107934265Y-77902785D01*
X107909039Y-77860698D01*
X107888060Y-77816342D01*
X107871530Y-77770142D01*
X107859607Y-77722545D01*
X107852408Y-77674009D01*
X107850000Y-77625000D01*
X107850000Y-75875000D01*
X107852408Y-75825991D01*
X107859607Y-75777455D01*
X107871530Y-75729858D01*
X107888060Y-75683658D01*
X107909039Y-75639302D01*
X107934265Y-75597215D01*
X107963495Y-75557803D01*
X107996447Y-75521447D01*
X108032803Y-75488495D01*
X108072215Y-75459265D01*
X108114302Y-75434039D01*
X108158658Y-75413060D01*
X108204858Y-75396530D01*
X108252455Y-75384607D01*
X108300991Y-75377408D01*
X108350000Y-75375000D01*
X109350000Y-75375000D01*
X109399009Y-75377408D01*
X109399009Y-75377408D01*
G37*
D14*
G04 #@! TD*
G04 #@! TO.P,L2,9*
G04 #@! TO.N,N/C*
X108850000Y-76750000D03*
D19*
G04 #@! TO.N,N/C*
G04 #@! TO.C,L2*
G36*
X113099009Y-75377408D02*
X113147545Y-75384607D01*
X113195142Y-75396530D01*
X113241342Y-75413060D01*
X113285698Y-75434039D01*
X113327785Y-75459265D01*
X113367197Y-75488495D01*
X113403553Y-75521447D01*
X113436505Y-75557803D01*
X113465735Y-75597215D01*
X113490961Y-75639302D01*
X113511940Y-75683658D01*
X113528470Y-75729858D01*
X113540393Y-75777455D01*
X113547592Y-75825991D01*
X113550000Y-75875000D01*
X113550000Y-77625000D01*
X113547592Y-77674009D01*
X113540393Y-77722545D01*
X113528470Y-77770142D01*
X113511940Y-77816342D01*
X113490961Y-77860698D01*
X113465735Y-77902785D01*
X113436505Y-77942197D01*
X113403553Y-77978553D01*
X113367197Y-78011505D01*
X113327785Y-78040735D01*
X113285698Y-78065961D01*
X113241342Y-78086940D01*
X113195142Y-78103470D01*
X113147545Y-78115393D01*
X113099009Y-78122592D01*
X113050000Y-78125000D01*
X112050000Y-78125000D01*
X112000991Y-78122592D01*
X111952455Y-78115393D01*
X111904858Y-78103470D01*
X111858658Y-78086940D01*
X111814302Y-78065961D01*
X111772215Y-78040735D01*
X111732803Y-78011505D01*
X111696447Y-77978553D01*
X111663495Y-77942197D01*
X111634265Y-77902785D01*
X111609039Y-77860698D01*
X111588060Y-77816342D01*
X111571530Y-77770142D01*
X111559607Y-77722545D01*
X111552408Y-77674009D01*
X111550000Y-77625000D01*
X111550000Y-75875000D01*
X111552408Y-75825991D01*
X111559607Y-75777455D01*
X111571530Y-75729858D01*
X111588060Y-75683658D01*
X111609039Y-75639302D01*
X111634265Y-75597215D01*
X111663495Y-75557803D01*
X111696447Y-75521447D01*
X111732803Y-75488495D01*
X111772215Y-75459265D01*
X111814302Y-75434039D01*
X111858658Y-75413060D01*
X111904858Y-75396530D01*
X111952455Y-75384607D01*
X112000991Y-75377408D01*
X112050000Y-75375000D01*
X113050000Y-75375000D01*
X113099009Y-75377408D01*
X113099009Y-75377408D01*
G37*
D14*
G04 #@! TD*
G04 #@! TO.P,L2,8*
G04 #@! TO.N,N/C*
X112550000Y-76750000D03*
D19*
G04 #@! TO.N,Net-(D3-Pad2)*
G04 #@! TO.C,L2*
G36*
X116899009Y-75377408D02*
X116947545Y-75384607D01*
X116995142Y-75396530D01*
X117041342Y-75413060D01*
X117085698Y-75434039D01*
X117127785Y-75459265D01*
X117167197Y-75488495D01*
X117203553Y-75521447D01*
X117236505Y-75557803D01*
X117265735Y-75597215D01*
X117290961Y-75639302D01*
X117311940Y-75683658D01*
X117328470Y-75729858D01*
X117340393Y-75777455D01*
X117347592Y-75825991D01*
X117350000Y-75875000D01*
X117350000Y-77625000D01*
X117347592Y-77674009D01*
X117340393Y-77722545D01*
X117328470Y-77770142D01*
X117311940Y-77816342D01*
X117290961Y-77860698D01*
X117265735Y-77902785D01*
X117236505Y-77942197D01*
X117203553Y-77978553D01*
X117167197Y-78011505D01*
X117127785Y-78040735D01*
X117085698Y-78065961D01*
X117041342Y-78086940D01*
X116995142Y-78103470D01*
X116947545Y-78115393D01*
X116899009Y-78122592D01*
X116850000Y-78125000D01*
X115850000Y-78125000D01*
X115800991Y-78122592D01*
X115752455Y-78115393D01*
X115704858Y-78103470D01*
X115658658Y-78086940D01*
X115614302Y-78065961D01*
X115572215Y-78040735D01*
X115532803Y-78011505D01*
X115496447Y-77978553D01*
X115463495Y-77942197D01*
X115434265Y-77902785D01*
X115409039Y-77860698D01*
X115388060Y-77816342D01*
X115371530Y-77770142D01*
X115359607Y-77722545D01*
X115352408Y-77674009D01*
X115350000Y-77625000D01*
X115350000Y-75875000D01*
X115352408Y-75825991D01*
X115359607Y-75777455D01*
X115371530Y-75729858D01*
X115388060Y-75683658D01*
X115409039Y-75639302D01*
X115434265Y-75597215D01*
X115463495Y-75557803D01*
X115496447Y-75521447D01*
X115532803Y-75488495D01*
X115572215Y-75459265D01*
X115614302Y-75434039D01*
X115658658Y-75413060D01*
X115704858Y-75396530D01*
X115752455Y-75384607D01*
X115800991Y-75377408D01*
X115850000Y-75375000D01*
X116850000Y-75375000D01*
X116899009Y-75377408D01*
X116899009Y-75377408D01*
G37*
D14*
G04 #@! TD*
G04 #@! TO.P,L2,7*
G04 #@! TO.N,Net-(D3-Pad2)*
X116350000Y-76750000D03*
D19*
G04 #@! TO.N,N/C*
G04 #@! TO.C,L2*
G36*
X101899009Y-75377408D02*
X101947545Y-75384607D01*
X101995142Y-75396530D01*
X102041342Y-75413060D01*
X102085698Y-75434039D01*
X102127785Y-75459265D01*
X102167197Y-75488495D01*
X102203553Y-75521447D01*
X102236505Y-75557803D01*
X102265735Y-75597215D01*
X102290961Y-75639302D01*
X102311940Y-75683658D01*
X102328470Y-75729858D01*
X102340393Y-75777455D01*
X102347592Y-75825991D01*
X102350000Y-75875000D01*
X102350000Y-77625000D01*
X102347592Y-77674009D01*
X102340393Y-77722545D01*
X102328470Y-77770142D01*
X102311940Y-77816342D01*
X102290961Y-77860698D01*
X102265735Y-77902785D01*
X102236505Y-77942197D01*
X102203553Y-77978553D01*
X102167197Y-78011505D01*
X102127785Y-78040735D01*
X102085698Y-78065961D01*
X102041342Y-78086940D01*
X101995142Y-78103470D01*
X101947545Y-78115393D01*
X101899009Y-78122592D01*
X101850000Y-78125000D01*
X100850000Y-78125000D01*
X100800991Y-78122592D01*
X100752455Y-78115393D01*
X100704858Y-78103470D01*
X100658658Y-78086940D01*
X100614302Y-78065961D01*
X100572215Y-78040735D01*
X100532803Y-78011505D01*
X100496447Y-77978553D01*
X100463495Y-77942197D01*
X100434265Y-77902785D01*
X100409039Y-77860698D01*
X100388060Y-77816342D01*
X100371530Y-77770142D01*
X100359607Y-77722545D01*
X100352408Y-77674009D01*
X100350000Y-77625000D01*
X100350000Y-75875000D01*
X100352408Y-75825991D01*
X100359607Y-75777455D01*
X100371530Y-75729858D01*
X100388060Y-75683658D01*
X100409039Y-75639302D01*
X100434265Y-75597215D01*
X100463495Y-75557803D01*
X100496447Y-75521447D01*
X100532803Y-75488495D01*
X100572215Y-75459265D01*
X100614302Y-75434039D01*
X100658658Y-75413060D01*
X100704858Y-75396530D01*
X100752455Y-75384607D01*
X100800991Y-75377408D01*
X100850000Y-75375000D01*
X101850000Y-75375000D01*
X101899009Y-75377408D01*
X101899009Y-75377408D01*
G37*
D14*
G04 #@! TD*
G04 #@! TO.P,L2,11*
G04 #@! TO.N,N/C*
X101350000Y-76750000D03*
D19*
G04 #@! TO.N,N/C*
G04 #@! TO.C,L2*
G36*
X105599009Y-75377408D02*
X105647545Y-75384607D01*
X105695142Y-75396530D01*
X105741342Y-75413060D01*
X105785698Y-75434039D01*
X105827785Y-75459265D01*
X105867197Y-75488495D01*
X105903553Y-75521447D01*
X105936505Y-75557803D01*
X105965735Y-75597215D01*
X105990961Y-75639302D01*
X106011940Y-75683658D01*
X106028470Y-75729858D01*
X106040393Y-75777455D01*
X106047592Y-75825991D01*
X106050000Y-75875000D01*
X106050000Y-77625000D01*
X106047592Y-77674009D01*
X106040393Y-77722545D01*
X106028470Y-77770142D01*
X106011940Y-77816342D01*
X105990961Y-77860698D01*
X105965735Y-77902785D01*
X105936505Y-77942197D01*
X105903553Y-77978553D01*
X105867197Y-78011505D01*
X105827785Y-78040735D01*
X105785698Y-78065961D01*
X105741342Y-78086940D01*
X105695142Y-78103470D01*
X105647545Y-78115393D01*
X105599009Y-78122592D01*
X105550000Y-78125000D01*
X104550000Y-78125000D01*
X104500991Y-78122592D01*
X104452455Y-78115393D01*
X104404858Y-78103470D01*
X104358658Y-78086940D01*
X104314302Y-78065961D01*
X104272215Y-78040735D01*
X104232803Y-78011505D01*
X104196447Y-77978553D01*
X104163495Y-77942197D01*
X104134265Y-77902785D01*
X104109039Y-77860698D01*
X104088060Y-77816342D01*
X104071530Y-77770142D01*
X104059607Y-77722545D01*
X104052408Y-77674009D01*
X104050000Y-77625000D01*
X104050000Y-75875000D01*
X104052408Y-75825991D01*
X104059607Y-75777455D01*
X104071530Y-75729858D01*
X104088060Y-75683658D01*
X104109039Y-75639302D01*
X104134265Y-75597215D01*
X104163495Y-75557803D01*
X104196447Y-75521447D01*
X104232803Y-75488495D01*
X104272215Y-75459265D01*
X104314302Y-75434039D01*
X104358658Y-75413060D01*
X104404858Y-75396530D01*
X104452455Y-75384607D01*
X104500991Y-75377408D01*
X104550000Y-75375000D01*
X105550000Y-75375000D01*
X105599009Y-75377408D01*
X105599009Y-75377408D01*
G37*
D14*
G04 #@! TD*
G04 #@! TO.P,L2,10*
G04 #@! TO.N,N/C*
X105050000Y-76750000D03*
D19*
G04 #@! TO.N,/ISOGND*
G04 #@! TO.C,L2*
G36*
X98101009Y-75477408D02*
X98149545Y-75484607D01*
X98197142Y-75496530D01*
X98243342Y-75513060D01*
X98287698Y-75534039D01*
X98329785Y-75559265D01*
X98369197Y-75588495D01*
X98405553Y-75621447D01*
X98438505Y-75657803D01*
X98467735Y-75697215D01*
X98492961Y-75739302D01*
X98513940Y-75783658D01*
X98530470Y-75829858D01*
X98542393Y-75877455D01*
X98549592Y-75925991D01*
X98552000Y-75975000D01*
X98552000Y-77725000D01*
X98549592Y-77774009D01*
X98542393Y-77822545D01*
X98530470Y-77870142D01*
X98513940Y-77916342D01*
X98492961Y-77960698D01*
X98467735Y-78002785D01*
X98438505Y-78042197D01*
X98405553Y-78078553D01*
X98369197Y-78111505D01*
X98329785Y-78140735D01*
X98287698Y-78165961D01*
X98243342Y-78186940D01*
X98197142Y-78203470D01*
X98149545Y-78215393D01*
X98101009Y-78222592D01*
X98052000Y-78225000D01*
X97052000Y-78225000D01*
X97002991Y-78222592D01*
X96954455Y-78215393D01*
X96906858Y-78203470D01*
X96860658Y-78186940D01*
X96816302Y-78165961D01*
X96774215Y-78140735D01*
X96734803Y-78111505D01*
X96698447Y-78078553D01*
X96665495Y-78042197D01*
X96636265Y-78002785D01*
X96611039Y-77960698D01*
X96590060Y-77916342D01*
X96573530Y-77870142D01*
X96561607Y-77822545D01*
X96554408Y-77774009D01*
X96552000Y-77725000D01*
X96552000Y-75975000D01*
X96554408Y-75925991D01*
X96561607Y-75877455D01*
X96573530Y-75829858D01*
X96590060Y-75783658D01*
X96611039Y-75739302D01*
X96636265Y-75697215D01*
X96665495Y-75657803D01*
X96698447Y-75621447D01*
X96734803Y-75588495D01*
X96774215Y-75559265D01*
X96816302Y-75534039D01*
X96860658Y-75513060D01*
X96906858Y-75496530D01*
X96954455Y-75484607D01*
X97002991Y-75477408D01*
X97052000Y-75475000D01*
X98052000Y-75475000D01*
X98101009Y-75477408D01*
X98101009Y-75477408D01*
G37*
D14*
G04 #@! TD*
G04 #@! TO.P,L2,12*
G04 #@! TO.N,/ISOGND*
X97552000Y-76850000D03*
D19*
G04 #@! TO.N,+12V*
G04 #@! TO.C,L2*
G36*
X98149009Y-101927408D02*
X98197545Y-101934607D01*
X98245142Y-101946530D01*
X98291342Y-101963060D01*
X98335698Y-101984039D01*
X98377785Y-102009265D01*
X98417197Y-102038495D01*
X98453553Y-102071447D01*
X98486505Y-102107803D01*
X98515735Y-102147215D01*
X98540961Y-102189302D01*
X98561940Y-102233658D01*
X98578470Y-102279858D01*
X98590393Y-102327455D01*
X98597592Y-102375991D01*
X98600000Y-102425000D01*
X98600000Y-104175000D01*
X98597592Y-104224009D01*
X98590393Y-104272545D01*
X98578470Y-104320142D01*
X98561940Y-104366342D01*
X98540961Y-104410698D01*
X98515735Y-104452785D01*
X98486505Y-104492197D01*
X98453553Y-104528553D01*
X98417197Y-104561505D01*
X98377785Y-104590735D01*
X98335698Y-104615961D01*
X98291342Y-104636940D01*
X98245142Y-104653470D01*
X98197545Y-104665393D01*
X98149009Y-104672592D01*
X98100000Y-104675000D01*
X97100000Y-104675000D01*
X97050991Y-104672592D01*
X97002455Y-104665393D01*
X96954858Y-104653470D01*
X96908658Y-104636940D01*
X96864302Y-104615961D01*
X96822215Y-104590735D01*
X96782803Y-104561505D01*
X96746447Y-104528553D01*
X96713495Y-104492197D01*
X96684265Y-104452785D01*
X96659039Y-104410698D01*
X96638060Y-104366342D01*
X96621530Y-104320142D01*
X96609607Y-104272545D01*
X96602408Y-104224009D01*
X96600000Y-104175000D01*
X96600000Y-102425000D01*
X96602408Y-102375991D01*
X96609607Y-102327455D01*
X96621530Y-102279858D01*
X96638060Y-102233658D01*
X96659039Y-102189302D01*
X96684265Y-102147215D01*
X96713495Y-102107803D01*
X96746447Y-102071447D01*
X96782803Y-102038495D01*
X96822215Y-102009265D01*
X96864302Y-101984039D01*
X96908658Y-101963060D01*
X96954858Y-101946530D01*
X97002455Y-101934607D01*
X97050991Y-101927408D01*
X97100000Y-101925000D01*
X98100000Y-101925000D01*
X98149009Y-101927408D01*
X98149009Y-101927408D01*
G37*
D14*
G04 #@! TD*
G04 #@! TO.P,L2,1*
G04 #@! TO.N,+12V*
X97600000Y-103300000D03*
D19*
G04 #@! TO.N,+12V*
G04 #@! TO.C,L2*
G36*
X101949009Y-101927408D02*
X101997545Y-101934607D01*
X102045142Y-101946530D01*
X102091342Y-101963060D01*
X102135698Y-101984039D01*
X102177785Y-102009265D01*
X102217197Y-102038495D01*
X102253553Y-102071447D01*
X102286505Y-102107803D01*
X102315735Y-102147215D01*
X102340961Y-102189302D01*
X102361940Y-102233658D01*
X102378470Y-102279858D01*
X102390393Y-102327455D01*
X102397592Y-102375991D01*
X102400000Y-102425000D01*
X102400000Y-104175000D01*
X102397592Y-104224009D01*
X102390393Y-104272545D01*
X102378470Y-104320142D01*
X102361940Y-104366342D01*
X102340961Y-104410698D01*
X102315735Y-104452785D01*
X102286505Y-104492197D01*
X102253553Y-104528553D01*
X102217197Y-104561505D01*
X102177785Y-104590735D01*
X102135698Y-104615961D01*
X102091342Y-104636940D01*
X102045142Y-104653470D01*
X101997545Y-104665393D01*
X101949009Y-104672592D01*
X101900000Y-104675000D01*
X100900000Y-104675000D01*
X100850991Y-104672592D01*
X100802455Y-104665393D01*
X100754858Y-104653470D01*
X100708658Y-104636940D01*
X100664302Y-104615961D01*
X100622215Y-104590735D01*
X100582803Y-104561505D01*
X100546447Y-104528553D01*
X100513495Y-104492197D01*
X100484265Y-104452785D01*
X100459039Y-104410698D01*
X100438060Y-104366342D01*
X100421530Y-104320142D01*
X100409607Y-104272545D01*
X100402408Y-104224009D01*
X100400000Y-104175000D01*
X100400000Y-102425000D01*
X100402408Y-102375991D01*
X100409607Y-102327455D01*
X100421530Y-102279858D01*
X100438060Y-102233658D01*
X100459039Y-102189302D01*
X100484265Y-102147215D01*
X100513495Y-102107803D01*
X100546447Y-102071447D01*
X100582803Y-102038495D01*
X100622215Y-102009265D01*
X100664302Y-101984039D01*
X100708658Y-101963060D01*
X100754858Y-101946530D01*
X100802455Y-101934607D01*
X100850991Y-101927408D01*
X100900000Y-101925000D01*
X101900000Y-101925000D01*
X101949009Y-101927408D01*
X101949009Y-101927408D01*
G37*
D14*
G04 #@! TD*
G04 #@! TO.P,L2,2*
G04 #@! TO.N,+12V*
X101400000Y-103300000D03*
D19*
G04 #@! TO.N,Net-(L2-Pad3)*
G04 #@! TO.C,L2*
G36*
X105649009Y-101927408D02*
X105697545Y-101934607D01*
X105745142Y-101946530D01*
X105791342Y-101963060D01*
X105835698Y-101984039D01*
X105877785Y-102009265D01*
X105917197Y-102038495D01*
X105953553Y-102071447D01*
X105986505Y-102107803D01*
X106015735Y-102147215D01*
X106040961Y-102189302D01*
X106061940Y-102233658D01*
X106078470Y-102279858D01*
X106090393Y-102327455D01*
X106097592Y-102375991D01*
X106100000Y-102425000D01*
X106100000Y-104175000D01*
X106097592Y-104224009D01*
X106090393Y-104272545D01*
X106078470Y-104320142D01*
X106061940Y-104366342D01*
X106040961Y-104410698D01*
X106015735Y-104452785D01*
X105986505Y-104492197D01*
X105953553Y-104528553D01*
X105917197Y-104561505D01*
X105877785Y-104590735D01*
X105835698Y-104615961D01*
X105791342Y-104636940D01*
X105745142Y-104653470D01*
X105697545Y-104665393D01*
X105649009Y-104672592D01*
X105600000Y-104675000D01*
X104600000Y-104675000D01*
X104550991Y-104672592D01*
X104502455Y-104665393D01*
X104454858Y-104653470D01*
X104408658Y-104636940D01*
X104364302Y-104615961D01*
X104322215Y-104590735D01*
X104282803Y-104561505D01*
X104246447Y-104528553D01*
X104213495Y-104492197D01*
X104184265Y-104452785D01*
X104159039Y-104410698D01*
X104138060Y-104366342D01*
X104121530Y-104320142D01*
X104109607Y-104272545D01*
X104102408Y-104224009D01*
X104100000Y-104175000D01*
X104100000Y-102425000D01*
X104102408Y-102375991D01*
X104109607Y-102327455D01*
X104121530Y-102279858D01*
X104138060Y-102233658D01*
X104159039Y-102189302D01*
X104184265Y-102147215D01*
X104213495Y-102107803D01*
X104246447Y-102071447D01*
X104282803Y-102038495D01*
X104322215Y-102009265D01*
X104364302Y-101984039D01*
X104408658Y-101963060D01*
X104454858Y-101946530D01*
X104502455Y-101934607D01*
X104550991Y-101927408D01*
X104600000Y-101925000D01*
X105600000Y-101925000D01*
X105649009Y-101927408D01*
X105649009Y-101927408D01*
G37*
D14*
G04 #@! TD*
G04 #@! TO.P,L2,3*
G04 #@! TO.N,Net-(L2-Pad3)*
X105100000Y-103300000D03*
D19*
G04 #@! TO.N,Net-(L2-Pad3)*
G04 #@! TO.C,L2*
G36*
X109449009Y-101927408D02*
X109497545Y-101934607D01*
X109545142Y-101946530D01*
X109591342Y-101963060D01*
X109635698Y-101984039D01*
X109677785Y-102009265D01*
X109717197Y-102038495D01*
X109753553Y-102071447D01*
X109786505Y-102107803D01*
X109815735Y-102147215D01*
X109840961Y-102189302D01*
X109861940Y-102233658D01*
X109878470Y-102279858D01*
X109890393Y-102327455D01*
X109897592Y-102375991D01*
X109900000Y-102425000D01*
X109900000Y-104175000D01*
X109897592Y-104224009D01*
X109890393Y-104272545D01*
X109878470Y-104320142D01*
X109861940Y-104366342D01*
X109840961Y-104410698D01*
X109815735Y-104452785D01*
X109786505Y-104492197D01*
X109753553Y-104528553D01*
X109717197Y-104561505D01*
X109677785Y-104590735D01*
X109635698Y-104615961D01*
X109591342Y-104636940D01*
X109545142Y-104653470D01*
X109497545Y-104665393D01*
X109449009Y-104672592D01*
X109400000Y-104675000D01*
X108400000Y-104675000D01*
X108350991Y-104672592D01*
X108302455Y-104665393D01*
X108254858Y-104653470D01*
X108208658Y-104636940D01*
X108164302Y-104615961D01*
X108122215Y-104590735D01*
X108082803Y-104561505D01*
X108046447Y-104528553D01*
X108013495Y-104492197D01*
X107984265Y-104452785D01*
X107959039Y-104410698D01*
X107938060Y-104366342D01*
X107921530Y-104320142D01*
X107909607Y-104272545D01*
X107902408Y-104224009D01*
X107900000Y-104175000D01*
X107900000Y-102425000D01*
X107902408Y-102375991D01*
X107909607Y-102327455D01*
X107921530Y-102279858D01*
X107938060Y-102233658D01*
X107959039Y-102189302D01*
X107984265Y-102147215D01*
X108013495Y-102107803D01*
X108046447Y-102071447D01*
X108082803Y-102038495D01*
X108122215Y-102009265D01*
X108164302Y-101984039D01*
X108208658Y-101963060D01*
X108254858Y-101946530D01*
X108302455Y-101934607D01*
X108350991Y-101927408D01*
X108400000Y-101925000D01*
X109400000Y-101925000D01*
X109449009Y-101927408D01*
X109449009Y-101927408D01*
G37*
D14*
G04 #@! TD*
G04 #@! TO.P,L2,4*
G04 #@! TO.N,Net-(L2-Pad3)*
X108900000Y-103300000D03*
D19*
G04 #@! TO.N,Net-(D7-Pad2)*
G04 #@! TO.C,L2*
G36*
X113149009Y-101927408D02*
X113197545Y-101934607D01*
X113245142Y-101946530D01*
X113291342Y-101963060D01*
X113335698Y-101984039D01*
X113377785Y-102009265D01*
X113417197Y-102038495D01*
X113453553Y-102071447D01*
X113486505Y-102107803D01*
X113515735Y-102147215D01*
X113540961Y-102189302D01*
X113561940Y-102233658D01*
X113578470Y-102279858D01*
X113590393Y-102327455D01*
X113597592Y-102375991D01*
X113600000Y-102425000D01*
X113600000Y-104175000D01*
X113597592Y-104224009D01*
X113590393Y-104272545D01*
X113578470Y-104320142D01*
X113561940Y-104366342D01*
X113540961Y-104410698D01*
X113515735Y-104452785D01*
X113486505Y-104492197D01*
X113453553Y-104528553D01*
X113417197Y-104561505D01*
X113377785Y-104590735D01*
X113335698Y-104615961D01*
X113291342Y-104636940D01*
X113245142Y-104653470D01*
X113197545Y-104665393D01*
X113149009Y-104672592D01*
X113100000Y-104675000D01*
X112100000Y-104675000D01*
X112050991Y-104672592D01*
X112002455Y-104665393D01*
X111954858Y-104653470D01*
X111908658Y-104636940D01*
X111864302Y-104615961D01*
X111822215Y-104590735D01*
X111782803Y-104561505D01*
X111746447Y-104528553D01*
X111713495Y-104492197D01*
X111684265Y-104452785D01*
X111659039Y-104410698D01*
X111638060Y-104366342D01*
X111621530Y-104320142D01*
X111609607Y-104272545D01*
X111602408Y-104224009D01*
X111600000Y-104175000D01*
X111600000Y-102425000D01*
X111602408Y-102375991D01*
X111609607Y-102327455D01*
X111621530Y-102279858D01*
X111638060Y-102233658D01*
X111659039Y-102189302D01*
X111684265Y-102147215D01*
X111713495Y-102107803D01*
X111746447Y-102071447D01*
X111782803Y-102038495D01*
X111822215Y-102009265D01*
X111864302Y-101984039D01*
X111908658Y-101963060D01*
X111954858Y-101946530D01*
X112002455Y-101934607D01*
X112050991Y-101927408D01*
X112100000Y-101925000D01*
X113100000Y-101925000D01*
X113149009Y-101927408D01*
X113149009Y-101927408D01*
G37*
D14*
G04 #@! TD*
G04 #@! TO.P,L2,5*
G04 #@! TO.N,Net-(D7-Pad2)*
X112600000Y-103300000D03*
D19*
G04 #@! TO.N,GND*
G04 #@! TO.C,L2*
G36*
X116947009Y-101827408D02*
X116995545Y-101834607D01*
X117043142Y-101846530D01*
X117089342Y-101863060D01*
X117133698Y-101884039D01*
X117175785Y-101909265D01*
X117215197Y-101938495D01*
X117251553Y-101971447D01*
X117284505Y-102007803D01*
X117313735Y-102047215D01*
X117338961Y-102089302D01*
X117359940Y-102133658D01*
X117376470Y-102179858D01*
X117388393Y-102227455D01*
X117395592Y-102275991D01*
X117398000Y-102325000D01*
X117398000Y-104075000D01*
X117395592Y-104124009D01*
X117388393Y-104172545D01*
X117376470Y-104220142D01*
X117359940Y-104266342D01*
X117338961Y-104310698D01*
X117313735Y-104352785D01*
X117284505Y-104392197D01*
X117251553Y-104428553D01*
X117215197Y-104461505D01*
X117175785Y-104490735D01*
X117133698Y-104515961D01*
X117089342Y-104536940D01*
X117043142Y-104553470D01*
X116995545Y-104565393D01*
X116947009Y-104572592D01*
X116898000Y-104575000D01*
X115898000Y-104575000D01*
X115848991Y-104572592D01*
X115800455Y-104565393D01*
X115752858Y-104553470D01*
X115706658Y-104536940D01*
X115662302Y-104515961D01*
X115620215Y-104490735D01*
X115580803Y-104461505D01*
X115544447Y-104428553D01*
X115511495Y-104392197D01*
X115482265Y-104352785D01*
X115457039Y-104310698D01*
X115436060Y-104266342D01*
X115419530Y-104220142D01*
X115407607Y-104172545D01*
X115400408Y-104124009D01*
X115398000Y-104075000D01*
X115398000Y-102325000D01*
X115400408Y-102275991D01*
X115407607Y-102227455D01*
X115419530Y-102179858D01*
X115436060Y-102133658D01*
X115457039Y-102089302D01*
X115482265Y-102047215D01*
X115511495Y-102007803D01*
X115544447Y-101971447D01*
X115580803Y-101938495D01*
X115620215Y-101909265D01*
X115662302Y-101884039D01*
X115706658Y-101863060D01*
X115752858Y-101846530D01*
X115800455Y-101834607D01*
X115848991Y-101827408D01*
X115898000Y-101825000D01*
X116898000Y-101825000D01*
X116947009Y-101827408D01*
X116947009Y-101827408D01*
G37*
D14*
G04 #@! TD*
G04 #@! TO.P,L2,6*
G04 #@! TO.N,GND*
X116398000Y-103200000D03*
D20*
G04 #@! TO.P,RV1,1*
G04 #@! TO.N,Net-(R1-Pad1)*
X149606000Y-40894000D03*
G04 #@! TO.P,RV1,2*
G04 #@! TO.N,Net-(RV1-Pad2)*
X147066000Y-43434000D03*
G04 #@! TO.P,RV1,3*
G04 #@! TO.N,Net-(R5-Pad1)*
X144526000Y-40894000D03*
G04 #@! TD*
G04 #@! TO.P,RV2,1*
G04 #@! TO.N,/ISOGND*
X93980000Y-55118000D03*
G04 #@! TO.P,RV2,2*
G04 #@! TO.N,Net-(R7-Pad2)*
X91440000Y-57658000D03*
G04 #@! TO.P,RV2,3*
G04 #@! TO.N,Net-(RV2-Pad3)*
X88900000Y-55118000D03*
G04 #@! TD*
G04 #@! TO.P,RV3,1*
G04 #@! TO.N,/UMeas*
X124714000Y-98044000D03*
G04 #@! TO.P,RV3,2*
G04 #@! TO.N,Net-(R10-Pad1)*
X127254000Y-100584000D03*
G04 #@! TO.P,RV3,3*
G04 #@! TO.N,Net-(RV3-Pad3)*
X124714000Y-103124000D03*
G04 #@! TD*
G04 #@! TO.P,RV4,1*
G04 #@! TO.N,GND*
X123444000Y-124968000D03*
G04 #@! TO.P,RV4,2*
G04 #@! TO.N,Net-(R20-Pad1)*
X120904000Y-122428000D03*
G04 #@! TO.P,RV4,3*
G04 #@! TO.N,Net-(RV4-Pad3)*
X123444000Y-119888000D03*
G04 #@! TD*
D14*
G04 #@! TO.P,SW1,1*
G04 #@! TO.N,+5V*
X126746000Y-114958000D03*
G04 #@! TO.P,SW1,2*
G04 #@! TO.N,/IGNITION*
X122246000Y-114958000D03*
G04 #@! TO.P,SW1,1*
G04 #@! TO.N,+5V*
X126746000Y-108458000D03*
G04 #@! TO.P,SW1,2*
G04 #@! TO.N,/IGNITION*
X122246000Y-108458000D03*
G04 #@! TD*
G04 #@! TO.P,SW2,1*
G04 #@! TO.N,+5V*
X129540000Y-143406000D03*
G04 #@! TO.P,SW2,2*
G04 #@! TO.N,Net-(A1-Pad8)*
X125040000Y-143406000D03*
G04 #@! TO.P,SW2,1*
G04 #@! TO.N,+5V*
X129540000Y-136906000D03*
G04 #@! TO.P,SW2,2*
G04 #@! TO.N,Net-(A1-Pad8)*
X125040000Y-136906000D03*
G04 #@! TD*
G04 #@! TO.P,TP2,1*
G04 #@! TO.N,Net-(D2-Pad2)*
X147066000Y-77216000D03*
G04 #@! TD*
D21*
G04 #@! TO.P,U2,6*
G04 #@! TO.N,/ISO-12V*
X90170000Y-81788000D03*
G04 #@! TO.P,U2,5*
G04 #@! TO.N,/ISOGND*
X90170000Y-84328000D03*
G04 #@! TO.P,U2,4*
G04 #@! TO.N,/ISO+12V*
X90170000Y-86868000D03*
G04 #@! TO.P,U2,2*
G04 #@! TO.N,GND*
X90170000Y-91948000D03*
G04 #@! TO.P,U2,1*
G04 #@! TO.N,+12V*
X90170000Y-94488000D03*
G04 #@! TD*
D22*
G04 #@! TO.N,/UMeas*
X129540000Y-108204000D03*
G04 #@! TO.N,GND*
X130810000Y-97536000D03*
X115062000Y-118618000D03*
X118872000Y-118618000D03*
X108935000Y-125695000D03*
X110459000Y-127473000D03*
G04 #@! TO.N,Net-(A1-Pad8)*
X139192000Y-126746000D03*
G04 #@! TO.N,/DCDC_EN*
X130810000Y-115824000D03*
X115061972Y-127254000D03*
G04 #@! TO.N,+5V*
X147320000Y-141732000D03*
X139192000Y-103378000D03*
X130810000Y-127508000D03*
G04 #@! TO.N,+12V*
X99537000Y-104359000D03*
X117094000Y-137414000D03*
X117856000Y-136906000D03*
X117856000Y-138176000D03*
X118618000Y-137668000D03*
X128016000Y-96774000D03*
X114554000Y-133096000D03*
X107950000Y-129540000D03*
X99537000Y-105375000D03*
X99537000Y-106391000D03*
G04 #@! TO.N,/ISO+12V*
X121983500Y-80899000D03*
X120586500Y-84709000D03*
X130937000Y-83185000D03*
X148399500Y-52387500D03*
G04 #@! TO.N,/ISO60V*
X133604000Y-39878000D03*
X104140000Y-39624000D03*
X103632000Y-40386000D03*
X103378000Y-39116000D03*
X102870000Y-39878000D03*
G04 #@! TO.N,Net-(C3-Pad1)*
X145796000Y-50863500D03*
X142811500Y-52197000D03*
G04 #@! TO.N,Net-(C3-Pad2)*
X128524000Y-82042000D03*
X138811000Y-56578500D03*
G04 #@! TO.N,/ISO-12V*
X141478000Y-49530000D03*
X119095000Y-49749000D03*
G04 #@! TO.N,Net-(Q2-Pad1)*
X132270500Y-76962000D03*
X144081500Y-64198500D03*
G04 #@! TO.N,Net-(R2-Pad1)*
X129161711Y-81271724D03*
X140970000Y-55853500D03*
G04 #@! TO.N,Net-(RV1-Pad2)*
X143256000Y-47752000D03*
G04 #@! TD*
D23*
G04 #@! TO.N,/UMeas*
X134396000Y-113060000D02*
X134760000Y-113060000D01*
X129540000Y-108204000D02*
X134396000Y-113060000D01*
D24*
G04 #@! TO.N,GND*
X115062000Y-118618000D02*
X118872000Y-118618000D01*
D23*
X110459000Y-127219000D02*
X110459000Y-127473000D01*
X108935000Y-125695000D02*
X110459000Y-127219000D01*
G04 #@! TO.N,Net-(A1-Pad5)*
X117929999Y-142150001D02*
X117929999Y-142054999D01*
X117080000Y-143000000D02*
X117929999Y-142150001D01*
X149200001Y-131639999D02*
X150000000Y-130840000D01*
X128019997Y-131965001D02*
X148874999Y-131965001D01*
X148874999Y-131965001D02*
X149200001Y-131639999D01*
X120648000Y-139336998D02*
X128019997Y-131965001D01*
X120648000Y-139700000D02*
X120648000Y-139336998D01*
X117348000Y-143000000D02*
X120648000Y-139700000D01*
G04 #@! TO.N,Net-(A1-Pad6)*
X128382999Y-129425001D02*
X114808000Y-143000000D01*
X150000000Y-128300000D02*
X148874999Y-129425001D01*
X148874999Y-129425001D02*
X128382999Y-129425001D01*
G04 #@! TO.N,Net-(A1-Pad8)*
X139192000Y-126746000D02*
X139192000Y-125476000D01*
X141448000Y-123220000D02*
X150000000Y-123220000D01*
X139192000Y-125476000D02*
X141448000Y-123220000D01*
X125040000Y-136906000D02*
X125040000Y-143406000D01*
G04 #@! TO.N,/IGNITION*
X122246000Y-113543787D02*
X122246000Y-108458000D01*
X122246000Y-114958000D02*
X122246000Y-113543787D01*
G04 #@! TO.N,/DCDC_EN*
X130810000Y-115824000D02*
X119380000Y-127254000D01*
X119380000Y-127254000D02*
X115627657Y-127254000D01*
X115627657Y-127254000D02*
X115061972Y-127254000D01*
G04 #@! TO.N,+12V*
X128016000Y-96774000D02*
X119380000Y-96774000D01*
X119380000Y-96774000D02*
X118364000Y-97790000D01*
G04 #@! TO.N,Net-(C3-Pad1)*
X145796000Y-50863500D02*
X144462500Y-52197000D01*
X144462500Y-52197000D02*
X142811500Y-52197000D01*
G04 #@! TO.N,Net-(C3-Pad2)*
X125222000Y-78740000D02*
X125222000Y-63246000D01*
X128524000Y-82042000D02*
X125222000Y-78740000D01*
X131889500Y-56578500D02*
X138245315Y-56578500D01*
X125222000Y-63246000D02*
X131889500Y-56578500D01*
X138245315Y-56578500D02*
X138811000Y-56578500D01*
D24*
G04 #@! TO.N,/ISO-12V*
X119060000Y-49784000D02*
X119095000Y-49749000D01*
X90170000Y-53330000D02*
X93716000Y-49784000D01*
X90170000Y-81788000D02*
X90170000Y-77196001D01*
X91420001Y-77106001D02*
X91420001Y-74785999D01*
X91330001Y-74695999D02*
X90770003Y-74695999D01*
X90170000Y-77196001D02*
X91330001Y-77196001D01*
X91420001Y-72845999D02*
X90770001Y-72195999D01*
X90770001Y-72195999D02*
X90170000Y-72195999D01*
X93716000Y-49784000D02*
X119060000Y-49784000D01*
X90770003Y-74695999D02*
X91420001Y-74046001D01*
X91330001Y-77196001D02*
X91420001Y-77106001D01*
X91420001Y-74785999D02*
X91330001Y-74695999D01*
X91420001Y-74046001D02*
X91420001Y-72845999D01*
X90170000Y-72195999D02*
X90170000Y-53330000D01*
G04 #@! TO.N,Net-(Q2-Pad1)*
X132270500Y-76962000D02*
X144081500Y-65151000D01*
X144081500Y-65151000D02*
X144081500Y-64198500D01*
D23*
G04 #@! TO.N,Net-(R2-Pad1)*
X125672010Y-77782023D02*
X129161711Y-81271724D01*
X125672010Y-63748490D02*
X125672010Y-77782023D01*
X140970000Y-56419185D02*
X139985185Y-57404000D01*
X139985185Y-57404000D02*
X132016500Y-57404000D01*
X140970000Y-55853500D02*
X140970000Y-56419185D01*
X132016500Y-57404000D02*
X125672010Y-63748490D01*
G04 #@! TO.N,Net-(RV1-Pad2)*
X143256000Y-47752000D02*
X143256000Y-45974000D01*
X145796000Y-43434000D02*
X147066000Y-43434000D01*
X143256000Y-45974000D02*
X145796000Y-43434000D01*
G04 #@! TD*
D25*
G04 #@! TO.N,/ISO60V*
G36*
X134365000Y-55818500D02*
X131964347Y-55818500D01*
X131889500Y-55803612D01*
X131814653Y-55818500D01*
X131814648Y-55818500D01*
X131592963Y-55862596D01*
X131341571Y-56030571D01*
X131299171Y-56094027D01*
X124737528Y-62655671D01*
X124674072Y-62698071D01*
X124631672Y-62761527D01*
X124631671Y-62761528D01*
X124506097Y-62949463D01*
X124447112Y-63246000D01*
X124462001Y-63320852D01*
X124462000Y-71940421D01*
X119624484Y-75487933D01*
X119413336Y-75756996D01*
X119365000Y-76000000D01*
X119365000Y-87873000D01*
X91288852Y-87873000D01*
X91460385Y-87758385D01*
X91733344Y-87349873D01*
X91829195Y-86868000D01*
X91733344Y-86386127D01*
X91460385Y-85977615D01*
X91051873Y-85704656D01*
X90691636Y-85633000D01*
X89648364Y-85633000D01*
X89288127Y-85704656D01*
X88879615Y-85977615D01*
X88606656Y-86386127D01*
X88510805Y-86868000D01*
X88606656Y-87349873D01*
X88879615Y-87758385D01*
X89051148Y-87873000D01*
X88127000Y-87873000D01*
X88127000Y-84328000D01*
X88510805Y-84328000D01*
X88606656Y-84809873D01*
X88879615Y-85218385D01*
X89288127Y-85491344D01*
X89648364Y-85563000D01*
X90691636Y-85563000D01*
X91051873Y-85491344D01*
X91460385Y-85218385D01*
X91733344Y-84809873D01*
X91829195Y-84328000D01*
X91733344Y-83846127D01*
X91460385Y-83437615D01*
X91051873Y-83164656D01*
X90691636Y-83093000D01*
X89648364Y-83093000D01*
X89288127Y-83164656D01*
X88879615Y-83437615D01*
X88606656Y-83846127D01*
X88510805Y-84328000D01*
X88127000Y-84328000D01*
X88127000Y-56133980D01*
X88183435Y-56190415D01*
X88648376Y-56383000D01*
X89151624Y-56383000D01*
X89285001Y-56327753D01*
X89285000Y-72108834D01*
X89267662Y-72195999D01*
X89288059Y-72298545D01*
X88953466Y-72633138D01*
X88735000Y-73160561D01*
X88735000Y-73731439D01*
X88953466Y-74258862D01*
X89222503Y-74527899D01*
X89122235Y-74547843D01*
X88912191Y-74688191D01*
X88771843Y-74898235D01*
X88722560Y-75146000D01*
X88722560Y-76746000D01*
X88771843Y-76993765D01*
X88912191Y-77203809D01*
X89122235Y-77344157D01*
X89285001Y-77376533D01*
X89285000Y-80626745D01*
X88879615Y-80897615D01*
X88606656Y-81306127D01*
X88510805Y-81788000D01*
X88606656Y-82269873D01*
X88879615Y-82678385D01*
X89288127Y-82951344D01*
X89648364Y-83023000D01*
X90691636Y-83023000D01*
X91051873Y-82951344D01*
X91460385Y-82678385D01*
X91733344Y-82269873D01*
X91829195Y-81788000D01*
X91733344Y-81306127D01*
X91460385Y-80897615D01*
X91055000Y-80626745D01*
X91055000Y-78081001D01*
X91242840Y-78081001D01*
X91330001Y-78098338D01*
X91417162Y-78081001D01*
X91417166Y-78081001D01*
X91675311Y-78029653D01*
X91968050Y-77834050D01*
X92004099Y-77780099D01*
X92058050Y-77744050D01*
X92253653Y-77451311D01*
X92305001Y-77193166D01*
X92305001Y-77193161D01*
X92322338Y-77106002D01*
X92305001Y-77018842D01*
X92305001Y-75975000D01*
X95904560Y-75975000D01*
X95904560Y-77725000D01*
X95991904Y-78164106D01*
X96240637Y-78536363D01*
X96612894Y-78785096D01*
X97052000Y-78872440D01*
X98052000Y-78872440D01*
X98491106Y-78785096D01*
X98863363Y-78536363D01*
X99112096Y-78164106D01*
X99199440Y-77725000D01*
X99199440Y-75975000D01*
X99179549Y-75875000D01*
X99702560Y-75875000D01*
X99702560Y-77625000D01*
X99789904Y-78064106D01*
X100038637Y-78436363D01*
X100410894Y-78685096D01*
X100850000Y-78772440D01*
X101850000Y-78772440D01*
X102289106Y-78685096D01*
X102661363Y-78436363D01*
X102910096Y-78064106D01*
X102997440Y-77625000D01*
X102997440Y-75875000D01*
X103402560Y-75875000D01*
X103402560Y-77625000D01*
X103489904Y-78064106D01*
X103738637Y-78436363D01*
X104110894Y-78685096D01*
X104550000Y-78772440D01*
X105550000Y-78772440D01*
X105989106Y-78685096D01*
X106361363Y-78436363D01*
X106610096Y-78064106D01*
X106697440Y-77625000D01*
X106697440Y-75875000D01*
X107202560Y-75875000D01*
X107202560Y-77625000D01*
X107289904Y-78064106D01*
X107538637Y-78436363D01*
X107910894Y-78685096D01*
X108350000Y-78772440D01*
X109350000Y-78772440D01*
X109789106Y-78685096D01*
X110161363Y-78436363D01*
X110410096Y-78064106D01*
X110497440Y-77625000D01*
X110497440Y-75875000D01*
X110902560Y-75875000D01*
X110902560Y-77625000D01*
X110989904Y-78064106D01*
X111238637Y-78436363D01*
X111610894Y-78685096D01*
X112050000Y-78772440D01*
X113050000Y-78772440D01*
X113489106Y-78685096D01*
X113861363Y-78436363D01*
X114110096Y-78064106D01*
X114197440Y-77625000D01*
X114197440Y-75875000D01*
X114702560Y-75875000D01*
X114702560Y-77625000D01*
X114789904Y-78064106D01*
X115038637Y-78436363D01*
X115410894Y-78685096D01*
X115850000Y-78772440D01*
X116850000Y-78772440D01*
X117289106Y-78685096D01*
X117661363Y-78436363D01*
X117910096Y-78064106D01*
X117997440Y-77625000D01*
X117997440Y-75875000D01*
X117910096Y-75435894D01*
X117661363Y-75063637D01*
X117289106Y-74814904D01*
X116850000Y-74727560D01*
X115850000Y-74727560D01*
X115410894Y-74814904D01*
X115038637Y-75063637D01*
X114789904Y-75435894D01*
X114702560Y-75875000D01*
X114197440Y-75875000D01*
X114110096Y-75435894D01*
X113861363Y-75063637D01*
X113489106Y-74814904D01*
X113050000Y-74727560D01*
X112050000Y-74727560D01*
X111610894Y-74814904D01*
X111238637Y-75063637D01*
X110989904Y-75435894D01*
X110902560Y-75875000D01*
X110497440Y-75875000D01*
X110410096Y-75435894D01*
X110161363Y-75063637D01*
X109789106Y-74814904D01*
X109350000Y-74727560D01*
X108350000Y-74727560D01*
X107910894Y-74814904D01*
X107538637Y-75063637D01*
X107289904Y-75435894D01*
X107202560Y-75875000D01*
X106697440Y-75875000D01*
X106610096Y-75435894D01*
X106361363Y-75063637D01*
X105989106Y-74814904D01*
X105550000Y-74727560D01*
X104550000Y-74727560D01*
X104110894Y-74814904D01*
X103738637Y-75063637D01*
X103489904Y-75435894D01*
X103402560Y-75875000D01*
X102997440Y-75875000D01*
X102910096Y-75435894D01*
X102661363Y-75063637D01*
X102289106Y-74814904D01*
X101850000Y-74727560D01*
X100850000Y-74727560D01*
X100410894Y-74814904D01*
X100038637Y-75063637D01*
X99789904Y-75435894D01*
X99702560Y-75875000D01*
X99179549Y-75875000D01*
X99112096Y-75535894D01*
X98863363Y-75163637D01*
X98491106Y-74914904D01*
X98052000Y-74827560D01*
X97052000Y-74827560D01*
X96612894Y-74914904D01*
X96240637Y-75163637D01*
X95991904Y-75535894D01*
X95904560Y-75975000D01*
X92305001Y-75975000D01*
X92305001Y-74873158D01*
X92322338Y-74785998D01*
X92305001Y-74698839D01*
X92305001Y-74698834D01*
X92253653Y-74440689D01*
X92237156Y-74416000D01*
X92253653Y-74391311D01*
X92261733Y-74350689D01*
X92305001Y-74133166D01*
X92305001Y-74133162D01*
X92322338Y-74046001D01*
X92305001Y-73958840D01*
X92305001Y-72933160D01*
X92322338Y-72845999D01*
X92305001Y-72758838D01*
X92305001Y-72758834D01*
X92253653Y-72500689D01*
X92058050Y-72207950D01*
X91984157Y-72158576D01*
X91457426Y-71631846D01*
X91408050Y-71557950D01*
X91115311Y-71362347D01*
X91055000Y-71350350D01*
X91055000Y-69823440D01*
X92544000Y-69823440D01*
X92791765Y-69774157D01*
X93001809Y-69633809D01*
X93142157Y-69423765D01*
X93191440Y-69176000D01*
X93191440Y-67476000D01*
X93142157Y-67228235D01*
X93001809Y-67018191D01*
X92791765Y-66877843D01*
X92688292Y-66857261D01*
X92965645Y-66552924D01*
X93135476Y-66142890D01*
X93014155Y-65913000D01*
X91821000Y-65913000D01*
X91821000Y-65933000D01*
X91567000Y-65933000D01*
X91567000Y-65913000D01*
X91547000Y-65913000D01*
X91547000Y-65659000D01*
X91567000Y-65659000D01*
X91567000Y-64465181D01*
X91821000Y-64465181D01*
X91821000Y-65659000D01*
X93014155Y-65659000D01*
X93135476Y-65429110D01*
X92965645Y-65019076D01*
X92575358Y-64590817D01*
X92050892Y-64344514D01*
X91821000Y-64465181D01*
X91567000Y-64465181D01*
X91337108Y-64344514D01*
X91055000Y-64476999D01*
X91055000Y-62174778D01*
X117865000Y-62174778D01*
X117865000Y-62825222D01*
X118113914Y-63426153D01*
X118573847Y-63886086D01*
X119174778Y-64135000D01*
X119825222Y-64135000D01*
X120426153Y-63886086D01*
X120886086Y-63426153D01*
X121135000Y-62825222D01*
X121135000Y-62174778D01*
X120886086Y-61573847D01*
X120426153Y-61113914D01*
X119825222Y-60865000D01*
X119174778Y-60865000D01*
X118573847Y-61113914D01*
X118113914Y-61573847D01*
X117865000Y-62174778D01*
X91055000Y-62174778D01*
X91055000Y-60919970D01*
X97713635Y-60919970D01*
X97873418Y-61238739D01*
X98664187Y-61548723D01*
X99513387Y-61532497D01*
X100222582Y-61238739D01*
X100382365Y-60919970D01*
X99048000Y-59585605D01*
X97713635Y-60919970D01*
X91055000Y-60919970D01*
X91055000Y-59022187D01*
X96905277Y-59022187D01*
X96921503Y-59871387D01*
X97215261Y-60580582D01*
X97534030Y-60740365D01*
X98868395Y-59406000D01*
X99227605Y-59406000D01*
X100561970Y-60740365D01*
X100880739Y-60580582D01*
X101190723Y-59789813D01*
X101174497Y-58940613D01*
X100880739Y-58231418D01*
X100561970Y-58071635D01*
X99227605Y-59406000D01*
X98868395Y-59406000D01*
X97534030Y-58071635D01*
X97215261Y-58231418D01*
X96905277Y-59022187D01*
X91055000Y-59022187D01*
X91055000Y-58867754D01*
X91188376Y-58923000D01*
X91691624Y-58923000D01*
X92156565Y-58730415D01*
X92512415Y-58374565D01*
X92705000Y-57909624D01*
X92705000Y-57892030D01*
X97713635Y-57892030D01*
X99048000Y-59226395D01*
X100382365Y-57892030D01*
X100222582Y-57573261D01*
X99431813Y-57263277D01*
X98582613Y-57279503D01*
X97873418Y-57573261D01*
X97713635Y-57892030D01*
X92705000Y-57892030D01*
X92705000Y-57406376D01*
X92512415Y-56941435D01*
X92156565Y-56585585D01*
X91691624Y-56393000D01*
X91188376Y-56393000D01*
X91055000Y-56448246D01*
X91055000Y-54866376D01*
X92715000Y-54866376D01*
X92715000Y-55369624D01*
X92907585Y-55834565D01*
X93263435Y-56190415D01*
X93728376Y-56383000D01*
X94231624Y-56383000D01*
X94696565Y-56190415D01*
X94734448Y-56152532D01*
X108527073Y-56152532D01*
X108625736Y-56419387D01*
X109235461Y-56645908D01*
X109885460Y-56621856D01*
X110374264Y-56419387D01*
X110472927Y-56152532D01*
X109500000Y-55179605D01*
X108527073Y-56152532D01*
X94734448Y-56152532D01*
X95052415Y-55834565D01*
X95245000Y-55369624D01*
X95245000Y-54866376D01*
X95190774Y-54735461D01*
X107854092Y-54735461D01*
X107878144Y-55385460D01*
X108080613Y-55874264D01*
X108347468Y-55972927D01*
X109320395Y-55000000D01*
X109679605Y-55000000D01*
X110652532Y-55972927D01*
X110919387Y-55874264D01*
X111145908Y-55264539D01*
X111124085Y-54674778D01*
X127865000Y-54674778D01*
X127865000Y-55325222D01*
X128113914Y-55926153D01*
X128573847Y-56386086D01*
X129174778Y-56635000D01*
X129825222Y-56635000D01*
X130426153Y-56386086D01*
X130886086Y-55926153D01*
X131135000Y-55325222D01*
X131135000Y-54674778D01*
X130886086Y-54073847D01*
X130426153Y-53613914D01*
X129825222Y-53365000D01*
X129174778Y-53365000D01*
X128573847Y-53613914D01*
X128113914Y-54073847D01*
X127865000Y-54674778D01*
X111124085Y-54674778D01*
X111121856Y-54614540D01*
X110919387Y-54125736D01*
X110652532Y-54027073D01*
X109679605Y-55000000D01*
X109320395Y-55000000D01*
X108347468Y-54027073D01*
X108080613Y-54125736D01*
X107854092Y-54735461D01*
X95190774Y-54735461D01*
X95052415Y-54401435D01*
X94696565Y-54045585D01*
X94231624Y-53853000D01*
X93728376Y-53853000D01*
X93263435Y-54045585D01*
X92907585Y-54401435D01*
X92715000Y-54866376D01*
X91055000Y-54866376D01*
X91055000Y-53847468D01*
X108527073Y-53847468D01*
X109500000Y-54820395D01*
X110472927Y-53847468D01*
X110374264Y-53580613D01*
X109764539Y-53354092D01*
X109114540Y-53378144D01*
X108625736Y-53580613D01*
X108527073Y-53847468D01*
X91055000Y-53847468D01*
X91055000Y-53696578D01*
X94082579Y-50669000D01*
X118611491Y-50669000D01*
X118889126Y-50784000D01*
X119300874Y-50784000D01*
X119681280Y-50626431D01*
X119972431Y-50335280D01*
X120130000Y-49954874D01*
X120130000Y-49543126D01*
X119972431Y-49162720D01*
X119681280Y-48871569D01*
X119300874Y-48714000D01*
X118889126Y-48714000D01*
X118508720Y-48871569D01*
X118481289Y-48899000D01*
X93803159Y-48899000D01*
X93715999Y-48881663D01*
X93628839Y-48899000D01*
X93628835Y-48899000D01*
X93370690Y-48950348D01*
X93370688Y-48950349D01*
X93370689Y-48950349D01*
X93151845Y-49096576D01*
X93151844Y-49096577D01*
X93077951Y-49145951D01*
X93028577Y-49219844D01*
X89605845Y-52642577D01*
X89531952Y-52691951D01*
X89482578Y-52765844D01*
X89482576Y-52765846D01*
X89336348Y-52984691D01*
X89267663Y-53330000D01*
X89285001Y-53417166D01*
X89285001Y-53908247D01*
X89151624Y-53853000D01*
X88648376Y-53853000D01*
X88183435Y-54045585D01*
X88127000Y-54102020D01*
X88127000Y-44674778D01*
X117865000Y-44674778D01*
X117865000Y-45325222D01*
X118113914Y-45926153D01*
X118573847Y-46386086D01*
X119174778Y-46635000D01*
X119825222Y-46635000D01*
X120426153Y-46386086D01*
X120886086Y-45926153D01*
X121135000Y-45325222D01*
X121135000Y-44674778D01*
X120886086Y-44073847D01*
X120426153Y-43613914D01*
X119825222Y-43365000D01*
X119174778Y-43365000D01*
X118573847Y-43613914D01*
X118113914Y-44073847D01*
X117865000Y-44674778D01*
X88127000Y-44674778D01*
X88127000Y-38127000D01*
X134365000Y-38127000D01*
X134365000Y-55818500D01*
X134365000Y-55818500D01*
G37*
X134365000Y-55818500D02*
X131964347Y-55818500D01*
X131889500Y-55803612D01*
X131814653Y-55818500D01*
X131814648Y-55818500D01*
X131592963Y-55862596D01*
X131341571Y-56030571D01*
X131299171Y-56094027D01*
X124737528Y-62655671D01*
X124674072Y-62698071D01*
X124631672Y-62761527D01*
X124631671Y-62761528D01*
X124506097Y-62949463D01*
X124447112Y-63246000D01*
X124462001Y-63320852D01*
X124462000Y-71940421D01*
X119624484Y-75487933D01*
X119413336Y-75756996D01*
X119365000Y-76000000D01*
X119365000Y-87873000D01*
X91288852Y-87873000D01*
X91460385Y-87758385D01*
X91733344Y-87349873D01*
X91829195Y-86868000D01*
X91733344Y-86386127D01*
X91460385Y-85977615D01*
X91051873Y-85704656D01*
X90691636Y-85633000D01*
X89648364Y-85633000D01*
X89288127Y-85704656D01*
X88879615Y-85977615D01*
X88606656Y-86386127D01*
X88510805Y-86868000D01*
X88606656Y-87349873D01*
X88879615Y-87758385D01*
X89051148Y-87873000D01*
X88127000Y-87873000D01*
X88127000Y-84328000D01*
X88510805Y-84328000D01*
X88606656Y-84809873D01*
X88879615Y-85218385D01*
X89288127Y-85491344D01*
X89648364Y-85563000D01*
X90691636Y-85563000D01*
X91051873Y-85491344D01*
X91460385Y-85218385D01*
X91733344Y-84809873D01*
X91829195Y-84328000D01*
X91733344Y-83846127D01*
X91460385Y-83437615D01*
X91051873Y-83164656D01*
X90691636Y-83093000D01*
X89648364Y-83093000D01*
X89288127Y-83164656D01*
X88879615Y-83437615D01*
X88606656Y-83846127D01*
X88510805Y-84328000D01*
X88127000Y-84328000D01*
X88127000Y-56133980D01*
X88183435Y-56190415D01*
X88648376Y-56383000D01*
X89151624Y-56383000D01*
X89285001Y-56327753D01*
X89285000Y-72108834D01*
X89267662Y-72195999D01*
X89288059Y-72298545D01*
X88953466Y-72633138D01*
X88735000Y-73160561D01*
X88735000Y-73731439D01*
X88953466Y-74258862D01*
X89222503Y-74527899D01*
X89122235Y-74547843D01*
X88912191Y-74688191D01*
X88771843Y-74898235D01*
X88722560Y-75146000D01*
X88722560Y-76746000D01*
X88771843Y-76993765D01*
X88912191Y-77203809D01*
X89122235Y-77344157D01*
X89285001Y-77376533D01*
X89285000Y-80626745D01*
X88879615Y-80897615D01*
X88606656Y-81306127D01*
X88510805Y-81788000D01*
X88606656Y-82269873D01*
X88879615Y-82678385D01*
X89288127Y-82951344D01*
X89648364Y-83023000D01*
X90691636Y-83023000D01*
X91051873Y-82951344D01*
X91460385Y-82678385D01*
X91733344Y-82269873D01*
X91829195Y-81788000D01*
X91733344Y-81306127D01*
X91460385Y-80897615D01*
X91055000Y-80626745D01*
X91055000Y-78081001D01*
X91242840Y-78081001D01*
X91330001Y-78098338D01*
X91417162Y-78081001D01*
X91417166Y-78081001D01*
X91675311Y-78029653D01*
X91968050Y-77834050D01*
X92004099Y-77780099D01*
X92058050Y-77744050D01*
X92253653Y-77451311D01*
X92305001Y-77193166D01*
X92305001Y-77193161D01*
X92322338Y-77106002D01*
X92305001Y-77018842D01*
X92305001Y-75975000D01*
X95904560Y-75975000D01*
X95904560Y-77725000D01*
X95991904Y-78164106D01*
X96240637Y-78536363D01*
X96612894Y-78785096D01*
X97052000Y-78872440D01*
X98052000Y-78872440D01*
X98491106Y-78785096D01*
X98863363Y-78536363D01*
X99112096Y-78164106D01*
X99199440Y-77725000D01*
X99199440Y-75975000D01*
X99179549Y-75875000D01*
X99702560Y-75875000D01*
X99702560Y-77625000D01*
X99789904Y-78064106D01*
X100038637Y-78436363D01*
X100410894Y-78685096D01*
X100850000Y-78772440D01*
X101850000Y-78772440D01*
X102289106Y-78685096D01*
X102661363Y-78436363D01*
X102910096Y-78064106D01*
X102997440Y-77625000D01*
X102997440Y-75875000D01*
X103402560Y-75875000D01*
X103402560Y-77625000D01*
X103489904Y-78064106D01*
X103738637Y-78436363D01*
X104110894Y-78685096D01*
X104550000Y-78772440D01*
X105550000Y-78772440D01*
X105989106Y-78685096D01*
X106361363Y-78436363D01*
X106610096Y-78064106D01*
X106697440Y-77625000D01*
X106697440Y-75875000D01*
X107202560Y-75875000D01*
X107202560Y-77625000D01*
X107289904Y-78064106D01*
X107538637Y-78436363D01*
X107910894Y-78685096D01*
X108350000Y-78772440D01*
X109350000Y-78772440D01*
X109789106Y-78685096D01*
X110161363Y-78436363D01*
X110410096Y-78064106D01*
X110497440Y-77625000D01*
X110497440Y-75875000D01*
X110902560Y-75875000D01*
X110902560Y-77625000D01*
X110989904Y-78064106D01*
X111238637Y-78436363D01*
X111610894Y-78685096D01*
X112050000Y-78772440D01*
X113050000Y-78772440D01*
X113489106Y-78685096D01*
X113861363Y-78436363D01*
X114110096Y-78064106D01*
X114197440Y-77625000D01*
X114197440Y-75875000D01*
X114702560Y-75875000D01*
X114702560Y-77625000D01*
X114789904Y-78064106D01*
X115038637Y-78436363D01*
X115410894Y-78685096D01*
X115850000Y-78772440D01*
X116850000Y-78772440D01*
X117289106Y-78685096D01*
X117661363Y-78436363D01*
X117910096Y-78064106D01*
X117997440Y-77625000D01*
X117997440Y-75875000D01*
X117910096Y-75435894D01*
X117661363Y-75063637D01*
X117289106Y-74814904D01*
X116850000Y-74727560D01*
X115850000Y-74727560D01*
X115410894Y-74814904D01*
X115038637Y-75063637D01*
X114789904Y-75435894D01*
X114702560Y-75875000D01*
X114197440Y-75875000D01*
X114110096Y-75435894D01*
X113861363Y-75063637D01*
X113489106Y-74814904D01*
X113050000Y-74727560D01*
X112050000Y-74727560D01*
X111610894Y-74814904D01*
X111238637Y-75063637D01*
X110989904Y-75435894D01*
X110902560Y-75875000D01*
X110497440Y-75875000D01*
X110410096Y-75435894D01*
X110161363Y-75063637D01*
X109789106Y-74814904D01*
X109350000Y-74727560D01*
X108350000Y-74727560D01*
X107910894Y-74814904D01*
X107538637Y-75063637D01*
X107289904Y-75435894D01*
X107202560Y-75875000D01*
X106697440Y-75875000D01*
X106610096Y-75435894D01*
X106361363Y-75063637D01*
X105989106Y-74814904D01*
X105550000Y-74727560D01*
X104550000Y-74727560D01*
X104110894Y-74814904D01*
X103738637Y-75063637D01*
X103489904Y-75435894D01*
X103402560Y-75875000D01*
X102997440Y-75875000D01*
X102910096Y-75435894D01*
X102661363Y-75063637D01*
X102289106Y-74814904D01*
X101850000Y-74727560D01*
X100850000Y-74727560D01*
X100410894Y-74814904D01*
X100038637Y-75063637D01*
X99789904Y-75435894D01*
X99702560Y-75875000D01*
X99179549Y-75875000D01*
X99112096Y-75535894D01*
X98863363Y-75163637D01*
X98491106Y-74914904D01*
X98052000Y-74827560D01*
X97052000Y-74827560D01*
X96612894Y-74914904D01*
X96240637Y-75163637D01*
X95991904Y-75535894D01*
X95904560Y-75975000D01*
X92305001Y-75975000D01*
X92305001Y-74873158D01*
X92322338Y-74785998D01*
X92305001Y-74698839D01*
X92305001Y-74698834D01*
X92253653Y-74440689D01*
X92237156Y-74416000D01*
X92253653Y-74391311D01*
X92261733Y-74350689D01*
X92305001Y-74133166D01*
X92305001Y-74133162D01*
X92322338Y-74046001D01*
X92305001Y-73958840D01*
X92305001Y-72933160D01*
X92322338Y-72845999D01*
X92305001Y-72758838D01*
X92305001Y-72758834D01*
X92253653Y-72500689D01*
X92058050Y-72207950D01*
X91984157Y-72158576D01*
X91457426Y-71631846D01*
X91408050Y-71557950D01*
X91115311Y-71362347D01*
X91055000Y-71350350D01*
X91055000Y-69823440D01*
X92544000Y-69823440D01*
X92791765Y-69774157D01*
X93001809Y-69633809D01*
X93142157Y-69423765D01*
X93191440Y-69176000D01*
X93191440Y-67476000D01*
X93142157Y-67228235D01*
X93001809Y-67018191D01*
X92791765Y-66877843D01*
X92688292Y-66857261D01*
X92965645Y-66552924D01*
X93135476Y-66142890D01*
X93014155Y-65913000D01*
X91821000Y-65913000D01*
X91821000Y-65933000D01*
X91567000Y-65933000D01*
X91567000Y-65913000D01*
X91547000Y-65913000D01*
X91547000Y-65659000D01*
X91567000Y-65659000D01*
X91567000Y-64465181D01*
X91821000Y-64465181D01*
X91821000Y-65659000D01*
X93014155Y-65659000D01*
X93135476Y-65429110D01*
X92965645Y-65019076D01*
X92575358Y-64590817D01*
X92050892Y-64344514D01*
X91821000Y-64465181D01*
X91567000Y-64465181D01*
X91337108Y-64344514D01*
X91055000Y-64476999D01*
X91055000Y-62174778D01*
X117865000Y-62174778D01*
X117865000Y-62825222D01*
X118113914Y-63426153D01*
X118573847Y-63886086D01*
X119174778Y-64135000D01*
X119825222Y-64135000D01*
X120426153Y-63886086D01*
X120886086Y-63426153D01*
X121135000Y-62825222D01*
X121135000Y-62174778D01*
X120886086Y-61573847D01*
X120426153Y-61113914D01*
X119825222Y-60865000D01*
X119174778Y-60865000D01*
X118573847Y-61113914D01*
X118113914Y-61573847D01*
X117865000Y-62174778D01*
X91055000Y-62174778D01*
X91055000Y-60919970D01*
X97713635Y-60919970D01*
X97873418Y-61238739D01*
X98664187Y-61548723D01*
X99513387Y-61532497D01*
X100222582Y-61238739D01*
X100382365Y-60919970D01*
X99048000Y-59585605D01*
X97713635Y-60919970D01*
X91055000Y-60919970D01*
X91055000Y-59022187D01*
X96905277Y-59022187D01*
X96921503Y-59871387D01*
X97215261Y-60580582D01*
X97534030Y-60740365D01*
X98868395Y-59406000D01*
X99227605Y-59406000D01*
X100561970Y-60740365D01*
X100880739Y-60580582D01*
X101190723Y-59789813D01*
X101174497Y-58940613D01*
X100880739Y-58231418D01*
X100561970Y-58071635D01*
X99227605Y-59406000D01*
X98868395Y-59406000D01*
X97534030Y-58071635D01*
X97215261Y-58231418D01*
X96905277Y-59022187D01*
X91055000Y-59022187D01*
X91055000Y-58867754D01*
X91188376Y-58923000D01*
X91691624Y-58923000D01*
X92156565Y-58730415D01*
X92512415Y-58374565D01*
X92705000Y-57909624D01*
X92705000Y-57892030D01*
X97713635Y-57892030D01*
X99048000Y-59226395D01*
X100382365Y-57892030D01*
X100222582Y-57573261D01*
X99431813Y-57263277D01*
X98582613Y-57279503D01*
X97873418Y-57573261D01*
X97713635Y-57892030D01*
X92705000Y-57892030D01*
X92705000Y-57406376D01*
X92512415Y-56941435D01*
X92156565Y-56585585D01*
X91691624Y-56393000D01*
X91188376Y-56393000D01*
X91055000Y-56448246D01*
X91055000Y-54866376D01*
X92715000Y-54866376D01*
X92715000Y-55369624D01*
X92907585Y-55834565D01*
X93263435Y-56190415D01*
X93728376Y-56383000D01*
X94231624Y-56383000D01*
X94696565Y-56190415D01*
X94734448Y-56152532D01*
X108527073Y-56152532D01*
X108625736Y-56419387D01*
X109235461Y-56645908D01*
X109885460Y-56621856D01*
X110374264Y-56419387D01*
X110472927Y-56152532D01*
X109500000Y-55179605D01*
X108527073Y-56152532D01*
X94734448Y-56152532D01*
X95052415Y-55834565D01*
X95245000Y-55369624D01*
X95245000Y-54866376D01*
X95190774Y-54735461D01*
X107854092Y-54735461D01*
X107878144Y-55385460D01*
X108080613Y-55874264D01*
X108347468Y-55972927D01*
X109320395Y-55000000D01*
X109679605Y-55000000D01*
X110652532Y-55972927D01*
X110919387Y-55874264D01*
X111145908Y-55264539D01*
X111124085Y-54674778D01*
X127865000Y-54674778D01*
X127865000Y-55325222D01*
X128113914Y-55926153D01*
X128573847Y-56386086D01*
X129174778Y-56635000D01*
X129825222Y-56635000D01*
X130426153Y-56386086D01*
X130886086Y-55926153D01*
X131135000Y-55325222D01*
X131135000Y-54674778D01*
X130886086Y-54073847D01*
X130426153Y-53613914D01*
X129825222Y-53365000D01*
X129174778Y-53365000D01*
X128573847Y-53613914D01*
X128113914Y-54073847D01*
X127865000Y-54674778D01*
X111124085Y-54674778D01*
X111121856Y-54614540D01*
X110919387Y-54125736D01*
X110652532Y-54027073D01*
X109679605Y-55000000D01*
X109320395Y-55000000D01*
X108347468Y-54027073D01*
X108080613Y-54125736D01*
X107854092Y-54735461D01*
X95190774Y-54735461D01*
X95052415Y-54401435D01*
X94696565Y-54045585D01*
X94231624Y-53853000D01*
X93728376Y-53853000D01*
X93263435Y-54045585D01*
X92907585Y-54401435D01*
X92715000Y-54866376D01*
X91055000Y-54866376D01*
X91055000Y-53847468D01*
X108527073Y-53847468D01*
X109500000Y-54820395D01*
X110472927Y-53847468D01*
X110374264Y-53580613D01*
X109764539Y-53354092D01*
X109114540Y-53378144D01*
X108625736Y-53580613D01*
X108527073Y-53847468D01*
X91055000Y-53847468D01*
X91055000Y-53696578D01*
X94082579Y-50669000D01*
X118611491Y-50669000D01*
X118889126Y-50784000D01*
X119300874Y-50784000D01*
X119681280Y-50626431D01*
X119972431Y-50335280D01*
X120130000Y-49954874D01*
X120130000Y-49543126D01*
X119972431Y-49162720D01*
X119681280Y-48871569D01*
X119300874Y-48714000D01*
X118889126Y-48714000D01*
X118508720Y-48871569D01*
X118481289Y-48899000D01*
X93803159Y-48899000D01*
X93715999Y-48881663D01*
X93628839Y-48899000D01*
X93628835Y-48899000D01*
X93370690Y-48950348D01*
X93370688Y-48950349D01*
X93370689Y-48950349D01*
X93151845Y-49096576D01*
X93151844Y-49096577D01*
X93077951Y-49145951D01*
X93028577Y-49219844D01*
X89605845Y-52642577D01*
X89531952Y-52691951D01*
X89482578Y-52765844D01*
X89482576Y-52765846D01*
X89336348Y-52984691D01*
X89267663Y-53330000D01*
X89285001Y-53417166D01*
X89285001Y-53908247D01*
X89151624Y-53853000D01*
X88648376Y-53853000D01*
X88183435Y-54045585D01*
X88127000Y-54102020D01*
X88127000Y-44674778D01*
X117865000Y-44674778D01*
X117865000Y-45325222D01*
X118113914Y-45926153D01*
X118573847Y-46386086D01*
X119174778Y-46635000D01*
X119825222Y-46635000D01*
X120426153Y-46386086D01*
X120886086Y-45926153D01*
X121135000Y-45325222D01*
X121135000Y-44674778D01*
X120886086Y-44073847D01*
X120426153Y-43613914D01*
X119825222Y-43365000D01*
X119174778Y-43365000D01*
X118573847Y-43613914D01*
X118113914Y-44073847D01*
X117865000Y-44674778D01*
X88127000Y-44674778D01*
X88127000Y-38127000D01*
X134365000Y-38127000D01*
X134365000Y-55818500D01*
G04 #@! TO.N,+12V*
G36*
X88606656Y-91466127D02*
X88510805Y-91948000D01*
X88606656Y-92429873D01*
X88879615Y-92838385D01*
X89288127Y-93111344D01*
X89648364Y-93183000D01*
X90691636Y-93183000D01*
X91051873Y-93111344D01*
X91460385Y-92838385D01*
X91733344Y-92429873D01*
X91829195Y-91948000D01*
X91733344Y-91466127D01*
X91506747Y-91127000D01*
X120365000Y-91127000D01*
X120365000Y-121282035D01*
X120187435Y-121355585D01*
X119831585Y-121711435D01*
X119639000Y-122176376D01*
X119639000Y-122679624D01*
X119831585Y-123144565D01*
X120187435Y-123500415D01*
X120365000Y-123573965D01*
X120365000Y-125194199D01*
X119065199Y-126494000D01*
X115765683Y-126494000D01*
X115648252Y-126376569D01*
X115267846Y-126219000D01*
X114856098Y-126219000D01*
X114475692Y-126376569D01*
X114184541Y-126667720D01*
X114026972Y-127048126D01*
X114026972Y-127459874D01*
X114184541Y-127840280D01*
X114475692Y-128131431D01*
X114856098Y-128289000D01*
X115267846Y-128289000D01*
X115648252Y-128131431D01*
X115765683Y-128014000D01*
X119305153Y-128014000D01*
X119380000Y-128028888D01*
X119454847Y-128014000D01*
X119454852Y-128014000D01*
X119676537Y-127969904D01*
X119927929Y-127801929D01*
X119970331Y-127738470D01*
X120365000Y-127343801D01*
X120365000Y-136368199D01*
X115174408Y-141558791D01*
X114954256Y-141515000D01*
X114661744Y-141515000D01*
X114228582Y-141601161D01*
X113737375Y-141929375D01*
X113538000Y-142227761D01*
X113338625Y-141929375D01*
X112847418Y-141601161D01*
X112414256Y-141515000D01*
X112121744Y-141515000D01*
X111688582Y-141601161D01*
X111197375Y-141929375D01*
X110869161Y-142420582D01*
X110753908Y-143000000D01*
X110869161Y-143579418D01*
X111065326Y-143873000D01*
X88127000Y-143873000D01*
X88127000Y-139325050D01*
X88539000Y-139325050D01*
X88539000Y-140074950D01*
X88825974Y-140767767D01*
X89356233Y-141298026D01*
X90049050Y-141585000D01*
X90798950Y-141585000D01*
X91491767Y-141298026D01*
X92022026Y-140767767D01*
X92309000Y-140074950D01*
X92309000Y-139325050D01*
X93619000Y-139325050D01*
X93619000Y-140074950D01*
X93905974Y-140767767D01*
X94436233Y-141298026D01*
X95129050Y-141585000D01*
X95878950Y-141585000D01*
X96571767Y-141298026D01*
X97102026Y-140767767D01*
X97389000Y-140074950D01*
X97389000Y-139325050D01*
X98699000Y-139325050D01*
X98699000Y-140074950D01*
X98985974Y-140767767D01*
X99516233Y-141298026D01*
X100209050Y-141585000D01*
X100958950Y-141585000D01*
X101651767Y-141298026D01*
X102182026Y-140767767D01*
X102469000Y-140074950D01*
X102469000Y-139325050D01*
X102182026Y-138632233D01*
X101999793Y-138450000D01*
X103766560Y-138450000D01*
X103766560Y-140950000D01*
X103815843Y-141197765D01*
X103956191Y-141407809D01*
X104166235Y-141548157D01*
X104414000Y-141597440D01*
X106914000Y-141597440D01*
X107161765Y-141548157D01*
X107371809Y-141407809D01*
X107512157Y-141197765D01*
X107561440Y-140950000D01*
X107561440Y-138450000D01*
X107512157Y-138202235D01*
X107371809Y-137992191D01*
X107161765Y-137851843D01*
X106914000Y-137802560D01*
X104414000Y-137802560D01*
X104166235Y-137851843D01*
X103956191Y-137992191D01*
X103815843Y-138202235D01*
X103766560Y-138450000D01*
X101999793Y-138450000D01*
X101651767Y-138101974D01*
X100958950Y-137815000D01*
X100209050Y-137815000D01*
X99516233Y-138101974D01*
X98985974Y-138632233D01*
X98699000Y-139325050D01*
X97389000Y-139325050D01*
X97102026Y-138632233D01*
X96571767Y-138101974D01*
X95878950Y-137815000D01*
X95129050Y-137815000D01*
X94436233Y-138101974D01*
X93905974Y-138632233D01*
X93619000Y-139325050D01*
X92309000Y-139325050D01*
X92022026Y-138632233D01*
X91491767Y-138101974D01*
X90798950Y-137815000D01*
X90049050Y-137815000D01*
X89356233Y-138101974D01*
X88825974Y-138632233D01*
X88539000Y-139325050D01*
X88127000Y-139325050D01*
X88127000Y-125714561D01*
X89065000Y-125714561D01*
X89065000Y-126285439D01*
X89283466Y-126812862D01*
X89687138Y-127216534D01*
X90214561Y-127435000D01*
X90785439Y-127435000D01*
X91312862Y-127216534D01*
X91576155Y-126953241D01*
X91661673Y-127159699D01*
X91840302Y-127338327D01*
X92073691Y-127435000D01*
X92714250Y-127435000D01*
X92873000Y-127276250D01*
X92873000Y-126127000D01*
X93127000Y-126127000D01*
X93127000Y-127276250D01*
X93285750Y-127435000D01*
X93926309Y-127435000D01*
X94159698Y-127338327D01*
X94338327Y-127159699D01*
X94435000Y-126926310D01*
X94435000Y-126285750D01*
X94276250Y-126127000D01*
X93127000Y-126127000D01*
X92873000Y-126127000D01*
X92853000Y-126127000D01*
X92853000Y-125873000D01*
X92873000Y-125873000D01*
X92873000Y-124723750D01*
X93127000Y-124723750D01*
X93127000Y-125873000D01*
X94276250Y-125873000D01*
X94435000Y-125714250D01*
X94435000Y-125489126D01*
X107900000Y-125489126D01*
X107900000Y-125900874D01*
X108057569Y-126281280D01*
X108348720Y-126572431D01*
X108729126Y-126730000D01*
X108895198Y-126730000D01*
X109426438Y-127261240D01*
X109424000Y-127267126D01*
X109424000Y-127678874D01*
X109581569Y-128059280D01*
X109872720Y-128350431D01*
X110253126Y-128508000D01*
X110664874Y-128508000D01*
X111045280Y-128350431D01*
X111336431Y-128059280D01*
X111494000Y-127678874D01*
X111494000Y-127267126D01*
X111336431Y-126886720D01*
X111045280Y-126595569D01*
X110814977Y-126500175D01*
X109970000Y-125655198D01*
X109970000Y-125489126D01*
X109812431Y-125108720D01*
X109521280Y-124817569D01*
X109140874Y-124660000D01*
X108729126Y-124660000D01*
X108348720Y-124817569D01*
X108057569Y-125108720D01*
X107900000Y-125489126D01*
X94435000Y-125489126D01*
X94435000Y-125073690D01*
X94338327Y-124840301D01*
X94159698Y-124661673D01*
X93926309Y-124565000D01*
X93285750Y-124565000D01*
X93127000Y-124723750D01*
X92873000Y-124723750D01*
X92714250Y-124565000D01*
X92073691Y-124565000D01*
X91840302Y-124661673D01*
X91661673Y-124840301D01*
X91576155Y-125046759D01*
X91312862Y-124783466D01*
X90785439Y-124565000D01*
X90214561Y-124565000D01*
X89687138Y-124783466D01*
X89283466Y-125187138D01*
X89065000Y-125714561D01*
X88127000Y-125714561D01*
X88127000Y-118412126D01*
X114027000Y-118412126D01*
X114027000Y-118823874D01*
X114184569Y-119204280D01*
X114475720Y-119495431D01*
X114856126Y-119653000D01*
X115267874Y-119653000D01*
X115630007Y-119503000D01*
X118303993Y-119503000D01*
X118666126Y-119653000D01*
X119077874Y-119653000D01*
X119458280Y-119495431D01*
X119749431Y-119204280D01*
X119907000Y-118823874D01*
X119907000Y-118412126D01*
X119749431Y-118031720D01*
X119458280Y-117740569D01*
X119077874Y-117583000D01*
X118666126Y-117583000D01*
X118303993Y-117733000D01*
X115630007Y-117733000D01*
X115267874Y-117583000D01*
X114856126Y-117583000D01*
X114475720Y-117740569D01*
X114184569Y-118031720D01*
X114027000Y-118412126D01*
X88127000Y-118412126D01*
X88127000Y-103585750D01*
X95965000Y-103585750D01*
X95965000Y-104801310D01*
X96061673Y-105034699D01*
X96240302Y-105213327D01*
X96473691Y-105310000D01*
X97314250Y-105310000D01*
X97473000Y-105151250D01*
X97473000Y-103427000D01*
X97727000Y-103427000D01*
X97727000Y-105151250D01*
X97885750Y-105310000D01*
X98726309Y-105310000D01*
X98959698Y-105213327D01*
X99138327Y-105034699D01*
X99235000Y-104801310D01*
X99235000Y-103585750D01*
X99765000Y-103585750D01*
X99765000Y-104801310D01*
X99861673Y-105034699D01*
X100040302Y-105213327D01*
X100273691Y-105310000D01*
X101114250Y-105310000D01*
X101273000Y-105151250D01*
X101273000Y-103427000D01*
X101527000Y-103427000D01*
X101527000Y-105151250D01*
X101685750Y-105310000D01*
X102526309Y-105310000D01*
X102759698Y-105213327D01*
X102938327Y-105034699D01*
X103035000Y-104801310D01*
X103035000Y-103585750D01*
X102876250Y-103427000D01*
X101527000Y-103427000D01*
X101273000Y-103427000D01*
X99923750Y-103427000D01*
X99765000Y-103585750D01*
X99235000Y-103585750D01*
X99076250Y-103427000D01*
X97727000Y-103427000D01*
X97473000Y-103427000D01*
X96123750Y-103427000D01*
X95965000Y-103585750D01*
X88127000Y-103585750D01*
X88127000Y-101798690D01*
X95965000Y-101798690D01*
X95965000Y-103014250D01*
X96123750Y-103173000D01*
X97473000Y-103173000D01*
X97473000Y-101448750D01*
X97727000Y-101448750D01*
X97727000Y-103173000D01*
X99076250Y-103173000D01*
X99235000Y-103014250D01*
X99235000Y-101798690D01*
X99765000Y-101798690D01*
X99765000Y-103014250D01*
X99923750Y-103173000D01*
X101273000Y-103173000D01*
X101273000Y-101448750D01*
X101527000Y-101448750D01*
X101527000Y-103173000D01*
X102876250Y-103173000D01*
X103035000Y-103014250D01*
X103035000Y-102425000D01*
X103452560Y-102425000D01*
X103452560Y-104175000D01*
X103539904Y-104614106D01*
X103788637Y-104986363D01*
X104160894Y-105235096D01*
X104600000Y-105322440D01*
X105600000Y-105322440D01*
X106039106Y-105235096D01*
X106411363Y-104986363D01*
X106660096Y-104614106D01*
X106747440Y-104175000D01*
X106747440Y-102425000D01*
X107252560Y-102425000D01*
X107252560Y-104175000D01*
X107339904Y-104614106D01*
X107588637Y-104986363D01*
X107960894Y-105235096D01*
X108400000Y-105322440D01*
X109400000Y-105322440D01*
X109839106Y-105235096D01*
X110211363Y-104986363D01*
X110460096Y-104614106D01*
X110547440Y-104175000D01*
X110547440Y-102425000D01*
X110952560Y-102425000D01*
X110952560Y-104175000D01*
X111039904Y-104614106D01*
X111288637Y-104986363D01*
X111660894Y-105235096D01*
X112100000Y-105322440D01*
X113100000Y-105322440D01*
X113539106Y-105235096D01*
X113911363Y-104986363D01*
X114160096Y-104614106D01*
X114247440Y-104175000D01*
X114247440Y-102425000D01*
X114227549Y-102325000D01*
X114750560Y-102325000D01*
X114750560Y-104075000D01*
X114837904Y-104514106D01*
X115086637Y-104886363D01*
X115458894Y-105135096D01*
X115898000Y-105222440D01*
X116898000Y-105222440D01*
X117337106Y-105135096D01*
X117709363Y-104886363D01*
X117958096Y-104514106D01*
X118045440Y-104075000D01*
X118045440Y-102325000D01*
X117958096Y-101885894D01*
X117709363Y-101513637D01*
X117337106Y-101264904D01*
X116898000Y-101177560D01*
X115898000Y-101177560D01*
X115458894Y-101264904D01*
X115086637Y-101513637D01*
X114837904Y-101885894D01*
X114750560Y-102325000D01*
X114227549Y-102325000D01*
X114160096Y-101985894D01*
X113911363Y-101613637D01*
X113539106Y-101364904D01*
X113100000Y-101277560D01*
X112100000Y-101277560D01*
X111660894Y-101364904D01*
X111288637Y-101613637D01*
X111039904Y-101985894D01*
X110952560Y-102425000D01*
X110547440Y-102425000D01*
X110460096Y-101985894D01*
X110211363Y-101613637D01*
X109839106Y-101364904D01*
X109400000Y-101277560D01*
X108400000Y-101277560D01*
X107960894Y-101364904D01*
X107588637Y-101613637D01*
X107339904Y-101985894D01*
X107252560Y-102425000D01*
X106747440Y-102425000D01*
X106660096Y-101985894D01*
X106411363Y-101613637D01*
X106039106Y-101364904D01*
X105600000Y-101277560D01*
X104600000Y-101277560D01*
X104160894Y-101364904D01*
X103788637Y-101613637D01*
X103539904Y-101985894D01*
X103452560Y-102425000D01*
X103035000Y-102425000D01*
X103035000Y-101798690D01*
X102938327Y-101565301D01*
X102759698Y-101386673D01*
X102526309Y-101290000D01*
X101685750Y-101290000D01*
X101527000Y-101448750D01*
X101273000Y-101448750D01*
X101114250Y-101290000D01*
X100273691Y-101290000D01*
X100040302Y-101386673D01*
X99861673Y-101565301D01*
X99765000Y-101798690D01*
X99235000Y-101798690D01*
X99138327Y-101565301D01*
X98959698Y-101386673D01*
X98726309Y-101290000D01*
X97885750Y-101290000D01*
X97727000Y-101448750D01*
X97473000Y-101448750D01*
X97314250Y-101290000D01*
X96473691Y-101290000D01*
X96240302Y-101386673D01*
X96061673Y-101565301D01*
X95965000Y-101798690D01*
X88127000Y-101798690D01*
X88127000Y-94805609D01*
X88576538Y-94805609D01*
X88580408Y-94843281D01*
X88806920Y-95271474D01*
X89180053Y-95580390D01*
X89643000Y-95723000D01*
X90043000Y-95723000D01*
X90043000Y-94615000D01*
X90297000Y-94615000D01*
X90297000Y-95723000D01*
X90697000Y-95723000D01*
X91159947Y-95580390D01*
X91533080Y-95271474D01*
X91759592Y-94843281D01*
X91763462Y-94805609D01*
X91638731Y-94615000D01*
X90297000Y-94615000D01*
X90043000Y-94615000D01*
X88701269Y-94615000D01*
X88576538Y-94805609D01*
X88127000Y-94805609D01*
X88127000Y-94170391D01*
X88576538Y-94170391D01*
X88701269Y-94361000D01*
X90043000Y-94361000D01*
X90043000Y-93253000D01*
X90297000Y-93253000D01*
X90297000Y-94361000D01*
X91638731Y-94361000D01*
X91763462Y-94170391D01*
X91759592Y-94132719D01*
X91533080Y-93704526D01*
X91159947Y-93395610D01*
X90697000Y-93253000D01*
X90297000Y-93253000D01*
X90043000Y-93253000D01*
X89643000Y-93253000D01*
X89180053Y-93395610D01*
X88806920Y-93704526D01*
X88580408Y-94132719D01*
X88576538Y-94170391D01*
X88127000Y-94170391D01*
X88127000Y-91127000D01*
X88833253Y-91127000D01*
X88606656Y-91466127D01*
X88606656Y-91466127D01*
G37*
X88606656Y-91466127D02*
X88510805Y-91948000D01*
X88606656Y-92429873D01*
X88879615Y-92838385D01*
X89288127Y-93111344D01*
X89648364Y-93183000D01*
X90691636Y-93183000D01*
X91051873Y-93111344D01*
X91460385Y-92838385D01*
X91733344Y-92429873D01*
X91829195Y-91948000D01*
X91733344Y-91466127D01*
X91506747Y-91127000D01*
X120365000Y-91127000D01*
X120365000Y-121282035D01*
X120187435Y-121355585D01*
X119831585Y-121711435D01*
X119639000Y-122176376D01*
X119639000Y-122679624D01*
X119831585Y-123144565D01*
X120187435Y-123500415D01*
X120365000Y-123573965D01*
X120365000Y-125194199D01*
X119065199Y-126494000D01*
X115765683Y-126494000D01*
X115648252Y-126376569D01*
X115267846Y-126219000D01*
X114856098Y-126219000D01*
X114475692Y-126376569D01*
X114184541Y-126667720D01*
X114026972Y-127048126D01*
X114026972Y-127459874D01*
X114184541Y-127840280D01*
X114475692Y-128131431D01*
X114856098Y-128289000D01*
X115267846Y-128289000D01*
X115648252Y-128131431D01*
X115765683Y-128014000D01*
X119305153Y-128014000D01*
X119380000Y-128028888D01*
X119454847Y-128014000D01*
X119454852Y-128014000D01*
X119676537Y-127969904D01*
X119927929Y-127801929D01*
X119970331Y-127738470D01*
X120365000Y-127343801D01*
X120365000Y-136368199D01*
X115174408Y-141558791D01*
X114954256Y-141515000D01*
X114661744Y-141515000D01*
X114228582Y-141601161D01*
X113737375Y-141929375D01*
X113538000Y-142227761D01*
X113338625Y-141929375D01*
X112847418Y-141601161D01*
X112414256Y-141515000D01*
X112121744Y-141515000D01*
X111688582Y-141601161D01*
X111197375Y-141929375D01*
X110869161Y-142420582D01*
X110753908Y-143000000D01*
X110869161Y-143579418D01*
X111065326Y-143873000D01*
X88127000Y-143873000D01*
X88127000Y-139325050D01*
X88539000Y-139325050D01*
X88539000Y-140074950D01*
X88825974Y-140767767D01*
X89356233Y-141298026D01*
X90049050Y-141585000D01*
X90798950Y-141585000D01*
X91491767Y-141298026D01*
X92022026Y-140767767D01*
X92309000Y-140074950D01*
X92309000Y-139325050D01*
X93619000Y-139325050D01*
X93619000Y-140074950D01*
X93905974Y-140767767D01*
X94436233Y-141298026D01*
X95129050Y-141585000D01*
X95878950Y-141585000D01*
X96571767Y-141298026D01*
X97102026Y-140767767D01*
X97389000Y-140074950D01*
X97389000Y-139325050D01*
X98699000Y-139325050D01*
X98699000Y-140074950D01*
X98985974Y-140767767D01*
X99516233Y-141298026D01*
X100209050Y-141585000D01*
X100958950Y-141585000D01*
X101651767Y-141298026D01*
X102182026Y-140767767D01*
X102469000Y-140074950D01*
X102469000Y-139325050D01*
X102182026Y-138632233D01*
X101999793Y-138450000D01*
X103766560Y-138450000D01*
X103766560Y-140950000D01*
X103815843Y-141197765D01*
X103956191Y-141407809D01*
X104166235Y-141548157D01*
X104414000Y-141597440D01*
X106914000Y-141597440D01*
X107161765Y-141548157D01*
X107371809Y-141407809D01*
X107512157Y-141197765D01*
X107561440Y-140950000D01*
X107561440Y-138450000D01*
X107512157Y-138202235D01*
X107371809Y-137992191D01*
X107161765Y-137851843D01*
X106914000Y-137802560D01*
X104414000Y-137802560D01*
X104166235Y-137851843D01*
X103956191Y-137992191D01*
X103815843Y-138202235D01*
X103766560Y-138450000D01*
X101999793Y-138450000D01*
X101651767Y-138101974D01*
X100958950Y-137815000D01*
X100209050Y-137815000D01*
X99516233Y-138101974D01*
X98985974Y-138632233D01*
X98699000Y-139325050D01*
X97389000Y-139325050D01*
X97102026Y-138632233D01*
X96571767Y-138101974D01*
X95878950Y-137815000D01*
X95129050Y-137815000D01*
X94436233Y-138101974D01*
X93905974Y-138632233D01*
X93619000Y-139325050D01*
X92309000Y-139325050D01*
X92022026Y-138632233D01*
X91491767Y-138101974D01*
X90798950Y-137815000D01*
X90049050Y-137815000D01*
X89356233Y-138101974D01*
X88825974Y-138632233D01*
X88539000Y-139325050D01*
X88127000Y-139325050D01*
X88127000Y-125714561D01*
X89065000Y-125714561D01*
X89065000Y-126285439D01*
X89283466Y-126812862D01*
X89687138Y-127216534D01*
X90214561Y-127435000D01*
X90785439Y-127435000D01*
X91312862Y-127216534D01*
X91576155Y-126953241D01*
X91661673Y-127159699D01*
X91840302Y-127338327D01*
X92073691Y-127435000D01*
X92714250Y-127435000D01*
X92873000Y-127276250D01*
X92873000Y-126127000D01*
X93127000Y-126127000D01*
X93127000Y-127276250D01*
X93285750Y-127435000D01*
X93926309Y-127435000D01*
X94159698Y-127338327D01*
X94338327Y-127159699D01*
X94435000Y-126926310D01*
X94435000Y-126285750D01*
X94276250Y-126127000D01*
X93127000Y-126127000D01*
X92873000Y-126127000D01*
X92853000Y-126127000D01*
X92853000Y-125873000D01*
X92873000Y-125873000D01*
X92873000Y-124723750D01*
X93127000Y-124723750D01*
X93127000Y-125873000D01*
X94276250Y-125873000D01*
X94435000Y-125714250D01*
X94435000Y-125489126D01*
X107900000Y-125489126D01*
X107900000Y-125900874D01*
X108057569Y-126281280D01*
X108348720Y-126572431D01*
X108729126Y-126730000D01*
X108895198Y-126730000D01*
X109426438Y-127261240D01*
X109424000Y-127267126D01*
X109424000Y-127678874D01*
X109581569Y-128059280D01*
X109872720Y-128350431D01*
X110253126Y-128508000D01*
X110664874Y-128508000D01*
X111045280Y-128350431D01*
X111336431Y-128059280D01*
X111494000Y-127678874D01*
X111494000Y-127267126D01*
X111336431Y-126886720D01*
X111045280Y-126595569D01*
X110814977Y-126500175D01*
X109970000Y-125655198D01*
X109970000Y-125489126D01*
X109812431Y-125108720D01*
X109521280Y-124817569D01*
X109140874Y-124660000D01*
X108729126Y-124660000D01*
X108348720Y-124817569D01*
X108057569Y-125108720D01*
X107900000Y-125489126D01*
X94435000Y-125489126D01*
X94435000Y-125073690D01*
X94338327Y-124840301D01*
X94159698Y-124661673D01*
X93926309Y-124565000D01*
X93285750Y-124565000D01*
X93127000Y-124723750D01*
X92873000Y-124723750D01*
X92714250Y-124565000D01*
X92073691Y-124565000D01*
X91840302Y-124661673D01*
X91661673Y-124840301D01*
X91576155Y-125046759D01*
X91312862Y-124783466D01*
X90785439Y-124565000D01*
X90214561Y-124565000D01*
X89687138Y-124783466D01*
X89283466Y-125187138D01*
X89065000Y-125714561D01*
X88127000Y-125714561D01*
X88127000Y-118412126D01*
X114027000Y-118412126D01*
X114027000Y-118823874D01*
X114184569Y-119204280D01*
X114475720Y-119495431D01*
X114856126Y-119653000D01*
X115267874Y-119653000D01*
X115630007Y-119503000D01*
X118303993Y-119503000D01*
X118666126Y-119653000D01*
X119077874Y-119653000D01*
X119458280Y-119495431D01*
X119749431Y-119204280D01*
X119907000Y-118823874D01*
X119907000Y-118412126D01*
X119749431Y-118031720D01*
X119458280Y-117740569D01*
X119077874Y-117583000D01*
X118666126Y-117583000D01*
X118303993Y-117733000D01*
X115630007Y-117733000D01*
X115267874Y-117583000D01*
X114856126Y-117583000D01*
X114475720Y-117740569D01*
X114184569Y-118031720D01*
X114027000Y-118412126D01*
X88127000Y-118412126D01*
X88127000Y-103585750D01*
X95965000Y-103585750D01*
X95965000Y-104801310D01*
X96061673Y-105034699D01*
X96240302Y-105213327D01*
X96473691Y-105310000D01*
X97314250Y-105310000D01*
X97473000Y-105151250D01*
X97473000Y-103427000D01*
X97727000Y-103427000D01*
X97727000Y-105151250D01*
X97885750Y-105310000D01*
X98726309Y-105310000D01*
X98959698Y-105213327D01*
X99138327Y-105034699D01*
X99235000Y-104801310D01*
X99235000Y-103585750D01*
X99765000Y-103585750D01*
X99765000Y-104801310D01*
X99861673Y-105034699D01*
X100040302Y-105213327D01*
X100273691Y-105310000D01*
X101114250Y-105310000D01*
X101273000Y-105151250D01*
X101273000Y-103427000D01*
X101527000Y-103427000D01*
X101527000Y-105151250D01*
X101685750Y-105310000D01*
X102526309Y-105310000D01*
X102759698Y-105213327D01*
X102938327Y-105034699D01*
X103035000Y-104801310D01*
X103035000Y-103585750D01*
X102876250Y-103427000D01*
X101527000Y-103427000D01*
X101273000Y-103427000D01*
X99923750Y-103427000D01*
X99765000Y-103585750D01*
X99235000Y-103585750D01*
X99076250Y-103427000D01*
X97727000Y-103427000D01*
X97473000Y-103427000D01*
X96123750Y-103427000D01*
X95965000Y-103585750D01*
X88127000Y-103585750D01*
X88127000Y-101798690D01*
X95965000Y-101798690D01*
X95965000Y-103014250D01*
X96123750Y-103173000D01*
X97473000Y-103173000D01*
X97473000Y-101448750D01*
X97727000Y-101448750D01*
X97727000Y-103173000D01*
X99076250Y-103173000D01*
X99235000Y-103014250D01*
X99235000Y-101798690D01*
X99765000Y-101798690D01*
X99765000Y-103014250D01*
X99923750Y-103173000D01*
X101273000Y-103173000D01*
X101273000Y-101448750D01*
X101527000Y-101448750D01*
X101527000Y-103173000D01*
X102876250Y-103173000D01*
X103035000Y-103014250D01*
X103035000Y-102425000D01*
X103452560Y-102425000D01*
X103452560Y-104175000D01*
X103539904Y-104614106D01*
X103788637Y-104986363D01*
X104160894Y-105235096D01*
X104600000Y-105322440D01*
X105600000Y-105322440D01*
X106039106Y-105235096D01*
X106411363Y-104986363D01*
X106660096Y-104614106D01*
X106747440Y-104175000D01*
X106747440Y-102425000D01*
X107252560Y-102425000D01*
X107252560Y-104175000D01*
X107339904Y-104614106D01*
X107588637Y-104986363D01*
X107960894Y-105235096D01*
X108400000Y-105322440D01*
X109400000Y-105322440D01*
X109839106Y-105235096D01*
X110211363Y-104986363D01*
X110460096Y-104614106D01*
X110547440Y-104175000D01*
X110547440Y-102425000D01*
X110952560Y-102425000D01*
X110952560Y-104175000D01*
X111039904Y-104614106D01*
X111288637Y-104986363D01*
X111660894Y-105235096D01*
X112100000Y-105322440D01*
X113100000Y-105322440D01*
X113539106Y-105235096D01*
X113911363Y-104986363D01*
X114160096Y-104614106D01*
X114247440Y-104175000D01*
X114247440Y-102425000D01*
X114227549Y-102325000D01*
X114750560Y-102325000D01*
X114750560Y-104075000D01*
X114837904Y-104514106D01*
X115086637Y-104886363D01*
X115458894Y-105135096D01*
X115898000Y-105222440D01*
X116898000Y-105222440D01*
X117337106Y-105135096D01*
X117709363Y-104886363D01*
X117958096Y-104514106D01*
X118045440Y-104075000D01*
X118045440Y-102325000D01*
X117958096Y-101885894D01*
X117709363Y-101513637D01*
X117337106Y-101264904D01*
X116898000Y-101177560D01*
X115898000Y-101177560D01*
X115458894Y-101264904D01*
X115086637Y-101513637D01*
X114837904Y-101885894D01*
X114750560Y-102325000D01*
X114227549Y-102325000D01*
X114160096Y-101985894D01*
X113911363Y-101613637D01*
X113539106Y-101364904D01*
X113100000Y-101277560D01*
X112100000Y-101277560D01*
X111660894Y-101364904D01*
X111288637Y-101613637D01*
X111039904Y-101985894D01*
X110952560Y-102425000D01*
X110547440Y-102425000D01*
X110460096Y-101985894D01*
X110211363Y-101613637D01*
X109839106Y-101364904D01*
X109400000Y-101277560D01*
X108400000Y-101277560D01*
X107960894Y-101364904D01*
X107588637Y-101613637D01*
X107339904Y-101985894D01*
X107252560Y-102425000D01*
X106747440Y-102425000D01*
X106660096Y-101985894D01*
X106411363Y-101613637D01*
X106039106Y-101364904D01*
X105600000Y-101277560D01*
X104600000Y-101277560D01*
X104160894Y-101364904D01*
X103788637Y-101613637D01*
X103539904Y-101985894D01*
X103452560Y-102425000D01*
X103035000Y-102425000D01*
X103035000Y-101798690D01*
X102938327Y-101565301D01*
X102759698Y-101386673D01*
X102526309Y-101290000D01*
X101685750Y-101290000D01*
X101527000Y-101448750D01*
X101273000Y-101448750D01*
X101114250Y-101290000D01*
X100273691Y-101290000D01*
X100040302Y-101386673D01*
X99861673Y-101565301D01*
X99765000Y-101798690D01*
X99235000Y-101798690D01*
X99138327Y-101565301D01*
X98959698Y-101386673D01*
X98726309Y-101290000D01*
X97885750Y-101290000D01*
X97727000Y-101448750D01*
X97473000Y-101448750D01*
X97314250Y-101290000D01*
X96473691Y-101290000D01*
X96240302Y-101386673D01*
X96061673Y-101565301D01*
X95965000Y-101798690D01*
X88127000Y-101798690D01*
X88127000Y-94805609D01*
X88576538Y-94805609D01*
X88580408Y-94843281D01*
X88806920Y-95271474D01*
X89180053Y-95580390D01*
X89643000Y-95723000D01*
X90043000Y-95723000D01*
X90043000Y-94615000D01*
X90297000Y-94615000D01*
X90297000Y-95723000D01*
X90697000Y-95723000D01*
X91159947Y-95580390D01*
X91533080Y-95271474D01*
X91759592Y-94843281D01*
X91763462Y-94805609D01*
X91638731Y-94615000D01*
X90297000Y-94615000D01*
X90043000Y-94615000D01*
X88701269Y-94615000D01*
X88576538Y-94805609D01*
X88127000Y-94805609D01*
X88127000Y-94170391D01*
X88576538Y-94170391D01*
X88701269Y-94361000D01*
X90043000Y-94361000D01*
X90043000Y-93253000D01*
X90297000Y-93253000D01*
X90297000Y-94361000D01*
X91638731Y-94361000D01*
X91763462Y-94170391D01*
X91759592Y-94132719D01*
X91533080Y-93704526D01*
X91159947Y-93395610D01*
X90697000Y-93253000D01*
X90297000Y-93253000D01*
X90043000Y-93253000D01*
X89643000Y-93253000D01*
X89180053Y-93395610D01*
X88806920Y-93704526D01*
X88580408Y-94132719D01*
X88576538Y-94170391D01*
X88127000Y-94170391D01*
X88127000Y-91127000D01*
X88833253Y-91127000D01*
X88606656Y-91466127D01*
G04 #@! TO.N,+5V*
G36*
X133368096Y-133030961D02*
X133490085Y-133253000D01*
X134633000Y-133253000D01*
X134633000Y-133233000D01*
X134887000Y-133233000D01*
X134887000Y-133253000D01*
X136029915Y-133253000D01*
X136151904Y-133030961D01*
X136025180Y-132725001D01*
X148711797Y-132725001D01*
X148648260Y-132820091D01*
X148536887Y-133380000D01*
X148648260Y-133939909D01*
X148965423Y-134414577D01*
X149317758Y-134650000D01*
X148965423Y-134885423D01*
X148648260Y-135360091D01*
X148536887Y-135920000D01*
X148648260Y-136479909D01*
X148965423Y-136954577D01*
X149317758Y-137190000D01*
X148965423Y-137425423D01*
X148648260Y-137900091D01*
X148536887Y-138460000D01*
X148648260Y-139019909D01*
X148965423Y-139494577D01*
X149086106Y-139575215D01*
X148952235Y-139601843D01*
X148742191Y-139742191D01*
X148601843Y-139952235D01*
X148552560Y-140200000D01*
X148552560Y-141800000D01*
X148601843Y-142047765D01*
X148742191Y-142257809D01*
X148952235Y-142398157D01*
X149200000Y-142447440D01*
X149873000Y-142447440D01*
X149873000Y-143873000D01*
X131110691Y-143873000D01*
X131185908Y-143670539D01*
X131161856Y-143020540D01*
X130959387Y-142531736D01*
X130692532Y-142433073D01*
X129719605Y-143406000D01*
X129733748Y-143420143D01*
X129554143Y-143599748D01*
X129540000Y-143585605D01*
X129525858Y-143599748D01*
X129346253Y-143420143D01*
X129360395Y-143406000D01*
X128387468Y-142433073D01*
X128120613Y-142531736D01*
X127894092Y-143141461D01*
X127918144Y-143791460D01*
X127951919Y-143873000D01*
X126616274Y-143873000D01*
X126675000Y-143731222D01*
X126675000Y-143080778D01*
X126426086Y-142479847D01*
X126199707Y-142253468D01*
X128567073Y-142253468D01*
X129540000Y-143226395D01*
X130512927Y-142253468D01*
X130414264Y-141986613D01*
X129804539Y-141760092D01*
X129154540Y-141784144D01*
X128665736Y-141986613D01*
X128567073Y-142253468D01*
X126199707Y-142253468D01*
X125966153Y-142019914D01*
X125800000Y-141951091D01*
X125800000Y-138360909D01*
X125966153Y-138292086D01*
X126199707Y-138058532D01*
X128567073Y-138058532D01*
X128665736Y-138325387D01*
X129275461Y-138551908D01*
X129925460Y-138527856D01*
X130414264Y-138325387D01*
X130512927Y-138058532D01*
X129540000Y-137085605D01*
X128567073Y-138058532D01*
X126199707Y-138058532D01*
X126426086Y-137832153D01*
X126675000Y-137231222D01*
X126675000Y-136641461D01*
X127894092Y-136641461D01*
X127918144Y-137291460D01*
X128120613Y-137780264D01*
X128387468Y-137878927D01*
X129360395Y-136906000D01*
X129719605Y-136906000D01*
X130692532Y-137878927D01*
X130959387Y-137780264D01*
X131185908Y-137170539D01*
X131161856Y-136520540D01*
X130959387Y-136031736D01*
X130692532Y-135933073D01*
X129719605Y-136906000D01*
X129360395Y-136906000D01*
X128387468Y-135933073D01*
X128120613Y-136031736D01*
X127894092Y-136641461D01*
X126675000Y-136641461D01*
X126675000Y-136580778D01*
X126426086Y-135979847D01*
X126199707Y-135753468D01*
X128567073Y-135753468D01*
X129540000Y-136726395D01*
X130346395Y-135920000D01*
X133296887Y-135920000D01*
X133408260Y-136479909D01*
X133725423Y-136954577D01*
X134077758Y-137190000D01*
X133725423Y-137425423D01*
X133408260Y-137900091D01*
X133296887Y-138460000D01*
X133408260Y-139019909D01*
X133725423Y-139494577D01*
X134077758Y-139730000D01*
X133725423Y-139965423D01*
X133408260Y-140440091D01*
X133296887Y-141000000D01*
X133408260Y-141559909D01*
X133725423Y-142034577D01*
X134200091Y-142351740D01*
X134618667Y-142435000D01*
X134901333Y-142435000D01*
X135319909Y-142351740D01*
X135794577Y-142034577D01*
X136111740Y-141559909D01*
X136223113Y-141000000D01*
X136111740Y-140440091D01*
X135794577Y-139965423D01*
X135442242Y-139730000D01*
X135794577Y-139494577D01*
X136111740Y-139019909D01*
X136223113Y-138460000D01*
X136111740Y-137900091D01*
X135794577Y-137425423D01*
X135442242Y-137190000D01*
X135794577Y-136954577D01*
X136111740Y-136479909D01*
X136223113Y-135920000D01*
X136111740Y-135360091D01*
X135794577Y-134885423D01*
X135410892Y-134629053D01*
X135615134Y-134532389D01*
X135991041Y-134117423D01*
X136151904Y-133729039D01*
X136029915Y-133507000D01*
X134887000Y-133507000D01*
X134887000Y-133527000D01*
X134633000Y-133527000D01*
X134633000Y-133507000D01*
X133490085Y-133507000D01*
X133368096Y-133729039D01*
X133528959Y-134117423D01*
X133904866Y-134532389D01*
X134109108Y-134629053D01*
X133725423Y-134885423D01*
X133408260Y-135360091D01*
X133296887Y-135920000D01*
X130346395Y-135920000D01*
X130512927Y-135753468D01*
X130414264Y-135486613D01*
X129804539Y-135260092D01*
X129154540Y-135284144D01*
X128665736Y-135486613D01*
X128567073Y-135753468D01*
X126199707Y-135753468D01*
X125966153Y-135519914D01*
X125664737Y-135395063D01*
X128334799Y-132725001D01*
X133494820Y-132725001D01*
X133368096Y-133030961D01*
X133368096Y-133030961D01*
G37*
X133368096Y-133030961D02*
X133490085Y-133253000D01*
X134633000Y-133253000D01*
X134633000Y-133233000D01*
X134887000Y-133233000D01*
X134887000Y-133253000D01*
X136029915Y-133253000D01*
X136151904Y-133030961D01*
X136025180Y-132725001D01*
X148711797Y-132725001D01*
X148648260Y-132820091D01*
X148536887Y-133380000D01*
X148648260Y-133939909D01*
X148965423Y-134414577D01*
X149317758Y-134650000D01*
X148965423Y-134885423D01*
X148648260Y-135360091D01*
X148536887Y-135920000D01*
X148648260Y-136479909D01*
X148965423Y-136954577D01*
X149317758Y-137190000D01*
X148965423Y-137425423D01*
X148648260Y-137900091D01*
X148536887Y-138460000D01*
X148648260Y-139019909D01*
X148965423Y-139494577D01*
X149086106Y-139575215D01*
X148952235Y-139601843D01*
X148742191Y-139742191D01*
X148601843Y-139952235D01*
X148552560Y-140200000D01*
X148552560Y-141800000D01*
X148601843Y-142047765D01*
X148742191Y-142257809D01*
X148952235Y-142398157D01*
X149200000Y-142447440D01*
X149873000Y-142447440D01*
X149873000Y-143873000D01*
X131110691Y-143873000D01*
X131185908Y-143670539D01*
X131161856Y-143020540D01*
X130959387Y-142531736D01*
X130692532Y-142433073D01*
X129719605Y-143406000D01*
X129733748Y-143420143D01*
X129554143Y-143599748D01*
X129540000Y-143585605D01*
X129525858Y-143599748D01*
X129346253Y-143420143D01*
X129360395Y-143406000D01*
X128387468Y-142433073D01*
X128120613Y-142531736D01*
X127894092Y-143141461D01*
X127918144Y-143791460D01*
X127951919Y-143873000D01*
X126616274Y-143873000D01*
X126675000Y-143731222D01*
X126675000Y-143080778D01*
X126426086Y-142479847D01*
X126199707Y-142253468D01*
X128567073Y-142253468D01*
X129540000Y-143226395D01*
X130512927Y-142253468D01*
X130414264Y-141986613D01*
X129804539Y-141760092D01*
X129154540Y-141784144D01*
X128665736Y-141986613D01*
X128567073Y-142253468D01*
X126199707Y-142253468D01*
X125966153Y-142019914D01*
X125800000Y-141951091D01*
X125800000Y-138360909D01*
X125966153Y-138292086D01*
X126199707Y-138058532D01*
X128567073Y-138058532D01*
X128665736Y-138325387D01*
X129275461Y-138551908D01*
X129925460Y-138527856D01*
X130414264Y-138325387D01*
X130512927Y-138058532D01*
X129540000Y-137085605D01*
X128567073Y-138058532D01*
X126199707Y-138058532D01*
X126426086Y-137832153D01*
X126675000Y-137231222D01*
X126675000Y-136641461D01*
X127894092Y-136641461D01*
X127918144Y-137291460D01*
X128120613Y-137780264D01*
X128387468Y-137878927D01*
X129360395Y-136906000D01*
X129719605Y-136906000D01*
X130692532Y-137878927D01*
X130959387Y-137780264D01*
X131185908Y-137170539D01*
X131161856Y-136520540D01*
X130959387Y-136031736D01*
X130692532Y-135933073D01*
X129719605Y-136906000D01*
X129360395Y-136906000D01*
X128387468Y-135933073D01*
X128120613Y-136031736D01*
X127894092Y-136641461D01*
X126675000Y-136641461D01*
X126675000Y-136580778D01*
X126426086Y-135979847D01*
X126199707Y-135753468D01*
X128567073Y-135753468D01*
X129540000Y-136726395D01*
X130346395Y-135920000D01*
X133296887Y-135920000D01*
X133408260Y-136479909D01*
X133725423Y-136954577D01*
X134077758Y-137190000D01*
X133725423Y-137425423D01*
X133408260Y-137900091D01*
X133296887Y-138460000D01*
X133408260Y-139019909D01*
X133725423Y-139494577D01*
X134077758Y-139730000D01*
X133725423Y-139965423D01*
X133408260Y-140440091D01*
X133296887Y-141000000D01*
X133408260Y-141559909D01*
X133725423Y-142034577D01*
X134200091Y-142351740D01*
X134618667Y-142435000D01*
X134901333Y-142435000D01*
X135319909Y-142351740D01*
X135794577Y-142034577D01*
X136111740Y-141559909D01*
X136223113Y-141000000D01*
X136111740Y-140440091D01*
X135794577Y-139965423D01*
X135442242Y-139730000D01*
X135794577Y-139494577D01*
X136111740Y-139019909D01*
X136223113Y-138460000D01*
X136111740Y-137900091D01*
X135794577Y-137425423D01*
X135442242Y-137190000D01*
X135794577Y-136954577D01*
X136111740Y-136479909D01*
X136223113Y-135920000D01*
X136111740Y-135360091D01*
X135794577Y-134885423D01*
X135410892Y-134629053D01*
X135615134Y-134532389D01*
X135991041Y-134117423D01*
X136151904Y-133729039D01*
X136029915Y-133507000D01*
X134887000Y-133507000D01*
X134887000Y-133527000D01*
X134633000Y-133527000D01*
X134633000Y-133507000D01*
X133490085Y-133507000D01*
X133368096Y-133729039D01*
X133528959Y-134117423D01*
X133904866Y-134532389D01*
X134109108Y-134629053D01*
X133725423Y-134885423D01*
X133408260Y-135360091D01*
X133296887Y-135920000D01*
X130346395Y-135920000D01*
X130512927Y-135753468D01*
X130414264Y-135486613D01*
X129804539Y-135260092D01*
X129154540Y-135284144D01*
X128665736Y-135486613D01*
X128567073Y-135753468D01*
X126199707Y-135753468D01*
X125966153Y-135519914D01*
X125664737Y-135395063D01*
X128334799Y-132725001D01*
X133494820Y-132725001D01*
X133368096Y-133030961D01*
G36*
X149873000Y-92405434D02*
X148459210Y-92405434D01*
X148211445Y-92454717D01*
X148001401Y-92595065D01*
X147861053Y-92805109D01*
X147811770Y-93052874D01*
X147811770Y-94752874D01*
X147861053Y-95000639D01*
X148001401Y-95210683D01*
X148211445Y-95351031D01*
X148256829Y-95360058D01*
X148238585Y-95372249D01*
X147910371Y-95863456D01*
X147795118Y-96442874D01*
X147910371Y-97022292D01*
X148238585Y-97513499D01*
X148729792Y-97841713D01*
X149162954Y-97927874D01*
X149455466Y-97927874D01*
X149873000Y-97844822D01*
X149873000Y-104005000D01*
X149858667Y-104005000D01*
X149440091Y-104088260D01*
X148965423Y-104405423D01*
X148648260Y-104880091D01*
X148536887Y-105440000D01*
X148648260Y-105999909D01*
X148965423Y-106474577D01*
X149317758Y-106710000D01*
X148965423Y-106945423D01*
X148648260Y-107420091D01*
X148536887Y-107980000D01*
X148648260Y-108539909D01*
X148965423Y-109014577D01*
X149317758Y-109250000D01*
X148965423Y-109485423D01*
X148648260Y-109960091D01*
X148536887Y-110520000D01*
X148648260Y-111079909D01*
X148965423Y-111554577D01*
X149317758Y-111790000D01*
X148965423Y-112025423D01*
X148648260Y-112500091D01*
X148536887Y-113060000D01*
X148648260Y-113619909D01*
X148965423Y-114094577D01*
X149317758Y-114330000D01*
X148965423Y-114565423D01*
X148648260Y-115040091D01*
X148536887Y-115600000D01*
X148648260Y-116159909D01*
X148965423Y-116634577D01*
X149317758Y-116870000D01*
X148965423Y-117105423D01*
X148648260Y-117580091D01*
X148536887Y-118140000D01*
X148648260Y-118699909D01*
X148965423Y-119174577D01*
X149317758Y-119410000D01*
X148965423Y-119645423D01*
X148648260Y-120120091D01*
X148536887Y-120680000D01*
X148648260Y-121239909D01*
X148965423Y-121714577D01*
X149317758Y-121950000D01*
X148965423Y-122185423D01*
X148781957Y-122460000D01*
X141522848Y-122460000D01*
X141448000Y-122445112D01*
X141373152Y-122460000D01*
X141373148Y-122460000D01*
X141199605Y-122494520D01*
X141151462Y-122504096D01*
X140964418Y-122629076D01*
X140900071Y-122672071D01*
X140857671Y-122735527D01*
X138707528Y-124885671D01*
X138644072Y-124928071D01*
X138601672Y-124991527D01*
X138601671Y-124991528D01*
X138476097Y-125179463D01*
X138417112Y-125476000D01*
X138432001Y-125550851D01*
X138432001Y-126042288D01*
X138314569Y-126159720D01*
X138157000Y-126540126D01*
X138157000Y-126951874D01*
X138314569Y-127332280D01*
X138605720Y-127623431D01*
X138986126Y-127781000D01*
X139397874Y-127781000D01*
X139778280Y-127623431D01*
X140069431Y-127332280D01*
X140227000Y-126951874D01*
X140227000Y-126540126D01*
X140069431Y-126159720D01*
X139952000Y-126042289D01*
X139952000Y-125790801D01*
X141762802Y-123980000D01*
X148781957Y-123980000D01*
X148965423Y-124254577D01*
X149317758Y-124490000D01*
X148965423Y-124725423D01*
X148648260Y-125200091D01*
X148536887Y-125760000D01*
X148648260Y-126319909D01*
X148965423Y-126794577D01*
X149317758Y-127030000D01*
X148965423Y-127265423D01*
X148648260Y-127740091D01*
X148536887Y-128300000D01*
X148601312Y-128623887D01*
X148560198Y-128665001D01*
X136150510Y-128665001D01*
X136223113Y-128300000D01*
X136111740Y-127740091D01*
X135794577Y-127265423D01*
X135442242Y-127030000D01*
X135794577Y-126794577D01*
X136111740Y-126319909D01*
X136223113Y-125760000D01*
X136111740Y-125200091D01*
X135794577Y-124725423D01*
X135442242Y-124490000D01*
X135794577Y-124254577D01*
X136111740Y-123779909D01*
X136223113Y-123220000D01*
X136111740Y-122660091D01*
X135794577Y-122185423D01*
X135442242Y-121950000D01*
X135794577Y-121714577D01*
X136111740Y-121239909D01*
X136223113Y-120680000D01*
X136111740Y-120120091D01*
X135794577Y-119645423D01*
X135442242Y-119410000D01*
X135794577Y-119174577D01*
X136111740Y-118699909D01*
X136223113Y-118140000D01*
X136111740Y-117580091D01*
X135794577Y-117105423D01*
X135442242Y-116870000D01*
X135794577Y-116634577D01*
X136111740Y-116159909D01*
X136223113Y-115600000D01*
X136111740Y-115040091D01*
X135794577Y-114565423D01*
X135442242Y-114330000D01*
X135794577Y-114094577D01*
X136111740Y-113619909D01*
X136223113Y-113060000D01*
X136111740Y-112500091D01*
X135794577Y-112025423D01*
X135442242Y-111790000D01*
X135794577Y-111554577D01*
X136111740Y-111079909D01*
X136223113Y-110520000D01*
X136111740Y-109960091D01*
X135794577Y-109485423D01*
X135442242Y-109250000D01*
X135794577Y-109014577D01*
X136111740Y-108539909D01*
X136223113Y-107980000D01*
X136111740Y-107420091D01*
X135794577Y-106945423D01*
X135442242Y-106710000D01*
X135794577Y-106474577D01*
X136111740Y-105999909D01*
X136223113Y-105440000D01*
X136111740Y-104880091D01*
X135794577Y-104405423D01*
X135319909Y-104088260D01*
X134901333Y-104005000D01*
X134618667Y-104005000D01*
X134200091Y-104088260D01*
X133725423Y-104405423D01*
X133408260Y-104880091D01*
X133296887Y-105440000D01*
X133408260Y-105999909D01*
X133725423Y-106474577D01*
X134077758Y-106710000D01*
X133725423Y-106945423D01*
X133408260Y-107420091D01*
X133296887Y-107980000D01*
X133408260Y-108539909D01*
X133725423Y-109014577D01*
X134077758Y-109250000D01*
X133725423Y-109485423D01*
X133408260Y-109960091D01*
X133296887Y-110520000D01*
X133387787Y-110976986D01*
X130575000Y-108164199D01*
X130575000Y-107998126D01*
X130417431Y-107617720D01*
X130126280Y-107326569D01*
X129745874Y-107169000D01*
X129334126Y-107169000D01*
X128953720Y-107326569D01*
X128662569Y-107617720D01*
X128505000Y-107998126D01*
X128505000Y-108409874D01*
X128662569Y-108790280D01*
X128953720Y-109081431D01*
X129334126Y-109239000D01*
X129500199Y-109239000D01*
X133300920Y-113039722D01*
X133296887Y-113060000D01*
X133408260Y-113619909D01*
X133725423Y-114094577D01*
X134077758Y-114330000D01*
X133725423Y-114565423D01*
X133408260Y-115040091D01*
X133296887Y-115600000D01*
X133408260Y-116159909D01*
X133725423Y-116634577D01*
X134077758Y-116870000D01*
X133725423Y-117105423D01*
X133408260Y-117580091D01*
X133296887Y-118140000D01*
X133408260Y-118699909D01*
X133725423Y-119174577D01*
X134077758Y-119410000D01*
X133725423Y-119645423D01*
X133408260Y-120120091D01*
X133296887Y-120680000D01*
X133408260Y-121239909D01*
X133725423Y-121714577D01*
X134077758Y-121950000D01*
X133725423Y-122185423D01*
X133408260Y-122660091D01*
X133296887Y-123220000D01*
X133408260Y-123779909D01*
X133725423Y-124254577D01*
X134077758Y-124490000D01*
X133725423Y-124725423D01*
X133408260Y-125200091D01*
X133296887Y-125760000D01*
X133408260Y-126319909D01*
X133725423Y-126794577D01*
X134077758Y-127030000D01*
X133725423Y-127265423D01*
X133408260Y-127740091D01*
X133296887Y-128300000D01*
X133369490Y-128665001D01*
X128457847Y-128665001D01*
X128382999Y-128650113D01*
X128308151Y-128665001D01*
X128308147Y-128665001D01*
X128134604Y-128699521D01*
X128086461Y-128709097D01*
X127973654Y-128784473D01*
X127835070Y-128877072D01*
X127792670Y-128940528D01*
X121127000Y-135606198D01*
X121127000Y-126581801D01*
X122269849Y-125438952D01*
X122371585Y-125684565D01*
X122727435Y-126040415D01*
X123192376Y-126233000D01*
X123695624Y-126233000D01*
X124160565Y-126040415D01*
X124516415Y-125684565D01*
X124709000Y-125219624D01*
X124709000Y-124716376D01*
X124516415Y-124251435D01*
X124160565Y-123895585D01*
X123914952Y-123793849D01*
X130849802Y-116859000D01*
X131015874Y-116859000D01*
X131396280Y-116701431D01*
X131687431Y-116410280D01*
X131845000Y-116029874D01*
X131845000Y-115618126D01*
X131687431Y-115237720D01*
X131396280Y-114946569D01*
X131015874Y-114789000D01*
X130604126Y-114789000D01*
X130223720Y-114946569D01*
X129932569Y-115237720D01*
X129775000Y-115618126D01*
X129775000Y-115784198D01*
X121127000Y-124432199D01*
X121127000Y-123693000D01*
X121155624Y-123693000D01*
X121620565Y-123500415D01*
X121976415Y-123144565D01*
X122169000Y-122679624D01*
X122169000Y-122176376D01*
X121976415Y-121711435D01*
X121620565Y-121355585D01*
X121155624Y-121163000D01*
X121127000Y-121163000D01*
X121127000Y-119636376D01*
X122179000Y-119636376D01*
X122179000Y-120139624D01*
X122371585Y-120604565D01*
X122727435Y-120960415D01*
X123192376Y-121153000D01*
X123695624Y-121153000D01*
X124160565Y-120960415D01*
X124516415Y-120604565D01*
X124709000Y-120139624D01*
X124709000Y-119636376D01*
X124516415Y-119171435D01*
X124160565Y-118815585D01*
X123695624Y-118623000D01*
X123192376Y-118623000D01*
X122727435Y-118815585D01*
X122371585Y-119171435D01*
X122179000Y-119636376D01*
X121127000Y-119636376D01*
X121127000Y-116151239D01*
X121319847Y-116344086D01*
X121920778Y-116593000D01*
X122571222Y-116593000D01*
X123172153Y-116344086D01*
X123405707Y-116110532D01*
X125773073Y-116110532D01*
X125871736Y-116377387D01*
X126481461Y-116603908D01*
X127131460Y-116579856D01*
X127620264Y-116377387D01*
X127718927Y-116110532D01*
X126746000Y-115137605D01*
X125773073Y-116110532D01*
X123405707Y-116110532D01*
X123632086Y-115884153D01*
X123881000Y-115283222D01*
X123881000Y-114693461D01*
X125100092Y-114693461D01*
X125124144Y-115343460D01*
X125326613Y-115832264D01*
X125593468Y-115930927D01*
X126566395Y-114958000D01*
X126925605Y-114958000D01*
X127898532Y-115930927D01*
X128165387Y-115832264D01*
X128391908Y-115222539D01*
X128367856Y-114572540D01*
X128165387Y-114083736D01*
X127898532Y-113985073D01*
X126925605Y-114958000D01*
X126566395Y-114958000D01*
X125593468Y-113985073D01*
X125326613Y-114083736D01*
X125100092Y-114693461D01*
X123881000Y-114693461D01*
X123881000Y-114632778D01*
X123632086Y-114031847D01*
X123405707Y-113805468D01*
X125773073Y-113805468D01*
X126746000Y-114778395D01*
X127718927Y-113805468D01*
X127620264Y-113538613D01*
X127010539Y-113312092D01*
X126360540Y-113336144D01*
X125871736Y-113538613D01*
X125773073Y-113805468D01*
X123405707Y-113805468D01*
X123172153Y-113571914D01*
X123006000Y-113503091D01*
X123006000Y-109912909D01*
X123172153Y-109844086D01*
X123405707Y-109610532D01*
X125773073Y-109610532D01*
X125871736Y-109877387D01*
X126481461Y-110103908D01*
X127131460Y-110079856D01*
X127620264Y-109877387D01*
X127718927Y-109610532D01*
X126746000Y-108637605D01*
X125773073Y-109610532D01*
X123405707Y-109610532D01*
X123632086Y-109384153D01*
X123881000Y-108783222D01*
X123881000Y-108193461D01*
X125100092Y-108193461D01*
X125124144Y-108843460D01*
X125326613Y-109332264D01*
X125593468Y-109430927D01*
X126566395Y-108458000D01*
X126925605Y-108458000D01*
X127898532Y-109430927D01*
X128165387Y-109332264D01*
X128391908Y-108722539D01*
X128367856Y-108072540D01*
X128165387Y-107583736D01*
X127898532Y-107485073D01*
X126925605Y-108458000D01*
X126566395Y-108458000D01*
X125593468Y-107485073D01*
X125326613Y-107583736D01*
X125100092Y-108193461D01*
X123881000Y-108193461D01*
X123881000Y-108132778D01*
X123632086Y-107531847D01*
X123405707Y-107305468D01*
X125773073Y-107305468D01*
X126746000Y-108278395D01*
X127718927Y-107305468D01*
X127620264Y-107038613D01*
X127010539Y-106812092D01*
X126360540Y-106836144D01*
X125871736Y-107038613D01*
X125773073Y-107305468D01*
X123405707Y-107305468D01*
X123172153Y-107071914D01*
X122571222Y-106823000D01*
X121920778Y-106823000D01*
X121319847Y-107071914D01*
X121127000Y-107264761D01*
X121127000Y-102872376D01*
X123449000Y-102872376D01*
X123449000Y-103375624D01*
X123641585Y-103840565D01*
X123997435Y-104196415D01*
X124462376Y-104389000D01*
X124965624Y-104389000D01*
X125430565Y-104196415D01*
X125786415Y-103840565D01*
X125979000Y-103375624D01*
X125979000Y-102872376D01*
X125786415Y-102407435D01*
X125430565Y-102051585D01*
X124965624Y-101859000D01*
X124462376Y-101859000D01*
X123997435Y-102051585D01*
X123641585Y-102407435D01*
X123449000Y-102872376D01*
X121127000Y-102872376D01*
X121127000Y-100332376D01*
X125989000Y-100332376D01*
X125989000Y-100835624D01*
X126181585Y-101300565D01*
X126537435Y-101656415D01*
X127002376Y-101849000D01*
X127505624Y-101849000D01*
X127970565Y-101656415D01*
X128326415Y-101300565D01*
X128519000Y-100835624D01*
X128519000Y-100332376D01*
X128326415Y-99867435D01*
X127970565Y-99511585D01*
X127505624Y-99319000D01*
X127002376Y-99319000D01*
X126537435Y-99511585D01*
X126181585Y-99867435D01*
X125989000Y-100332376D01*
X121127000Y-100332376D01*
X121127000Y-97534000D01*
X123556023Y-97534000D01*
X123449000Y-97792376D01*
X123449000Y-98295624D01*
X123641585Y-98760565D01*
X123997435Y-99116415D01*
X124462376Y-99309000D01*
X124965624Y-99309000D01*
X125430565Y-99116415D01*
X125786415Y-98760565D01*
X125979000Y-98295624D01*
X125979000Y-97792376D01*
X125871977Y-97534000D01*
X127312289Y-97534000D01*
X127429720Y-97651431D01*
X127810126Y-97809000D01*
X128221874Y-97809000D01*
X128602280Y-97651431D01*
X128893431Y-97360280D01*
X128905921Y-97330126D01*
X129775000Y-97330126D01*
X129775000Y-97741874D01*
X129932569Y-98122280D01*
X130223720Y-98413431D01*
X130604126Y-98571000D01*
X131015874Y-98571000D01*
X131396280Y-98413431D01*
X131687431Y-98122280D01*
X131845000Y-97741874D01*
X131845000Y-97330126D01*
X131687431Y-96949720D01*
X131396280Y-96658569D01*
X131030056Y-96506874D01*
X143731118Y-96506874D01*
X143846371Y-97086292D01*
X144174585Y-97577499D01*
X144665792Y-97905713D01*
X145098954Y-97991874D01*
X145391466Y-97991874D01*
X145824628Y-97905713D01*
X146315835Y-97577499D01*
X146644049Y-97086292D01*
X146759302Y-96506874D01*
X146644049Y-95927456D01*
X146315835Y-95436249D01*
X146297591Y-95424058D01*
X146342975Y-95415031D01*
X146553019Y-95274683D01*
X146693367Y-95064639D01*
X146742650Y-94816874D01*
X146742650Y-93116874D01*
X146693367Y-92869109D01*
X146553019Y-92659065D01*
X146342975Y-92518717D01*
X146095210Y-92469434D01*
X144395210Y-92469434D01*
X144147445Y-92518717D01*
X143937401Y-92659065D01*
X143797053Y-92869109D01*
X143747770Y-93116874D01*
X143747770Y-94816874D01*
X143797053Y-95064639D01*
X143937401Y-95274683D01*
X144147445Y-95415031D01*
X144192829Y-95424058D01*
X144174585Y-95436249D01*
X143846371Y-95927456D01*
X143731118Y-96506874D01*
X131030056Y-96506874D01*
X131015874Y-96501000D01*
X130604126Y-96501000D01*
X130223720Y-96658569D01*
X129932569Y-96949720D01*
X129775000Y-97330126D01*
X128905921Y-97330126D01*
X129051000Y-96979874D01*
X129051000Y-96568126D01*
X128893431Y-96187720D01*
X128602280Y-95896569D01*
X128221874Y-95739000D01*
X127810126Y-95739000D01*
X127429720Y-95896569D01*
X127312289Y-96014000D01*
X121127000Y-96014000D01*
X121127000Y-91127000D01*
X149873000Y-91127000D01*
X149873000Y-92405434D01*
X149873000Y-92405434D01*
G37*
X149873000Y-92405434D02*
X148459210Y-92405434D01*
X148211445Y-92454717D01*
X148001401Y-92595065D01*
X147861053Y-92805109D01*
X147811770Y-93052874D01*
X147811770Y-94752874D01*
X147861053Y-95000639D01*
X148001401Y-95210683D01*
X148211445Y-95351031D01*
X148256829Y-95360058D01*
X148238585Y-95372249D01*
X147910371Y-95863456D01*
X147795118Y-96442874D01*
X147910371Y-97022292D01*
X148238585Y-97513499D01*
X148729792Y-97841713D01*
X149162954Y-97927874D01*
X149455466Y-97927874D01*
X149873000Y-97844822D01*
X149873000Y-104005000D01*
X149858667Y-104005000D01*
X149440091Y-104088260D01*
X148965423Y-104405423D01*
X148648260Y-104880091D01*
X148536887Y-105440000D01*
X148648260Y-105999909D01*
X148965423Y-106474577D01*
X149317758Y-106710000D01*
X148965423Y-106945423D01*
X148648260Y-107420091D01*
X148536887Y-107980000D01*
X148648260Y-108539909D01*
X148965423Y-109014577D01*
X149317758Y-109250000D01*
X148965423Y-109485423D01*
X148648260Y-109960091D01*
X148536887Y-110520000D01*
X148648260Y-111079909D01*
X148965423Y-111554577D01*
X149317758Y-111790000D01*
X148965423Y-112025423D01*
X148648260Y-112500091D01*
X148536887Y-113060000D01*
X148648260Y-113619909D01*
X148965423Y-114094577D01*
X149317758Y-114330000D01*
X148965423Y-114565423D01*
X148648260Y-115040091D01*
X148536887Y-115600000D01*
X148648260Y-116159909D01*
X148965423Y-116634577D01*
X149317758Y-116870000D01*
X148965423Y-117105423D01*
X148648260Y-117580091D01*
X148536887Y-118140000D01*
X148648260Y-118699909D01*
X148965423Y-119174577D01*
X149317758Y-119410000D01*
X148965423Y-119645423D01*
X148648260Y-120120091D01*
X148536887Y-120680000D01*
X148648260Y-121239909D01*
X148965423Y-121714577D01*
X149317758Y-121950000D01*
X148965423Y-122185423D01*
X148781957Y-122460000D01*
X141522848Y-122460000D01*
X141448000Y-122445112D01*
X141373152Y-122460000D01*
X141373148Y-122460000D01*
X141199605Y-122494520D01*
X141151462Y-122504096D01*
X140964418Y-122629076D01*
X140900071Y-122672071D01*
X140857671Y-122735527D01*
X138707528Y-124885671D01*
X138644072Y-124928071D01*
X138601672Y-124991527D01*
X138601671Y-124991528D01*
X138476097Y-125179463D01*
X138417112Y-125476000D01*
X138432001Y-125550851D01*
X138432001Y-126042288D01*
X138314569Y-126159720D01*
X138157000Y-126540126D01*
X138157000Y-126951874D01*
X138314569Y-127332280D01*
X138605720Y-127623431D01*
X138986126Y-127781000D01*
X139397874Y-127781000D01*
X139778280Y-127623431D01*
X140069431Y-127332280D01*
X140227000Y-126951874D01*
X140227000Y-126540126D01*
X140069431Y-126159720D01*
X139952000Y-126042289D01*
X139952000Y-125790801D01*
X141762802Y-123980000D01*
X148781957Y-123980000D01*
X148965423Y-124254577D01*
X149317758Y-124490000D01*
X148965423Y-124725423D01*
X148648260Y-125200091D01*
X148536887Y-125760000D01*
X148648260Y-126319909D01*
X148965423Y-126794577D01*
X149317758Y-127030000D01*
X148965423Y-127265423D01*
X148648260Y-127740091D01*
X148536887Y-128300000D01*
X148601312Y-128623887D01*
X148560198Y-128665001D01*
X136150510Y-128665001D01*
X136223113Y-128300000D01*
X136111740Y-127740091D01*
X135794577Y-127265423D01*
X135442242Y-127030000D01*
X135794577Y-126794577D01*
X136111740Y-126319909D01*
X136223113Y-125760000D01*
X136111740Y-125200091D01*
X135794577Y-124725423D01*
X135442242Y-124490000D01*
X135794577Y-124254577D01*
X136111740Y-123779909D01*
X136223113Y-123220000D01*
X136111740Y-122660091D01*
X135794577Y-122185423D01*
X135442242Y-121950000D01*
X135794577Y-121714577D01*
X136111740Y-121239909D01*
X136223113Y-120680000D01*
X136111740Y-120120091D01*
X135794577Y-119645423D01*
X135442242Y-119410000D01*
X135794577Y-119174577D01*
X136111740Y-118699909D01*
X136223113Y-118140000D01*
X136111740Y-117580091D01*
X135794577Y-117105423D01*
X135442242Y-116870000D01*
X135794577Y-116634577D01*
X136111740Y-116159909D01*
X136223113Y-115600000D01*
X136111740Y-115040091D01*
X135794577Y-114565423D01*
X135442242Y-114330000D01*
X135794577Y-114094577D01*
X136111740Y-113619909D01*
X136223113Y-113060000D01*
X136111740Y-112500091D01*
X135794577Y-112025423D01*
X135442242Y-111790000D01*
X135794577Y-111554577D01*
X136111740Y-111079909D01*
X136223113Y-110520000D01*
X136111740Y-109960091D01*
X135794577Y-109485423D01*
X135442242Y-109250000D01*
X135794577Y-109014577D01*
X136111740Y-108539909D01*
X136223113Y-107980000D01*
X136111740Y-107420091D01*
X135794577Y-106945423D01*
X135442242Y-106710000D01*
X135794577Y-106474577D01*
X136111740Y-105999909D01*
X136223113Y-105440000D01*
X136111740Y-104880091D01*
X135794577Y-104405423D01*
X135319909Y-104088260D01*
X134901333Y-104005000D01*
X134618667Y-104005000D01*
X134200091Y-104088260D01*
X133725423Y-104405423D01*
X133408260Y-104880091D01*
X133296887Y-105440000D01*
X133408260Y-105999909D01*
X133725423Y-106474577D01*
X134077758Y-106710000D01*
X133725423Y-106945423D01*
X133408260Y-107420091D01*
X133296887Y-107980000D01*
X133408260Y-108539909D01*
X133725423Y-109014577D01*
X134077758Y-109250000D01*
X133725423Y-109485423D01*
X133408260Y-109960091D01*
X133296887Y-110520000D01*
X133387787Y-110976986D01*
X130575000Y-108164199D01*
X130575000Y-107998126D01*
X130417431Y-107617720D01*
X130126280Y-107326569D01*
X129745874Y-107169000D01*
X129334126Y-107169000D01*
X128953720Y-107326569D01*
X128662569Y-107617720D01*
X128505000Y-107998126D01*
X128505000Y-108409874D01*
X128662569Y-108790280D01*
X128953720Y-109081431D01*
X129334126Y-109239000D01*
X129500199Y-109239000D01*
X133300920Y-113039722D01*
X133296887Y-113060000D01*
X133408260Y-113619909D01*
X133725423Y-114094577D01*
X134077758Y-114330000D01*
X133725423Y-114565423D01*
X133408260Y-115040091D01*
X133296887Y-115600000D01*
X133408260Y-116159909D01*
X133725423Y-116634577D01*
X134077758Y-116870000D01*
X133725423Y-117105423D01*
X133408260Y-117580091D01*
X133296887Y-118140000D01*
X133408260Y-118699909D01*
X133725423Y-119174577D01*
X134077758Y-119410000D01*
X133725423Y-119645423D01*
X133408260Y-120120091D01*
X133296887Y-120680000D01*
X133408260Y-121239909D01*
X133725423Y-121714577D01*
X134077758Y-121950000D01*
X133725423Y-122185423D01*
X133408260Y-122660091D01*
X133296887Y-123220000D01*
X133408260Y-123779909D01*
X133725423Y-124254577D01*
X134077758Y-124490000D01*
X133725423Y-124725423D01*
X133408260Y-125200091D01*
X133296887Y-125760000D01*
X133408260Y-126319909D01*
X133725423Y-126794577D01*
X134077758Y-127030000D01*
X133725423Y-127265423D01*
X133408260Y-127740091D01*
X133296887Y-128300000D01*
X133369490Y-128665001D01*
X128457847Y-128665001D01*
X128382999Y-128650113D01*
X128308151Y-128665001D01*
X128308147Y-128665001D01*
X128134604Y-128699521D01*
X128086461Y-128709097D01*
X127973654Y-128784473D01*
X127835070Y-128877072D01*
X127792670Y-128940528D01*
X121127000Y-135606198D01*
X121127000Y-126581801D01*
X122269849Y-125438952D01*
X122371585Y-125684565D01*
X122727435Y-126040415D01*
X123192376Y-126233000D01*
X123695624Y-126233000D01*
X124160565Y-126040415D01*
X124516415Y-125684565D01*
X124709000Y-125219624D01*
X124709000Y-124716376D01*
X124516415Y-124251435D01*
X124160565Y-123895585D01*
X123914952Y-123793849D01*
X130849802Y-116859000D01*
X131015874Y-116859000D01*
X131396280Y-116701431D01*
X131687431Y-116410280D01*
X131845000Y-116029874D01*
X131845000Y-115618126D01*
X131687431Y-115237720D01*
X131396280Y-114946569D01*
X131015874Y-114789000D01*
X130604126Y-114789000D01*
X130223720Y-114946569D01*
X129932569Y-115237720D01*
X129775000Y-115618126D01*
X129775000Y-115784198D01*
X121127000Y-124432199D01*
X121127000Y-123693000D01*
X121155624Y-123693000D01*
X121620565Y-123500415D01*
X121976415Y-123144565D01*
X122169000Y-122679624D01*
X122169000Y-122176376D01*
X121976415Y-121711435D01*
X121620565Y-121355585D01*
X121155624Y-121163000D01*
X121127000Y-121163000D01*
X121127000Y-119636376D01*
X122179000Y-119636376D01*
X122179000Y-120139624D01*
X122371585Y-120604565D01*
X122727435Y-120960415D01*
X123192376Y-121153000D01*
X123695624Y-121153000D01*
X124160565Y-120960415D01*
X124516415Y-120604565D01*
X124709000Y-120139624D01*
X124709000Y-119636376D01*
X124516415Y-119171435D01*
X124160565Y-118815585D01*
X123695624Y-118623000D01*
X123192376Y-118623000D01*
X122727435Y-118815585D01*
X122371585Y-119171435D01*
X122179000Y-119636376D01*
X121127000Y-119636376D01*
X121127000Y-116151239D01*
X121319847Y-116344086D01*
X121920778Y-116593000D01*
X122571222Y-116593000D01*
X123172153Y-116344086D01*
X123405707Y-116110532D01*
X125773073Y-116110532D01*
X125871736Y-116377387D01*
X126481461Y-116603908D01*
X127131460Y-116579856D01*
X127620264Y-116377387D01*
X127718927Y-116110532D01*
X126746000Y-115137605D01*
X125773073Y-116110532D01*
X123405707Y-116110532D01*
X123632086Y-115884153D01*
X123881000Y-115283222D01*
X123881000Y-114693461D01*
X125100092Y-114693461D01*
X125124144Y-115343460D01*
X125326613Y-115832264D01*
X125593468Y-115930927D01*
X126566395Y-114958000D01*
X126925605Y-114958000D01*
X127898532Y-115930927D01*
X128165387Y-115832264D01*
X128391908Y-115222539D01*
X128367856Y-114572540D01*
X128165387Y-114083736D01*
X127898532Y-113985073D01*
X126925605Y-114958000D01*
X126566395Y-114958000D01*
X125593468Y-113985073D01*
X125326613Y-114083736D01*
X125100092Y-114693461D01*
X123881000Y-114693461D01*
X123881000Y-114632778D01*
X123632086Y-114031847D01*
X123405707Y-113805468D01*
X125773073Y-113805468D01*
X126746000Y-114778395D01*
X127718927Y-113805468D01*
X127620264Y-113538613D01*
X127010539Y-113312092D01*
X126360540Y-113336144D01*
X125871736Y-113538613D01*
X125773073Y-113805468D01*
X123405707Y-113805468D01*
X123172153Y-113571914D01*
X123006000Y-113503091D01*
X123006000Y-109912909D01*
X123172153Y-109844086D01*
X123405707Y-109610532D01*
X125773073Y-109610532D01*
X125871736Y-109877387D01*
X126481461Y-110103908D01*
X127131460Y-110079856D01*
X127620264Y-109877387D01*
X127718927Y-109610532D01*
X126746000Y-108637605D01*
X125773073Y-109610532D01*
X123405707Y-109610532D01*
X123632086Y-109384153D01*
X123881000Y-108783222D01*
X123881000Y-108193461D01*
X125100092Y-108193461D01*
X125124144Y-108843460D01*
X125326613Y-109332264D01*
X125593468Y-109430927D01*
X126566395Y-108458000D01*
X126925605Y-108458000D01*
X127898532Y-109430927D01*
X128165387Y-109332264D01*
X128391908Y-108722539D01*
X128367856Y-108072540D01*
X128165387Y-107583736D01*
X127898532Y-107485073D01*
X126925605Y-108458000D01*
X126566395Y-108458000D01*
X125593468Y-107485073D01*
X125326613Y-107583736D01*
X125100092Y-108193461D01*
X123881000Y-108193461D01*
X123881000Y-108132778D01*
X123632086Y-107531847D01*
X123405707Y-107305468D01*
X125773073Y-107305468D01*
X126746000Y-108278395D01*
X127718927Y-107305468D01*
X127620264Y-107038613D01*
X127010539Y-106812092D01*
X126360540Y-106836144D01*
X125871736Y-107038613D01*
X125773073Y-107305468D01*
X123405707Y-107305468D01*
X123172153Y-107071914D01*
X122571222Y-106823000D01*
X121920778Y-106823000D01*
X121319847Y-107071914D01*
X121127000Y-107264761D01*
X121127000Y-102872376D01*
X123449000Y-102872376D01*
X123449000Y-103375624D01*
X123641585Y-103840565D01*
X123997435Y-104196415D01*
X124462376Y-104389000D01*
X124965624Y-104389000D01*
X125430565Y-104196415D01*
X125786415Y-103840565D01*
X125979000Y-103375624D01*
X125979000Y-102872376D01*
X125786415Y-102407435D01*
X125430565Y-102051585D01*
X124965624Y-101859000D01*
X124462376Y-101859000D01*
X123997435Y-102051585D01*
X123641585Y-102407435D01*
X123449000Y-102872376D01*
X121127000Y-102872376D01*
X121127000Y-100332376D01*
X125989000Y-100332376D01*
X125989000Y-100835624D01*
X126181585Y-101300565D01*
X126537435Y-101656415D01*
X127002376Y-101849000D01*
X127505624Y-101849000D01*
X127970565Y-101656415D01*
X128326415Y-101300565D01*
X128519000Y-100835624D01*
X128519000Y-100332376D01*
X128326415Y-99867435D01*
X127970565Y-99511585D01*
X127505624Y-99319000D01*
X127002376Y-99319000D01*
X126537435Y-99511585D01*
X126181585Y-99867435D01*
X125989000Y-100332376D01*
X121127000Y-100332376D01*
X121127000Y-97534000D01*
X123556023Y-97534000D01*
X123449000Y-97792376D01*
X123449000Y-98295624D01*
X123641585Y-98760565D01*
X123997435Y-99116415D01*
X124462376Y-99309000D01*
X124965624Y-99309000D01*
X125430565Y-99116415D01*
X125786415Y-98760565D01*
X125979000Y-98295624D01*
X125979000Y-97792376D01*
X125871977Y-97534000D01*
X127312289Y-97534000D01*
X127429720Y-97651431D01*
X127810126Y-97809000D01*
X128221874Y-97809000D01*
X128602280Y-97651431D01*
X128893431Y-97360280D01*
X128905921Y-97330126D01*
X129775000Y-97330126D01*
X129775000Y-97741874D01*
X129932569Y-98122280D01*
X130223720Y-98413431D01*
X130604126Y-98571000D01*
X131015874Y-98571000D01*
X131396280Y-98413431D01*
X131687431Y-98122280D01*
X131845000Y-97741874D01*
X131845000Y-97330126D01*
X131687431Y-96949720D01*
X131396280Y-96658569D01*
X131030056Y-96506874D01*
X143731118Y-96506874D01*
X143846371Y-97086292D01*
X144174585Y-97577499D01*
X144665792Y-97905713D01*
X145098954Y-97991874D01*
X145391466Y-97991874D01*
X145824628Y-97905713D01*
X146315835Y-97577499D01*
X146644049Y-97086292D01*
X146759302Y-96506874D01*
X146644049Y-95927456D01*
X146315835Y-95436249D01*
X146297591Y-95424058D01*
X146342975Y-95415031D01*
X146553019Y-95274683D01*
X146693367Y-95064639D01*
X146742650Y-94816874D01*
X146742650Y-93116874D01*
X146693367Y-92869109D01*
X146553019Y-92659065D01*
X146342975Y-92518717D01*
X146095210Y-92469434D01*
X144395210Y-92469434D01*
X144147445Y-92518717D01*
X143937401Y-92659065D01*
X143797053Y-92869109D01*
X143747770Y-93116874D01*
X143747770Y-94816874D01*
X143797053Y-95064639D01*
X143937401Y-95274683D01*
X144147445Y-95415031D01*
X144192829Y-95424058D01*
X144174585Y-95436249D01*
X143846371Y-95927456D01*
X143731118Y-96506874D01*
X131030056Y-96506874D01*
X131015874Y-96501000D01*
X130604126Y-96501000D01*
X130223720Y-96658569D01*
X129932569Y-96949720D01*
X129775000Y-97330126D01*
X128905921Y-97330126D01*
X129051000Y-96979874D01*
X129051000Y-96568126D01*
X128893431Y-96187720D01*
X128602280Y-95896569D01*
X128221874Y-95739000D01*
X127810126Y-95739000D01*
X127429720Y-95896569D01*
X127312289Y-96014000D01*
X121127000Y-96014000D01*
X121127000Y-91127000D01*
X149873000Y-91127000D01*
X149873000Y-92405434D01*
G04 #@! TO.N,/ISO+12V*
G36*
X149873000Y-39635369D02*
X149857624Y-39629000D01*
X149354376Y-39629000D01*
X148889435Y-39821585D01*
X148533585Y-40177435D01*
X148341000Y-40642376D01*
X148341000Y-41145624D01*
X148533585Y-41610565D01*
X148889435Y-41966415D01*
X149354376Y-42159000D01*
X149857624Y-42159000D01*
X149873000Y-42152631D01*
X149873000Y-87873000D01*
X120127000Y-87873000D01*
X120127000Y-76064355D01*
X124462000Y-72885355D01*
X124462000Y-78665153D01*
X124447112Y-78740000D01*
X124462000Y-78814847D01*
X124462000Y-78814851D01*
X124506096Y-79036536D01*
X124674071Y-79287929D01*
X124737530Y-79330331D01*
X127489000Y-82081802D01*
X127489000Y-82247874D01*
X127646569Y-82628280D01*
X127937720Y-82919431D01*
X128318126Y-83077000D01*
X128729874Y-83077000D01*
X129110280Y-82919431D01*
X129401431Y-82628280D01*
X129559000Y-82247874D01*
X129559000Y-82227437D01*
X129747991Y-82149155D01*
X130039142Y-81858004D01*
X130196711Y-81477598D01*
X130196711Y-81065850D01*
X130039142Y-80685444D01*
X129747991Y-80394293D01*
X129367585Y-80236724D01*
X129201514Y-80236724D01*
X127946112Y-78981322D01*
X136913000Y-78981322D01*
X136913000Y-79830678D01*
X137238034Y-80615380D01*
X137838620Y-81215966D01*
X138623322Y-81541000D01*
X139472678Y-81541000D01*
X140257380Y-81215966D01*
X140857966Y-80615380D01*
X141183000Y-79830678D01*
X141183000Y-78981322D01*
X140857966Y-78196620D01*
X140257380Y-77596034D01*
X139472678Y-77271000D01*
X138623322Y-77271000D01*
X137838620Y-77596034D01*
X137238034Y-78196620D01*
X136913000Y-78981322D01*
X127946112Y-78981322D01*
X126432010Y-77467222D01*
X126432010Y-76756126D01*
X131235500Y-76756126D01*
X131235500Y-77167874D01*
X131393069Y-77548280D01*
X131684220Y-77839431D01*
X132064626Y-77997000D01*
X132476374Y-77997000D01*
X132856780Y-77839431D01*
X133147931Y-77548280D01*
X133297931Y-77186147D01*
X133593300Y-76890778D01*
X145431000Y-76890778D01*
X145431000Y-77541222D01*
X145679914Y-78142153D01*
X146139847Y-78602086D01*
X146740778Y-78851000D01*
X147391222Y-78851000D01*
X147992153Y-78602086D01*
X148452086Y-78142153D01*
X148701000Y-77541222D01*
X148701000Y-76890778D01*
X148452086Y-76289847D01*
X147992153Y-75829914D01*
X147391222Y-75581000D01*
X146740778Y-75581000D01*
X146139847Y-75829914D01*
X145679914Y-76289847D01*
X145431000Y-76890778D01*
X133593300Y-76890778D01*
X144645657Y-65838422D01*
X144719549Y-65789049D01*
X144915152Y-65496310D01*
X144966500Y-65238165D01*
X144966500Y-65238161D01*
X144983837Y-65151001D01*
X144966500Y-65063841D01*
X144966500Y-64766507D01*
X145116500Y-64404374D01*
X145116500Y-63992626D01*
X144958931Y-63612220D01*
X144667780Y-63321069D01*
X144287374Y-63163500D01*
X143875626Y-63163500D01*
X143495220Y-63321069D01*
X143204069Y-63612220D01*
X143046500Y-63992626D01*
X143046500Y-64404374D01*
X143196500Y-64766508D01*
X143196500Y-64784421D01*
X132046353Y-75934569D01*
X131684220Y-76084569D01*
X131393069Y-76375720D01*
X131235500Y-76756126D01*
X126432010Y-76756126D01*
X126432010Y-71440681D01*
X135075103Y-65102413D01*
X135108578Y-65065877D01*
X135127000Y-65000000D01*
X135127000Y-58164000D01*
X139910338Y-58164000D01*
X139985185Y-58178888D01*
X140060032Y-58164000D01*
X140060037Y-58164000D01*
X140281722Y-58119904D01*
X140533114Y-57951929D01*
X140575516Y-57888470D01*
X141454473Y-57009514D01*
X141517929Y-56967114D01*
X141592126Y-56856071D01*
X141685904Y-56715723D01*
X141713199Y-56578500D01*
X141714314Y-56572897D01*
X141847431Y-56439780D01*
X142005000Y-56059374D01*
X142005000Y-55647626D01*
X141847431Y-55267220D01*
X141556280Y-54976069D01*
X141175874Y-54818500D01*
X140764126Y-54818500D01*
X140383720Y-54976069D01*
X140092569Y-55267220D01*
X139935000Y-55647626D01*
X139935000Y-56059374D01*
X140028728Y-56285655D01*
X139846000Y-56468384D01*
X139846000Y-56372626D01*
X139688431Y-55992220D01*
X139397280Y-55701069D01*
X139016874Y-55543500D01*
X138605126Y-55543500D01*
X138224720Y-55701069D01*
X138107289Y-55818500D01*
X135127000Y-55818500D01*
X135127000Y-51991126D01*
X141776500Y-51991126D01*
X141776500Y-52402874D01*
X141934069Y-52783280D01*
X142225220Y-53074431D01*
X142605626Y-53232000D01*
X143017374Y-53232000D01*
X143397780Y-53074431D01*
X143515211Y-52957000D01*
X144387653Y-52957000D01*
X144462500Y-52971888D01*
X144537347Y-52957000D01*
X144537352Y-52957000D01*
X144759037Y-52912904D01*
X145010429Y-52744929D01*
X145052831Y-52681470D01*
X145835802Y-51898500D01*
X146001874Y-51898500D01*
X146382280Y-51740931D01*
X146673431Y-51449780D01*
X146831000Y-51069374D01*
X146831000Y-50657626D01*
X146673431Y-50277220D01*
X146382280Y-49986069D01*
X146001874Y-49828500D01*
X145590126Y-49828500D01*
X145209720Y-49986069D01*
X144918569Y-50277220D01*
X144761000Y-50657626D01*
X144761000Y-50823698D01*
X144147699Y-51437000D01*
X143515211Y-51437000D01*
X143397780Y-51319569D01*
X143017374Y-51162000D01*
X142605626Y-51162000D01*
X142225220Y-51319569D01*
X141934069Y-51610720D01*
X141776500Y-51991126D01*
X135127000Y-51991126D01*
X135127000Y-49324126D01*
X140443000Y-49324126D01*
X140443000Y-49735874D01*
X140600569Y-50116280D01*
X140891720Y-50407431D01*
X141272126Y-50565000D01*
X141683874Y-50565000D01*
X142064280Y-50407431D01*
X142355431Y-50116280D01*
X142513000Y-49735874D01*
X142513000Y-49324126D01*
X142355431Y-48943720D01*
X142064280Y-48652569D01*
X141683874Y-48495000D01*
X141272126Y-48495000D01*
X140891720Y-48652569D01*
X140600569Y-48943720D01*
X140443000Y-49324126D01*
X135127000Y-49324126D01*
X135127000Y-47546126D01*
X142221000Y-47546126D01*
X142221000Y-47957874D01*
X142378569Y-48338280D01*
X142669720Y-48629431D01*
X143050126Y-48787000D01*
X143461874Y-48787000D01*
X143842280Y-48629431D01*
X144133431Y-48338280D01*
X144291000Y-47957874D01*
X144291000Y-47546126D01*
X144133431Y-47165720D01*
X144016000Y-47048289D01*
X144016000Y-46288801D01*
X146073911Y-44230891D01*
X146349435Y-44506415D01*
X146814376Y-44699000D01*
X147317624Y-44699000D01*
X147782565Y-44506415D01*
X148138415Y-44150565D01*
X148331000Y-43685624D01*
X148331000Y-43182376D01*
X148138415Y-42717435D01*
X147782565Y-42361585D01*
X147317624Y-42169000D01*
X146814376Y-42169000D01*
X146349435Y-42361585D01*
X146037020Y-42674000D01*
X145870846Y-42674000D01*
X145795999Y-42659112D01*
X145721152Y-42674000D01*
X145721148Y-42674000D01*
X145499463Y-42718096D01*
X145499461Y-42718097D01*
X145499462Y-42718097D01*
X145311526Y-42843671D01*
X145311524Y-42843673D01*
X145248071Y-42886071D01*
X145205673Y-42949524D01*
X142771528Y-45383671D01*
X142708072Y-45426071D01*
X142665672Y-45489527D01*
X142665671Y-45489528D01*
X142540097Y-45677463D01*
X142481112Y-45974000D01*
X142496001Y-46048852D01*
X142496000Y-47048289D01*
X142378569Y-47165720D01*
X142221000Y-47546126D01*
X135127000Y-47546126D01*
X135127000Y-40642376D01*
X143261000Y-40642376D01*
X143261000Y-41145624D01*
X143453585Y-41610565D01*
X143809435Y-41966415D01*
X144274376Y-42159000D01*
X144777624Y-42159000D01*
X145242565Y-41966415D01*
X145598415Y-41610565D01*
X145791000Y-41145624D01*
X145791000Y-40642376D01*
X145598415Y-40177435D01*
X145242565Y-39821585D01*
X144777624Y-39629000D01*
X144274376Y-39629000D01*
X143809435Y-39821585D01*
X143453585Y-40177435D01*
X143261000Y-40642376D01*
X135127000Y-40642376D01*
X135127000Y-38127000D01*
X149873000Y-38127000D01*
X149873000Y-39635369D01*
X149873000Y-39635369D01*
G37*
X149873000Y-39635369D02*
X149857624Y-39629000D01*
X149354376Y-39629000D01*
X148889435Y-39821585D01*
X148533585Y-40177435D01*
X148341000Y-40642376D01*
X148341000Y-41145624D01*
X148533585Y-41610565D01*
X148889435Y-41966415D01*
X149354376Y-42159000D01*
X149857624Y-42159000D01*
X149873000Y-42152631D01*
X149873000Y-87873000D01*
X120127000Y-87873000D01*
X120127000Y-76064355D01*
X124462000Y-72885355D01*
X124462000Y-78665153D01*
X124447112Y-78740000D01*
X124462000Y-78814847D01*
X124462000Y-78814851D01*
X124506096Y-79036536D01*
X124674071Y-79287929D01*
X124737530Y-79330331D01*
X127489000Y-82081802D01*
X127489000Y-82247874D01*
X127646569Y-82628280D01*
X127937720Y-82919431D01*
X128318126Y-83077000D01*
X128729874Y-83077000D01*
X129110280Y-82919431D01*
X129401431Y-82628280D01*
X129559000Y-82247874D01*
X129559000Y-82227437D01*
X129747991Y-82149155D01*
X130039142Y-81858004D01*
X130196711Y-81477598D01*
X130196711Y-81065850D01*
X130039142Y-80685444D01*
X129747991Y-80394293D01*
X129367585Y-80236724D01*
X129201514Y-80236724D01*
X127946112Y-78981322D01*
X136913000Y-78981322D01*
X136913000Y-79830678D01*
X137238034Y-80615380D01*
X137838620Y-81215966D01*
X138623322Y-81541000D01*
X139472678Y-81541000D01*
X140257380Y-81215966D01*
X140857966Y-80615380D01*
X141183000Y-79830678D01*
X141183000Y-78981322D01*
X140857966Y-78196620D01*
X140257380Y-77596034D01*
X139472678Y-77271000D01*
X138623322Y-77271000D01*
X137838620Y-77596034D01*
X137238034Y-78196620D01*
X136913000Y-78981322D01*
X127946112Y-78981322D01*
X126432010Y-77467222D01*
X126432010Y-76756126D01*
X131235500Y-76756126D01*
X131235500Y-77167874D01*
X131393069Y-77548280D01*
X131684220Y-77839431D01*
X132064626Y-77997000D01*
X132476374Y-77997000D01*
X132856780Y-77839431D01*
X133147931Y-77548280D01*
X133297931Y-77186147D01*
X133593300Y-76890778D01*
X145431000Y-76890778D01*
X145431000Y-77541222D01*
X145679914Y-78142153D01*
X146139847Y-78602086D01*
X146740778Y-78851000D01*
X147391222Y-78851000D01*
X147992153Y-78602086D01*
X148452086Y-78142153D01*
X148701000Y-77541222D01*
X148701000Y-76890778D01*
X148452086Y-76289847D01*
X147992153Y-75829914D01*
X147391222Y-75581000D01*
X146740778Y-75581000D01*
X146139847Y-75829914D01*
X145679914Y-76289847D01*
X145431000Y-76890778D01*
X133593300Y-76890778D01*
X144645657Y-65838422D01*
X144719549Y-65789049D01*
X144915152Y-65496310D01*
X144966500Y-65238165D01*
X144966500Y-65238161D01*
X144983837Y-65151001D01*
X144966500Y-65063841D01*
X144966500Y-64766507D01*
X145116500Y-64404374D01*
X145116500Y-63992626D01*
X144958931Y-63612220D01*
X144667780Y-63321069D01*
X144287374Y-63163500D01*
X143875626Y-63163500D01*
X143495220Y-63321069D01*
X143204069Y-63612220D01*
X143046500Y-63992626D01*
X143046500Y-64404374D01*
X143196500Y-64766508D01*
X143196500Y-64784421D01*
X132046353Y-75934569D01*
X131684220Y-76084569D01*
X131393069Y-76375720D01*
X131235500Y-76756126D01*
X126432010Y-76756126D01*
X126432010Y-71440681D01*
X135075103Y-65102413D01*
X135108578Y-65065877D01*
X135127000Y-65000000D01*
X135127000Y-58164000D01*
X139910338Y-58164000D01*
X139985185Y-58178888D01*
X140060032Y-58164000D01*
X140060037Y-58164000D01*
X140281722Y-58119904D01*
X140533114Y-57951929D01*
X140575516Y-57888470D01*
X141454473Y-57009514D01*
X141517929Y-56967114D01*
X141592126Y-56856071D01*
X141685904Y-56715723D01*
X141713199Y-56578500D01*
X141714314Y-56572897D01*
X141847431Y-56439780D01*
X142005000Y-56059374D01*
X142005000Y-55647626D01*
X141847431Y-55267220D01*
X141556280Y-54976069D01*
X141175874Y-54818500D01*
X140764126Y-54818500D01*
X140383720Y-54976069D01*
X140092569Y-55267220D01*
X139935000Y-55647626D01*
X139935000Y-56059374D01*
X140028728Y-56285655D01*
X139846000Y-56468384D01*
X139846000Y-56372626D01*
X139688431Y-55992220D01*
X139397280Y-55701069D01*
X139016874Y-55543500D01*
X138605126Y-55543500D01*
X138224720Y-55701069D01*
X138107289Y-55818500D01*
X135127000Y-55818500D01*
X135127000Y-51991126D01*
X141776500Y-51991126D01*
X141776500Y-52402874D01*
X141934069Y-52783280D01*
X142225220Y-53074431D01*
X142605626Y-53232000D01*
X143017374Y-53232000D01*
X143397780Y-53074431D01*
X143515211Y-52957000D01*
X144387653Y-52957000D01*
X144462500Y-52971888D01*
X144537347Y-52957000D01*
X144537352Y-52957000D01*
X144759037Y-52912904D01*
X145010429Y-52744929D01*
X145052831Y-52681470D01*
X145835802Y-51898500D01*
X146001874Y-51898500D01*
X146382280Y-51740931D01*
X146673431Y-51449780D01*
X146831000Y-51069374D01*
X146831000Y-50657626D01*
X146673431Y-50277220D01*
X146382280Y-49986069D01*
X146001874Y-49828500D01*
X145590126Y-49828500D01*
X145209720Y-49986069D01*
X144918569Y-50277220D01*
X144761000Y-50657626D01*
X144761000Y-50823698D01*
X144147699Y-51437000D01*
X143515211Y-51437000D01*
X143397780Y-51319569D01*
X143017374Y-51162000D01*
X142605626Y-51162000D01*
X142225220Y-51319569D01*
X141934069Y-51610720D01*
X141776500Y-51991126D01*
X135127000Y-51991126D01*
X135127000Y-49324126D01*
X140443000Y-49324126D01*
X140443000Y-49735874D01*
X140600569Y-50116280D01*
X140891720Y-50407431D01*
X141272126Y-50565000D01*
X141683874Y-50565000D01*
X142064280Y-50407431D01*
X142355431Y-50116280D01*
X142513000Y-49735874D01*
X142513000Y-49324126D01*
X142355431Y-48943720D01*
X142064280Y-48652569D01*
X141683874Y-48495000D01*
X141272126Y-48495000D01*
X140891720Y-48652569D01*
X140600569Y-48943720D01*
X140443000Y-49324126D01*
X135127000Y-49324126D01*
X135127000Y-47546126D01*
X142221000Y-47546126D01*
X142221000Y-47957874D01*
X142378569Y-48338280D01*
X142669720Y-48629431D01*
X143050126Y-48787000D01*
X143461874Y-48787000D01*
X143842280Y-48629431D01*
X144133431Y-48338280D01*
X144291000Y-47957874D01*
X144291000Y-47546126D01*
X144133431Y-47165720D01*
X144016000Y-47048289D01*
X144016000Y-46288801D01*
X146073911Y-44230891D01*
X146349435Y-44506415D01*
X146814376Y-44699000D01*
X147317624Y-44699000D01*
X147782565Y-44506415D01*
X148138415Y-44150565D01*
X148331000Y-43685624D01*
X148331000Y-43182376D01*
X148138415Y-42717435D01*
X147782565Y-42361585D01*
X147317624Y-42169000D01*
X146814376Y-42169000D01*
X146349435Y-42361585D01*
X146037020Y-42674000D01*
X145870846Y-42674000D01*
X145795999Y-42659112D01*
X145721152Y-42674000D01*
X145721148Y-42674000D01*
X145499463Y-42718096D01*
X145499461Y-42718097D01*
X145499462Y-42718097D01*
X145311526Y-42843671D01*
X145311524Y-42843673D01*
X145248071Y-42886071D01*
X145205673Y-42949524D01*
X142771528Y-45383671D01*
X142708072Y-45426071D01*
X142665672Y-45489527D01*
X142665671Y-45489528D01*
X142540097Y-45677463D01*
X142481112Y-45974000D01*
X142496001Y-46048852D01*
X142496000Y-47048289D01*
X142378569Y-47165720D01*
X142221000Y-47546126D01*
X135127000Y-47546126D01*
X135127000Y-40642376D01*
X143261000Y-40642376D01*
X143261000Y-41145624D01*
X143453585Y-41610565D01*
X143809435Y-41966415D01*
X144274376Y-42159000D01*
X144777624Y-42159000D01*
X145242565Y-41966415D01*
X145598415Y-41610565D01*
X145791000Y-41145624D01*
X145791000Y-40642376D01*
X145598415Y-40177435D01*
X145242565Y-39821585D01*
X144777624Y-39629000D01*
X144274376Y-39629000D01*
X143809435Y-39821585D01*
X143453585Y-40177435D01*
X143261000Y-40642376D01*
X135127000Y-40642376D01*
X135127000Y-38127000D01*
X149873000Y-38127000D01*
X149873000Y-39635369D01*
G04 #@! TD*
M02*
